%TF.GenerationSoftware,KiCad,Pcbnew,10.0.6*%
%TF.CreationDate,2026-09-10T10:46:44+08:00*%
%TF.ProjectId,FD-MAIN-01,46442d4d-4149-44e2-9d30-312e6b696361,K / eight-layer engineering review*%
%TF.SameCoordinates,Original*%
%TF.FileFunction,Drillmap*%
%TF.FilePolarity,Positive*%
%FSLAX45Y45*%
G04 Gerber Fmt 4.5, Leading zero omitted, Abs format (unit mm)*
G04 Created by KiCad (PCBNEW 10.0.6) date 2026-09-10 10:46:44*
%MOMM*%
%LPD*%
G01*
G04 APERTURE LIST*
%ADD10C,0.050000*%
%ADD11C,0.200000*%
%ADD12C,0.100000*%
G04 APERTURE END LIST*
D10*
X8000000Y-5500000D02*
G75*
G02*
X8200000Y-5300000I200000J0D01*
G01*
X8000000Y-14500000D02*
X8000000Y-5500000D01*
X8200000Y-5300000D02*
X11800000Y-5300000D01*
X8200000Y-14700000D02*
G75*
G02*
X8000000Y-14500000I0J200000D01*
G01*
X11800000Y-5300000D02*
G75*
G02*
X12000000Y-5500000I0J-200000D01*
G01*
X11800000Y-14700000D02*
X8200000Y-14700000D01*
X12000000Y-5500000D02*
X12000000Y-14500000D01*
X12000000Y-14500000D02*
G75*
G02*
X11800000Y-14700000I-200000J0D01*
G01*
D11*
D12*
X8032500Y-6767500D02*
X8047500Y-6782500D01*
X8047500Y-6767500D02*
X8032500Y-6782500D01*
X8037500Y-6172500D02*
X8052500Y-6187500D01*
X8052500Y-6172500D02*
X8037500Y-6187500D01*
X8037500Y-6727500D02*
X8052500Y-6742500D01*
X8052500Y-6727500D02*
X8037500Y-6742500D01*
X8077500Y-6427500D02*
X8092500Y-6442500D01*
X8092500Y-6427500D02*
X8077500Y-6442500D01*
X8152500Y-7092500D02*
X8167500Y-7107500D01*
X8167500Y-7092500D02*
X8152500Y-7107500D01*
X8152500Y-9907500D02*
X8167500Y-9922500D01*
X8167500Y-9907500D02*
X8152500Y-9922500D01*
X8152500Y-10177500D02*
X8167500Y-10192500D01*
X8167500Y-10177500D02*
X8152500Y-10192500D01*
X8177500Y-8117500D02*
X8192500Y-8132500D01*
X8192500Y-8117500D02*
X8177500Y-8132500D01*
X8212500Y-6165000D02*
X8227500Y-6180000D01*
X8227500Y-6165000D02*
X8212500Y-6180000D01*
X8217500Y-6392500D02*
X8232500Y-6407500D01*
X8232500Y-6392500D02*
X8217500Y-6407500D01*
X8217500Y-8182500D02*
X8232500Y-8197500D01*
X8232500Y-8182500D02*
X8217500Y-8197500D01*
X8220000Y-8130000D02*
X8235000Y-8145000D01*
X8235000Y-8130000D02*
X8220000Y-8145000D01*
X8222500Y-6267500D02*
X8237500Y-6282500D01*
X8237500Y-6267500D02*
X8222500Y-6282500D01*
X8252500Y-6837500D02*
X8267500Y-6852500D01*
X8267500Y-6837500D02*
X8252500Y-6852500D01*
X8267500Y-6997500D02*
X8282500Y-7012500D01*
X8282500Y-6997500D02*
X8267500Y-7012500D01*
X8272500Y-6912500D02*
X8287500Y-6927500D01*
X8287500Y-6912500D02*
X8272500Y-6927500D01*
X8272500Y-6957500D02*
X8287500Y-6972500D01*
X8287500Y-6957500D02*
X8272500Y-6972500D01*
X8297500Y-7447500D02*
X8312500Y-7462500D01*
X8312500Y-7447500D02*
X8297500Y-7462500D01*
X8297500Y-7817500D02*
X8312500Y-7832500D01*
X8312500Y-7817500D02*
X8297500Y-7832500D01*
X8297500Y-9277500D02*
X8312500Y-9292500D01*
X8312500Y-9277500D02*
X8297500Y-9292500D01*
X8307500Y-7007500D02*
X8322500Y-7022500D01*
X8322500Y-7007500D02*
X8307500Y-7022500D01*
X8312500Y-6582500D02*
X8327500Y-6597500D01*
X8327500Y-6582500D02*
X8312500Y-6597500D01*
X8312500Y-8382500D02*
X8327500Y-8397500D01*
X8327500Y-8382500D02*
X8312500Y-8397500D01*
X8327500Y-13657500D02*
X8342500Y-13672500D01*
X8342500Y-13657500D02*
X8327500Y-13672500D01*
X8327500Y-13762500D02*
X8342500Y-13777500D01*
X8342500Y-13762500D02*
X8327500Y-13777500D01*
X8337500Y-6272500D02*
X8352500Y-6287500D01*
X8352500Y-6272500D02*
X8337500Y-6287500D01*
X8337500Y-6502500D02*
X8352500Y-6517500D01*
X8352500Y-6502500D02*
X8337500Y-6517500D01*
X8347500Y-8657500D02*
X8362500Y-8672500D01*
X8362500Y-8657500D02*
X8347500Y-8672500D01*
X8362500Y-9022500D02*
X8377500Y-9037500D01*
X8377500Y-9022500D02*
X8362500Y-9037500D01*
X8367500Y-7427500D02*
X8382500Y-7442500D01*
X8382500Y-7427500D02*
X8367500Y-7442500D01*
X8382500Y-8817500D02*
X8397500Y-8832500D01*
X8397500Y-8817500D02*
X8382500Y-8832500D01*
X8407500Y-6947500D02*
X8422500Y-6962500D01*
X8422500Y-6947500D02*
X8407500Y-6962500D01*
X8422500Y-6497500D02*
X8437500Y-6512500D01*
X8437500Y-6497500D02*
X8422500Y-6512500D01*
X8457500Y-6912500D02*
X8472500Y-6927500D01*
X8472500Y-6912500D02*
X8457500Y-6927500D01*
X8462500Y-6577500D02*
X8477500Y-6592500D01*
X8477500Y-6577500D02*
X8462500Y-6592500D01*
X8462500Y-7352500D02*
X8477500Y-7367500D01*
X8477500Y-7352500D02*
X8462500Y-7367500D01*
X8462500Y-7437500D02*
X8477500Y-7452500D01*
X8477500Y-7437500D02*
X8462500Y-7452500D01*
X8467500Y-6492500D02*
X8482500Y-6507500D01*
X8482500Y-6492500D02*
X8467500Y-6507500D01*
X8472500Y-6617500D02*
X8487500Y-6632500D01*
X8487500Y-6617500D02*
X8472500Y-6632500D01*
X8472500Y-8577500D02*
X8487500Y-8592500D01*
X8487500Y-8577500D02*
X8472500Y-8592500D01*
X8492500Y-8827500D02*
X8507500Y-8842500D01*
X8507500Y-8827500D02*
X8492500Y-8842500D01*
X8492500Y-8907500D02*
X8507500Y-8922500D01*
X8507500Y-8907500D02*
X8492500Y-8922500D01*
X8502500Y-8492500D02*
X8517500Y-8507500D01*
X8517500Y-8492500D02*
X8502500Y-8507500D01*
X8512500Y-8092500D02*
X8527500Y-8107500D01*
X8527500Y-8092500D02*
X8512500Y-8107500D01*
X8517500Y-8597500D02*
X8532500Y-8612500D01*
X8532500Y-8597500D02*
X8517500Y-8612500D01*
X8527500Y-6282500D02*
X8542500Y-6297500D01*
X8542500Y-6282500D02*
X8527500Y-6297500D01*
X8527500Y-10232500D02*
X8542500Y-10247500D01*
X8542500Y-10232500D02*
X8527500Y-10247500D01*
X8542500Y-8807500D02*
X8557500Y-8822500D01*
X8557500Y-8807500D02*
X8542500Y-8822500D01*
X8547500Y-8942500D02*
X8562500Y-8957500D01*
X8562500Y-8942500D02*
X8547500Y-8957500D01*
X8551070Y-9224070D02*
X8566070Y-9239070D01*
X8566070Y-9224070D02*
X8551070Y-9239070D01*
X8557500Y-7382500D02*
X8572500Y-7397500D01*
X8572500Y-7382500D02*
X8557500Y-7397500D01*
X8562500Y-10212500D02*
X8577500Y-10227500D01*
X8577500Y-10212500D02*
X8562500Y-10227500D01*
X8587500Y-9082500D02*
X8602500Y-9097500D01*
X8602500Y-9082500D02*
X8587500Y-9097500D01*
X8595000Y-6637500D02*
X8610000Y-6652500D01*
X8610000Y-6637500D02*
X8595000Y-6652500D01*
X8612500Y-6577500D02*
X8627500Y-6592500D01*
X8627500Y-6577500D02*
X8612500Y-6592500D01*
X8617500Y-6492500D02*
X8632500Y-6507500D01*
X8632500Y-6492500D02*
X8617500Y-6507500D01*
X8637500Y-8427500D02*
X8652500Y-8442500D01*
X8652500Y-8427500D02*
X8637500Y-8442500D01*
X8657500Y-6597500D02*
X8672500Y-6612500D01*
X8672500Y-6597500D02*
X8657500Y-6612500D01*
X8667500Y-6742500D02*
X8682500Y-6757500D01*
X8682500Y-6742500D02*
X8667500Y-6757500D01*
X8672500Y-10132500D02*
X8687500Y-10147500D01*
X8687500Y-10132500D02*
X8672500Y-10147500D01*
X8677500Y-6487500D02*
X8692500Y-6502500D01*
X8692500Y-6487500D02*
X8677500Y-6502500D01*
X8692500Y-5762500D02*
X8707500Y-5777500D01*
X8707500Y-5762500D02*
X8692500Y-5777500D01*
X8692500Y-9007500D02*
X8707500Y-9022500D01*
X8707500Y-9007500D02*
X8692500Y-9022500D01*
X8692500Y-9087500D02*
X8707500Y-9102500D01*
X8707500Y-9087500D02*
X8692500Y-9102500D01*
X8707500Y-10772500D02*
X8722500Y-10787500D01*
X8722500Y-10772500D02*
X8707500Y-10787500D01*
X8707500Y-11662500D02*
X8722500Y-11677500D01*
X8722500Y-11662500D02*
X8707500Y-11677500D01*
X8712500Y-6882500D02*
X8727500Y-6897500D01*
X8727500Y-6882500D02*
X8712500Y-6897500D01*
X8712500Y-10127500D02*
X8727500Y-10142500D01*
X8727500Y-10127500D02*
X8712500Y-10142500D01*
X8722500Y-6492500D02*
X8737500Y-6507500D01*
X8737500Y-6492500D02*
X8722500Y-6507500D01*
X8727500Y-6587500D02*
X8742500Y-6602500D01*
X8742500Y-6587500D02*
X8727500Y-6602500D01*
X8737500Y-6945000D02*
X8752500Y-6960000D01*
X8752500Y-6945000D02*
X8737500Y-6960000D01*
X8762500Y-9192500D02*
X8777500Y-9207500D01*
X8777500Y-9192500D02*
X8762500Y-9207500D01*
X8792500Y-7612500D02*
X8807500Y-7627500D01*
X8807500Y-7612500D02*
X8792500Y-7627500D01*
X8812500Y-7342500D02*
X8827500Y-7357500D01*
X8827500Y-7342500D02*
X8812500Y-7357500D01*
X8847500Y-7382500D02*
X8862500Y-7397500D01*
X8862500Y-7382500D02*
X8847500Y-7397500D01*
X8852500Y-10477500D02*
X8867500Y-10492500D01*
X8867500Y-10477500D02*
X8852500Y-10492500D01*
X8857500Y-6612500D02*
X8872500Y-6627500D01*
X8872500Y-6612500D02*
X8857500Y-6627500D01*
X8867500Y-8022500D02*
X8882500Y-8037500D01*
X8882500Y-8022500D02*
X8867500Y-8037500D01*
X8867500Y-8912500D02*
X8882500Y-8927500D01*
X8882500Y-8912500D02*
X8867500Y-8927500D01*
X8872500Y-6222500D02*
X8887500Y-6237500D01*
X8887500Y-6222500D02*
X8872500Y-6237500D01*
X8872500Y-9302500D02*
X8887500Y-9317500D01*
X8887500Y-9302500D02*
X8872500Y-9317500D01*
X8892500Y-7382500D02*
X8907500Y-7397500D01*
X8907500Y-7382500D02*
X8892500Y-7397500D01*
X8907500Y-6817500D02*
X8922500Y-6832500D01*
X8922500Y-6817500D02*
X8907500Y-6832500D01*
X8912500Y-6402500D02*
X8927500Y-6417500D01*
X8927500Y-6402500D02*
X8912500Y-6417500D01*
X8912500Y-9227500D02*
X8927500Y-9242500D01*
X8927500Y-9227500D02*
X8912500Y-9242500D01*
X8917500Y-7192500D02*
X8932500Y-7207500D01*
X8932500Y-7192500D02*
X8917500Y-7207500D01*
X8927500Y-10337500D02*
X8942500Y-10352500D01*
X8942500Y-10337500D02*
X8927500Y-10352500D01*
X8977500Y-6112500D02*
X8992500Y-6127500D01*
X8992500Y-6112500D02*
X8977500Y-6127500D01*
X9022500Y-6322500D02*
X9037500Y-6337500D01*
X9037500Y-6322500D02*
X9022500Y-6337500D01*
X9037500Y-7612500D02*
X9052500Y-7627500D01*
X9052500Y-7612500D02*
X9037500Y-7627500D01*
X9047500Y-7812500D02*
X9062500Y-7827500D01*
X9062500Y-7812500D02*
X9047500Y-7827500D01*
X9067500Y-7847500D02*
X9082500Y-7862500D01*
X9082500Y-7847500D02*
X9067500Y-7862500D01*
X9082500Y-9867500D02*
X9097500Y-9882500D01*
X9097500Y-9867500D02*
X9082500Y-9882500D01*
X9102500Y-9902500D02*
X9117500Y-9917500D01*
X9117500Y-9902500D02*
X9102500Y-9917500D01*
X9112500Y-8172500D02*
X9127500Y-8187500D01*
X9127500Y-8172500D02*
X9112500Y-8187500D01*
X9117500Y-9022500D02*
X9132500Y-9037500D01*
X9132500Y-9022500D02*
X9117500Y-9037500D01*
X9152500Y-10592500D02*
X9167500Y-10607500D01*
X9167500Y-10592500D02*
X9152500Y-10607500D01*
X9182500Y-6547500D02*
X9197500Y-6562500D01*
X9197500Y-6547500D02*
X9182500Y-6562500D01*
X9202500Y-7757500D02*
X9217500Y-7772500D01*
X9217500Y-7757500D02*
X9202500Y-7772500D01*
X9217500Y-7642500D02*
X9232500Y-7657500D01*
X9232500Y-7642500D02*
X9217500Y-7657500D01*
X9227500Y-7597500D02*
X9242500Y-7612500D01*
X9242500Y-7597500D02*
X9227500Y-7612500D01*
X9237500Y-7072500D02*
X9252500Y-7087500D01*
X9252500Y-7072500D02*
X9237500Y-7087500D01*
X9242500Y-7182500D02*
X9257500Y-7197500D01*
X9257500Y-7182500D02*
X9242500Y-7197500D01*
X9252500Y-8627500D02*
X9267500Y-8642500D01*
X9267500Y-8627500D02*
X9252500Y-8642500D01*
X9262500Y-10702500D02*
X9277500Y-10717500D01*
X9277500Y-10702500D02*
X9262500Y-10717500D01*
X9267500Y-7922500D02*
X9282500Y-7937500D01*
X9282500Y-7922500D02*
X9267500Y-7937500D01*
X9277500Y-9247500D02*
X9292500Y-9262500D01*
X9292500Y-9247500D02*
X9277500Y-9262500D01*
X9282500Y-8137500D02*
X9297500Y-8152500D01*
X9297500Y-8137500D02*
X9282500Y-8152500D01*
X9312500Y-8197500D02*
X9327500Y-8212500D01*
X9327500Y-8197500D02*
X9312500Y-8212500D01*
X9342500Y-10537500D02*
X9357500Y-10552500D01*
X9357500Y-10537500D02*
X9342500Y-10552500D01*
X9347500Y-7527500D02*
X9362500Y-7542500D01*
X9362500Y-7527500D02*
X9347500Y-7542500D01*
X9352500Y-7487500D02*
X9367500Y-7502500D01*
X9367500Y-7487500D02*
X9352500Y-7502500D01*
X9357500Y-8392500D02*
X9372500Y-8407500D01*
X9372500Y-8392500D02*
X9357500Y-8407500D01*
X9367500Y-9192500D02*
X9382500Y-9207500D01*
X9382500Y-9192500D02*
X9367500Y-9207500D01*
X9372500Y-10387500D02*
X9387500Y-10402500D01*
X9387500Y-10387500D02*
X9372500Y-10402500D01*
X9377500Y-6427500D02*
X9392500Y-6442500D01*
X9392500Y-6427500D02*
X9377500Y-6442500D01*
X9382500Y-8997500D02*
X9397500Y-9012500D01*
X9397500Y-8997500D02*
X9382500Y-9012500D01*
X9392500Y-10352500D02*
X9407500Y-10367500D01*
X9407500Y-10352500D02*
X9392500Y-10367500D01*
X9402500Y-7627500D02*
X9417500Y-7642500D01*
X9417500Y-7627500D02*
X9402500Y-7642500D01*
X9402500Y-7672500D02*
X9417500Y-7687500D01*
X9417500Y-7672500D02*
X9402500Y-7687500D01*
X9462500Y-8822500D02*
X9477500Y-8837500D01*
X9477500Y-8822500D02*
X9462500Y-8837500D01*
X9462500Y-12417500D02*
X9477500Y-12432500D01*
X9477500Y-12417500D02*
X9462500Y-12432500D01*
X9467500Y-9562500D02*
X9482500Y-9577500D01*
X9482500Y-9562500D02*
X9467500Y-9577500D01*
X9482500Y-6732500D02*
X9497500Y-6747500D01*
X9497500Y-6732500D02*
X9482500Y-6747500D01*
X9495000Y-8640000D02*
X9510000Y-8655000D01*
X9510000Y-8640000D02*
X9495000Y-8655000D01*
X9502500Y-9702500D02*
X9517500Y-9717500D01*
X9517500Y-9702500D02*
X9502500Y-9717500D01*
X9522500Y-8492500D02*
X9537500Y-8507500D01*
X9537500Y-8492500D02*
X9522500Y-8507500D01*
X9527500Y-6892500D02*
X9542500Y-6907500D01*
X9542500Y-6892500D02*
X9527500Y-6907500D01*
X9547500Y-8282500D02*
X9562500Y-8297500D01*
X9562500Y-8282500D02*
X9547500Y-8297500D01*
X9577500Y-6542500D02*
X9592500Y-6557500D01*
X9592500Y-6542500D02*
X9577500Y-6557500D01*
X9582500Y-6582500D02*
X9597500Y-6597500D01*
X9597500Y-6582500D02*
X9582500Y-6597500D01*
X9597500Y-9802500D02*
X9612500Y-9817500D01*
X9612500Y-9802500D02*
X9597500Y-9817500D01*
X9617500Y-9432500D02*
X9632500Y-9447500D01*
X9632500Y-9432500D02*
X9617500Y-9447500D01*
X9687500Y-8607500D02*
X9702500Y-8622500D01*
X9702500Y-8607500D02*
X9687500Y-8622500D01*
X9687500Y-10237500D02*
X9702500Y-10252500D01*
X9702500Y-10237500D02*
X9687500Y-10252500D01*
X9702500Y-9692500D02*
X9717500Y-9707500D01*
X9717500Y-9692500D02*
X9702500Y-9707500D01*
X9722500Y-7527500D02*
X9737500Y-7542500D01*
X9737500Y-7527500D02*
X9722500Y-7542500D01*
X9742500Y-10142500D02*
X9757500Y-10157500D01*
X9757500Y-10142500D02*
X9742500Y-10157500D01*
X9777500Y-8417500D02*
X9792500Y-8432500D01*
X9792500Y-8417500D02*
X9777500Y-8432500D01*
X9802500Y-9112500D02*
X9817500Y-9127500D01*
X9817500Y-9112500D02*
X9802500Y-9127500D01*
X9822500Y-8482500D02*
X9837500Y-8497500D01*
X9837500Y-8482500D02*
X9822500Y-8497500D01*
X9907500Y-9742500D02*
X9922500Y-9757500D01*
X9922500Y-9742500D02*
X9907500Y-9757500D01*
X9912500Y-7227500D02*
X9927500Y-7242500D01*
X9927500Y-7227500D02*
X9912500Y-7242500D01*
X9947500Y-8212500D02*
X9962500Y-8227500D01*
X9962500Y-8212500D02*
X9947500Y-8227500D01*
X9947500Y-8377500D02*
X9962500Y-8392500D01*
X9962500Y-8377500D02*
X9947500Y-8392500D01*
X9947500Y-8462500D02*
X9962500Y-8477500D01*
X9962500Y-8462500D02*
X9947500Y-8477500D01*
X9987500Y-9112500D02*
X10002500Y-9127500D01*
X10002500Y-9112500D02*
X9987500Y-9127500D01*
X9987500Y-9182500D02*
X10002500Y-9197500D01*
X10002500Y-9182500D02*
X9987500Y-9197500D01*
X9987500Y-9787500D02*
X10002500Y-9802500D01*
X10002500Y-9787500D02*
X9987500Y-9802500D01*
X10002500Y-6452500D02*
X10017500Y-6467500D01*
X10017500Y-6452500D02*
X10002500Y-6467500D01*
X10012500Y-7342500D02*
X10027500Y-7357500D01*
X10027500Y-7342500D02*
X10012500Y-7357500D01*
X10012500Y-10002500D02*
X10027500Y-10017500D01*
X10027500Y-10002500D02*
X10012500Y-10017500D01*
X10057500Y-9517500D02*
X10072500Y-9532500D01*
X10072500Y-9517500D02*
X10057500Y-9532500D01*
X10057500Y-10617500D02*
X10072500Y-10632500D01*
X10072500Y-10617500D02*
X10057500Y-10632500D01*
X10082500Y-9437500D02*
X10097500Y-9452500D01*
X10097500Y-9437500D02*
X10082500Y-9452500D01*
X10087500Y-8357500D02*
X10102500Y-8372500D01*
X10102500Y-8357500D02*
X10087500Y-8372500D01*
X10107500Y-8797500D02*
X10122500Y-8812500D01*
X10122500Y-8797500D02*
X10107500Y-8812500D01*
X10117500Y-8122500D02*
X10132500Y-8137500D01*
X10132500Y-8122500D02*
X10117500Y-8137500D01*
X10127500Y-9097500D02*
X10142500Y-9112500D01*
X10142500Y-9097500D02*
X10127500Y-9112500D01*
X10142500Y-9777500D02*
X10157500Y-9792500D01*
X10157500Y-9777500D02*
X10142500Y-9792500D01*
X10167500Y-8397500D02*
X10182500Y-8412500D01*
X10182500Y-8397500D02*
X10167500Y-8412500D01*
X10217500Y-7297500D02*
X10232500Y-7312500D01*
X10232500Y-7297500D02*
X10217500Y-7312500D01*
X10242500Y-7072500D02*
X10257500Y-7087500D01*
X10257500Y-7072500D02*
X10242500Y-7087500D01*
X10262500Y-7832500D02*
X10277500Y-7847500D01*
X10277500Y-7832500D02*
X10262500Y-7847500D01*
X10282500Y-7082500D02*
X10297500Y-7097500D01*
X10297500Y-7082500D02*
X10282500Y-7097500D01*
X10327500Y-7082500D02*
X10342500Y-7097500D01*
X10342500Y-7082500D02*
X10327500Y-7097500D01*
X10327500Y-8597500D02*
X10342500Y-8612500D01*
X10342500Y-8597500D02*
X10327500Y-8612500D01*
X10372500Y-8752500D02*
X10387500Y-8767500D01*
X10387500Y-8752500D02*
X10372500Y-8767500D01*
X10452500Y-7597500D02*
X10467500Y-7612500D01*
X10467500Y-7597500D02*
X10452500Y-7612500D01*
X10472500Y-7822500D02*
X10487500Y-7837500D01*
X10487500Y-7822500D02*
X10472500Y-7837500D01*
X10507500Y-9312500D02*
X10522500Y-9327500D01*
X10522500Y-9312500D02*
X10507500Y-9327500D01*
X10582500Y-7277500D02*
X10597500Y-7292500D01*
X10597500Y-7277500D02*
X10582500Y-7292500D01*
X10612500Y-8072500D02*
X10627500Y-8087500D01*
X10627500Y-8072500D02*
X10612500Y-8087500D01*
X10782500Y-10007500D02*
X10797500Y-10022500D01*
X10797500Y-10007500D02*
X10782500Y-10022500D01*
X10787500Y-9967500D02*
X10802500Y-9982500D01*
X10802500Y-9967500D02*
X10787500Y-9982500D01*
X10797500Y-6767500D02*
X10812500Y-6782500D01*
X10812500Y-6767500D02*
X10797500Y-6782500D01*
X10877500Y-9967500D02*
X10892500Y-9982500D01*
X10892500Y-9967500D02*
X10877500Y-9982500D01*
X8050000Y-6855000D02*
G75*
G02*
X8030000Y-6855000I-10000J0D01*
G01*
X8030000Y-6855000D02*
G75*
G02*
X8050000Y-6855000I10000J0D01*
G01*
X8072500Y-6105000D02*
G75*
G02*
X8052500Y-6105000I-10000J0D01*
G01*
X8052500Y-6105000D02*
G75*
G02*
X8072500Y-6105000I10000J0D01*
G01*
X8087000Y-6575000D02*
G75*
G02*
X8067000Y-6575000I-10000J0D01*
G01*
X8067000Y-6575000D02*
G75*
G02*
X8087000Y-6575000I10000J0D01*
G01*
X8135000Y-6640000D02*
G75*
G02*
X8115000Y-6640000I-10000J0D01*
G01*
X8115000Y-6640000D02*
G75*
G02*
X8135000Y-6640000I10000J0D01*
G01*
X8150000Y-6955000D02*
G75*
G02*
X8130000Y-6955000I-10000J0D01*
G01*
X8130000Y-6955000D02*
G75*
G02*
X8150000Y-6955000I10000J0D01*
G01*
X8170000Y-8040000D02*
G75*
G02*
X8150000Y-8040000I-10000J0D01*
G01*
X8150000Y-8040000D02*
G75*
G02*
X8170000Y-8040000I10000J0D01*
G01*
X8170000Y-10065000D02*
G75*
G02*
X8150000Y-10065000I-10000J0D01*
G01*
X8150000Y-10065000D02*
G75*
G02*
X8170000Y-10065000I10000J0D01*
G01*
X8170000Y-10120000D02*
G75*
G02*
X8150000Y-10120000I-10000J0D01*
G01*
X8150000Y-10120000D02*
G75*
G02*
X8170000Y-10120000I10000J0D01*
G01*
X8185000Y-9725000D02*
G75*
G02*
X8165000Y-9725000I-10000J0D01*
G01*
X8165000Y-9725000D02*
G75*
G02*
X8185000Y-9725000I10000J0D01*
G01*
X8190000Y-6140000D02*
G75*
G02*
X8170000Y-6140000I-10000J0D01*
G01*
X8170000Y-6140000D02*
G75*
G02*
X8190000Y-6140000I10000J0D01*
G01*
X8190000Y-6190000D02*
G75*
G02*
X8170000Y-6190000I-10000J0D01*
G01*
X8170000Y-6190000D02*
G75*
G02*
X8190000Y-6190000I10000J0D01*
G01*
X8200000Y-9635000D02*
G75*
G02*
X8180000Y-9635000I-10000J0D01*
G01*
X8180000Y-9635000D02*
G75*
G02*
X8200000Y-9635000I10000J0D01*
G01*
X8200000Y-10450000D02*
G75*
G02*
X8180000Y-10450000I-10000J0D01*
G01*
X8180000Y-10450000D02*
G75*
G02*
X8200000Y-10450000I10000J0D01*
G01*
X8205000Y-10645000D02*
G75*
G02*
X8185000Y-10645000I-10000J0D01*
G01*
X8185000Y-10645000D02*
G75*
G02*
X8205000Y-10645000I10000J0D01*
G01*
X8205000Y-14005000D02*
G75*
G02*
X8185000Y-14005000I-10000J0D01*
G01*
X8185000Y-14005000D02*
G75*
G02*
X8205000Y-14005000I10000J0D01*
G01*
X8210000Y-9450000D02*
G75*
G02*
X8190000Y-9450000I-10000J0D01*
G01*
X8190000Y-9450000D02*
G75*
G02*
X8210000Y-9450000I10000J0D01*
G01*
X8212500Y-9682500D02*
G75*
G02*
X8192500Y-9682500I-10000J0D01*
G01*
X8192500Y-9682500D02*
G75*
G02*
X8212500Y-9682500I10000J0D01*
G01*
X8222500Y-8790000D02*
G75*
G02*
X8202500Y-8790000I-10000J0D01*
G01*
X8202500Y-8790000D02*
G75*
G02*
X8222500Y-8790000I10000J0D01*
G01*
X8225000Y-8670000D02*
G75*
G02*
X8205000Y-8670000I-10000J0D01*
G01*
X8205000Y-8670000D02*
G75*
G02*
X8225000Y-8670000I10000J0D01*
G01*
X8225000Y-9070000D02*
G75*
G02*
X8205000Y-9070000I-10000J0D01*
G01*
X8205000Y-9070000D02*
G75*
G02*
X8225000Y-9070000I10000J0D01*
G01*
X8230000Y-7505000D02*
G75*
G02*
X8210000Y-7505000I-10000J0D01*
G01*
X8210000Y-7505000D02*
G75*
G02*
X8230000Y-7505000I10000J0D01*
G01*
X8230000Y-7965000D02*
G75*
G02*
X8210000Y-7965000I-10000J0D01*
G01*
X8210000Y-7965000D02*
G75*
G02*
X8230000Y-7965000I10000J0D01*
G01*
X8230000Y-8870000D02*
G75*
G02*
X8210000Y-8870000I-10000J0D01*
G01*
X8210000Y-8870000D02*
G75*
G02*
X8230000Y-8870000I10000J0D01*
G01*
X8240000Y-6355000D02*
G75*
G02*
X8220000Y-6355000I-10000J0D01*
G01*
X8220000Y-6355000D02*
G75*
G02*
X8240000Y-6355000I10000J0D01*
G01*
X8240000Y-6445000D02*
G75*
G02*
X8220000Y-6445000I-10000J0D01*
G01*
X8220000Y-6445000D02*
G75*
G02*
X8240000Y-6445000I10000J0D01*
G01*
X8240000Y-7620000D02*
G75*
G02*
X8220000Y-7620000I-10000J0D01*
G01*
X8220000Y-7620000D02*
G75*
G02*
X8240000Y-7620000I10000J0D01*
G01*
X8250000Y-5820000D02*
G75*
G02*
X8230000Y-5820000I-10000J0D01*
G01*
X8230000Y-5820000D02*
G75*
G02*
X8250000Y-5820000I10000J0D01*
G01*
X8250000Y-5915000D02*
G75*
G02*
X8230000Y-5915000I-10000J0D01*
G01*
X8230000Y-5915000D02*
G75*
G02*
X8250000Y-5915000I10000J0D01*
G01*
X8255000Y-9825000D02*
G75*
G02*
X8235000Y-9825000I-10000J0D01*
G01*
X8235000Y-9825000D02*
G75*
G02*
X8255000Y-9825000I10000J0D01*
G01*
X8255000Y-10010000D02*
G75*
G02*
X8235000Y-10010000I-10000J0D01*
G01*
X8235000Y-10010000D02*
G75*
G02*
X8255000Y-10010000I10000J0D01*
G01*
X8260000Y-7672500D02*
G75*
G02*
X8240000Y-7672500I-10000J0D01*
G01*
X8240000Y-7672500D02*
G75*
G02*
X8260000Y-7672500I10000J0D01*
G01*
X8260000Y-10455000D02*
G75*
G02*
X8240000Y-10455000I-10000J0D01*
G01*
X8240000Y-10455000D02*
G75*
G02*
X8260000Y-10455000I10000J0D01*
G01*
X8261000Y-13450000D02*
G75*
G02*
X8241000Y-13450000I-10000J0D01*
G01*
X8241000Y-13450000D02*
G75*
G02*
X8261000Y-13450000I10000J0D01*
G01*
X8270000Y-13955000D02*
G75*
G02*
X8250000Y-13955000I-10000J0D01*
G01*
X8250000Y-13955000D02*
G75*
G02*
X8270000Y-13955000I10000J0D01*
G01*
X8295000Y-13520000D02*
G75*
G02*
X8275000Y-13520000I-10000J0D01*
G01*
X8275000Y-13520000D02*
G75*
G02*
X8295000Y-13520000I10000J0D01*
G01*
X8302500Y-6005000D02*
G75*
G02*
X8282500Y-6005000I-10000J0D01*
G01*
X8282500Y-6005000D02*
G75*
G02*
X8302500Y-6005000I10000J0D01*
G01*
X8302500Y-6500000D02*
G75*
G02*
X8282500Y-6500000I-10000J0D01*
G01*
X8282500Y-6500000D02*
G75*
G02*
X8302500Y-6500000I10000J0D01*
G01*
X8315000Y-9595000D02*
G75*
G02*
X8295000Y-9595000I-10000J0D01*
G01*
X8295000Y-9595000D02*
G75*
G02*
X8315000Y-9595000I10000J0D01*
G01*
X8320000Y-13845000D02*
G75*
G02*
X8300000Y-13845000I-10000J0D01*
G01*
X8300000Y-13845000D02*
G75*
G02*
X8320000Y-13845000I10000J0D01*
G01*
X8325000Y-9475000D02*
G75*
G02*
X8305000Y-9475000I-10000J0D01*
G01*
X8305000Y-9475000D02*
G75*
G02*
X8325000Y-9475000I10000J0D01*
G01*
X8345000Y-6820000D02*
G75*
G02*
X8325000Y-6820000I-10000J0D01*
G01*
X8325000Y-6820000D02*
G75*
G02*
X8345000Y-6820000I10000J0D01*
G01*
X8345000Y-13905000D02*
G75*
G02*
X8325000Y-13905000I-10000J0D01*
G01*
X8325000Y-13905000D02*
G75*
G02*
X8345000Y-13905000I10000J0D01*
G01*
X8350000Y-5870000D02*
G75*
G02*
X8330000Y-5870000I-10000J0D01*
G01*
X8330000Y-5870000D02*
G75*
G02*
X8350000Y-5870000I10000J0D01*
G01*
X8350000Y-5960000D02*
G75*
G02*
X8330000Y-5960000I-10000J0D01*
G01*
X8330000Y-5960000D02*
G75*
G02*
X8350000Y-5960000I10000J0D01*
G01*
X8350000Y-6095000D02*
G75*
G02*
X8330000Y-6095000I-10000J0D01*
G01*
X8330000Y-6095000D02*
G75*
G02*
X8350000Y-6095000I10000J0D01*
G01*
X8350000Y-6185000D02*
G75*
G02*
X8330000Y-6185000I-10000J0D01*
G01*
X8330000Y-6185000D02*
G75*
G02*
X8350000Y-6185000I10000J0D01*
G01*
X8350000Y-6365000D02*
G75*
G02*
X8330000Y-6365000I-10000J0D01*
G01*
X8330000Y-6365000D02*
G75*
G02*
X8350000Y-6365000I10000J0D01*
G01*
X8350000Y-7050000D02*
G75*
G02*
X8330000Y-7050000I-10000J0D01*
G01*
X8330000Y-7050000D02*
G75*
G02*
X8350000Y-7050000I10000J0D01*
G01*
X8355000Y-7510000D02*
G75*
G02*
X8335000Y-7510000I-10000J0D01*
G01*
X8335000Y-7510000D02*
G75*
G02*
X8355000Y-7510000I10000J0D01*
G01*
X8357500Y-8175000D02*
G75*
G02*
X8337500Y-8175000I-10000J0D01*
G01*
X8337500Y-8175000D02*
G75*
G02*
X8357500Y-8175000I10000J0D01*
G01*
X8370000Y-9145000D02*
G75*
G02*
X8350000Y-9145000I-10000J0D01*
G01*
X8350000Y-9145000D02*
G75*
G02*
X8370000Y-9145000I10000J0D01*
G01*
X8375000Y-10145000D02*
G75*
G02*
X8355000Y-10145000I-10000J0D01*
G01*
X8355000Y-10145000D02*
G75*
G02*
X8375000Y-10145000I10000J0D01*
G01*
X8385000Y-5920000D02*
G75*
G02*
X8365000Y-5920000I-10000J0D01*
G01*
X8365000Y-5920000D02*
G75*
G02*
X8385000Y-5920000I10000J0D01*
G01*
X8395000Y-6405000D02*
G75*
G02*
X8375000Y-6405000I-10000J0D01*
G01*
X8375000Y-6405000D02*
G75*
G02*
X8395000Y-6405000I10000J0D01*
G01*
X8400000Y-7970000D02*
G75*
G02*
X8380000Y-7970000I-10000J0D01*
G01*
X8380000Y-7970000D02*
G75*
G02*
X8400000Y-7970000I10000J0D01*
G01*
X8400000Y-9790000D02*
G75*
G02*
X8380000Y-9790000I-10000J0D01*
G01*
X8380000Y-9790000D02*
G75*
G02*
X8400000Y-9790000I10000J0D01*
G01*
X8400000Y-9920000D02*
G75*
G02*
X8380000Y-9920000I-10000J0D01*
G01*
X8380000Y-9920000D02*
G75*
G02*
X8400000Y-9920000I10000J0D01*
G01*
X8402500Y-6645000D02*
G75*
G02*
X8382500Y-6645000I-10000J0D01*
G01*
X8382500Y-6645000D02*
G75*
G02*
X8402500Y-6645000I10000J0D01*
G01*
X8410000Y-5797500D02*
G75*
G02*
X8390000Y-5797500I-10000J0D01*
G01*
X8390000Y-5797500D02*
G75*
G02*
X8410000Y-5797500I10000J0D01*
G01*
X8415000Y-6205000D02*
G75*
G02*
X8395000Y-6205000I-10000J0D01*
G01*
X8395000Y-6205000D02*
G75*
G02*
X8415000Y-6205000I10000J0D01*
G01*
X8415000Y-13545000D02*
G75*
G02*
X8395000Y-13545000I-10000J0D01*
G01*
X8395000Y-13545000D02*
G75*
G02*
X8415000Y-13545000I10000J0D01*
G01*
X8420000Y-6800000D02*
G75*
G02*
X8400000Y-6800000I-10000J0D01*
G01*
X8400000Y-6800000D02*
G75*
G02*
X8420000Y-6800000I10000J0D01*
G01*
X8420000Y-8315000D02*
G75*
G02*
X8400000Y-8315000I-10000J0D01*
G01*
X8400000Y-8315000D02*
G75*
G02*
X8420000Y-8315000I10000J0D01*
G01*
X8420000Y-9245000D02*
G75*
G02*
X8400000Y-9245000I-10000J0D01*
G01*
X8400000Y-9245000D02*
G75*
G02*
X8420000Y-9245000I10000J0D01*
G01*
X8425000Y-6335000D02*
G75*
G02*
X8405000Y-6335000I-10000J0D01*
G01*
X8405000Y-6335000D02*
G75*
G02*
X8425000Y-6335000I10000J0D01*
G01*
X8425000Y-7627500D02*
G75*
G02*
X8405000Y-7627500I-10000J0D01*
G01*
X8405000Y-7627500D02*
G75*
G02*
X8425000Y-7627500I10000J0D01*
G01*
X8425000Y-9295000D02*
G75*
G02*
X8405000Y-9295000I-10000J0D01*
G01*
X8405000Y-9295000D02*
G75*
G02*
X8425000Y-9295000I10000J0D01*
G01*
X8440000Y-8230000D02*
G75*
G02*
X8420000Y-8230000I-10000J0D01*
G01*
X8420000Y-8230000D02*
G75*
G02*
X8440000Y-8230000I10000J0D01*
G01*
X8440000Y-10685000D02*
G75*
G02*
X8420000Y-10685000I-10000J0D01*
G01*
X8420000Y-10685000D02*
G75*
G02*
X8440000Y-10685000I10000J0D01*
G01*
X8450000Y-9000000D02*
G75*
G02*
X8430000Y-9000000I-10000J0D01*
G01*
X8430000Y-9000000D02*
G75*
G02*
X8450000Y-9000000I10000J0D01*
G01*
X8455000Y-7050000D02*
G75*
G02*
X8435000Y-7050000I-10000J0D01*
G01*
X8435000Y-7050000D02*
G75*
G02*
X8455000Y-7050000I10000J0D01*
G01*
X8455000Y-7520000D02*
G75*
G02*
X8435000Y-7520000I-10000J0D01*
G01*
X8435000Y-7520000D02*
G75*
G02*
X8455000Y-7520000I10000J0D01*
G01*
X8470000Y-6675000D02*
G75*
G02*
X8450000Y-6675000I-10000J0D01*
G01*
X8450000Y-6675000D02*
G75*
G02*
X8470000Y-6675000I10000J0D01*
G01*
X8475000Y-5875000D02*
G75*
G02*
X8455000Y-5875000I-10000J0D01*
G01*
X8455000Y-5875000D02*
G75*
G02*
X8475000Y-5875000I10000J0D01*
G01*
X8475000Y-10575000D02*
G75*
G02*
X8455000Y-10575000I-10000J0D01*
G01*
X8455000Y-10575000D02*
G75*
G02*
X8475000Y-10575000I10000J0D01*
G01*
X8480000Y-6975000D02*
G75*
G02*
X8460000Y-6975000I-10000J0D01*
G01*
X8460000Y-6975000D02*
G75*
G02*
X8480000Y-6975000I10000J0D01*
G01*
X8485000Y-6140000D02*
G75*
G02*
X8465000Y-6140000I-10000J0D01*
G01*
X8465000Y-6140000D02*
G75*
G02*
X8485000Y-6140000I10000J0D01*
G01*
X8485000Y-6230000D02*
G75*
G02*
X8465000Y-6230000I-10000J0D01*
G01*
X8465000Y-6230000D02*
G75*
G02*
X8485000Y-6230000I10000J0D01*
G01*
X8485000Y-6320000D02*
G75*
G02*
X8465000Y-6320000I-10000J0D01*
G01*
X8465000Y-6320000D02*
G75*
G02*
X8485000Y-6320000I10000J0D01*
G01*
X8485000Y-6410000D02*
G75*
G02*
X8465000Y-6410000I-10000J0D01*
G01*
X8465000Y-6410000D02*
G75*
G02*
X8485000Y-6410000I10000J0D01*
G01*
X8490000Y-8682000D02*
G75*
G02*
X8470000Y-8682000I-10000J0D01*
G01*
X8470000Y-8682000D02*
G75*
G02*
X8490000Y-8682000I10000J0D01*
G01*
X8495000Y-6720000D02*
G75*
G02*
X8475000Y-6720000I-10000J0D01*
G01*
X8475000Y-6720000D02*
G75*
G02*
X8495000Y-6720000I10000J0D01*
G01*
X8495000Y-6835000D02*
G75*
G02*
X8475000Y-6835000I-10000J0D01*
G01*
X8475000Y-6835000D02*
G75*
G02*
X8495000Y-6835000I10000J0D01*
G01*
X8495000Y-7485000D02*
G75*
G02*
X8475000Y-7485000I-10000J0D01*
G01*
X8475000Y-7485000D02*
G75*
G02*
X8495000Y-7485000I10000J0D01*
G01*
X8495000Y-13950000D02*
G75*
G02*
X8475000Y-13950000I-10000J0D01*
G01*
X8475000Y-13950000D02*
G75*
G02*
X8495000Y-13950000I10000J0D01*
G01*
X8515000Y-9785000D02*
G75*
G02*
X8495000Y-9785000I-10000J0D01*
G01*
X8495000Y-9785000D02*
G75*
G02*
X8515000Y-9785000I10000J0D01*
G01*
X8520000Y-13475000D02*
G75*
G02*
X8500000Y-13475000I-10000J0D01*
G01*
X8500000Y-13475000D02*
G75*
G02*
X8520000Y-13475000I10000J0D01*
G01*
X8522500Y-8295000D02*
G75*
G02*
X8502500Y-8295000I-10000J0D01*
G01*
X8502500Y-8295000D02*
G75*
G02*
X8522500Y-8295000I10000J0D01*
G01*
X8525000Y-8165000D02*
G75*
G02*
X8505000Y-8165000I-10000J0D01*
G01*
X8505000Y-8165000D02*
G75*
G02*
X8525000Y-8165000I10000J0D01*
G01*
X8530000Y-5870000D02*
G75*
G02*
X8510000Y-5870000I-10000J0D01*
G01*
X8510000Y-5870000D02*
G75*
G02*
X8530000Y-5870000I10000J0D01*
G01*
X8535000Y-11080000D02*
G75*
G02*
X8515000Y-11080000I-10000J0D01*
G01*
X8515000Y-11080000D02*
G75*
G02*
X8535000Y-11080000I10000J0D01*
G01*
X8537500Y-8340000D02*
G75*
G02*
X8517500Y-8340000I-10000J0D01*
G01*
X8517500Y-8340000D02*
G75*
G02*
X8537500Y-8340000I10000J0D01*
G01*
X8540000Y-7320000D02*
G75*
G02*
X8520000Y-7320000I-10000J0D01*
G01*
X8520000Y-7320000D02*
G75*
G02*
X8540000Y-7320000I10000J0D01*
G01*
X8545000Y-6450000D02*
G75*
G02*
X8525000Y-6450000I-10000J0D01*
G01*
X8525000Y-6450000D02*
G75*
G02*
X8545000Y-6450000I10000J0D01*
G01*
X8545000Y-9922500D02*
G75*
G02*
X8525000Y-9922500I-10000J0D01*
G01*
X8525000Y-9922500D02*
G75*
G02*
X8545000Y-9922500I10000J0D01*
G01*
X8560000Y-9015000D02*
G75*
G02*
X8540000Y-9015000I-10000J0D01*
G01*
X8540000Y-9015000D02*
G75*
G02*
X8560000Y-9015000I10000J0D01*
G01*
X8560000Y-13822500D02*
G75*
G02*
X8540000Y-13822500I-10000J0D01*
G01*
X8540000Y-13822500D02*
G75*
G02*
X8560000Y-13822500I10000J0D01*
G01*
X8570000Y-13470000D02*
G75*
G02*
X8550000Y-13470000I-10000J0D01*
G01*
X8550000Y-13470000D02*
G75*
G02*
X8570000Y-13470000I10000J0D01*
G01*
X8575000Y-5770000D02*
G75*
G02*
X8555000Y-5770000I-10000J0D01*
G01*
X8555000Y-5770000D02*
G75*
G02*
X8575000Y-5770000I10000J0D01*
G01*
X8575000Y-5960000D02*
G75*
G02*
X8555000Y-5960000I-10000J0D01*
G01*
X8555000Y-5960000D02*
G75*
G02*
X8575000Y-5960000I10000J0D01*
G01*
X8575000Y-6050000D02*
G75*
G02*
X8555000Y-6050000I-10000J0D01*
G01*
X8555000Y-6050000D02*
G75*
G02*
X8575000Y-6050000I10000J0D01*
G01*
X8575000Y-8855000D02*
G75*
G02*
X8555000Y-8855000I-10000J0D01*
G01*
X8555000Y-8855000D02*
G75*
G02*
X8575000Y-8855000I10000J0D01*
G01*
X8575000Y-13655000D02*
G75*
G02*
X8555000Y-13655000I-10000J0D01*
G01*
X8555000Y-13655000D02*
G75*
G02*
X8575000Y-13655000I10000J0D01*
G01*
X8590000Y-8280000D02*
G75*
G02*
X8570000Y-8280000I-10000J0D01*
G01*
X8570000Y-8280000D02*
G75*
G02*
X8590000Y-8280000I10000J0D01*
G01*
X8595000Y-13985000D02*
G75*
G02*
X8575000Y-13985000I-10000J0D01*
G01*
X8575000Y-13985000D02*
G75*
G02*
X8595000Y-13985000I10000J0D01*
G01*
X8597500Y-8002500D02*
G75*
G02*
X8577500Y-8002500I-10000J0D01*
G01*
X8577500Y-8002500D02*
G75*
G02*
X8597500Y-8002500I10000J0D01*
G01*
X8605000Y-8205000D02*
G75*
G02*
X8585000Y-8205000I-10000J0D01*
G01*
X8585000Y-8205000D02*
G75*
G02*
X8605000Y-8205000I10000J0D01*
G01*
X8605000Y-12950000D02*
G75*
G02*
X8585000Y-12950000I-10000J0D01*
G01*
X8585000Y-12950000D02*
G75*
G02*
X8605000Y-12950000I10000J0D01*
G01*
X8612000Y-7300000D02*
G75*
G02*
X8592000Y-7300000I-10000J0D01*
G01*
X8592000Y-7300000D02*
G75*
G02*
X8612000Y-7300000I10000J0D01*
G01*
X8620000Y-5765000D02*
G75*
G02*
X8600000Y-5765000I-10000J0D01*
G01*
X8600000Y-5765000D02*
G75*
G02*
X8620000Y-5765000I10000J0D01*
G01*
X8620000Y-5870000D02*
G75*
G02*
X8600000Y-5870000I-10000J0D01*
G01*
X8600000Y-5870000D02*
G75*
G02*
X8620000Y-5870000I10000J0D01*
G01*
X8620000Y-7625000D02*
G75*
G02*
X8600000Y-7625000I-10000J0D01*
G01*
X8600000Y-7625000D02*
G75*
G02*
X8620000Y-7625000I10000J0D01*
G01*
X8635000Y-6975000D02*
G75*
G02*
X8615000Y-6975000I-10000J0D01*
G01*
X8615000Y-6975000D02*
G75*
G02*
X8635000Y-6975000I10000J0D01*
G01*
X8645000Y-6927500D02*
G75*
G02*
X8625000Y-6927500I-10000J0D01*
G01*
X8625000Y-6927500D02*
G75*
G02*
X8645000Y-6927500I10000J0D01*
G01*
X8645000Y-13990000D02*
G75*
G02*
X8625000Y-13990000I-10000J0D01*
G01*
X8625000Y-13990000D02*
G75*
G02*
X8645000Y-13990000I10000J0D01*
G01*
X8650000Y-8810000D02*
G75*
G02*
X8630000Y-8810000I-10000J0D01*
G01*
X8630000Y-8810000D02*
G75*
G02*
X8650000Y-8810000I10000J0D01*
G01*
X8655000Y-9265000D02*
G75*
G02*
X8635000Y-9265000I-10000J0D01*
G01*
X8635000Y-9265000D02*
G75*
G02*
X8655000Y-9265000I10000J0D01*
G01*
X8660000Y-7395000D02*
G75*
G02*
X8640000Y-7395000I-10000J0D01*
G01*
X8640000Y-7395000D02*
G75*
G02*
X8660000Y-7395000I10000J0D01*
G01*
X8660000Y-10010000D02*
G75*
G02*
X8640000Y-10010000I-10000J0D01*
G01*
X8640000Y-10010000D02*
G75*
G02*
X8660000Y-10010000I10000J0D01*
G01*
X8660000Y-12795000D02*
G75*
G02*
X8640000Y-12795000I-10000J0D01*
G01*
X8640000Y-12795000D02*
G75*
G02*
X8660000Y-12795000I10000J0D01*
G01*
X8665000Y-5770000D02*
G75*
G02*
X8645000Y-5770000I-10000J0D01*
G01*
X8645000Y-5770000D02*
G75*
G02*
X8665000Y-5770000I10000J0D01*
G01*
X8665000Y-5960000D02*
G75*
G02*
X8645000Y-5960000I-10000J0D01*
G01*
X8645000Y-5960000D02*
G75*
G02*
X8665000Y-5960000I10000J0D01*
G01*
X8665000Y-6050000D02*
G75*
G02*
X8645000Y-6050000I-10000J0D01*
G01*
X8645000Y-6050000D02*
G75*
G02*
X8665000Y-6050000I10000J0D01*
G01*
X8665000Y-6140000D02*
G75*
G02*
X8645000Y-6140000I-10000J0D01*
G01*
X8645000Y-6140000D02*
G75*
G02*
X8665000Y-6140000I10000J0D01*
G01*
X8665000Y-6230000D02*
G75*
G02*
X8645000Y-6230000I-10000J0D01*
G01*
X8645000Y-6230000D02*
G75*
G02*
X8665000Y-6230000I10000J0D01*
G01*
X8665000Y-6320000D02*
G75*
G02*
X8645000Y-6320000I-10000J0D01*
G01*
X8645000Y-6320000D02*
G75*
G02*
X8665000Y-6320000I10000J0D01*
G01*
X8665000Y-6395000D02*
G75*
G02*
X8645000Y-6395000I-10000J0D01*
G01*
X8645000Y-6395000D02*
G75*
G02*
X8665000Y-6395000I10000J0D01*
G01*
X8665000Y-9360000D02*
G75*
G02*
X8645000Y-9360000I-10000J0D01*
G01*
X8645000Y-9360000D02*
G75*
G02*
X8665000Y-9360000I10000J0D01*
G01*
X8675000Y-10205000D02*
G75*
G02*
X8655000Y-10205000I-10000J0D01*
G01*
X8655000Y-10205000D02*
G75*
G02*
X8675000Y-10205000I10000J0D01*
G01*
X8680000Y-14065000D02*
G75*
G02*
X8660000Y-14065000I-10000J0D01*
G01*
X8660000Y-14065000D02*
G75*
G02*
X8680000Y-14065000I10000J0D01*
G01*
X8695000Y-7100000D02*
G75*
G02*
X8675000Y-7100000I-10000J0D01*
G01*
X8675000Y-7100000D02*
G75*
G02*
X8695000Y-7100000I10000J0D01*
G01*
X8695000Y-7175000D02*
G75*
G02*
X8675000Y-7175000I-10000J0D01*
G01*
X8675000Y-7175000D02*
G75*
G02*
X8695000Y-7175000I10000J0D01*
G01*
X8695000Y-7705000D02*
G75*
G02*
X8675000Y-7705000I-10000J0D01*
G01*
X8675000Y-7705000D02*
G75*
G02*
X8695000Y-7705000I10000J0D01*
G01*
X8695000Y-8800000D02*
G75*
G02*
X8675000Y-8800000I-10000J0D01*
G01*
X8675000Y-8800000D02*
G75*
G02*
X8695000Y-8800000I10000J0D01*
G01*
X8708000Y-8070000D02*
G75*
G02*
X8688000Y-8070000I-10000J0D01*
G01*
X8688000Y-8070000D02*
G75*
G02*
X8708000Y-8070000I10000J0D01*
G01*
X8710000Y-9180000D02*
G75*
G02*
X8690000Y-9180000I-10000J0D01*
G01*
X8690000Y-9180000D02*
G75*
G02*
X8710000Y-9180000I10000J0D01*
G01*
X8710000Y-9355000D02*
G75*
G02*
X8690000Y-9355000I-10000J0D01*
G01*
X8690000Y-9355000D02*
G75*
G02*
X8710000Y-9355000I10000J0D01*
G01*
X8710000Y-9510000D02*
G75*
G02*
X8690000Y-9510000I-10000J0D01*
G01*
X8690000Y-9510000D02*
G75*
G02*
X8710000Y-9510000I10000J0D01*
G01*
X8710000Y-9705000D02*
G75*
G02*
X8690000Y-9705000I-10000J0D01*
G01*
X8690000Y-9705000D02*
G75*
G02*
X8710000Y-9705000I10000J0D01*
G01*
X8710000Y-13195000D02*
G75*
G02*
X8690000Y-13195000I-10000J0D01*
G01*
X8690000Y-13195000D02*
G75*
G02*
X8710000Y-13195000I10000J0D01*
G01*
X8715000Y-8955000D02*
G75*
G02*
X8695000Y-8955000I-10000J0D01*
G01*
X8695000Y-8955000D02*
G75*
G02*
X8715000Y-8955000I10000J0D01*
G01*
X8715000Y-11335000D02*
G75*
G02*
X8695000Y-11335000I-10000J0D01*
G01*
X8695000Y-11335000D02*
G75*
G02*
X8715000Y-11335000I10000J0D01*
G01*
X8715000Y-13150000D02*
G75*
G02*
X8695000Y-13150000I-10000J0D01*
G01*
X8695000Y-13150000D02*
G75*
G02*
X8715000Y-13150000I10000J0D01*
G01*
X8725000Y-8135000D02*
G75*
G02*
X8705000Y-8135000I-10000J0D01*
G01*
X8705000Y-8135000D02*
G75*
G02*
X8725000Y-8135000I10000J0D01*
G01*
X8730000Y-8760000D02*
G75*
G02*
X8710000Y-8760000I-10000J0D01*
G01*
X8710000Y-8760000D02*
G75*
G02*
X8730000Y-8760000I10000J0D01*
G01*
X8755000Y-5770000D02*
G75*
G02*
X8735000Y-5770000I-10000J0D01*
G01*
X8735000Y-5770000D02*
G75*
G02*
X8755000Y-5770000I10000J0D01*
G01*
X8755000Y-5960000D02*
G75*
G02*
X8735000Y-5960000I-10000J0D01*
G01*
X8735000Y-5960000D02*
G75*
G02*
X8755000Y-5960000I10000J0D01*
G01*
X8755000Y-6050000D02*
G75*
G02*
X8735000Y-6050000I-10000J0D01*
G01*
X8735000Y-6050000D02*
G75*
G02*
X8755000Y-6050000I10000J0D01*
G01*
X8755000Y-6140000D02*
G75*
G02*
X8735000Y-6140000I-10000J0D01*
G01*
X8735000Y-6140000D02*
G75*
G02*
X8755000Y-6140000I10000J0D01*
G01*
X8755000Y-6230000D02*
G75*
G02*
X8735000Y-6230000I-10000J0D01*
G01*
X8735000Y-6230000D02*
G75*
G02*
X8755000Y-6230000I10000J0D01*
G01*
X8755000Y-6320000D02*
G75*
G02*
X8735000Y-6320000I-10000J0D01*
G01*
X8735000Y-6320000D02*
G75*
G02*
X8755000Y-6320000I10000J0D01*
G01*
X8755000Y-6410000D02*
G75*
G02*
X8735000Y-6410000I-10000J0D01*
G01*
X8735000Y-6410000D02*
G75*
G02*
X8755000Y-6410000I10000J0D01*
G01*
X8760000Y-13857500D02*
G75*
G02*
X8740000Y-13857500I-10000J0D01*
G01*
X8740000Y-13857500D02*
G75*
G02*
X8760000Y-13857500I10000J0D01*
G01*
X8760000Y-13905000D02*
G75*
G02*
X8740000Y-13905000I-10000J0D01*
G01*
X8740000Y-13905000D02*
G75*
G02*
X8760000Y-13905000I10000J0D01*
G01*
X8770000Y-7410000D02*
G75*
G02*
X8750000Y-7410000I-10000J0D01*
G01*
X8750000Y-7410000D02*
G75*
G02*
X8770000Y-7410000I10000J0D01*
G01*
X8770000Y-13810000D02*
G75*
G02*
X8750000Y-13810000I-10000J0D01*
G01*
X8750000Y-13810000D02*
G75*
G02*
X8770000Y-13810000I10000J0D01*
G01*
X8777500Y-7477500D02*
G75*
G02*
X8757500Y-7477500I-10000J0D01*
G01*
X8757500Y-7477500D02*
G75*
G02*
X8777500Y-7477500I10000J0D01*
G01*
X8780000Y-9705000D02*
G75*
G02*
X8760000Y-9705000I-10000J0D01*
G01*
X8760000Y-9705000D02*
G75*
G02*
X8780000Y-9705000I10000J0D01*
G01*
X8785000Y-8180000D02*
G75*
G02*
X8765000Y-8180000I-10000J0D01*
G01*
X8765000Y-8180000D02*
G75*
G02*
X8785000Y-8180000I10000J0D01*
G01*
X8785000Y-8820000D02*
G75*
G02*
X8765000Y-8820000I-10000J0D01*
G01*
X8765000Y-8820000D02*
G75*
G02*
X8785000Y-8820000I10000J0D01*
G01*
X8785000Y-10675000D02*
G75*
G02*
X8765000Y-10675000I-10000J0D01*
G01*
X8765000Y-10675000D02*
G75*
G02*
X8785000Y-10675000I10000J0D01*
G01*
X8790000Y-9750000D02*
G75*
G02*
X8770000Y-9750000I-10000J0D01*
G01*
X8770000Y-9750000D02*
G75*
G02*
X8790000Y-9750000I10000J0D01*
G01*
X8790000Y-13450000D02*
G75*
G02*
X8770000Y-13450000I-10000J0D01*
G01*
X8770000Y-13450000D02*
G75*
G02*
X8790000Y-13450000I10000J0D01*
G01*
X8790000Y-13765000D02*
G75*
G02*
X8770000Y-13765000I-10000J0D01*
G01*
X8770000Y-13765000D02*
G75*
G02*
X8790000Y-13765000I10000J0D01*
G01*
X8800000Y-5870000D02*
G75*
G02*
X8780000Y-5870000I-10000J0D01*
G01*
X8780000Y-5870000D02*
G75*
G02*
X8800000Y-5870000I10000J0D01*
G01*
X8800000Y-9510000D02*
G75*
G02*
X8780000Y-9510000I-10000J0D01*
G01*
X8780000Y-9510000D02*
G75*
G02*
X8800000Y-9510000I10000J0D01*
G01*
X8800000Y-9930000D02*
G75*
G02*
X8780000Y-9930000I-10000J0D01*
G01*
X8780000Y-9930000D02*
G75*
G02*
X8800000Y-9930000I10000J0D01*
G01*
X8815000Y-7400000D02*
G75*
G02*
X8795000Y-7400000I-10000J0D01*
G01*
X8795000Y-7400000D02*
G75*
G02*
X8815000Y-7400000I10000J0D01*
G01*
X8815000Y-9245000D02*
G75*
G02*
X8795000Y-9245000I-10000J0D01*
G01*
X8795000Y-9245000D02*
G75*
G02*
X8815000Y-9245000I10000J0D01*
G01*
X8815000Y-12600000D02*
G75*
G02*
X8795000Y-12600000I-10000J0D01*
G01*
X8795000Y-12600000D02*
G75*
G02*
X8815000Y-12600000I10000J0D01*
G01*
X8820000Y-14000000D02*
G75*
G02*
X8800000Y-14000000I-10000J0D01*
G01*
X8800000Y-14000000D02*
G75*
G02*
X8820000Y-14000000I10000J0D01*
G01*
X8825000Y-7535000D02*
G75*
G02*
X8805000Y-7535000I-10000J0D01*
G01*
X8805000Y-7535000D02*
G75*
G02*
X8825000Y-7535000I10000J0D01*
G01*
X8825000Y-7665000D02*
G75*
G02*
X8805000Y-7665000I-10000J0D01*
G01*
X8805000Y-7665000D02*
G75*
G02*
X8825000Y-7665000I10000J0D01*
G01*
X8825000Y-7790000D02*
G75*
G02*
X8805000Y-7790000I-10000J0D01*
G01*
X8805000Y-7790000D02*
G75*
G02*
X8825000Y-7790000I10000J0D01*
G01*
X8830000Y-6105000D02*
G75*
G02*
X8810000Y-6105000I-10000J0D01*
G01*
X8810000Y-6105000D02*
G75*
G02*
X8830000Y-6105000I10000J0D01*
G01*
X8830000Y-8460000D02*
G75*
G02*
X8810000Y-8460000I-10000J0D01*
G01*
X8810000Y-8460000D02*
G75*
G02*
X8830000Y-8460000I10000J0D01*
G01*
X8837500Y-8685000D02*
G75*
G02*
X8817500Y-8685000I-10000J0D01*
G01*
X8817500Y-8685000D02*
G75*
G02*
X8837500Y-8685000I10000J0D01*
G01*
X8840000Y-8260000D02*
G75*
G02*
X8820000Y-8260000I-10000J0D01*
G01*
X8820000Y-8260000D02*
G75*
G02*
X8840000Y-8260000I10000J0D01*
G01*
X8845000Y-5770000D02*
G75*
G02*
X8825000Y-5770000I-10000J0D01*
G01*
X8825000Y-5770000D02*
G75*
G02*
X8845000Y-5770000I10000J0D01*
G01*
X8845000Y-6060000D02*
G75*
G02*
X8825000Y-6060000I-10000J0D01*
G01*
X8825000Y-6060000D02*
G75*
G02*
X8845000Y-6060000I10000J0D01*
G01*
X8845000Y-6150000D02*
G75*
G02*
X8825000Y-6150000I-10000J0D01*
G01*
X8825000Y-6150000D02*
G75*
G02*
X8845000Y-6150000I10000J0D01*
G01*
X8845000Y-6400000D02*
G75*
G02*
X8825000Y-6400000I-10000J0D01*
G01*
X8825000Y-6400000D02*
G75*
G02*
X8845000Y-6400000I10000J0D01*
G01*
X8845000Y-6475000D02*
G75*
G02*
X8825000Y-6475000I-10000J0D01*
G01*
X8825000Y-6475000D02*
G75*
G02*
X8845000Y-6475000I10000J0D01*
G01*
X8860000Y-8065000D02*
G75*
G02*
X8840000Y-8065000I-10000J0D01*
G01*
X8840000Y-8065000D02*
G75*
G02*
X8860000Y-8065000I10000J0D01*
G01*
X8860000Y-13915000D02*
G75*
G02*
X8840000Y-13915000I-10000J0D01*
G01*
X8840000Y-13915000D02*
G75*
G02*
X8860000Y-13915000I10000J0D01*
G01*
X8867500Y-10800000D02*
G75*
G02*
X8847500Y-10800000I-10000J0D01*
G01*
X8847500Y-10800000D02*
G75*
G02*
X8867500Y-10800000I10000J0D01*
G01*
X8870000Y-6710000D02*
G75*
G02*
X8850000Y-6710000I-10000J0D01*
G01*
X8850000Y-6710000D02*
G75*
G02*
X8870000Y-6710000I10000J0D01*
G01*
X8870000Y-6990000D02*
G75*
G02*
X8850000Y-6990000I-10000J0D01*
G01*
X8850000Y-6990000D02*
G75*
G02*
X8870000Y-6990000I10000J0D01*
G01*
X8870000Y-7120000D02*
G75*
G02*
X8850000Y-7120000I-10000J0D01*
G01*
X8850000Y-7120000D02*
G75*
G02*
X8870000Y-7120000I10000J0D01*
G01*
X8870000Y-13450000D02*
G75*
G02*
X8850000Y-13450000I-10000J0D01*
G01*
X8850000Y-13450000D02*
G75*
G02*
X8870000Y-13450000I10000J0D01*
G01*
X8875000Y-7070000D02*
G75*
G02*
X8855000Y-7070000I-10000J0D01*
G01*
X8855000Y-7070000D02*
G75*
G02*
X8875000Y-7070000I10000J0D01*
G01*
X8880000Y-10415000D02*
G75*
G02*
X8860000Y-10415000I-10000J0D01*
G01*
X8860000Y-10415000D02*
G75*
G02*
X8880000Y-10415000I10000J0D01*
G01*
X8882500Y-9975000D02*
G75*
G02*
X8862500Y-9975000I-10000J0D01*
G01*
X8862500Y-9975000D02*
G75*
G02*
X8882500Y-9975000I10000J0D01*
G01*
X8885000Y-6095000D02*
G75*
G02*
X8865000Y-6095000I-10000J0D01*
G01*
X8865000Y-6095000D02*
G75*
G02*
X8885000Y-6095000I10000J0D01*
G01*
X8885000Y-6185000D02*
G75*
G02*
X8865000Y-6185000I-10000J0D01*
G01*
X8865000Y-6185000D02*
G75*
G02*
X8885000Y-6185000I10000J0D01*
G01*
X8885000Y-6275000D02*
G75*
G02*
X8865000Y-6275000I-10000J0D01*
G01*
X8865000Y-6275000D02*
G75*
G02*
X8885000Y-6275000I10000J0D01*
G01*
X8885000Y-6365000D02*
G75*
G02*
X8865000Y-6365000I-10000J0D01*
G01*
X8865000Y-6365000D02*
G75*
G02*
X8885000Y-6365000I10000J0D01*
G01*
X8890000Y-5870000D02*
G75*
G02*
X8870000Y-5870000I-10000J0D01*
G01*
X8870000Y-5870000D02*
G75*
G02*
X8890000Y-5870000I10000J0D01*
G01*
X8890000Y-6430000D02*
G75*
G02*
X8870000Y-6430000I-10000J0D01*
G01*
X8870000Y-6430000D02*
G75*
G02*
X8890000Y-6430000I10000J0D01*
G01*
X8895000Y-11550000D02*
G75*
G02*
X8875000Y-11550000I-10000J0D01*
G01*
X8875000Y-11550000D02*
G75*
G02*
X8895000Y-11550000I10000J0D01*
G01*
X8897500Y-9352500D02*
G75*
G02*
X8877500Y-9352500I-10000J0D01*
G01*
X8877500Y-9352500D02*
G75*
G02*
X8897500Y-9352500I10000J0D01*
G01*
X8900000Y-9615000D02*
G75*
G02*
X8880000Y-9615000I-10000J0D01*
G01*
X8880000Y-9615000D02*
G75*
G02*
X8900000Y-9615000I10000J0D01*
G01*
X8900000Y-9670000D02*
G75*
G02*
X8880000Y-9670000I-10000J0D01*
G01*
X8880000Y-9670000D02*
G75*
G02*
X8900000Y-9670000I10000J0D01*
G01*
X8900000Y-10345000D02*
G75*
G02*
X8880000Y-10345000I-10000J0D01*
G01*
X8880000Y-10345000D02*
G75*
G02*
X8900000Y-10345000I10000J0D01*
G01*
X8900000Y-12590000D02*
G75*
G02*
X8880000Y-12590000I-10000J0D01*
G01*
X8880000Y-12590000D02*
G75*
G02*
X8900000Y-12590000I10000J0D01*
G01*
X8905000Y-7600000D02*
G75*
G02*
X8885000Y-7600000I-10000J0D01*
G01*
X8885000Y-7600000D02*
G75*
G02*
X8905000Y-7600000I10000J0D01*
G01*
X8905000Y-7705000D02*
G75*
G02*
X8885000Y-7705000I-10000J0D01*
G01*
X8885000Y-7705000D02*
G75*
G02*
X8905000Y-7705000I10000J0D01*
G01*
X8910000Y-7825000D02*
G75*
G02*
X8890000Y-7825000I-10000J0D01*
G01*
X8890000Y-7825000D02*
G75*
G02*
X8910000Y-7825000I10000J0D01*
G01*
X8910000Y-9820000D02*
G75*
G02*
X8890000Y-9820000I-10000J0D01*
G01*
X8890000Y-9820000D02*
G75*
G02*
X8910000Y-9820000I10000J0D01*
G01*
X8912500Y-7515000D02*
G75*
G02*
X8892500Y-7515000I-10000J0D01*
G01*
X8892500Y-7515000D02*
G75*
G02*
X8912500Y-7515000I10000J0D01*
G01*
X8915000Y-6895000D02*
G75*
G02*
X8895000Y-6895000I-10000J0D01*
G01*
X8895000Y-6895000D02*
G75*
G02*
X8915000Y-6895000I10000J0D01*
G01*
X8920000Y-8100000D02*
G75*
G02*
X8900000Y-8100000I-10000J0D01*
G01*
X8900000Y-8100000D02*
G75*
G02*
X8920000Y-8100000I10000J0D01*
G01*
X8920000Y-9775000D02*
G75*
G02*
X8900000Y-9775000I-10000J0D01*
G01*
X8900000Y-9775000D02*
G75*
G02*
X8920000Y-9775000I10000J0D01*
G01*
X8920000Y-10160000D02*
G75*
G02*
X8900000Y-10160000I-10000J0D01*
G01*
X8900000Y-10160000D02*
G75*
G02*
X8920000Y-10160000I10000J0D01*
G01*
X8920000Y-13245000D02*
G75*
G02*
X8900000Y-13245000I-10000J0D01*
G01*
X8900000Y-13245000D02*
G75*
G02*
X8920000Y-13245000I10000J0D01*
G01*
X8925000Y-13840000D02*
G75*
G02*
X8905000Y-13840000I-10000J0D01*
G01*
X8905000Y-13840000D02*
G75*
G02*
X8925000Y-13840000I10000J0D01*
G01*
X8930000Y-6690000D02*
G75*
G02*
X8910000Y-6690000I-10000J0D01*
G01*
X8910000Y-6690000D02*
G75*
G02*
X8930000Y-6690000I10000J0D01*
G01*
X8930000Y-6765000D02*
G75*
G02*
X8910000Y-6765000I-10000J0D01*
G01*
X8910000Y-6765000D02*
G75*
G02*
X8930000Y-6765000I10000J0D01*
G01*
X8930000Y-7745000D02*
G75*
G02*
X8910000Y-7745000I-10000J0D01*
G01*
X8910000Y-7745000D02*
G75*
G02*
X8930000Y-7745000I10000J0D01*
G01*
X8930000Y-14075000D02*
G75*
G02*
X8910000Y-14075000I-10000J0D01*
G01*
X8910000Y-14075000D02*
G75*
G02*
X8930000Y-14075000I10000J0D01*
G01*
X8935000Y-8180000D02*
G75*
G02*
X8915000Y-8180000I-10000J0D01*
G01*
X8915000Y-8180000D02*
G75*
G02*
X8935000Y-8180000I10000J0D01*
G01*
X8935000Y-8820000D02*
G75*
G02*
X8915000Y-8820000I-10000J0D01*
G01*
X8915000Y-8820000D02*
G75*
G02*
X8935000Y-8820000I10000J0D01*
G01*
X8935000Y-11105000D02*
G75*
G02*
X8915000Y-11105000I-10000J0D01*
G01*
X8915000Y-11105000D02*
G75*
G02*
X8935000Y-11105000I10000J0D01*
G01*
X8935000Y-13500000D02*
G75*
G02*
X8915000Y-13500000I-10000J0D01*
G01*
X8915000Y-13500000D02*
G75*
G02*
X8935000Y-13500000I10000J0D01*
G01*
X8945250Y-11550230D02*
G75*
G02*
X8925250Y-11550230I-10000J0D01*
G01*
X8925250Y-11550230D02*
G75*
G02*
X8945250Y-11550230I10000J0D01*
G01*
X8950000Y-9970000D02*
G75*
G02*
X8930000Y-9970000I-10000J0D01*
G01*
X8930000Y-9970000D02*
G75*
G02*
X8950000Y-9970000I10000J0D01*
G01*
X8950000Y-13320000D02*
G75*
G02*
X8930000Y-13320000I-10000J0D01*
G01*
X8930000Y-13320000D02*
G75*
G02*
X8950000Y-13320000I10000J0D01*
G01*
X8955000Y-6970000D02*
G75*
G02*
X8935000Y-6970000I-10000J0D01*
G01*
X8935000Y-6970000D02*
G75*
G02*
X8955000Y-6970000I10000J0D01*
G01*
X8960000Y-10195000D02*
G75*
G02*
X8940000Y-10195000I-10000J0D01*
G01*
X8940000Y-10195000D02*
G75*
G02*
X8960000Y-10195000I10000J0D01*
G01*
X8960000Y-13105000D02*
G75*
G02*
X8940000Y-13105000I-10000J0D01*
G01*
X8940000Y-13105000D02*
G75*
G02*
X8960000Y-13105000I10000J0D01*
G01*
X8965000Y-9750000D02*
G75*
G02*
X8945000Y-9750000I-10000J0D01*
G01*
X8945000Y-9750000D02*
G75*
G02*
X8965000Y-9750000I10000J0D01*
G01*
X8965000Y-11185000D02*
G75*
G02*
X8945000Y-11185000I-10000J0D01*
G01*
X8945000Y-11185000D02*
G75*
G02*
X8965000Y-11185000I10000J0D01*
G01*
X8965000Y-13170000D02*
G75*
G02*
X8945000Y-13170000I-10000J0D01*
G01*
X8945000Y-13170000D02*
G75*
G02*
X8965000Y-13170000I10000J0D01*
G01*
X8980000Y-9240000D02*
G75*
G02*
X8960000Y-9240000I-10000J0D01*
G01*
X8960000Y-9240000D02*
G75*
G02*
X8980000Y-9240000I10000J0D01*
G01*
X8985000Y-6277000D02*
G75*
G02*
X8965000Y-6277000I-10000J0D01*
G01*
X8965000Y-6277000D02*
G75*
G02*
X8985000Y-6277000I10000J0D01*
G01*
X8985000Y-6455000D02*
G75*
G02*
X8965000Y-6455000I-10000J0D01*
G01*
X8965000Y-6455000D02*
G75*
G02*
X8985000Y-6455000I10000J0D01*
G01*
X8990000Y-9815000D02*
G75*
G02*
X8970000Y-9815000I-10000J0D01*
G01*
X8970000Y-9815000D02*
G75*
G02*
X8990000Y-9815000I10000J0D01*
G01*
X9000000Y-6015000D02*
G75*
G02*
X8980000Y-6015000I-10000J0D01*
G01*
X8980000Y-6015000D02*
G75*
G02*
X9000000Y-6015000I10000J0D01*
G01*
X9000000Y-6195000D02*
G75*
G02*
X8980000Y-6195000I-10000J0D01*
G01*
X8980000Y-6195000D02*
G75*
G02*
X9000000Y-6195000I10000J0D01*
G01*
X9000000Y-12805000D02*
G75*
G02*
X8980000Y-12805000I-10000J0D01*
G01*
X8980000Y-12805000D02*
G75*
G02*
X9000000Y-12805000I10000J0D01*
G01*
X9005000Y-6586250D02*
G75*
G02*
X8985000Y-6586250I-10000J0D01*
G01*
X8985000Y-6586250D02*
G75*
G02*
X9005000Y-6586250I10000J0D01*
G01*
X9010000Y-7200000D02*
G75*
G02*
X8990000Y-7200000I-10000J0D01*
G01*
X8990000Y-7200000D02*
G75*
G02*
X9010000Y-7200000I10000J0D01*
G01*
X9015000Y-7840000D02*
G75*
G02*
X8995000Y-7840000I-10000J0D01*
G01*
X8995000Y-7840000D02*
G75*
G02*
X9015000Y-7840000I10000J0D01*
G01*
X9017500Y-8137500D02*
G75*
G02*
X8997500Y-8137500I-10000J0D01*
G01*
X8997500Y-8137500D02*
G75*
G02*
X9017500Y-8137500I10000J0D01*
G01*
X9040000Y-6055000D02*
G75*
G02*
X9020000Y-6055000I-10000J0D01*
G01*
X9020000Y-6055000D02*
G75*
G02*
X9040000Y-6055000I10000J0D01*
G01*
X9040000Y-8895000D02*
G75*
G02*
X9020000Y-8895000I-10000J0D01*
G01*
X9020000Y-8895000D02*
G75*
G02*
X9040000Y-8895000I10000J0D01*
G01*
X9050000Y-6280000D02*
G75*
G02*
X9030000Y-6280000I-10000J0D01*
G01*
X9030000Y-6280000D02*
G75*
G02*
X9050000Y-6280000I10000J0D01*
G01*
X9050000Y-6405000D02*
G75*
G02*
X9030000Y-6405000I-10000J0D01*
G01*
X9030000Y-6405000D02*
G75*
G02*
X9050000Y-6405000I10000J0D01*
G01*
X9050000Y-7095000D02*
G75*
G02*
X9030000Y-7095000I-10000J0D01*
G01*
X9030000Y-7095000D02*
G75*
G02*
X9050000Y-7095000I10000J0D01*
G01*
X9050000Y-13335000D02*
G75*
G02*
X9030000Y-13335000I-10000J0D01*
G01*
X9030000Y-13335000D02*
G75*
G02*
X9050000Y-13335000I10000J0D01*
G01*
X9055000Y-7260000D02*
G75*
G02*
X9035000Y-7260000I-10000J0D01*
G01*
X9035000Y-7260000D02*
G75*
G02*
X9055000Y-7260000I10000J0D01*
G01*
X9062500Y-6802500D02*
G75*
G02*
X9042500Y-6802500I-10000J0D01*
G01*
X9042500Y-6802500D02*
G75*
G02*
X9062500Y-6802500I10000J0D01*
G01*
X9062500Y-14122500D02*
G75*
G02*
X9042500Y-14122500I-10000J0D01*
G01*
X9042500Y-14122500D02*
G75*
G02*
X9062500Y-14122500I10000J0D01*
G01*
X9075000Y-8810000D02*
G75*
G02*
X9055000Y-8810000I-10000J0D01*
G01*
X9055000Y-8810000D02*
G75*
G02*
X9075000Y-8810000I10000J0D01*
G01*
X9077500Y-10965000D02*
G75*
G02*
X9057500Y-10965000I-10000J0D01*
G01*
X9057500Y-10965000D02*
G75*
G02*
X9077500Y-10965000I10000J0D01*
G01*
X9080000Y-8170000D02*
G75*
G02*
X9060000Y-8170000I-10000J0D01*
G01*
X9060000Y-8170000D02*
G75*
G02*
X9080000Y-8170000I10000J0D01*
G01*
X9085000Y-6440000D02*
G75*
G02*
X9065000Y-6440000I-10000J0D01*
G01*
X9065000Y-6440000D02*
G75*
G02*
X9085000Y-6440000I10000J0D01*
G01*
X9085000Y-9245000D02*
G75*
G02*
X9065000Y-9245000I-10000J0D01*
G01*
X9065000Y-9245000D02*
G75*
G02*
X9085000Y-9245000I10000J0D01*
G01*
X9085000Y-9430000D02*
G75*
G02*
X9065000Y-9430000I-10000J0D01*
G01*
X9065000Y-9430000D02*
G75*
G02*
X9085000Y-9430000I10000J0D01*
G01*
X9087500Y-7930000D02*
G75*
G02*
X9067500Y-7930000I-10000J0D01*
G01*
X9067500Y-7930000D02*
G75*
G02*
X9087500Y-7930000I10000J0D01*
G01*
X9095000Y-8900000D02*
G75*
G02*
X9075000Y-8900000I-10000J0D01*
G01*
X9075000Y-8900000D02*
G75*
G02*
X9095000Y-8900000I10000J0D01*
G01*
X9100000Y-10245000D02*
G75*
G02*
X9080000Y-10245000I-10000J0D01*
G01*
X9080000Y-10245000D02*
G75*
G02*
X9100000Y-10245000I10000J0D01*
G01*
X9105000Y-13485000D02*
G75*
G02*
X9085000Y-13485000I-10000J0D01*
G01*
X9085000Y-13485000D02*
G75*
G02*
X9105000Y-13485000I10000J0D01*
G01*
X9115000Y-6225000D02*
G75*
G02*
X9095000Y-6225000I-10000J0D01*
G01*
X9095000Y-6225000D02*
G75*
G02*
X9115000Y-6225000I10000J0D01*
G01*
X9115000Y-6475000D02*
G75*
G02*
X9095000Y-6475000I-10000J0D01*
G01*
X9095000Y-6475000D02*
G75*
G02*
X9115000Y-6475000I10000J0D01*
G01*
X9115000Y-7110000D02*
G75*
G02*
X9095000Y-7110000I-10000J0D01*
G01*
X9095000Y-7110000D02*
G75*
G02*
X9115000Y-7110000I10000J0D01*
G01*
X9120000Y-9605000D02*
G75*
G02*
X9100000Y-9605000I-10000J0D01*
G01*
X9100000Y-9605000D02*
G75*
G02*
X9120000Y-9605000I10000J0D01*
G01*
X9120000Y-13395000D02*
G75*
G02*
X9100000Y-13395000I-10000J0D01*
G01*
X9100000Y-13395000D02*
G75*
G02*
X9120000Y-13395000I10000J0D01*
G01*
X9120000Y-13785000D02*
G75*
G02*
X9100000Y-13785000I-10000J0D01*
G01*
X9100000Y-13785000D02*
G75*
G02*
X9120000Y-13785000I10000J0D01*
G01*
X9122500Y-10005000D02*
G75*
G02*
X9102500Y-10005000I-10000J0D01*
G01*
X9102500Y-10005000D02*
G75*
G02*
X9122500Y-10005000I10000J0D01*
G01*
X9125000Y-6000000D02*
G75*
G02*
X9105000Y-6000000I-10000J0D01*
G01*
X9105000Y-6000000D02*
G75*
G02*
X9125000Y-6000000I10000J0D01*
G01*
X9125000Y-10350000D02*
G75*
G02*
X9105000Y-10350000I-10000J0D01*
G01*
X9105000Y-10350000D02*
G75*
G02*
X9125000Y-10350000I10000J0D01*
G01*
X9130000Y-7235000D02*
G75*
G02*
X9110000Y-7235000I-10000J0D01*
G01*
X9110000Y-7235000D02*
G75*
G02*
X9130000Y-7235000I10000J0D01*
G01*
X9130000Y-9355000D02*
G75*
G02*
X9110000Y-9355000I-10000J0D01*
G01*
X9110000Y-9355000D02*
G75*
G02*
X9130000Y-9355000I10000J0D01*
G01*
X9130000Y-9655000D02*
G75*
G02*
X9110000Y-9655000I-10000J0D01*
G01*
X9110000Y-9655000D02*
G75*
G02*
X9130000Y-9655000I10000J0D01*
G01*
X9130000Y-9775000D02*
G75*
G02*
X9110000Y-9775000I-10000J0D01*
G01*
X9110000Y-9775000D02*
G75*
G02*
X9130000Y-9775000I10000J0D01*
G01*
X9130000Y-9830000D02*
G75*
G02*
X9110000Y-9830000I-10000J0D01*
G01*
X9110000Y-9830000D02*
G75*
G02*
X9130000Y-9830000I10000J0D01*
G01*
X9135000Y-9440000D02*
G75*
G02*
X9115000Y-9440000I-10000J0D01*
G01*
X9115000Y-9440000D02*
G75*
G02*
X9135000Y-9440000I10000J0D01*
G01*
X9135000Y-9715000D02*
G75*
G02*
X9115000Y-9715000I-10000J0D01*
G01*
X9115000Y-9715000D02*
G75*
G02*
X9135000Y-9715000I10000J0D01*
G01*
X9150000Y-9145000D02*
G75*
G02*
X9130000Y-9145000I-10000J0D01*
G01*
X9130000Y-9145000D02*
G75*
G02*
X9150000Y-9145000I10000J0D01*
G01*
X9155000Y-8720000D02*
G75*
G02*
X9135000Y-8720000I-10000J0D01*
G01*
X9135000Y-8720000D02*
G75*
G02*
X9155000Y-8720000I10000J0D01*
G01*
X9155000Y-9315000D02*
G75*
G02*
X9135000Y-9315000I-10000J0D01*
G01*
X9135000Y-9315000D02*
G75*
G02*
X9155000Y-9315000I10000J0D01*
G01*
X9160000Y-9515000D02*
G75*
G02*
X9140000Y-9515000I-10000J0D01*
G01*
X9140000Y-9515000D02*
G75*
G02*
X9160000Y-9515000I10000J0D01*
G01*
X9165000Y-9215000D02*
G75*
G02*
X9145000Y-9215000I-10000J0D01*
G01*
X9145000Y-9215000D02*
G75*
G02*
X9165000Y-9215000I10000J0D01*
G01*
X9170000Y-7625000D02*
G75*
G02*
X9150000Y-7625000I-10000J0D01*
G01*
X9150000Y-7625000D02*
G75*
G02*
X9170000Y-7625000I10000J0D01*
G01*
X9170000Y-8010000D02*
G75*
G02*
X9150000Y-8010000I-10000J0D01*
G01*
X9150000Y-8010000D02*
G75*
G02*
X9170000Y-8010000I10000J0D01*
G01*
X9180000Y-8325000D02*
G75*
G02*
X9160000Y-8325000I-10000J0D01*
G01*
X9160000Y-8325000D02*
G75*
G02*
X9180000Y-8325000I10000J0D01*
G01*
X9180000Y-8375000D02*
G75*
G02*
X9160000Y-8375000I-10000J0D01*
G01*
X9160000Y-8375000D02*
G75*
G02*
X9180000Y-8375000I10000J0D01*
G01*
X9190000Y-8260000D02*
G75*
G02*
X9170000Y-8260000I-10000J0D01*
G01*
X9170000Y-8260000D02*
G75*
G02*
X9190000Y-8260000I10000J0D01*
G01*
X9195000Y-8450000D02*
G75*
G02*
X9175000Y-8450000I-10000J0D01*
G01*
X9175000Y-8450000D02*
G75*
G02*
X9195000Y-8450000I10000J0D01*
G01*
X9205000Y-7210000D02*
G75*
G02*
X9185000Y-7210000I-10000J0D01*
G01*
X9185000Y-7210000D02*
G75*
G02*
X9205000Y-7210000I10000J0D01*
G01*
X9205000Y-8715000D02*
G75*
G02*
X9185000Y-8715000I-10000J0D01*
G01*
X9185000Y-8715000D02*
G75*
G02*
X9205000Y-8715000I10000J0D01*
G01*
X9210000Y-6225000D02*
G75*
G02*
X9190000Y-6225000I-10000J0D01*
G01*
X9190000Y-6225000D02*
G75*
G02*
X9210000Y-6225000I10000J0D01*
G01*
X9210000Y-13877500D02*
G75*
G02*
X9190000Y-13877500I-10000J0D01*
G01*
X9190000Y-13877500D02*
G75*
G02*
X9210000Y-13877500I10000J0D01*
G01*
X9212500Y-7087500D02*
G75*
G02*
X9192500Y-7087500I-10000J0D01*
G01*
X9192500Y-7087500D02*
G75*
G02*
X9212500Y-7087500I10000J0D01*
G01*
X9215000Y-7565000D02*
G75*
G02*
X9195000Y-7565000I-10000J0D01*
G01*
X9195000Y-7565000D02*
G75*
G02*
X9215000Y-7565000I10000J0D01*
G01*
X9235000Y-6335000D02*
G75*
G02*
X9215000Y-6335000I-10000J0D01*
G01*
X9215000Y-6335000D02*
G75*
G02*
X9235000Y-6335000I10000J0D01*
G01*
X9240000Y-6445000D02*
G75*
G02*
X9220000Y-6445000I-10000J0D01*
G01*
X9220000Y-6445000D02*
G75*
G02*
X9240000Y-6445000I10000J0D01*
G01*
X9240000Y-8895000D02*
G75*
G02*
X9220000Y-8895000I-10000J0D01*
G01*
X9220000Y-8895000D02*
G75*
G02*
X9240000Y-8895000I10000J0D01*
G01*
X9250000Y-6900000D02*
G75*
G02*
X9230000Y-6900000I-10000J0D01*
G01*
X9230000Y-6900000D02*
G75*
G02*
X9250000Y-6900000I10000J0D01*
G01*
X9257500Y-8250000D02*
G75*
G02*
X9237500Y-8250000I-10000J0D01*
G01*
X9237500Y-8250000D02*
G75*
G02*
X9257500Y-8250000I10000J0D01*
G01*
X9265000Y-8005000D02*
G75*
G02*
X9245000Y-8005000I-10000J0D01*
G01*
X9245000Y-8005000D02*
G75*
G02*
X9265000Y-8005000I10000J0D01*
G01*
X9265000Y-8415000D02*
G75*
G02*
X9245000Y-8415000I-10000J0D01*
G01*
X9245000Y-8415000D02*
G75*
G02*
X9265000Y-8415000I10000J0D01*
G01*
X9265000Y-11225000D02*
G75*
G02*
X9245000Y-11225000I-10000J0D01*
G01*
X9245000Y-11225000D02*
G75*
G02*
X9265000Y-11225000I10000J0D01*
G01*
X9265000Y-13475000D02*
G75*
G02*
X9245000Y-13475000I-10000J0D01*
G01*
X9245000Y-13475000D02*
G75*
G02*
X9265000Y-13475000I10000J0D01*
G01*
X9272500Y-7335000D02*
G75*
G02*
X9252500Y-7335000I-10000J0D01*
G01*
X9252500Y-7335000D02*
G75*
G02*
X9272500Y-7335000I10000J0D01*
G01*
X9285000Y-9205000D02*
G75*
G02*
X9265000Y-9205000I-10000J0D01*
G01*
X9265000Y-9205000D02*
G75*
G02*
X9285000Y-9205000I10000J0D01*
G01*
X9285000Y-11300000D02*
G75*
G02*
X9265000Y-11300000I-10000J0D01*
G01*
X9265000Y-11300000D02*
G75*
G02*
X9285000Y-11300000I10000J0D01*
G01*
X9290000Y-9840000D02*
G75*
G02*
X9270000Y-9840000I-10000J0D01*
G01*
X9270000Y-9840000D02*
G75*
G02*
X9290000Y-9840000I10000J0D01*
G01*
X9295000Y-6905000D02*
G75*
G02*
X9275000Y-6905000I-10000J0D01*
G01*
X9275000Y-6905000D02*
G75*
G02*
X9295000Y-6905000I10000J0D01*
G01*
X9310000Y-8100000D02*
G75*
G02*
X9290000Y-8100000I-10000J0D01*
G01*
X9290000Y-8100000D02*
G75*
G02*
X9310000Y-8100000I10000J0D01*
G01*
X9310000Y-9530000D02*
G75*
G02*
X9290000Y-9530000I-10000J0D01*
G01*
X9290000Y-9530000D02*
G75*
G02*
X9310000Y-9530000I10000J0D01*
G01*
X9310000Y-9700000D02*
G75*
G02*
X9290000Y-9700000I-10000J0D01*
G01*
X9290000Y-9700000D02*
G75*
G02*
X9310000Y-9700000I10000J0D01*
G01*
X9312500Y-6700000D02*
G75*
G02*
X9292500Y-6700000I-10000J0D01*
G01*
X9292500Y-6700000D02*
G75*
G02*
X9312500Y-6700000I10000J0D01*
G01*
X9317500Y-6555000D02*
G75*
G02*
X9297500Y-6555000I-10000J0D01*
G01*
X9297500Y-6555000D02*
G75*
G02*
X9317500Y-6555000I10000J0D01*
G01*
X9332500Y-10005000D02*
G75*
G02*
X9312500Y-10005000I-10000J0D01*
G01*
X9312500Y-10005000D02*
G75*
G02*
X9332500Y-10005000I10000J0D01*
G01*
X9335000Y-7798000D02*
G75*
G02*
X9315000Y-7798000I-10000J0D01*
G01*
X9315000Y-7798000D02*
G75*
G02*
X9335000Y-7798000I10000J0D01*
G01*
X9340000Y-6985000D02*
G75*
G02*
X9320000Y-6985000I-10000J0D01*
G01*
X9320000Y-6985000D02*
G75*
G02*
X9340000Y-6985000I10000J0D01*
G01*
X9340000Y-9250000D02*
G75*
G02*
X9320000Y-9250000I-10000J0D01*
G01*
X9320000Y-9250000D02*
G75*
G02*
X9340000Y-9250000I10000J0D01*
G01*
X9360000Y-8151000D02*
G75*
G02*
X9340000Y-8151000I-10000J0D01*
G01*
X9340000Y-8151000D02*
G75*
G02*
X9360000Y-8151000I10000J0D01*
G01*
X9360000Y-9777500D02*
G75*
G02*
X9340000Y-9777500I-10000J0D01*
G01*
X9340000Y-9777500D02*
G75*
G02*
X9360000Y-9777500I10000J0D01*
G01*
X9365000Y-6570000D02*
G75*
G02*
X9345000Y-6570000I-10000J0D01*
G01*
X9345000Y-6570000D02*
G75*
G02*
X9365000Y-6570000I10000J0D01*
G01*
X9365000Y-7430000D02*
G75*
G02*
X9345000Y-7430000I-10000J0D01*
G01*
X9345000Y-7430000D02*
G75*
G02*
X9365000Y-7430000I10000J0D01*
G01*
X9365000Y-7635000D02*
G75*
G02*
X9345000Y-7635000I-10000J0D01*
G01*
X9345000Y-7635000D02*
G75*
G02*
X9365000Y-7635000I10000J0D01*
G01*
X9370000Y-7360000D02*
G75*
G02*
X9350000Y-7360000I-10000J0D01*
G01*
X9350000Y-7360000D02*
G75*
G02*
X9370000Y-7360000I10000J0D01*
G01*
X9375000Y-6365000D02*
G75*
G02*
X9355000Y-6365000I-10000J0D01*
G01*
X9355000Y-6365000D02*
G75*
G02*
X9375000Y-6365000I10000J0D01*
G01*
X9385000Y-13095000D02*
G75*
G02*
X9365000Y-13095000I-10000J0D01*
G01*
X9365000Y-13095000D02*
G75*
G02*
X9385000Y-13095000I10000J0D01*
G01*
X9396250Y-11495000D02*
G75*
G02*
X9376250Y-11495000I-10000J0D01*
G01*
X9376250Y-11495000D02*
G75*
G02*
X9396250Y-11495000I10000J0D01*
G01*
X9400000Y-6615000D02*
G75*
G02*
X9380000Y-6615000I-10000J0D01*
G01*
X9380000Y-6615000D02*
G75*
G02*
X9400000Y-6615000I10000J0D01*
G01*
X9405000Y-6100000D02*
G75*
G02*
X9385000Y-6100000I-10000J0D01*
G01*
X9385000Y-6100000D02*
G75*
G02*
X9405000Y-6100000I10000J0D01*
G01*
X9405000Y-8556250D02*
G75*
G02*
X9385000Y-8556250I-10000J0D01*
G01*
X9385000Y-8556250D02*
G75*
G02*
X9405000Y-8556250I10000J0D01*
G01*
X9405000Y-12600000D02*
G75*
G02*
X9385000Y-12600000I-10000J0D01*
G01*
X9385000Y-12600000D02*
G75*
G02*
X9405000Y-12600000I10000J0D01*
G01*
X9410000Y-7870000D02*
G75*
G02*
X9390000Y-7870000I-10000J0D01*
G01*
X9390000Y-7870000D02*
G75*
G02*
X9410000Y-7870000I10000J0D01*
G01*
X9410000Y-11735000D02*
G75*
G02*
X9390000Y-11735000I-10000J0D01*
G01*
X9390000Y-11735000D02*
G75*
G02*
X9410000Y-11735000I10000J0D01*
G01*
X9415000Y-7110000D02*
G75*
G02*
X9395000Y-7110000I-10000J0D01*
G01*
X9395000Y-7110000D02*
G75*
G02*
X9415000Y-7110000I10000J0D01*
G01*
X9415000Y-7770000D02*
G75*
G02*
X9395000Y-7770000I-10000J0D01*
G01*
X9395000Y-7770000D02*
G75*
G02*
X9415000Y-7770000I10000J0D01*
G01*
X9420000Y-8025000D02*
G75*
G02*
X9400000Y-8025000I-10000J0D01*
G01*
X9400000Y-8025000D02*
G75*
G02*
X9420000Y-8025000I10000J0D01*
G01*
X9420000Y-9285000D02*
G75*
G02*
X9400000Y-9285000I-10000J0D01*
G01*
X9400000Y-9285000D02*
G75*
G02*
X9420000Y-9285000I10000J0D01*
G01*
X9420000Y-13395000D02*
G75*
G02*
X9400000Y-13395000I-10000J0D01*
G01*
X9400000Y-13395000D02*
G75*
G02*
X9420000Y-13395000I10000J0D01*
G01*
X9425000Y-8130000D02*
G75*
G02*
X9405000Y-8130000I-10000J0D01*
G01*
X9405000Y-8130000D02*
G75*
G02*
X9425000Y-8130000I10000J0D01*
G01*
X9425000Y-9705000D02*
G75*
G02*
X9405000Y-9705000I-10000J0D01*
G01*
X9405000Y-9705000D02*
G75*
G02*
X9425000Y-9705000I10000J0D01*
G01*
X9440000Y-8365000D02*
G75*
G02*
X9420000Y-8365000I-10000J0D01*
G01*
X9420000Y-8365000D02*
G75*
G02*
X9440000Y-8365000I10000J0D01*
G01*
X9445000Y-8790000D02*
G75*
G02*
X9425000Y-8790000I-10000J0D01*
G01*
X9425000Y-8790000D02*
G75*
G02*
X9445000Y-8790000I10000J0D01*
G01*
X9450000Y-5745000D02*
G75*
G02*
X9430000Y-5745000I-10000J0D01*
G01*
X9430000Y-5745000D02*
G75*
G02*
X9450000Y-5745000I10000J0D01*
G01*
X9450000Y-11550000D02*
G75*
G02*
X9430000Y-11550000I-10000J0D01*
G01*
X9430000Y-11550000D02*
G75*
G02*
X9450000Y-11550000I10000J0D01*
G01*
X9460000Y-5945000D02*
G75*
G02*
X9440000Y-5945000I-10000J0D01*
G01*
X9440000Y-5945000D02*
G75*
G02*
X9460000Y-5945000I10000J0D01*
G01*
X9460000Y-6940000D02*
G75*
G02*
X9440000Y-6940000I-10000J0D01*
G01*
X9440000Y-6940000D02*
G75*
G02*
X9460000Y-6940000I10000J0D01*
G01*
X9460000Y-7177500D02*
G75*
G02*
X9440000Y-7177500I-10000J0D01*
G01*
X9440000Y-7177500D02*
G75*
G02*
X9460000Y-7177500I10000J0D01*
G01*
X9470000Y-10030000D02*
G75*
G02*
X9450000Y-10030000I-10000J0D01*
G01*
X9450000Y-10030000D02*
G75*
G02*
X9470000Y-10030000I10000J0D01*
G01*
X9475000Y-6705000D02*
G75*
G02*
X9455000Y-6705000I-10000J0D01*
G01*
X9455000Y-6705000D02*
G75*
G02*
X9475000Y-6705000I10000J0D01*
G01*
X9475000Y-7075000D02*
G75*
G02*
X9455000Y-7075000I-10000J0D01*
G01*
X9455000Y-7075000D02*
G75*
G02*
X9475000Y-7075000I10000J0D01*
G01*
X9475000Y-9295000D02*
G75*
G02*
X9455000Y-9295000I-10000J0D01*
G01*
X9455000Y-9295000D02*
G75*
G02*
X9475000Y-9295000I10000J0D01*
G01*
X9475000Y-10715000D02*
G75*
G02*
X9455000Y-10715000I-10000J0D01*
G01*
X9455000Y-10715000D02*
G75*
G02*
X9475000Y-10715000I10000J0D01*
G01*
X9475000Y-13240000D02*
G75*
G02*
X9455000Y-13240000I-10000J0D01*
G01*
X9455000Y-13240000D02*
G75*
G02*
X9475000Y-13240000I10000J0D01*
G01*
X9475000Y-13630000D02*
G75*
G02*
X9455000Y-13630000I-10000J0D01*
G01*
X9455000Y-13630000D02*
G75*
G02*
X9475000Y-13630000I10000J0D01*
G01*
X9480000Y-7130000D02*
G75*
G02*
X9460000Y-7130000I-10000J0D01*
G01*
X9460000Y-7130000D02*
G75*
G02*
X9480000Y-7130000I10000J0D01*
G01*
X9480000Y-13580000D02*
G75*
G02*
X9460000Y-13580000I-10000J0D01*
G01*
X9460000Y-13580000D02*
G75*
G02*
X9480000Y-13580000I10000J0D01*
G01*
X9485000Y-9735000D02*
G75*
G02*
X9465000Y-9735000I-10000J0D01*
G01*
X9465000Y-9735000D02*
G75*
G02*
X9485000Y-9735000I10000J0D01*
G01*
X9495000Y-7825000D02*
G75*
G02*
X9475000Y-7825000I-10000J0D01*
G01*
X9475000Y-7825000D02*
G75*
G02*
X9495000Y-7825000I10000J0D01*
G01*
X9495000Y-8995000D02*
G75*
G02*
X9475000Y-8995000I-10000J0D01*
G01*
X9475000Y-8995000D02*
G75*
G02*
X9495000Y-8995000I10000J0D01*
G01*
X9500000Y-10325000D02*
G75*
G02*
X9480000Y-10325000I-10000J0D01*
G01*
X9480000Y-10325000D02*
G75*
G02*
X9500000Y-10325000I10000J0D01*
G01*
X9505000Y-8875000D02*
G75*
G02*
X9485000Y-8875000I-10000J0D01*
G01*
X9485000Y-8875000D02*
G75*
G02*
X9505000Y-8875000I10000J0D01*
G01*
X9505000Y-11365000D02*
G75*
G02*
X9485000Y-11365000I-10000J0D01*
G01*
X9485000Y-11365000D02*
G75*
G02*
X9505000Y-11365000I10000J0D01*
G01*
X9505000Y-11460000D02*
G75*
G02*
X9485000Y-11460000I-10000J0D01*
G01*
X9485000Y-11460000D02*
G75*
G02*
X9505000Y-11460000I10000J0D01*
G01*
X9510000Y-8212500D02*
G75*
G02*
X9490000Y-8212500I-10000J0D01*
G01*
X9490000Y-8212500D02*
G75*
G02*
X9510000Y-8212500I10000J0D01*
G01*
X9515000Y-8750000D02*
G75*
G02*
X9495000Y-8750000I-10000J0D01*
G01*
X9495000Y-8750000D02*
G75*
G02*
X9515000Y-8750000I10000J0D01*
G01*
X9515000Y-10835000D02*
G75*
G02*
X9495000Y-10835000I-10000J0D01*
G01*
X9495000Y-10835000D02*
G75*
G02*
X9515000Y-10835000I10000J0D01*
G01*
X9520000Y-10255000D02*
G75*
G02*
X9500000Y-10255000I-10000J0D01*
G01*
X9500000Y-10255000D02*
G75*
G02*
X9520000Y-10255000I10000J0D01*
G01*
X9530000Y-7135000D02*
G75*
G02*
X9510000Y-7135000I-10000J0D01*
G01*
X9510000Y-7135000D02*
G75*
G02*
X9530000Y-7135000I10000J0D01*
G01*
X9530000Y-14515000D02*
G75*
G02*
X9510000Y-14515000I-10000J0D01*
G01*
X9510000Y-14515000D02*
G75*
G02*
X9530000Y-14515000I10000J0D01*
G01*
X9535000Y-6500000D02*
G75*
G02*
X9515000Y-6500000I-10000J0D01*
G01*
X9515000Y-6500000D02*
G75*
G02*
X9535000Y-6500000I10000J0D01*
G01*
X9535000Y-9420000D02*
G75*
G02*
X9515000Y-9420000I-10000J0D01*
G01*
X9515000Y-9420000D02*
G75*
G02*
X9535000Y-9420000I10000J0D01*
G01*
X9542500Y-9465000D02*
G75*
G02*
X9522500Y-9465000I-10000J0D01*
G01*
X9522500Y-9465000D02*
G75*
G02*
X9542500Y-9465000I10000J0D01*
G01*
X9545000Y-11605000D02*
G75*
G02*
X9525000Y-11605000I-10000J0D01*
G01*
X9525000Y-11605000D02*
G75*
G02*
X9545000Y-11605000I10000J0D01*
G01*
X9550000Y-8780000D02*
G75*
G02*
X9530000Y-8780000I-10000J0D01*
G01*
X9530000Y-8780000D02*
G75*
G02*
X9550000Y-8780000I10000J0D01*
G01*
X9550000Y-9000000D02*
G75*
G02*
X9530000Y-9000000I-10000J0D01*
G01*
X9530000Y-9000000D02*
G75*
G02*
X9550000Y-9000000I10000J0D01*
G01*
X9570000Y-6935000D02*
G75*
G02*
X9550000Y-6935000I-10000J0D01*
G01*
X9550000Y-6935000D02*
G75*
G02*
X9570000Y-6935000I10000J0D01*
G01*
X9570000Y-7275000D02*
G75*
G02*
X9550000Y-7275000I-10000J0D01*
G01*
X9550000Y-7275000D02*
G75*
G02*
X9570000Y-7275000I10000J0D01*
G01*
X9580000Y-9667500D02*
G75*
G02*
X9560000Y-9667500I-10000J0D01*
G01*
X9560000Y-9667500D02*
G75*
G02*
X9580000Y-9667500I10000J0D01*
G01*
X9590000Y-9980000D02*
G75*
G02*
X9570000Y-9980000I-10000J0D01*
G01*
X9570000Y-9980000D02*
G75*
G02*
X9590000Y-9980000I10000J0D01*
G01*
X9600000Y-10980000D02*
G75*
G02*
X9580000Y-10980000I-10000J0D01*
G01*
X9580000Y-10980000D02*
G75*
G02*
X9600000Y-10980000I10000J0D01*
G01*
X9600000Y-11910000D02*
G75*
G02*
X9580000Y-11910000I-10000J0D01*
G01*
X9580000Y-11910000D02*
G75*
G02*
X9600000Y-11910000I10000J0D01*
G01*
X9610000Y-6975000D02*
G75*
G02*
X9590000Y-6975000I-10000J0D01*
G01*
X9590000Y-6975000D02*
G75*
G02*
X9610000Y-6975000I10000J0D01*
G01*
X9610000Y-10165000D02*
G75*
G02*
X9590000Y-10165000I-10000J0D01*
G01*
X9590000Y-10165000D02*
G75*
G02*
X9610000Y-10165000I10000J0D01*
G01*
X9610000Y-11445000D02*
G75*
G02*
X9590000Y-11445000I-10000J0D01*
G01*
X9590000Y-11445000D02*
G75*
G02*
X9610000Y-11445000I10000J0D01*
G01*
X9615000Y-7100000D02*
G75*
G02*
X9595000Y-7100000I-10000J0D01*
G01*
X9595000Y-7100000D02*
G75*
G02*
X9615000Y-7100000I10000J0D01*
G01*
X9615000Y-8145000D02*
G75*
G02*
X9595000Y-8145000I-10000J0D01*
G01*
X9595000Y-8145000D02*
G75*
G02*
X9615000Y-8145000I10000J0D01*
G01*
X9615000Y-11145000D02*
G75*
G02*
X9595000Y-11145000I-10000J0D01*
G01*
X9595000Y-11145000D02*
G75*
G02*
X9615000Y-11145000I10000J0D01*
G01*
X9620000Y-7530000D02*
G75*
G02*
X9600000Y-7530000I-10000J0D01*
G01*
X9600000Y-7530000D02*
G75*
G02*
X9620000Y-7530000I10000J0D01*
G01*
X9620000Y-13700000D02*
G75*
G02*
X9600000Y-13700000I-10000J0D01*
G01*
X9600000Y-13700000D02*
G75*
G02*
X9620000Y-13700000I10000J0D01*
G01*
X9630000Y-7775000D02*
G75*
G02*
X9610000Y-7775000I-10000J0D01*
G01*
X9610000Y-7775000D02*
G75*
G02*
X9630000Y-7775000I10000J0D01*
G01*
X9630000Y-7880000D02*
G75*
G02*
X9610000Y-7880000I-10000J0D01*
G01*
X9610000Y-7880000D02*
G75*
G02*
X9630000Y-7880000I10000J0D01*
G01*
X9632500Y-7350000D02*
G75*
G02*
X9612500Y-7350000I-10000J0D01*
G01*
X9612500Y-7350000D02*
G75*
G02*
X9632500Y-7350000I10000J0D01*
G01*
X9635000Y-7640000D02*
G75*
G02*
X9615000Y-7640000I-10000J0D01*
G01*
X9615000Y-7640000D02*
G75*
G02*
X9635000Y-7640000I10000J0D01*
G01*
X9635000Y-7830000D02*
G75*
G02*
X9615000Y-7830000I-10000J0D01*
G01*
X9615000Y-7830000D02*
G75*
G02*
X9635000Y-7830000I10000J0D01*
G01*
X9640000Y-8775000D02*
G75*
G02*
X9620000Y-8775000I-10000J0D01*
G01*
X9620000Y-8775000D02*
G75*
G02*
X9640000Y-8775000I10000J0D01*
G01*
X9650000Y-8540000D02*
G75*
G02*
X9630000Y-8540000I-10000J0D01*
G01*
X9630000Y-8540000D02*
G75*
G02*
X9650000Y-8540000I10000J0D01*
G01*
X9650000Y-9260000D02*
G75*
G02*
X9630000Y-9260000I-10000J0D01*
G01*
X9630000Y-9260000D02*
G75*
G02*
X9650000Y-9260000I10000J0D01*
G01*
X9650000Y-11715000D02*
G75*
G02*
X9630000Y-11715000I-10000J0D01*
G01*
X9630000Y-11715000D02*
G75*
G02*
X9650000Y-11715000I10000J0D01*
G01*
X9655000Y-8030000D02*
G75*
G02*
X9635000Y-8030000I-10000J0D01*
G01*
X9635000Y-8030000D02*
G75*
G02*
X9655000Y-8030000I10000J0D01*
G01*
X9655000Y-9335000D02*
G75*
G02*
X9635000Y-9335000I-10000J0D01*
G01*
X9635000Y-9335000D02*
G75*
G02*
X9655000Y-9335000I10000J0D01*
G01*
X9660000Y-7140000D02*
G75*
G02*
X9640000Y-7140000I-10000J0D01*
G01*
X9640000Y-7140000D02*
G75*
G02*
X9660000Y-7140000I10000J0D01*
G01*
X9665000Y-7475000D02*
G75*
G02*
X9645000Y-7475000I-10000J0D01*
G01*
X9645000Y-7475000D02*
G75*
G02*
X9665000Y-7475000I10000J0D01*
G01*
X9675000Y-8320000D02*
G75*
G02*
X9655000Y-8320000I-10000J0D01*
G01*
X9655000Y-8320000D02*
G75*
G02*
X9675000Y-8320000I10000J0D01*
G01*
X9680000Y-13955000D02*
G75*
G02*
X9660000Y-13955000I-10000J0D01*
G01*
X9660000Y-13955000D02*
G75*
G02*
X9680000Y-13955000I10000J0D01*
G01*
X9685000Y-8575000D02*
G75*
G02*
X9665000Y-8575000I-10000J0D01*
G01*
X9665000Y-8575000D02*
G75*
G02*
X9685000Y-8575000I10000J0D01*
G01*
X9685000Y-11930000D02*
G75*
G02*
X9665000Y-11930000I-10000J0D01*
G01*
X9665000Y-11930000D02*
G75*
G02*
X9685000Y-11930000I10000J0D01*
G01*
X9690000Y-9885000D02*
G75*
G02*
X9670000Y-9885000I-10000J0D01*
G01*
X9670000Y-9885000D02*
G75*
G02*
X9690000Y-9885000I10000J0D01*
G01*
X9700000Y-8140000D02*
G75*
G02*
X9680000Y-8140000I-10000J0D01*
G01*
X9680000Y-8140000D02*
G75*
G02*
X9700000Y-8140000I10000J0D01*
G01*
X9710000Y-7450000D02*
G75*
G02*
X9690000Y-7450000I-10000J0D01*
G01*
X9690000Y-7450000D02*
G75*
G02*
X9710000Y-7450000I10000J0D01*
G01*
X9710000Y-9460000D02*
G75*
G02*
X9690000Y-9460000I-10000J0D01*
G01*
X9690000Y-9460000D02*
G75*
G02*
X9710000Y-9460000I10000J0D01*
G01*
X9715000Y-10060000D02*
G75*
G02*
X9695000Y-10060000I-10000J0D01*
G01*
X9695000Y-10060000D02*
G75*
G02*
X9715000Y-10060000I10000J0D01*
G01*
X9715000Y-10935000D02*
G75*
G02*
X9695000Y-10935000I-10000J0D01*
G01*
X9695000Y-10935000D02*
G75*
G02*
X9715000Y-10935000I10000J0D01*
G01*
X9735000Y-9825000D02*
G75*
G02*
X9715000Y-9825000I-10000J0D01*
G01*
X9715000Y-9825000D02*
G75*
G02*
X9735000Y-9825000I10000J0D01*
G01*
X9755000Y-7105000D02*
G75*
G02*
X9735000Y-7105000I-10000J0D01*
G01*
X9735000Y-7105000D02*
G75*
G02*
X9755000Y-7105000I10000J0D01*
G01*
X9755000Y-7245000D02*
G75*
G02*
X9735000Y-7245000I-10000J0D01*
G01*
X9735000Y-7245000D02*
G75*
G02*
X9755000Y-7245000I10000J0D01*
G01*
X9755000Y-10820000D02*
G75*
G02*
X9735000Y-10820000I-10000J0D01*
G01*
X9735000Y-10820000D02*
G75*
G02*
X9755000Y-10820000I10000J0D01*
G01*
X9760000Y-6620000D02*
G75*
G02*
X9740000Y-6620000I-10000J0D01*
G01*
X9740000Y-6620000D02*
G75*
G02*
X9760000Y-6620000I10000J0D01*
G01*
X9760000Y-7005000D02*
G75*
G02*
X9740000Y-7005000I-10000J0D01*
G01*
X9740000Y-7005000D02*
G75*
G02*
X9760000Y-7005000I10000J0D01*
G01*
X9760000Y-10040000D02*
G75*
G02*
X9740000Y-10040000I-10000J0D01*
G01*
X9740000Y-10040000D02*
G75*
G02*
X9760000Y-10040000I10000J0D01*
G01*
X9760000Y-12755000D02*
G75*
G02*
X9740000Y-12755000I-10000J0D01*
G01*
X9740000Y-12755000D02*
G75*
G02*
X9760000Y-12755000I10000J0D01*
G01*
X9775000Y-11245000D02*
G75*
G02*
X9755000Y-11245000I-10000J0D01*
G01*
X9755000Y-11245000D02*
G75*
G02*
X9775000Y-11245000I10000J0D01*
G01*
X9780000Y-11600000D02*
G75*
G02*
X9760000Y-11600000I-10000J0D01*
G01*
X9760000Y-11600000D02*
G75*
G02*
X9780000Y-11600000I10000J0D01*
G01*
X9785000Y-11420000D02*
G75*
G02*
X9765000Y-11420000I-10000J0D01*
G01*
X9765000Y-11420000D02*
G75*
G02*
X9785000Y-11420000I10000J0D01*
G01*
X9785000Y-11845000D02*
G75*
G02*
X9765000Y-11845000I-10000J0D01*
G01*
X9765000Y-11845000D02*
G75*
G02*
X9785000Y-11845000I10000J0D01*
G01*
X9785000Y-11955000D02*
G75*
G02*
X9765000Y-11955000I-10000J0D01*
G01*
X9765000Y-11955000D02*
G75*
G02*
X9785000Y-11955000I10000J0D01*
G01*
X9790000Y-11110000D02*
G75*
G02*
X9770000Y-11110000I-10000J0D01*
G01*
X9770000Y-11110000D02*
G75*
G02*
X9790000Y-11110000I10000J0D01*
G01*
X9795000Y-9190000D02*
G75*
G02*
X9775000Y-9190000I-10000J0D01*
G01*
X9775000Y-9190000D02*
G75*
G02*
X9795000Y-9190000I10000J0D01*
G01*
X9800000Y-7150000D02*
G75*
G02*
X9780000Y-7150000I-10000J0D01*
G01*
X9780000Y-7150000D02*
G75*
G02*
X9800000Y-7150000I10000J0D01*
G01*
X9805000Y-7000000D02*
G75*
G02*
X9785000Y-7000000I-10000J0D01*
G01*
X9785000Y-7000000D02*
G75*
G02*
X9805000Y-7000000I10000J0D01*
G01*
X9805000Y-7600000D02*
G75*
G02*
X9785000Y-7600000I-10000J0D01*
G01*
X9785000Y-7600000D02*
G75*
G02*
X9805000Y-7600000I10000J0D01*
G01*
X9805000Y-8760000D02*
G75*
G02*
X9785000Y-8760000I-10000J0D01*
G01*
X9785000Y-8760000D02*
G75*
G02*
X9805000Y-8760000I10000J0D01*
G01*
X9810000Y-8710000D02*
G75*
G02*
X9790000Y-8710000I-10000J0D01*
G01*
X9790000Y-8710000D02*
G75*
G02*
X9810000Y-8710000I10000J0D01*
G01*
X9815000Y-7420000D02*
G75*
G02*
X9795000Y-7420000I-10000J0D01*
G01*
X9795000Y-7420000D02*
G75*
G02*
X9815000Y-7420000I10000J0D01*
G01*
X9815000Y-12500000D02*
G75*
G02*
X9795000Y-12500000I-10000J0D01*
G01*
X9795000Y-12500000D02*
G75*
G02*
X9815000Y-12500000I10000J0D01*
G01*
X9825000Y-7790000D02*
G75*
G02*
X9805000Y-7790000I-10000J0D01*
G01*
X9805000Y-7790000D02*
G75*
G02*
X9825000Y-7790000I10000J0D01*
G01*
X9825000Y-7845000D02*
G75*
G02*
X9805000Y-7845000I-10000J0D01*
G01*
X9805000Y-7845000D02*
G75*
G02*
X9825000Y-7845000I10000J0D01*
G01*
X9830000Y-11260000D02*
G75*
G02*
X9810000Y-11260000I-10000J0D01*
G01*
X9810000Y-11260000D02*
G75*
G02*
X9830000Y-11260000I10000J0D01*
G01*
X9830000Y-14130000D02*
G75*
G02*
X9810000Y-14130000I-10000J0D01*
G01*
X9810000Y-14130000D02*
G75*
G02*
X9830000Y-14130000I10000J0D01*
G01*
X9835000Y-9640000D02*
G75*
G02*
X9815000Y-9640000I-10000J0D01*
G01*
X9815000Y-9640000D02*
G75*
G02*
X9835000Y-9640000I10000J0D01*
G01*
X9835000Y-10960000D02*
G75*
G02*
X9815000Y-10960000I-10000J0D01*
G01*
X9815000Y-10960000D02*
G75*
G02*
X9835000Y-10960000I10000J0D01*
G01*
X9835000Y-11750000D02*
G75*
G02*
X9815000Y-11750000I-10000J0D01*
G01*
X9815000Y-11750000D02*
G75*
G02*
X9835000Y-11750000I10000J0D01*
G01*
X9840000Y-11350000D02*
G75*
G02*
X9820000Y-11350000I-10000J0D01*
G01*
X9820000Y-11350000D02*
G75*
G02*
X9840000Y-11350000I10000J0D01*
G01*
X9841250Y-11447260D02*
G75*
G02*
X9821250Y-11447260I-10000J0D01*
G01*
X9821250Y-11447260D02*
G75*
G02*
X9841250Y-11447260I10000J0D01*
G01*
X9850000Y-6995000D02*
G75*
G02*
X9830000Y-6995000I-10000J0D01*
G01*
X9830000Y-6995000D02*
G75*
G02*
X9850000Y-6995000I10000J0D01*
G01*
X9850000Y-8355000D02*
G75*
G02*
X9830000Y-8355000I-10000J0D01*
G01*
X9830000Y-8355000D02*
G75*
G02*
X9850000Y-8355000I10000J0D01*
G01*
X9850000Y-9455000D02*
G75*
G02*
X9830000Y-9455000I-10000J0D01*
G01*
X9830000Y-9455000D02*
G75*
G02*
X9850000Y-9455000I10000J0D01*
G01*
X9855000Y-7455000D02*
G75*
G02*
X9835000Y-7455000I-10000J0D01*
G01*
X9835000Y-7455000D02*
G75*
G02*
X9855000Y-7455000I10000J0D01*
G01*
X9855000Y-8530000D02*
G75*
G02*
X9835000Y-8530000I-10000J0D01*
G01*
X9835000Y-8530000D02*
G75*
G02*
X9855000Y-8530000I10000J0D01*
G01*
X9890000Y-8065000D02*
G75*
G02*
X9870000Y-8065000I-10000J0D01*
G01*
X9870000Y-8065000D02*
G75*
G02*
X9890000Y-8065000I10000J0D01*
G01*
X9900000Y-7675000D02*
G75*
G02*
X9880000Y-7675000I-10000J0D01*
G01*
X9880000Y-7675000D02*
G75*
G02*
X9900000Y-7675000I10000J0D01*
G01*
X9900000Y-14090000D02*
G75*
G02*
X9880000Y-14090000I-10000J0D01*
G01*
X9880000Y-14090000D02*
G75*
G02*
X9900000Y-14090000I10000J0D01*
G01*
X9910000Y-11307500D02*
G75*
G02*
X9890000Y-11307500I-10000J0D01*
G01*
X9890000Y-11307500D02*
G75*
G02*
X9910000Y-11307500I10000J0D01*
G01*
X9915000Y-5660000D02*
G75*
G02*
X9895000Y-5660000I-10000J0D01*
G01*
X9895000Y-5660000D02*
G75*
G02*
X9915000Y-5660000I10000J0D01*
G01*
X9920000Y-13830000D02*
G75*
G02*
X9900000Y-13830000I-10000J0D01*
G01*
X9900000Y-13830000D02*
G75*
G02*
X9920000Y-13830000I10000J0D01*
G01*
X9923750Y-11845000D02*
G75*
G02*
X9903750Y-11845000I-10000J0D01*
G01*
X9903750Y-11845000D02*
G75*
G02*
X9923750Y-11845000I10000J0D01*
G01*
X9925000Y-12325000D02*
G75*
G02*
X9905000Y-12325000I-10000J0D01*
G01*
X9905000Y-12325000D02*
G75*
G02*
X9925000Y-12325000I10000J0D01*
G01*
X9935000Y-7285000D02*
G75*
G02*
X9915000Y-7285000I-10000J0D01*
G01*
X9915000Y-7285000D02*
G75*
G02*
X9935000Y-7285000I10000J0D01*
G01*
X9935000Y-7850000D02*
G75*
G02*
X9915000Y-7850000I-10000J0D01*
G01*
X9915000Y-7850000D02*
G75*
G02*
X9935000Y-7850000I10000J0D01*
G01*
X9960000Y-11595000D02*
G75*
G02*
X9940000Y-11595000I-10000J0D01*
G01*
X9940000Y-11595000D02*
G75*
G02*
X9960000Y-11595000I10000J0D01*
G01*
X9962500Y-10995000D02*
G75*
G02*
X9942500Y-10995000I-10000J0D01*
G01*
X9942500Y-10995000D02*
G75*
G02*
X9962500Y-10995000I10000J0D01*
G01*
X9965000Y-8340000D02*
G75*
G02*
X9945000Y-8340000I-10000J0D01*
G01*
X9945000Y-8340000D02*
G75*
G02*
X9965000Y-8340000I10000J0D01*
G01*
X9965000Y-9050000D02*
G75*
G02*
X9945000Y-9050000I-10000J0D01*
G01*
X9945000Y-9050000D02*
G75*
G02*
X9965000Y-9050000I10000J0D01*
G01*
X9965000Y-9155000D02*
G75*
G02*
X9945000Y-9155000I-10000J0D01*
G01*
X9945000Y-9155000D02*
G75*
G02*
X9965000Y-9155000I10000J0D01*
G01*
X9965000Y-10940000D02*
G75*
G02*
X9945000Y-10940000I-10000J0D01*
G01*
X9945000Y-10940000D02*
G75*
G02*
X9965000Y-10940000I10000J0D01*
G01*
X9970000Y-9095000D02*
G75*
G02*
X9950000Y-9095000I-10000J0D01*
G01*
X9950000Y-9095000D02*
G75*
G02*
X9970000Y-9095000I10000J0D01*
G01*
X9970000Y-11545000D02*
G75*
G02*
X9950000Y-11545000I-10000J0D01*
G01*
X9950000Y-11545000D02*
G75*
G02*
X9970000Y-11545000I10000J0D01*
G01*
X9970000Y-13837500D02*
G75*
G02*
X9950000Y-13837500I-10000J0D01*
G01*
X9950000Y-13837500D02*
G75*
G02*
X9970000Y-13837500I10000J0D01*
G01*
X9975000Y-8750000D02*
G75*
G02*
X9955000Y-8750000I-10000J0D01*
G01*
X9955000Y-8750000D02*
G75*
G02*
X9975000Y-8750000I10000J0D01*
G01*
X9975000Y-11285000D02*
G75*
G02*
X9955000Y-11285000I-10000J0D01*
G01*
X9955000Y-11285000D02*
G75*
G02*
X9975000Y-11285000I10000J0D01*
G01*
X9975000Y-11480000D02*
G75*
G02*
X9955000Y-11480000I-10000J0D01*
G01*
X9955000Y-11480000D02*
G75*
G02*
X9975000Y-11480000I10000J0D01*
G01*
X9980000Y-7585000D02*
G75*
G02*
X9960000Y-7585000I-10000J0D01*
G01*
X9960000Y-7585000D02*
G75*
G02*
X9980000Y-7585000I10000J0D01*
G01*
X9980000Y-7750000D02*
G75*
G02*
X9960000Y-7750000I-10000J0D01*
G01*
X9960000Y-7750000D02*
G75*
G02*
X9980000Y-7750000I10000J0D01*
G01*
X9980000Y-10270000D02*
G75*
G02*
X9960000Y-10270000I-10000J0D01*
G01*
X9960000Y-10270000D02*
G75*
G02*
X9980000Y-10270000I10000J0D01*
G01*
X9980000Y-11335000D02*
G75*
G02*
X9960000Y-11335000I-10000J0D01*
G01*
X9960000Y-11335000D02*
G75*
G02*
X9980000Y-11335000I10000J0D01*
G01*
X9985000Y-7700000D02*
G75*
G02*
X9965000Y-7700000I-10000J0D01*
G01*
X9965000Y-7700000D02*
G75*
G02*
X9985000Y-7700000I10000J0D01*
G01*
X9990000Y-6535000D02*
G75*
G02*
X9970000Y-6535000I-10000J0D01*
G01*
X9970000Y-6535000D02*
G75*
G02*
X9990000Y-6535000I10000J0D01*
G01*
X9990000Y-7035000D02*
G75*
G02*
X9970000Y-7035000I-10000J0D01*
G01*
X9970000Y-7035000D02*
G75*
G02*
X9990000Y-7035000I10000J0D01*
G01*
X9995000Y-6715000D02*
G75*
G02*
X9975000Y-6715000I-10000J0D01*
G01*
X9975000Y-6715000D02*
G75*
G02*
X9995000Y-6715000I10000J0D01*
G01*
X10000000Y-8410000D02*
G75*
G02*
X9980000Y-8410000I-10000J0D01*
G01*
X9980000Y-8410000D02*
G75*
G02*
X10000000Y-8410000I10000J0D01*
G01*
X10005000Y-8255000D02*
G75*
G02*
X9985000Y-8255000I-10000J0D01*
G01*
X9985000Y-8255000D02*
G75*
G02*
X10005000Y-8255000I10000J0D01*
G01*
X10025000Y-7075000D02*
G75*
G02*
X10005000Y-7075000I-10000J0D01*
G01*
X10005000Y-7075000D02*
G75*
G02*
X10025000Y-7075000I10000J0D01*
G01*
X10025000Y-8145000D02*
G75*
G02*
X10005000Y-8145000I-10000J0D01*
G01*
X10005000Y-8145000D02*
G75*
G02*
X10025000Y-8145000I10000J0D01*
G01*
X10030000Y-7230000D02*
G75*
G02*
X10010000Y-7230000I-10000J0D01*
G01*
X10010000Y-7230000D02*
G75*
G02*
X10030000Y-7230000I10000J0D01*
G01*
X10030000Y-8805000D02*
G75*
G02*
X10010000Y-8805000I-10000J0D01*
G01*
X10010000Y-8805000D02*
G75*
G02*
X10030000Y-8805000I10000J0D01*
G01*
X10030000Y-13380000D02*
G75*
G02*
X10010000Y-13380000I-10000J0D01*
G01*
X10010000Y-13380000D02*
G75*
G02*
X10030000Y-13380000I10000J0D01*
G01*
X10060000Y-12650000D02*
G75*
G02*
X10040000Y-12650000I-10000J0D01*
G01*
X10040000Y-12650000D02*
G75*
G02*
X10060000Y-12650000I10000J0D01*
G01*
X10067500Y-11700000D02*
G75*
G02*
X10047500Y-11700000I-10000J0D01*
G01*
X10047500Y-11700000D02*
G75*
G02*
X10067500Y-11700000I10000J0D01*
G01*
X10070000Y-11095000D02*
G75*
G02*
X10050000Y-11095000I-10000J0D01*
G01*
X10050000Y-11095000D02*
G75*
G02*
X10070000Y-11095000I10000J0D01*
G01*
X10070000Y-11240000D02*
G75*
G02*
X10050000Y-11240000I-10000J0D01*
G01*
X10050000Y-11240000D02*
G75*
G02*
X10070000Y-11240000I10000J0D01*
G01*
X10070000Y-11295000D02*
G75*
G02*
X10050000Y-11295000I-10000J0D01*
G01*
X10050000Y-11295000D02*
G75*
G02*
X10070000Y-11295000I10000J0D01*
G01*
X10070000Y-11420000D02*
G75*
G02*
X10050000Y-11420000I-10000J0D01*
G01*
X10050000Y-11420000D02*
G75*
G02*
X10070000Y-11420000I10000J0D01*
G01*
X10075000Y-9265000D02*
G75*
G02*
X10055000Y-9265000I-10000J0D01*
G01*
X10055000Y-9265000D02*
G75*
G02*
X10075000Y-9265000I10000J0D01*
G01*
X10075000Y-9370000D02*
G75*
G02*
X10055000Y-9370000I-10000J0D01*
G01*
X10055000Y-9370000D02*
G75*
G02*
X10075000Y-9370000I10000J0D01*
G01*
X10080000Y-9570000D02*
G75*
G02*
X10060000Y-9570000I-10000J0D01*
G01*
X10060000Y-9570000D02*
G75*
G02*
X10080000Y-9570000I10000J0D01*
G01*
X10085000Y-7230000D02*
G75*
G02*
X10065000Y-7230000I-10000J0D01*
G01*
X10065000Y-7230000D02*
G75*
G02*
X10085000Y-7230000I10000J0D01*
G01*
X10085000Y-13700000D02*
G75*
G02*
X10065000Y-13700000I-10000J0D01*
G01*
X10065000Y-13700000D02*
G75*
G02*
X10085000Y-13700000I10000J0D01*
G01*
X10095000Y-7455000D02*
G75*
G02*
X10075000Y-7455000I-10000J0D01*
G01*
X10075000Y-7455000D02*
G75*
G02*
X10095000Y-7455000I10000J0D01*
G01*
X10100000Y-8890000D02*
G75*
G02*
X10080000Y-8890000I-10000J0D01*
G01*
X10080000Y-8890000D02*
G75*
G02*
X10100000Y-8890000I10000J0D01*
G01*
X10105000Y-8460000D02*
G75*
G02*
X10085000Y-8460000I-10000J0D01*
G01*
X10085000Y-8460000D02*
G75*
G02*
X10105000Y-8460000I10000J0D01*
G01*
X10105000Y-10150000D02*
G75*
G02*
X10085000Y-10150000I-10000J0D01*
G01*
X10085000Y-10150000D02*
G75*
G02*
X10105000Y-10150000I10000J0D01*
G01*
X10115000Y-10475000D02*
G75*
G02*
X10095000Y-10475000I-10000J0D01*
G01*
X10095000Y-10475000D02*
G75*
G02*
X10115000Y-10475000I10000J0D01*
G01*
X10120000Y-13870000D02*
G75*
G02*
X10100000Y-13870000I-10000J0D01*
G01*
X10100000Y-13870000D02*
G75*
G02*
X10120000Y-13870000I10000J0D01*
G01*
X10130000Y-7075000D02*
G75*
G02*
X10110000Y-7075000I-10000J0D01*
G01*
X10110000Y-7075000D02*
G75*
G02*
X10130000Y-7075000I10000J0D01*
G01*
X10135000Y-9615000D02*
G75*
G02*
X10115000Y-9615000I-10000J0D01*
G01*
X10115000Y-9615000D02*
G75*
G02*
X10135000Y-9615000I10000J0D01*
G01*
X10140000Y-9465000D02*
G75*
G02*
X10120000Y-9465000I-10000J0D01*
G01*
X10120000Y-9465000D02*
G75*
G02*
X10140000Y-9465000I10000J0D01*
G01*
X10145000Y-10380000D02*
G75*
G02*
X10125000Y-10380000I-10000J0D01*
G01*
X10125000Y-10380000D02*
G75*
G02*
X10145000Y-10380000I10000J0D01*
G01*
X10145000Y-13120000D02*
G75*
G02*
X10125000Y-13120000I-10000J0D01*
G01*
X10125000Y-13120000D02*
G75*
G02*
X10145000Y-13120000I10000J0D01*
G01*
X10150000Y-8940000D02*
G75*
G02*
X10130000Y-8940000I-10000J0D01*
G01*
X10130000Y-8940000D02*
G75*
G02*
X10150000Y-8940000I10000J0D01*
G01*
X10150000Y-9045000D02*
G75*
G02*
X10130000Y-9045000I-10000J0D01*
G01*
X10130000Y-9045000D02*
G75*
G02*
X10150000Y-9045000I10000J0D01*
G01*
X10175000Y-9720000D02*
G75*
G02*
X10155000Y-9720000I-10000J0D01*
G01*
X10155000Y-9720000D02*
G75*
G02*
X10175000Y-9720000I10000J0D01*
G01*
X10195000Y-6775000D02*
G75*
G02*
X10175000Y-6775000I-10000J0D01*
G01*
X10175000Y-6775000D02*
G75*
G02*
X10195000Y-6775000I10000J0D01*
G01*
X10195000Y-10240000D02*
G75*
G02*
X10175000Y-10240000I-10000J0D01*
G01*
X10175000Y-10240000D02*
G75*
G02*
X10195000Y-10240000I10000J0D01*
G01*
X10200000Y-12845000D02*
G75*
G02*
X10180000Y-12845000I-10000J0D01*
G01*
X10180000Y-12845000D02*
G75*
G02*
X10200000Y-12845000I10000J0D01*
G01*
X10205000Y-7570000D02*
G75*
G02*
X10185000Y-7570000I-10000J0D01*
G01*
X10185000Y-7570000D02*
G75*
G02*
X10205000Y-7570000I10000J0D01*
G01*
X10205000Y-7665000D02*
G75*
G02*
X10185000Y-7665000I-10000J0D01*
G01*
X10185000Y-7665000D02*
G75*
G02*
X10205000Y-7665000I10000J0D01*
G01*
X10205000Y-7770000D02*
G75*
G02*
X10185000Y-7770000I-10000J0D01*
G01*
X10185000Y-7770000D02*
G75*
G02*
X10205000Y-7770000I10000J0D01*
G01*
X10205000Y-7860000D02*
G75*
G02*
X10185000Y-7860000I-10000J0D01*
G01*
X10185000Y-7860000D02*
G75*
G02*
X10205000Y-7860000I10000J0D01*
G01*
X10210000Y-9400000D02*
G75*
G02*
X10190000Y-9400000I-10000J0D01*
G01*
X10190000Y-9400000D02*
G75*
G02*
X10210000Y-9400000I10000J0D01*
G01*
X10220000Y-9675000D02*
G75*
G02*
X10200000Y-9675000I-10000J0D01*
G01*
X10200000Y-9675000D02*
G75*
G02*
X10220000Y-9675000I10000J0D01*
G01*
X10235000Y-7405000D02*
G75*
G02*
X10215000Y-7405000I-10000J0D01*
G01*
X10215000Y-7405000D02*
G75*
G02*
X10235000Y-7405000I10000J0D01*
G01*
X10235000Y-8750000D02*
G75*
G02*
X10215000Y-8750000I-10000J0D01*
G01*
X10215000Y-8750000D02*
G75*
G02*
X10235000Y-8750000I10000J0D01*
G01*
X10235000Y-9530000D02*
G75*
G02*
X10215000Y-9530000I-10000J0D01*
G01*
X10215000Y-9530000D02*
G75*
G02*
X10235000Y-9530000I10000J0D01*
G01*
X10240000Y-7260000D02*
G75*
G02*
X10220000Y-7260000I-10000J0D01*
G01*
X10220000Y-7260000D02*
G75*
G02*
X10240000Y-7260000I10000J0D01*
G01*
X10245000Y-7185000D02*
G75*
G02*
X10225000Y-7185000I-10000J0D01*
G01*
X10225000Y-7185000D02*
G75*
G02*
X10245000Y-7185000I10000J0D01*
G01*
X10245000Y-13925000D02*
G75*
G02*
X10225000Y-13925000I-10000J0D01*
G01*
X10225000Y-13925000D02*
G75*
G02*
X10245000Y-13925000I10000J0D01*
G01*
X10250000Y-14200000D02*
G75*
G02*
X10230000Y-14200000I-10000J0D01*
G01*
X10230000Y-14200000D02*
G75*
G02*
X10250000Y-14200000I10000J0D01*
G01*
X10265000Y-12095000D02*
G75*
G02*
X10245000Y-12095000I-10000J0D01*
G01*
X10245000Y-12095000D02*
G75*
G02*
X10265000Y-12095000I10000J0D01*
G01*
X10270000Y-6720000D02*
G75*
G02*
X10250000Y-6720000I-10000J0D01*
G01*
X10250000Y-6720000D02*
G75*
G02*
X10270000Y-6720000I10000J0D01*
G01*
X10270000Y-9915000D02*
G75*
G02*
X10250000Y-9915000I-10000J0D01*
G01*
X10250000Y-9915000D02*
G75*
G02*
X10270000Y-9915000I10000J0D01*
G01*
X10282000Y-6490000D02*
G75*
G02*
X10262000Y-6490000I-10000J0D01*
G01*
X10262000Y-6490000D02*
G75*
G02*
X10282000Y-6490000I10000J0D01*
G01*
X10285000Y-7795000D02*
G75*
G02*
X10265000Y-7795000I-10000J0D01*
G01*
X10265000Y-7795000D02*
G75*
G02*
X10285000Y-7795000I10000J0D01*
G01*
X10285000Y-9585000D02*
G75*
G02*
X10265000Y-9585000I-10000J0D01*
G01*
X10265000Y-9585000D02*
G75*
G02*
X10285000Y-9585000I10000J0D01*
G01*
X10295000Y-9695000D02*
G75*
G02*
X10275000Y-9695000I-10000J0D01*
G01*
X10275000Y-9695000D02*
G75*
G02*
X10295000Y-9695000I10000J0D01*
G01*
X10300000Y-10695000D02*
G75*
G02*
X10280000Y-10695000I-10000J0D01*
G01*
X10280000Y-10695000D02*
G75*
G02*
X10300000Y-10695000I10000J0D01*
G01*
X10305000Y-10640000D02*
G75*
G02*
X10285000Y-10640000I-10000J0D01*
G01*
X10285000Y-10640000D02*
G75*
G02*
X10305000Y-10640000I10000J0D01*
G01*
X10310000Y-6149000D02*
G75*
G02*
X10290000Y-6149000I-10000J0D01*
G01*
X10290000Y-6149000D02*
G75*
G02*
X10310000Y-6149000I10000J0D01*
G01*
X10310000Y-10490000D02*
G75*
G02*
X10290000Y-10490000I-10000J0D01*
G01*
X10290000Y-10490000D02*
G75*
G02*
X10310000Y-10490000I10000J0D01*
G01*
X10325000Y-12760000D02*
G75*
G02*
X10305000Y-12760000I-10000J0D01*
G01*
X10305000Y-12760000D02*
G75*
G02*
X10325000Y-12760000I10000J0D01*
G01*
X10330000Y-7850000D02*
G75*
G02*
X10310000Y-7850000I-10000J0D01*
G01*
X10310000Y-7850000D02*
G75*
G02*
X10330000Y-7850000I10000J0D01*
G01*
X10335000Y-8025000D02*
G75*
G02*
X10315000Y-8025000I-10000J0D01*
G01*
X10315000Y-8025000D02*
G75*
G02*
X10335000Y-8025000I10000J0D01*
G01*
X10336250Y-14020000D02*
G75*
G02*
X10316250Y-14020000I-10000J0D01*
G01*
X10316250Y-14020000D02*
G75*
G02*
X10336250Y-14020000I10000J0D01*
G01*
X10345000Y-8235000D02*
G75*
G02*
X10325000Y-8235000I-10000J0D01*
G01*
X10325000Y-8235000D02*
G75*
G02*
X10345000Y-8235000I10000J0D01*
G01*
X10350000Y-13795000D02*
G75*
G02*
X10330000Y-13795000I-10000J0D01*
G01*
X10330000Y-13795000D02*
G75*
G02*
X10350000Y-13795000I10000J0D01*
G01*
X10355000Y-6655000D02*
G75*
G02*
X10335000Y-6655000I-10000J0D01*
G01*
X10335000Y-6655000D02*
G75*
G02*
X10355000Y-6655000I10000J0D01*
G01*
X10365000Y-7880000D02*
G75*
G02*
X10345000Y-7880000I-10000J0D01*
G01*
X10345000Y-7880000D02*
G75*
G02*
X10365000Y-7880000I10000J0D01*
G01*
X10365000Y-10805000D02*
G75*
G02*
X10345000Y-10805000I-10000J0D01*
G01*
X10345000Y-10805000D02*
G75*
G02*
X10365000Y-10805000I10000J0D01*
G01*
X10365000Y-12150000D02*
G75*
G02*
X10345000Y-12150000I-10000J0D01*
G01*
X10345000Y-12150000D02*
G75*
G02*
X10365000Y-12150000I10000J0D01*
G01*
X10365000Y-12255000D02*
G75*
G02*
X10345000Y-12255000I-10000J0D01*
G01*
X10345000Y-12255000D02*
G75*
G02*
X10365000Y-12255000I10000J0D01*
G01*
X10365000Y-12490000D02*
G75*
G02*
X10345000Y-12490000I-10000J0D01*
G01*
X10345000Y-12490000D02*
G75*
G02*
X10365000Y-12490000I10000J0D01*
G01*
X10365000Y-12560000D02*
G75*
G02*
X10345000Y-12560000I-10000J0D01*
G01*
X10345000Y-12560000D02*
G75*
G02*
X10365000Y-12560000I10000J0D01*
G01*
X10370000Y-9145000D02*
G75*
G02*
X10350000Y-9145000I-10000J0D01*
G01*
X10350000Y-9145000D02*
G75*
G02*
X10370000Y-9145000I10000J0D01*
G01*
X10382500Y-7305000D02*
G75*
G02*
X10362500Y-7305000I-10000J0D01*
G01*
X10362500Y-7305000D02*
G75*
G02*
X10382500Y-7305000I10000J0D01*
G01*
X10395000Y-10300000D02*
G75*
G02*
X10375000Y-10300000I-10000J0D01*
G01*
X10375000Y-10300000D02*
G75*
G02*
X10395000Y-10300000I10000J0D01*
G01*
X10405000Y-9292500D02*
G75*
G02*
X10385000Y-9292500I-10000J0D01*
G01*
X10385000Y-9292500D02*
G75*
G02*
X10405000Y-9292500I10000J0D01*
G01*
X10405000Y-9340000D02*
G75*
G02*
X10385000Y-9340000I-10000J0D01*
G01*
X10385000Y-9340000D02*
G75*
G02*
X10405000Y-9340000I10000J0D01*
G01*
X10410000Y-9200000D02*
G75*
G02*
X10390000Y-9200000I-10000J0D01*
G01*
X10390000Y-9200000D02*
G75*
G02*
X10410000Y-9200000I10000J0D01*
G01*
X10410000Y-14275000D02*
G75*
G02*
X10390000Y-14275000I-10000J0D01*
G01*
X10390000Y-14275000D02*
G75*
G02*
X10410000Y-14275000I10000J0D01*
G01*
X10415000Y-9545000D02*
G75*
G02*
X10395000Y-9545000I-10000J0D01*
G01*
X10395000Y-9545000D02*
G75*
G02*
X10415000Y-9545000I10000J0D01*
G01*
X10415000Y-9900000D02*
G75*
G02*
X10395000Y-9900000I-10000J0D01*
G01*
X10395000Y-9900000D02*
G75*
G02*
X10415000Y-9900000I10000J0D01*
G01*
X10415000Y-10600000D02*
G75*
G02*
X10395000Y-10600000I-10000J0D01*
G01*
X10395000Y-10600000D02*
G75*
G02*
X10415000Y-10600000I10000J0D01*
G01*
X10420000Y-9740000D02*
G75*
G02*
X10400000Y-9740000I-10000J0D01*
G01*
X10400000Y-9740000D02*
G75*
G02*
X10420000Y-9740000I10000J0D01*
G01*
X10420000Y-10060000D02*
G75*
G02*
X10400000Y-10060000I-10000J0D01*
G01*
X10400000Y-10060000D02*
G75*
G02*
X10420000Y-10060000I10000J0D01*
G01*
X10420000Y-10445000D02*
G75*
G02*
X10400000Y-10445000I-10000J0D01*
G01*
X10400000Y-10445000D02*
G75*
G02*
X10420000Y-10445000I10000J0D01*
G01*
X10435000Y-13355000D02*
G75*
G02*
X10415000Y-13355000I-10000J0D01*
G01*
X10415000Y-13355000D02*
G75*
G02*
X10435000Y-13355000I10000J0D01*
G01*
X10440000Y-6450000D02*
G75*
G02*
X10420000Y-6450000I-10000J0D01*
G01*
X10420000Y-6450000D02*
G75*
G02*
X10440000Y-6450000I10000J0D01*
G01*
X10450000Y-6952000D02*
G75*
G02*
X10430000Y-6952000I-10000J0D01*
G01*
X10430000Y-6952000D02*
G75*
G02*
X10450000Y-6952000I10000J0D01*
G01*
X10467500Y-7700000D02*
G75*
G02*
X10447500Y-7700000I-10000J0D01*
G01*
X10447500Y-7700000D02*
G75*
G02*
X10467500Y-7700000I10000J0D01*
G01*
X10475000Y-6365000D02*
G75*
G02*
X10455000Y-6365000I-10000J0D01*
G01*
X10455000Y-6365000D02*
G75*
G02*
X10475000Y-6365000I10000J0D01*
G01*
X10475000Y-6635000D02*
G75*
G02*
X10455000Y-6635000I-10000J0D01*
G01*
X10455000Y-6635000D02*
G75*
G02*
X10475000Y-6635000I10000J0D01*
G01*
X10480000Y-9270000D02*
G75*
G02*
X10460000Y-9270000I-10000J0D01*
G01*
X10460000Y-9270000D02*
G75*
G02*
X10480000Y-9270000I10000J0D01*
G01*
X10485000Y-13110000D02*
G75*
G02*
X10465000Y-13110000I-10000J0D01*
G01*
X10465000Y-13110000D02*
G75*
G02*
X10485000Y-13110000I10000J0D01*
G01*
X10500000Y-11035000D02*
G75*
G02*
X10480000Y-11035000I-10000J0D01*
G01*
X10480000Y-11035000D02*
G75*
G02*
X10500000Y-11035000I10000J0D01*
G01*
X10505000Y-7285000D02*
G75*
G02*
X10485000Y-7285000I-10000J0D01*
G01*
X10485000Y-7285000D02*
G75*
G02*
X10505000Y-7285000I10000J0D01*
G01*
X10505000Y-10245000D02*
G75*
G02*
X10485000Y-10245000I-10000J0D01*
G01*
X10485000Y-10245000D02*
G75*
G02*
X10505000Y-10245000I10000J0D01*
G01*
X10505000Y-10320000D02*
G75*
G02*
X10485000Y-10320000I-10000J0D01*
G01*
X10485000Y-10320000D02*
G75*
G02*
X10505000Y-10320000I10000J0D01*
G01*
X10510000Y-13805000D02*
G75*
G02*
X10490000Y-13805000I-10000J0D01*
G01*
X10490000Y-13805000D02*
G75*
G02*
X10510000Y-13805000I10000J0D01*
G01*
X10520000Y-6505000D02*
G75*
G02*
X10500000Y-6505000I-10000J0D01*
G01*
X10500000Y-6505000D02*
G75*
G02*
X10520000Y-6505000I10000J0D01*
G01*
X10530000Y-8525000D02*
G75*
G02*
X10510000Y-8525000I-10000J0D01*
G01*
X10510000Y-8525000D02*
G75*
G02*
X10530000Y-8525000I10000J0D01*
G01*
X10535000Y-13155000D02*
G75*
G02*
X10515000Y-13155000I-10000J0D01*
G01*
X10515000Y-13155000D02*
G75*
G02*
X10535000Y-13155000I10000J0D01*
G01*
X10545000Y-11970000D02*
G75*
G02*
X10525000Y-11970000I-10000J0D01*
G01*
X10525000Y-11970000D02*
G75*
G02*
X10545000Y-11970000I10000J0D01*
G01*
X10550000Y-7620000D02*
G75*
G02*
X10530000Y-7620000I-10000J0D01*
G01*
X10530000Y-7620000D02*
G75*
G02*
X10550000Y-7620000I10000J0D01*
G01*
X10555000Y-7095000D02*
G75*
G02*
X10535000Y-7095000I-10000J0D01*
G01*
X10535000Y-7095000D02*
G75*
G02*
X10555000Y-7095000I10000J0D01*
G01*
X10555000Y-7290000D02*
G75*
G02*
X10535000Y-7290000I-10000J0D01*
G01*
X10535000Y-7290000D02*
G75*
G02*
X10555000Y-7290000I10000J0D01*
G01*
X10560000Y-12720000D02*
G75*
G02*
X10540000Y-12720000I-10000J0D01*
G01*
X10540000Y-12720000D02*
G75*
G02*
X10560000Y-12720000I10000J0D01*
G01*
X10561000Y-8750000D02*
G75*
G02*
X10541000Y-8750000I-10000J0D01*
G01*
X10541000Y-8750000D02*
G75*
G02*
X10561000Y-8750000I10000J0D01*
G01*
X10565000Y-6275000D02*
G75*
G02*
X10545000Y-6275000I-10000J0D01*
G01*
X10545000Y-6275000D02*
G75*
G02*
X10565000Y-6275000I10000J0D01*
G01*
X10565000Y-6725000D02*
G75*
G02*
X10545000Y-6725000I-10000J0D01*
G01*
X10545000Y-6725000D02*
G75*
G02*
X10565000Y-6725000I10000J0D01*
G01*
X10595000Y-8040000D02*
G75*
G02*
X10575000Y-8040000I-10000J0D01*
G01*
X10575000Y-8040000D02*
G75*
G02*
X10595000Y-8040000I10000J0D01*
G01*
X10615000Y-5660000D02*
G75*
G02*
X10595000Y-5660000I-10000J0D01*
G01*
X10595000Y-5660000D02*
G75*
G02*
X10615000Y-5660000I10000J0D01*
G01*
X10625000Y-10130000D02*
G75*
G02*
X10605000Y-10130000I-10000J0D01*
G01*
X10605000Y-10130000D02*
G75*
G02*
X10625000Y-10130000I10000J0D01*
G01*
X10635000Y-9700000D02*
G75*
G02*
X10615000Y-9700000I-10000J0D01*
G01*
X10615000Y-9700000D02*
G75*
G02*
X10635000Y-9700000I10000J0D01*
G01*
X10635000Y-9830000D02*
G75*
G02*
X10615000Y-9830000I-10000J0D01*
G01*
X10615000Y-9830000D02*
G75*
G02*
X10635000Y-9830000I10000J0D01*
G01*
X10635000Y-10030000D02*
G75*
G02*
X10615000Y-10030000I-10000J0D01*
G01*
X10615000Y-10030000D02*
G75*
G02*
X10635000Y-10030000I10000J0D01*
G01*
X10635000Y-10470000D02*
G75*
G02*
X10615000Y-10470000I-10000J0D01*
G01*
X10615000Y-10470000D02*
G75*
G02*
X10635000Y-10470000I10000J0D01*
G01*
X10635000Y-10860000D02*
G75*
G02*
X10615000Y-10860000I-10000J0D01*
G01*
X10615000Y-10860000D02*
G75*
G02*
X10635000Y-10860000I10000J0D01*
G01*
X10650000Y-6760000D02*
G75*
G02*
X10630000Y-6760000I-10000J0D01*
G01*
X10630000Y-6760000D02*
G75*
G02*
X10650000Y-6760000I10000J0D01*
G01*
X10655000Y-12000000D02*
G75*
G02*
X10635000Y-12000000I-10000J0D01*
G01*
X10635000Y-12000000D02*
G75*
G02*
X10655000Y-12000000I10000J0D01*
G01*
X10675000Y-9960000D02*
G75*
G02*
X10655000Y-9960000I-10000J0D01*
G01*
X10655000Y-9960000D02*
G75*
G02*
X10675000Y-9960000I10000J0D01*
G01*
X10685000Y-13555000D02*
G75*
G02*
X10665000Y-13555000I-10000J0D01*
G01*
X10665000Y-13555000D02*
G75*
G02*
X10685000Y-13555000I10000J0D01*
G01*
X10685000Y-13650000D02*
G75*
G02*
X10665000Y-13650000I-10000J0D01*
G01*
X10665000Y-13650000D02*
G75*
G02*
X10685000Y-13650000I10000J0D01*
G01*
X10690000Y-13100000D02*
G75*
G02*
X10670000Y-13100000I-10000J0D01*
G01*
X10670000Y-13100000D02*
G75*
G02*
X10690000Y-13100000I10000J0D01*
G01*
X10705000Y-13300000D02*
G75*
G02*
X10685000Y-13300000I-10000J0D01*
G01*
X10685000Y-13300000D02*
G75*
G02*
X10705000Y-13300000I10000J0D01*
G01*
X10715000Y-10070000D02*
G75*
G02*
X10695000Y-10070000I-10000J0D01*
G01*
X10695000Y-10070000D02*
G75*
G02*
X10715000Y-10070000I10000J0D01*
G01*
X10745000Y-7185000D02*
G75*
G02*
X10725000Y-7185000I-10000J0D01*
G01*
X10725000Y-7185000D02*
G75*
G02*
X10745000Y-7185000I10000J0D01*
G01*
X10755000Y-10645000D02*
G75*
G02*
X10735000Y-10645000I-10000J0D01*
G01*
X10735000Y-10645000D02*
G75*
G02*
X10755000Y-10645000I10000J0D01*
G01*
X10760000Y-7390000D02*
G75*
G02*
X10740000Y-7390000I-10000J0D01*
G01*
X10740000Y-7390000D02*
G75*
G02*
X10760000Y-7390000I10000J0D01*
G01*
X10765000Y-10770000D02*
G75*
G02*
X10745000Y-10770000I-10000J0D01*
G01*
X10745000Y-10770000D02*
G75*
G02*
X10765000Y-10770000I10000J0D01*
G01*
X10770000Y-12785000D02*
G75*
G02*
X10750000Y-12785000I-10000J0D01*
G01*
X10750000Y-12785000D02*
G75*
G02*
X10770000Y-12785000I10000J0D01*
G01*
X10795000Y-12280000D02*
G75*
G02*
X10775000Y-12280000I-10000J0D01*
G01*
X10775000Y-12280000D02*
G75*
G02*
X10795000Y-12280000I10000J0D01*
G01*
X10845000Y-8505000D02*
G75*
G02*
X10825000Y-8505000I-10000J0D01*
G01*
X10825000Y-8505000D02*
G75*
G02*
X10845000Y-8505000I10000J0D01*
G01*
X10850000Y-9060000D02*
G75*
G02*
X10830000Y-9060000I-10000J0D01*
G01*
X10830000Y-9060000D02*
G75*
G02*
X10850000Y-9060000I10000J0D01*
G01*
X10870000Y-13695000D02*
G75*
G02*
X10850000Y-13695000I-10000J0D01*
G01*
X10850000Y-13695000D02*
G75*
G02*
X10870000Y-13695000I10000J0D01*
G01*
X10875000Y-13500000D02*
G75*
G02*
X10855000Y-13500000I-10000J0D01*
G01*
X10855000Y-13500000D02*
G75*
G02*
X10875000Y-13500000I10000J0D01*
G01*
X10880000Y-7080000D02*
G75*
G02*
X10860000Y-7080000I-10000J0D01*
G01*
X10860000Y-7080000D02*
G75*
G02*
X10880000Y-7080000I10000J0D01*
G01*
X10885000Y-13990000D02*
G75*
G02*
X10865000Y-13990000I-10000J0D01*
G01*
X10865000Y-13990000D02*
G75*
G02*
X10885000Y-13990000I10000J0D01*
G01*
X10895000Y-9570000D02*
G75*
G02*
X10875000Y-9570000I-10000J0D01*
G01*
X10875000Y-9570000D02*
G75*
G02*
X10895000Y-9570000I10000J0D01*
G01*
X10895000Y-9830000D02*
G75*
G02*
X10875000Y-9830000I-10000J0D01*
G01*
X10875000Y-9830000D02*
G75*
G02*
X10895000Y-9830000I10000J0D01*
G01*
X10895000Y-10800000D02*
G75*
G02*
X10875000Y-10800000I-10000J0D01*
G01*
X10875000Y-10800000D02*
G75*
G02*
X10895000Y-10800000I10000J0D01*
G01*
X10895000Y-12220000D02*
G75*
G02*
X10875000Y-12220000I-10000J0D01*
G01*
X10875000Y-12220000D02*
G75*
G02*
X10895000Y-12220000I10000J0D01*
G01*
X10907500Y-10102500D02*
G75*
G02*
X10887500Y-10102500I-10000J0D01*
G01*
X10887500Y-10102500D02*
G75*
G02*
X10907500Y-10102500I10000J0D01*
G01*
X10917500Y-13850000D02*
G75*
G02*
X10897500Y-13850000I-10000J0D01*
G01*
X10897500Y-13850000D02*
G75*
G02*
X10917500Y-13850000I10000J0D01*
G01*
X10935000Y-12150000D02*
G75*
G02*
X10915000Y-12150000I-10000J0D01*
G01*
X10915000Y-12150000D02*
G75*
G02*
X10935000Y-12150000I10000J0D01*
G01*
X10935000Y-13445000D02*
G75*
G02*
X10915000Y-13445000I-10000J0D01*
G01*
X10915000Y-13445000D02*
G75*
G02*
X10935000Y-13445000I10000J0D01*
G01*
X10950000Y-6952000D02*
G75*
G02*
X10930000Y-6952000I-10000J0D01*
G01*
X10930000Y-6952000D02*
G75*
G02*
X10950000Y-6952000I10000J0D01*
G01*
X10960000Y-6385000D02*
G75*
G02*
X10940000Y-6385000I-10000J0D01*
G01*
X10940000Y-6385000D02*
G75*
G02*
X10960000Y-6385000I10000J0D01*
G01*
X10960000Y-6600000D02*
G75*
G02*
X10940000Y-6600000I-10000J0D01*
G01*
X10940000Y-6600000D02*
G75*
G02*
X10960000Y-6600000I10000J0D01*
G01*
X10960000Y-10760000D02*
G75*
G02*
X10940000Y-10760000I-10000J0D01*
G01*
X10940000Y-10760000D02*
G75*
G02*
X10960000Y-10760000I10000J0D01*
G01*
X10985000Y-9700000D02*
G75*
G02*
X10965000Y-9700000I-10000J0D01*
G01*
X10965000Y-9700000D02*
G75*
G02*
X10985000Y-9700000I10000J0D01*
G01*
X10985000Y-9960000D02*
G75*
G02*
X10965000Y-9960000I-10000J0D01*
G01*
X10965000Y-9960000D02*
G75*
G02*
X10985000Y-9960000I10000J0D01*
G01*
X11000000Y-11935000D02*
G75*
G02*
X10980000Y-11935000I-10000J0D01*
G01*
X10980000Y-11935000D02*
G75*
G02*
X11000000Y-11935000I10000J0D01*
G01*
X11012000Y-7570000D02*
G75*
G02*
X10992000Y-7570000I-10000J0D01*
G01*
X10992000Y-7570000D02*
G75*
G02*
X11012000Y-7570000I10000J0D01*
G01*
X11015000Y-10255000D02*
G75*
G02*
X10995000Y-10255000I-10000J0D01*
G01*
X10995000Y-10255000D02*
G75*
G02*
X11015000Y-10255000I10000J0D01*
G01*
X11020000Y-11170000D02*
G75*
G02*
X11000000Y-11170000I-10000J0D01*
G01*
X11000000Y-11170000D02*
G75*
G02*
X11020000Y-11170000I10000J0D01*
G01*
X11030000Y-10190000D02*
G75*
G02*
X11010000Y-10190000I-10000J0D01*
G01*
X11010000Y-10190000D02*
G75*
G02*
X11030000Y-10190000I10000J0D01*
G01*
X11040000Y-8750000D02*
G75*
G02*
X11020000Y-8750000I-10000J0D01*
G01*
X11020000Y-8750000D02*
G75*
G02*
X11040000Y-8750000I10000J0D01*
G01*
X11060000Y-6605000D02*
G75*
G02*
X11040000Y-6605000I-10000J0D01*
G01*
X11040000Y-6605000D02*
G75*
G02*
X11060000Y-6605000I10000J0D01*
G01*
X11090000Y-11975000D02*
G75*
G02*
X11070000Y-11975000I-10000J0D01*
G01*
X11070000Y-11975000D02*
G75*
G02*
X11090000Y-11975000I10000J0D01*
G01*
X11100000Y-13855000D02*
G75*
G02*
X11080000Y-13855000I-10000J0D01*
G01*
X11080000Y-13855000D02*
G75*
G02*
X11100000Y-13855000I10000J0D01*
G01*
X11110000Y-11275000D02*
G75*
G02*
X11090000Y-11275000I-10000J0D01*
G01*
X11090000Y-11275000D02*
G75*
G02*
X11110000Y-11275000I10000J0D01*
G01*
X11132500Y-13897500D02*
G75*
G02*
X11112500Y-13897500I-10000J0D01*
G01*
X11112500Y-13897500D02*
G75*
G02*
X11132500Y-13897500I10000J0D01*
G01*
X11135000Y-13560000D02*
G75*
G02*
X11115000Y-13560000I-10000J0D01*
G01*
X11115000Y-13560000D02*
G75*
G02*
X11135000Y-13560000I10000J0D01*
G01*
X11150000Y-6790000D02*
G75*
G02*
X11130000Y-6790000I-10000J0D01*
G01*
X11130000Y-6790000D02*
G75*
G02*
X11150000Y-6790000I10000J0D01*
G01*
X11155000Y-12836250D02*
G75*
G02*
X11135000Y-12836250I-10000J0D01*
G01*
X11135000Y-12836250D02*
G75*
G02*
X11155000Y-12836250I10000J0D01*
G01*
X11160000Y-11907500D02*
G75*
G02*
X11140000Y-11907500I-10000J0D01*
G01*
X11140000Y-11907500D02*
G75*
G02*
X11160000Y-11907500I10000J0D01*
G01*
X11190000Y-13950000D02*
G75*
G02*
X11170000Y-13950000I-10000J0D01*
G01*
X11170000Y-13950000D02*
G75*
G02*
X11190000Y-13950000I10000J0D01*
G01*
X11200000Y-13672500D02*
G75*
G02*
X11180000Y-13672500I-10000J0D01*
G01*
X11180000Y-13672500D02*
G75*
G02*
X11200000Y-13672500I10000J0D01*
G01*
X11205000Y-9665000D02*
G75*
G02*
X11185000Y-9665000I-10000J0D01*
G01*
X11185000Y-9665000D02*
G75*
G02*
X11205000Y-9665000I10000J0D01*
G01*
X11205000Y-9925000D02*
G75*
G02*
X11185000Y-9925000I-10000J0D01*
G01*
X11185000Y-9925000D02*
G75*
G02*
X11205000Y-9925000I10000J0D01*
G01*
X11205000Y-10470000D02*
G75*
G02*
X11185000Y-10470000I-10000J0D01*
G01*
X11185000Y-10470000D02*
G75*
G02*
X11205000Y-10470000I10000J0D01*
G01*
X11205000Y-10670000D02*
G75*
G02*
X11185000Y-10670000I-10000J0D01*
G01*
X11185000Y-10670000D02*
G75*
G02*
X11205000Y-10670000I10000J0D01*
G01*
X11205000Y-10760000D02*
G75*
G02*
X11185000Y-10760000I-10000J0D01*
G01*
X11185000Y-10760000D02*
G75*
G02*
X11205000Y-10760000I10000J0D01*
G01*
X11205000Y-10930000D02*
G75*
G02*
X11185000Y-10930000I-10000J0D01*
G01*
X11185000Y-10930000D02*
G75*
G02*
X11205000Y-10930000I10000J0D01*
G01*
X11215000Y-10190000D02*
G75*
G02*
X11195000Y-10190000I-10000J0D01*
G01*
X11195000Y-10190000D02*
G75*
G02*
X11215000Y-10190000I10000J0D01*
G01*
X11225000Y-13065000D02*
G75*
G02*
X11205000Y-13065000I-10000J0D01*
G01*
X11205000Y-13065000D02*
G75*
G02*
X11225000Y-13065000I10000J0D01*
G01*
X11255000Y-13645000D02*
G75*
G02*
X11235000Y-13645000I-10000J0D01*
G01*
X11235000Y-13645000D02*
G75*
G02*
X11255000Y-13645000I10000J0D01*
G01*
X11260000Y-9907500D02*
G75*
G02*
X11240000Y-9907500I-10000J0D01*
G01*
X11240000Y-9907500D02*
G75*
G02*
X11260000Y-9907500I10000J0D01*
G01*
X11260000Y-13990000D02*
G75*
G02*
X11240000Y-13990000I-10000J0D01*
G01*
X11240000Y-13990000D02*
G75*
G02*
X11260000Y-13990000I10000J0D01*
G01*
X11270000Y-12610000D02*
G75*
G02*
X11250000Y-12610000I-10000J0D01*
G01*
X11250000Y-12610000D02*
G75*
G02*
X11270000Y-12610000I10000J0D01*
G01*
X11270000Y-13525000D02*
G75*
G02*
X11250000Y-13525000I-10000J0D01*
G01*
X11250000Y-13525000D02*
G75*
G02*
X11270000Y-13525000I10000J0D01*
G01*
X11290000Y-10485000D02*
G75*
G02*
X11270000Y-10485000I-10000J0D01*
G01*
X11270000Y-10485000D02*
G75*
G02*
X11290000Y-10485000I10000J0D01*
G01*
X11290000Y-10915000D02*
G75*
G02*
X11270000Y-10915000I-10000J0D01*
G01*
X11270000Y-10915000D02*
G75*
G02*
X11290000Y-10915000I10000J0D01*
G01*
X11295000Y-10600000D02*
G75*
G02*
X11275000Y-10600000I-10000J0D01*
G01*
X11275000Y-10600000D02*
G75*
G02*
X11295000Y-10600000I10000J0D01*
G01*
X11295000Y-12730000D02*
G75*
G02*
X11275000Y-12730000I-10000J0D01*
G01*
X11275000Y-12730000D02*
G75*
G02*
X11295000Y-12730000I10000J0D01*
G01*
X11305000Y-13920000D02*
G75*
G02*
X11285000Y-13920000I-10000J0D01*
G01*
X11285000Y-13920000D02*
G75*
G02*
X11305000Y-13920000I10000J0D01*
G01*
X11315000Y-12810000D02*
G75*
G02*
X11295000Y-12810000I-10000J0D01*
G01*
X11295000Y-12810000D02*
G75*
G02*
X11315000Y-12810000I10000J0D01*
G01*
X11320000Y-13745000D02*
G75*
G02*
X11300000Y-13745000I-10000J0D01*
G01*
X11300000Y-13745000D02*
G75*
G02*
X11320000Y-13745000I10000J0D01*
G01*
X11330000Y-10880000D02*
G75*
G02*
X11310000Y-10880000I-10000J0D01*
G01*
X11310000Y-10880000D02*
G75*
G02*
X11330000Y-10880000I10000J0D01*
G01*
X11345000Y-10025000D02*
G75*
G02*
X11325000Y-10025000I-10000J0D01*
G01*
X11325000Y-10025000D02*
G75*
G02*
X11345000Y-10025000I10000J0D01*
G01*
X11350000Y-13840000D02*
G75*
G02*
X11330000Y-13840000I-10000J0D01*
G01*
X11330000Y-13840000D02*
G75*
G02*
X11350000Y-13840000I10000J0D01*
G01*
X11351030Y-12520000D02*
G75*
G02*
X11331030Y-12520000I-10000J0D01*
G01*
X11331030Y-12520000D02*
G75*
G02*
X11351030Y-12520000I10000J0D01*
G01*
X11355000Y-9775000D02*
G75*
G02*
X11335000Y-9775000I-10000J0D01*
G01*
X11335000Y-9775000D02*
G75*
G02*
X11355000Y-9775000I10000J0D01*
G01*
X11360000Y-8575000D02*
G75*
G02*
X11340000Y-8575000I-10000J0D01*
G01*
X11340000Y-8575000D02*
G75*
G02*
X11360000Y-8575000I10000J0D01*
G01*
X11370000Y-10480000D02*
G75*
G02*
X11350000Y-10480000I-10000J0D01*
G01*
X11350000Y-10480000D02*
G75*
G02*
X11370000Y-10480000I10000J0D01*
G01*
X11370000Y-13750000D02*
G75*
G02*
X11350000Y-13750000I-10000J0D01*
G01*
X11350000Y-13750000D02*
G75*
G02*
X11370000Y-13750000I10000J0D01*
G01*
X11370000Y-13965000D02*
G75*
G02*
X11350000Y-13965000I-10000J0D01*
G01*
X11350000Y-13965000D02*
G75*
G02*
X11370000Y-13965000I10000J0D01*
G01*
X11375000Y-8000000D02*
G75*
G02*
X11355000Y-8000000I-10000J0D01*
G01*
X11355000Y-8000000D02*
G75*
G02*
X11375000Y-8000000I10000J0D01*
G01*
X11380000Y-6920000D02*
G75*
G02*
X11360000Y-6920000I-10000J0D01*
G01*
X11360000Y-6920000D02*
G75*
G02*
X11380000Y-6920000I10000J0D01*
G01*
X11380000Y-11885000D02*
G75*
G02*
X11360000Y-11885000I-10000J0D01*
G01*
X11360000Y-11885000D02*
G75*
G02*
X11380000Y-11885000I10000J0D01*
G01*
X11395000Y-7950000D02*
G75*
G02*
X11375000Y-7950000I-10000J0D01*
G01*
X11375000Y-7950000D02*
G75*
G02*
X11395000Y-7950000I10000J0D01*
G01*
X11395000Y-10340000D02*
G75*
G02*
X11375000Y-10340000I-10000J0D01*
G01*
X11375000Y-10340000D02*
G75*
G02*
X11395000Y-10340000I10000J0D01*
G01*
X11405000Y-9740000D02*
G75*
G02*
X11385000Y-9740000I-10000J0D01*
G01*
X11385000Y-9740000D02*
G75*
G02*
X11405000Y-9740000I10000J0D01*
G01*
X11405000Y-9855000D02*
G75*
G02*
X11385000Y-9855000I-10000J0D01*
G01*
X11385000Y-9855000D02*
G75*
G02*
X11405000Y-9855000I10000J0D01*
G01*
X11405000Y-10640000D02*
G75*
G02*
X11385000Y-10640000I-10000J0D01*
G01*
X11385000Y-10640000D02*
G75*
G02*
X11405000Y-10640000I10000J0D01*
G01*
X11410000Y-9336250D02*
G75*
G02*
X11390000Y-9336250I-10000J0D01*
G01*
X11390000Y-9336250D02*
G75*
G02*
X11410000Y-9336250I10000J0D01*
G01*
X11410000Y-9905000D02*
G75*
G02*
X11390000Y-9905000I-10000J0D01*
G01*
X11390000Y-9905000D02*
G75*
G02*
X11410000Y-9905000I10000J0D01*
G01*
X11420000Y-11075000D02*
G75*
G02*
X11400000Y-11075000I-10000J0D01*
G01*
X11400000Y-11075000D02*
G75*
G02*
X11420000Y-11075000I10000J0D01*
G01*
X11425000Y-12395000D02*
G75*
G02*
X11405000Y-12395000I-10000J0D01*
G01*
X11405000Y-12395000D02*
G75*
G02*
X11425000Y-12395000I10000J0D01*
G01*
X11470000Y-6870000D02*
G75*
G02*
X11450000Y-6870000I-10000J0D01*
G01*
X11450000Y-6870000D02*
G75*
G02*
X11470000Y-6870000I10000J0D01*
G01*
X11470000Y-8090000D02*
G75*
G02*
X11450000Y-8090000I-10000J0D01*
G01*
X11450000Y-8090000D02*
G75*
G02*
X11470000Y-8090000I10000J0D01*
G01*
X11490000Y-13560000D02*
G75*
G02*
X11470000Y-13560000I-10000J0D01*
G01*
X11470000Y-13560000D02*
G75*
G02*
X11490000Y-13560000I10000J0D01*
G01*
X11490000Y-13790000D02*
G75*
G02*
X11470000Y-13790000I-10000J0D01*
G01*
X11470000Y-13790000D02*
G75*
G02*
X11490000Y-13790000I10000J0D01*
G01*
X11495000Y-13840000D02*
G75*
G02*
X11475000Y-13840000I-10000J0D01*
G01*
X11475000Y-13840000D02*
G75*
G02*
X11495000Y-13840000I10000J0D01*
G01*
X11505000Y-9655000D02*
G75*
G02*
X11485000Y-9655000I-10000J0D01*
G01*
X11485000Y-9655000D02*
G75*
G02*
X11505000Y-9655000I10000J0D01*
G01*
X11510000Y-10005000D02*
G75*
G02*
X11490000Y-10005000I-10000J0D01*
G01*
X11490000Y-10005000D02*
G75*
G02*
X11510000Y-10005000I10000J0D01*
G01*
X11525000Y-10770000D02*
G75*
G02*
X11505000Y-10770000I-10000J0D01*
G01*
X11505000Y-10770000D02*
G75*
G02*
X11525000Y-10770000I10000J0D01*
G01*
X11525000Y-13915000D02*
G75*
G02*
X11505000Y-13915000I-10000J0D01*
G01*
X11505000Y-13915000D02*
G75*
G02*
X11525000Y-13915000I10000J0D01*
G01*
X11530000Y-12505000D02*
G75*
G02*
X11510000Y-12505000I-10000J0D01*
G01*
X11510000Y-12505000D02*
G75*
G02*
X11530000Y-12505000I10000J0D01*
G01*
X11535000Y-10515000D02*
G75*
G02*
X11515000Y-10515000I-10000J0D01*
G01*
X11515000Y-10515000D02*
G75*
G02*
X11535000Y-10515000I10000J0D01*
G01*
X11560000Y-8040000D02*
G75*
G02*
X11540000Y-8040000I-10000J0D01*
G01*
X11540000Y-8040000D02*
G75*
G02*
X11560000Y-8040000I10000J0D01*
G01*
X11560000Y-9951000D02*
G75*
G02*
X11540000Y-9951000I-10000J0D01*
G01*
X11540000Y-9951000D02*
G75*
G02*
X11560000Y-9951000I10000J0D01*
G01*
X11565000Y-6960000D02*
G75*
G02*
X11545000Y-6960000I-10000J0D01*
G01*
X11545000Y-6960000D02*
G75*
G02*
X11565000Y-6960000I10000J0D01*
G01*
X11570000Y-12470000D02*
G75*
G02*
X11550000Y-12470000I-10000J0D01*
G01*
X11550000Y-12470000D02*
G75*
G02*
X11570000Y-12470000I10000J0D01*
G01*
X11585000Y-7765000D02*
G75*
G02*
X11565000Y-7765000I-10000J0D01*
G01*
X11565000Y-7765000D02*
G75*
G02*
X11585000Y-7765000I10000J0D01*
G01*
X11595000Y-13655000D02*
G75*
G02*
X11575000Y-13655000I-10000J0D01*
G01*
X11575000Y-13655000D02*
G75*
G02*
X11595000Y-13655000I10000J0D01*
G01*
X11595000Y-13965000D02*
G75*
G02*
X11575000Y-13965000I-10000J0D01*
G01*
X11575000Y-13965000D02*
G75*
G02*
X11595000Y-13965000I10000J0D01*
G01*
X11605000Y-9500000D02*
G75*
G02*
X11585000Y-9500000I-10000J0D01*
G01*
X11585000Y-9500000D02*
G75*
G02*
X11605000Y-9500000I10000J0D01*
G01*
X11620000Y-8805000D02*
G75*
G02*
X11600000Y-8805000I-10000J0D01*
G01*
X11600000Y-8805000D02*
G75*
G02*
X11620000Y-8805000I10000J0D01*
G01*
X11630000Y-7065000D02*
G75*
G02*
X11610000Y-7065000I-10000J0D01*
G01*
X11610000Y-7065000D02*
G75*
G02*
X11630000Y-7065000I10000J0D01*
G01*
X11630000Y-8010000D02*
G75*
G02*
X11610000Y-8010000I-10000J0D01*
G01*
X11610000Y-8010000D02*
G75*
G02*
X11630000Y-8010000I10000J0D01*
G01*
X11645000Y-13660000D02*
G75*
G02*
X11625000Y-13660000I-10000J0D01*
G01*
X11625000Y-13660000D02*
G75*
G02*
X11645000Y-13660000I10000J0D01*
G01*
X11660000Y-9727500D02*
G75*
G02*
X11640000Y-9727500I-10000J0D01*
G01*
X11640000Y-9727500D02*
G75*
G02*
X11660000Y-9727500I10000J0D01*
G01*
X11675000Y-13960000D02*
G75*
G02*
X11655000Y-13960000I-10000J0D01*
G01*
X11655000Y-13960000D02*
G75*
G02*
X11675000Y-13960000I10000J0D01*
G01*
X11720000Y-9655000D02*
G75*
G02*
X11700000Y-9655000I-10000J0D01*
G01*
X11700000Y-9655000D02*
G75*
G02*
X11720000Y-9655000I10000J0D01*
G01*
X11740000Y-13832500D02*
G75*
G02*
X11720000Y-13832500I-10000J0D01*
G01*
X11720000Y-13832500D02*
G75*
G02*
X11740000Y-13832500I10000J0D01*
G01*
X11775000Y-13915000D02*
G75*
G02*
X11755000Y-13915000I-10000J0D01*
G01*
X11755000Y-13915000D02*
G75*
G02*
X11775000Y-13915000I10000J0D01*
G01*
X11795000Y-13800000D02*
G75*
G02*
X11775000Y-13800000I-10000J0D01*
G01*
X11775000Y-13800000D02*
G75*
G02*
X11795000Y-13800000I10000J0D01*
G01*
X11795000Y-13960000D02*
G75*
G02*
X11775000Y-13960000I-10000J0D01*
G01*
X11775000Y-13960000D02*
G75*
G02*
X11795000Y-13960000I10000J0D01*
G01*
X11800000Y-13650000D02*
G75*
G02*
X11780000Y-13650000I-10000J0D01*
G01*
X11780000Y-13650000D02*
G75*
G02*
X11800000Y-13650000I10000J0D01*
G01*
X11800000Y-14240000D02*
G75*
G02*
X11780000Y-14240000I-10000J0D01*
G01*
X11780000Y-14240000D02*
G75*
G02*
X11800000Y-14240000I10000J0D01*
G01*
X11840000Y-13700000D02*
G75*
G02*
X11820000Y-13700000I-10000J0D01*
G01*
X11820000Y-13700000D02*
G75*
G02*
X11840000Y-13700000I10000J0D01*
G01*
X11860000Y-14099000D02*
G75*
G02*
X11840000Y-14099000I-10000J0D01*
G01*
X11840000Y-14099000D02*
G75*
G02*
X11860000Y-14099000I10000J0D01*
G01*
X8318000Y-14109500D02*
X8318000Y-14169500D01*
X8288000Y-14139500D02*
X8348000Y-14139500D01*
X8288000Y-14084500D02*
X8288000Y-14194500D01*
X8348000Y-14194500D02*
G75*
G02*
X8288000Y-14194500I-30000J0D01*
G01*
X8348000Y-14194500D02*
X8348000Y-14084500D01*
X8348000Y-14084500D02*
G75*
G03*
X8288000Y-14084500I-30000J0D01*
G01*
X8318000Y-14527500D02*
X8318000Y-14587500D01*
X8288000Y-14557500D02*
X8348000Y-14557500D01*
X8288000Y-14517500D02*
X8288000Y-14597500D01*
X8348000Y-14597500D02*
G75*
G02*
X8288000Y-14597500I-30000J0D01*
G01*
X8348000Y-14597500D02*
X8348000Y-14517500D01*
X8348000Y-14517500D02*
G75*
G03*
X8288000Y-14517500I-30000J0D01*
G01*
X9182000Y-14109500D02*
X9182000Y-14169500D01*
X9152000Y-14139500D02*
X9212000Y-14139500D01*
X9152000Y-14084500D02*
X9152000Y-14194500D01*
X9212000Y-14194500D02*
G75*
G02*
X9152000Y-14194500I-30000J0D01*
G01*
X9212000Y-14194500D02*
X9212000Y-14084500D01*
X9212000Y-14084500D02*
G75*
G03*
X9152000Y-14084500I-30000J0D01*
G01*
X9182000Y-14527500D02*
X9182000Y-14587500D01*
X9152000Y-14557500D02*
X9212000Y-14557500D01*
X9152000Y-14517500D02*
X9152000Y-14597500D01*
X9212000Y-14597500D02*
G75*
G02*
X9152000Y-14597500I-30000J0D01*
G01*
X9212000Y-14597500D02*
X9212000Y-14517500D01*
X9212000Y-14517500D02*
G75*
G03*
X9152000Y-14517500I-30000J0D01*
G01*
X10818000Y-14109500D02*
X10818000Y-14169500D01*
X10788000Y-14139500D02*
X10848000Y-14139500D01*
X10788000Y-14084500D02*
X10788000Y-14194500D01*
X10848000Y-14194500D02*
G75*
G02*
X10788000Y-14194500I-30000J0D01*
G01*
X10848000Y-14194500D02*
X10848000Y-14084500D01*
X10848000Y-14084500D02*
G75*
G03*
X10788000Y-14084500I-30000J0D01*
G01*
X10818000Y-14527500D02*
X10818000Y-14587500D01*
X10788000Y-14557500D02*
X10848000Y-14557500D01*
X10788000Y-14517500D02*
X10788000Y-14597500D01*
X10848000Y-14597500D02*
G75*
G02*
X10788000Y-14597500I-30000J0D01*
G01*
X10848000Y-14597500D02*
X10848000Y-14517500D01*
X10848000Y-14517500D02*
G75*
G03*
X10788000Y-14517500I-30000J0D01*
G01*
X11682000Y-14109500D02*
X11682000Y-14169500D01*
X11652000Y-14139500D02*
X11712000Y-14139500D01*
X11652000Y-14084500D02*
X11652000Y-14194500D01*
X11712000Y-14194500D02*
G75*
G02*
X11652000Y-14194500I-30000J0D01*
G01*
X11712000Y-14194500D02*
X11712000Y-14084500D01*
X11712000Y-14084500D02*
G75*
G03*
X11652000Y-14084500I-30000J0D01*
G01*
X11682000Y-14527500D02*
X11682000Y-14587500D01*
X11652000Y-14557500D02*
X11712000Y-14557500D01*
X11652000Y-14517500D02*
X11652000Y-14597500D01*
X11712000Y-14597500D02*
G75*
G02*
X11652000Y-14597500I-30000J0D01*
G01*
X11712000Y-14597500D02*
X11712000Y-14517500D01*
X11712000Y-14517500D02*
G75*
G03*
X11652000Y-14517500I-30000J0D01*
G01*
D11*
X8258277Y-15013984D02*
X8258277Y-14813984D01*
X8258277Y-14813984D02*
X8305896Y-14813984D01*
X8305896Y-14813984D02*
X8334467Y-14823508D01*
X8334467Y-14823508D02*
X8353515Y-14842555D01*
X8353515Y-14842555D02*
X8363039Y-14861603D01*
X8363039Y-14861603D02*
X8372562Y-14899698D01*
X8372562Y-14899698D02*
X8372562Y-14928269D01*
X8372562Y-14928269D02*
X8363039Y-14966365D01*
X8363039Y-14966365D02*
X8353515Y-14985412D01*
X8353515Y-14985412D02*
X8334467Y-15004460D01*
X8334467Y-15004460D02*
X8305896Y-15013984D01*
X8305896Y-15013984D02*
X8258277Y-15013984D01*
X8458277Y-15013984D02*
X8458277Y-14880650D01*
X8458277Y-14918746D02*
X8467801Y-14899698D01*
X8467801Y-14899698D02*
X8477324Y-14890174D01*
X8477324Y-14890174D02*
X8496372Y-14880650D01*
X8496372Y-14880650D02*
X8515420Y-14880650D01*
X8582086Y-15013984D02*
X8582086Y-14880650D01*
X8582086Y-14813984D02*
X8572563Y-14823508D01*
X8572563Y-14823508D02*
X8582086Y-14833031D01*
X8582086Y-14833031D02*
X8591610Y-14823508D01*
X8591610Y-14823508D02*
X8582086Y-14813984D01*
X8582086Y-14813984D02*
X8582086Y-14833031D01*
X8705896Y-15013984D02*
X8686848Y-15004460D01*
X8686848Y-15004460D02*
X8677324Y-14985412D01*
X8677324Y-14985412D02*
X8677324Y-14813984D01*
X8810658Y-15013984D02*
X8791610Y-15004460D01*
X8791610Y-15004460D02*
X8782086Y-14985412D01*
X8782086Y-14985412D02*
X8782086Y-14813984D01*
X9039229Y-15013984D02*
X9039229Y-14813984D01*
X9039229Y-14813984D02*
X9105896Y-14956841D01*
X9105896Y-14956841D02*
X9172563Y-14813984D01*
X9172563Y-14813984D02*
X9172563Y-15013984D01*
X9353515Y-15013984D02*
X9353515Y-14909222D01*
X9353515Y-14909222D02*
X9343991Y-14890174D01*
X9343991Y-14890174D02*
X9324944Y-14880650D01*
X9324944Y-14880650D02*
X9286848Y-14880650D01*
X9286848Y-14880650D02*
X9267801Y-14890174D01*
X9353515Y-15004460D02*
X9334467Y-15013984D01*
X9334467Y-15013984D02*
X9286848Y-15013984D01*
X9286848Y-15013984D02*
X9267801Y-15004460D01*
X9267801Y-15004460D02*
X9258277Y-14985412D01*
X9258277Y-14985412D02*
X9258277Y-14966365D01*
X9258277Y-14966365D02*
X9267801Y-14947317D01*
X9267801Y-14947317D02*
X9286848Y-14937793D01*
X9286848Y-14937793D02*
X9334467Y-14937793D01*
X9334467Y-14937793D02*
X9353515Y-14928269D01*
X9448753Y-14880650D02*
X9448753Y-15080650D01*
X9448753Y-14890174D02*
X9467801Y-14880650D01*
X9467801Y-14880650D02*
X9505896Y-14880650D01*
X9505896Y-14880650D02*
X9524944Y-14890174D01*
X9524944Y-14890174D02*
X9534467Y-14899698D01*
X9534467Y-14899698D02*
X9543991Y-14918746D01*
X9543991Y-14918746D02*
X9543991Y-14975888D01*
X9543991Y-14975888D02*
X9534467Y-14994936D01*
X9534467Y-14994936D02*
X9524944Y-15004460D01*
X9524944Y-15004460D02*
X9505896Y-15013984D01*
X9505896Y-15013984D02*
X9467801Y-15013984D01*
X9467801Y-15013984D02*
X9448753Y-15004460D01*
X9629705Y-14994936D02*
X9639229Y-15004460D01*
X9639229Y-15004460D02*
X9629705Y-15013984D01*
X9629705Y-15013984D02*
X9620182Y-15004460D01*
X9620182Y-15004460D02*
X9629705Y-14994936D01*
X9629705Y-14994936D02*
X9629705Y-15013984D01*
X9629705Y-14890174D02*
X9639229Y-14899698D01*
X9639229Y-14899698D02*
X9629705Y-14909222D01*
X9629705Y-14909222D02*
X9620182Y-14899698D01*
X9620182Y-14899698D02*
X9629705Y-14890174D01*
X9629705Y-14890174D02*
X9629705Y-14909222D01*
D12*
X7982500Y-15335000D02*
X7997500Y-15350000D01*
X7997500Y-15335000D02*
X7982500Y-15350000D01*
D11*
X8296372Y-15233984D02*
X8315420Y-15233984D01*
X8315420Y-15233984D02*
X8334467Y-15243508D01*
X8334467Y-15243508D02*
X8343991Y-15253031D01*
X8343991Y-15253031D02*
X8353515Y-15272079D01*
X8353515Y-15272079D02*
X8363039Y-15310174D01*
X8363039Y-15310174D02*
X8363039Y-15357793D01*
X8363039Y-15357793D02*
X8353515Y-15395888D01*
X8353515Y-15395888D02*
X8343991Y-15414936D01*
X8343991Y-15414936D02*
X8334467Y-15424460D01*
X8334467Y-15424460D02*
X8315420Y-15433984D01*
X8315420Y-15433984D02*
X8296372Y-15433984D01*
X8296372Y-15433984D02*
X8277324Y-15424460D01*
X8277324Y-15424460D02*
X8267801Y-15414936D01*
X8267801Y-15414936D02*
X8258277Y-15395888D01*
X8258277Y-15395888D02*
X8248753Y-15357793D01*
X8248753Y-15357793D02*
X8248753Y-15310174D01*
X8248753Y-15310174D02*
X8258277Y-15272079D01*
X8258277Y-15272079D02*
X8267801Y-15253031D01*
X8267801Y-15253031D02*
X8277324Y-15243508D01*
X8277324Y-15243508D02*
X8296372Y-15233984D01*
X8448753Y-15414936D02*
X8458277Y-15424460D01*
X8458277Y-15424460D02*
X8448753Y-15433984D01*
X8448753Y-15433984D02*
X8439229Y-15424460D01*
X8439229Y-15424460D02*
X8448753Y-15414936D01*
X8448753Y-15414936D02*
X8448753Y-15433984D01*
X8648753Y-15433984D02*
X8534467Y-15433984D01*
X8591610Y-15433984D02*
X8591610Y-15233984D01*
X8591610Y-15233984D02*
X8572563Y-15262555D01*
X8572563Y-15262555D02*
X8553515Y-15281603D01*
X8553515Y-15281603D02*
X8534467Y-15291127D01*
X8829705Y-15233984D02*
X8734467Y-15233984D01*
X8734467Y-15233984D02*
X8724944Y-15329222D01*
X8724944Y-15329222D02*
X8734467Y-15319698D01*
X8734467Y-15319698D02*
X8753515Y-15310174D01*
X8753515Y-15310174D02*
X8801134Y-15310174D01*
X8801134Y-15310174D02*
X8820182Y-15319698D01*
X8820182Y-15319698D02*
X8829705Y-15329222D01*
X8829705Y-15329222D02*
X8839229Y-15348269D01*
X8839229Y-15348269D02*
X8839229Y-15395888D01*
X8839229Y-15395888D02*
X8829705Y-15414936D01*
X8829705Y-15414936D02*
X8820182Y-15424460D01*
X8820182Y-15424460D02*
X8801134Y-15433984D01*
X8801134Y-15433984D02*
X8753515Y-15433984D01*
X8753515Y-15433984D02*
X8734467Y-15424460D01*
X8734467Y-15424460D02*
X8724944Y-15414936D01*
X8963039Y-15233984D02*
X8982086Y-15233984D01*
X8982086Y-15233984D02*
X9001134Y-15243508D01*
X9001134Y-15243508D02*
X9010658Y-15253031D01*
X9010658Y-15253031D02*
X9020182Y-15272079D01*
X9020182Y-15272079D02*
X9029705Y-15310174D01*
X9029705Y-15310174D02*
X9029705Y-15357793D01*
X9029705Y-15357793D02*
X9020182Y-15395888D01*
X9020182Y-15395888D02*
X9010658Y-15414936D01*
X9010658Y-15414936D02*
X9001134Y-15424460D01*
X9001134Y-15424460D02*
X8982086Y-15433984D01*
X8982086Y-15433984D02*
X8963039Y-15433984D01*
X8963039Y-15433984D02*
X8943991Y-15424460D01*
X8943991Y-15424460D02*
X8934467Y-15414936D01*
X8934467Y-15414936D02*
X8924944Y-15395888D01*
X8924944Y-15395888D02*
X8915420Y-15357793D01*
X8915420Y-15357793D02*
X8915420Y-15310174D01*
X8915420Y-15310174D02*
X8924944Y-15272079D01*
X8924944Y-15272079D02*
X8934467Y-15253031D01*
X8934467Y-15253031D02*
X8943991Y-15243508D01*
X8943991Y-15243508D02*
X8963039Y-15233984D01*
X9115420Y-15433984D02*
X9115420Y-15300650D01*
X9115420Y-15319698D02*
X9124944Y-15310174D01*
X9124944Y-15310174D02*
X9143991Y-15300650D01*
X9143991Y-15300650D02*
X9172563Y-15300650D01*
X9172563Y-15300650D02*
X9191610Y-15310174D01*
X9191610Y-15310174D02*
X9201134Y-15329222D01*
X9201134Y-15329222D02*
X9201134Y-15433984D01*
X9201134Y-15329222D02*
X9210658Y-15310174D01*
X9210658Y-15310174D02*
X9229705Y-15300650D01*
X9229705Y-15300650D02*
X9258277Y-15300650D01*
X9258277Y-15300650D02*
X9277325Y-15310174D01*
X9277325Y-15310174D02*
X9286848Y-15329222D01*
X9286848Y-15329222D02*
X9286848Y-15433984D01*
X9382086Y-15433984D02*
X9382086Y-15300650D01*
X9382086Y-15319698D02*
X9391610Y-15310174D01*
X9391610Y-15310174D02*
X9410658Y-15300650D01*
X9410658Y-15300650D02*
X9439229Y-15300650D01*
X9439229Y-15300650D02*
X9458277Y-15310174D01*
X9458277Y-15310174D02*
X9467801Y-15329222D01*
X9467801Y-15329222D02*
X9467801Y-15433984D01*
X9467801Y-15329222D02*
X9477325Y-15310174D01*
X9477325Y-15310174D02*
X9496372Y-15300650D01*
X9496372Y-15300650D02*
X9524944Y-15300650D01*
X9524944Y-15300650D02*
X9543991Y-15310174D01*
X9543991Y-15310174D02*
X9553515Y-15329222D01*
X9553515Y-15329222D02*
X9553515Y-15433984D01*
X9943991Y-15224460D02*
X9772563Y-15481603D01*
X10201134Y-15233984D02*
X10220182Y-15233984D01*
X10220182Y-15233984D02*
X10239229Y-15243508D01*
X10239229Y-15243508D02*
X10248753Y-15253031D01*
X10248753Y-15253031D02*
X10258277Y-15272079D01*
X10258277Y-15272079D02*
X10267801Y-15310174D01*
X10267801Y-15310174D02*
X10267801Y-15357793D01*
X10267801Y-15357793D02*
X10258277Y-15395888D01*
X10258277Y-15395888D02*
X10248753Y-15414936D01*
X10248753Y-15414936D02*
X10239229Y-15424460D01*
X10239229Y-15424460D02*
X10220182Y-15433984D01*
X10220182Y-15433984D02*
X10201134Y-15433984D01*
X10201134Y-15433984D02*
X10182087Y-15424460D01*
X10182087Y-15424460D02*
X10172563Y-15414936D01*
X10172563Y-15414936D02*
X10163039Y-15395888D01*
X10163039Y-15395888D02*
X10153515Y-15357793D01*
X10153515Y-15357793D02*
X10153515Y-15310174D01*
X10153515Y-15310174D02*
X10163039Y-15272079D01*
X10163039Y-15272079D02*
X10172563Y-15253031D01*
X10172563Y-15253031D02*
X10182087Y-15243508D01*
X10182087Y-15243508D02*
X10201134Y-15233984D01*
X10353515Y-15414936D02*
X10363039Y-15424460D01*
X10363039Y-15424460D02*
X10353515Y-15433984D01*
X10353515Y-15433984D02*
X10343991Y-15424460D01*
X10343991Y-15424460D02*
X10353515Y-15414936D01*
X10353515Y-15414936D02*
X10353515Y-15433984D01*
X10486848Y-15233984D02*
X10505896Y-15233984D01*
X10505896Y-15233984D02*
X10524944Y-15243508D01*
X10524944Y-15243508D02*
X10534468Y-15253031D01*
X10534468Y-15253031D02*
X10543991Y-15272079D01*
X10543991Y-15272079D02*
X10553515Y-15310174D01*
X10553515Y-15310174D02*
X10553515Y-15357793D01*
X10553515Y-15357793D02*
X10543991Y-15395888D01*
X10543991Y-15395888D02*
X10534468Y-15414936D01*
X10534468Y-15414936D02*
X10524944Y-15424460D01*
X10524944Y-15424460D02*
X10505896Y-15433984D01*
X10505896Y-15433984D02*
X10486848Y-15433984D01*
X10486848Y-15433984D02*
X10467801Y-15424460D01*
X10467801Y-15424460D02*
X10458277Y-15414936D01*
X10458277Y-15414936D02*
X10448753Y-15395888D01*
X10448753Y-15395888D02*
X10439229Y-15357793D01*
X10439229Y-15357793D02*
X10439229Y-15310174D01*
X10439229Y-15310174D02*
X10448753Y-15272079D01*
X10448753Y-15272079D02*
X10458277Y-15253031D01*
X10458277Y-15253031D02*
X10467801Y-15243508D01*
X10467801Y-15243508D02*
X10486848Y-15233984D01*
X10677325Y-15233984D02*
X10696372Y-15233984D01*
X10696372Y-15233984D02*
X10715420Y-15243508D01*
X10715420Y-15243508D02*
X10724944Y-15253031D01*
X10724944Y-15253031D02*
X10734468Y-15272079D01*
X10734468Y-15272079D02*
X10743991Y-15310174D01*
X10743991Y-15310174D02*
X10743991Y-15357793D01*
X10743991Y-15357793D02*
X10734468Y-15395888D01*
X10734468Y-15395888D02*
X10724944Y-15414936D01*
X10724944Y-15414936D02*
X10715420Y-15424460D01*
X10715420Y-15424460D02*
X10696372Y-15433984D01*
X10696372Y-15433984D02*
X10677325Y-15433984D01*
X10677325Y-15433984D02*
X10658277Y-15424460D01*
X10658277Y-15424460D02*
X10648753Y-15414936D01*
X10648753Y-15414936D02*
X10639229Y-15395888D01*
X10639229Y-15395888D02*
X10629706Y-15357793D01*
X10629706Y-15357793D02*
X10629706Y-15310174D01*
X10629706Y-15310174D02*
X10639229Y-15272079D01*
X10639229Y-15272079D02*
X10648753Y-15253031D01*
X10648753Y-15253031D02*
X10658277Y-15243508D01*
X10658277Y-15243508D02*
X10677325Y-15233984D01*
X10924944Y-15233984D02*
X10829706Y-15233984D01*
X10829706Y-15233984D02*
X10820182Y-15329222D01*
X10820182Y-15329222D02*
X10829706Y-15319698D01*
X10829706Y-15319698D02*
X10848753Y-15310174D01*
X10848753Y-15310174D02*
X10896372Y-15310174D01*
X10896372Y-15310174D02*
X10915420Y-15319698D01*
X10915420Y-15319698D02*
X10924944Y-15329222D01*
X10924944Y-15329222D02*
X10934468Y-15348269D01*
X10934468Y-15348269D02*
X10934468Y-15395888D01*
X10934468Y-15395888D02*
X10924944Y-15414936D01*
X10924944Y-15414936D02*
X10915420Y-15424460D01*
X10915420Y-15424460D02*
X10896372Y-15433984D01*
X10896372Y-15433984D02*
X10848753Y-15433984D01*
X10848753Y-15433984D02*
X10829706Y-15424460D01*
X10829706Y-15424460D02*
X10820182Y-15414936D01*
X11029706Y-15433984D02*
X11067801Y-15433984D01*
X11067801Y-15433984D02*
X11086849Y-15424460D01*
X11086849Y-15424460D02*
X11096372Y-15414936D01*
X11096372Y-15414936D02*
X11115420Y-15386365D01*
X11115420Y-15386365D02*
X11124944Y-15348269D01*
X11124944Y-15348269D02*
X11124944Y-15272079D01*
X11124944Y-15272079D02*
X11115420Y-15253031D01*
X11115420Y-15253031D02*
X11105896Y-15243508D01*
X11105896Y-15243508D02*
X11086849Y-15233984D01*
X11086849Y-15233984D02*
X11048753Y-15233984D01*
X11048753Y-15233984D02*
X11029706Y-15243508D01*
X11029706Y-15243508D02*
X11020182Y-15253031D01*
X11020182Y-15253031D02*
X11010658Y-15272079D01*
X11010658Y-15272079D02*
X11010658Y-15319698D01*
X11010658Y-15319698D02*
X11020182Y-15338746D01*
X11020182Y-15338746D02*
X11029706Y-15348269D01*
X11029706Y-15348269D02*
X11048753Y-15357793D01*
X11048753Y-15357793D02*
X11086849Y-15357793D01*
X11086849Y-15357793D02*
X11105896Y-15348269D01*
X11105896Y-15348269D02*
X11115420Y-15338746D01*
X11115420Y-15338746D02*
X11124944Y-15319698D01*
X11201134Y-15233984D02*
X11201134Y-15272079D01*
X11277325Y-15233984D02*
X11277325Y-15272079D01*
X11572563Y-15510174D02*
X11563039Y-15500650D01*
X11563039Y-15500650D02*
X11543991Y-15472079D01*
X11543991Y-15472079D02*
X11534468Y-15453031D01*
X11534468Y-15453031D02*
X11524944Y-15424460D01*
X11524944Y-15424460D02*
X11515420Y-15376841D01*
X11515420Y-15376841D02*
X11515420Y-15338746D01*
X11515420Y-15338746D02*
X11524944Y-15291127D01*
X11524944Y-15291127D02*
X11534468Y-15262555D01*
X11534468Y-15262555D02*
X11543991Y-15243508D01*
X11543991Y-15243508D02*
X11563039Y-15214936D01*
X11563039Y-15214936D02*
X11572563Y-15205412D01*
X11753515Y-15433984D02*
X11639229Y-15433984D01*
X11696372Y-15433984D02*
X11696372Y-15233984D01*
X11696372Y-15233984D02*
X11677325Y-15262555D01*
X11677325Y-15262555D02*
X11658277Y-15281603D01*
X11658277Y-15281603D02*
X11639229Y-15291127D01*
X11820182Y-15233984D02*
X11953515Y-15233984D01*
X11953515Y-15233984D02*
X11867801Y-15433984D01*
X12010658Y-15233984D02*
X12143991Y-15233984D01*
X12143991Y-15233984D02*
X12058277Y-15433984D01*
X12372563Y-15433984D02*
X12372563Y-15233984D01*
X12458277Y-15433984D02*
X12458277Y-15329222D01*
X12458277Y-15329222D02*
X12448753Y-15310174D01*
X12448753Y-15310174D02*
X12429706Y-15300650D01*
X12429706Y-15300650D02*
X12401134Y-15300650D01*
X12401134Y-15300650D02*
X12382087Y-15310174D01*
X12382087Y-15310174D02*
X12372563Y-15319698D01*
X12582087Y-15433984D02*
X12563039Y-15424460D01*
X12563039Y-15424460D02*
X12553515Y-15414936D01*
X12553515Y-15414936D02*
X12543991Y-15395888D01*
X12543991Y-15395888D02*
X12543991Y-15338746D01*
X12543991Y-15338746D02*
X12553515Y-15319698D01*
X12553515Y-15319698D02*
X12563039Y-15310174D01*
X12563039Y-15310174D02*
X12582087Y-15300650D01*
X12582087Y-15300650D02*
X12610658Y-15300650D01*
X12610658Y-15300650D02*
X12629706Y-15310174D01*
X12629706Y-15310174D02*
X12639230Y-15319698D01*
X12639230Y-15319698D02*
X12648753Y-15338746D01*
X12648753Y-15338746D02*
X12648753Y-15395888D01*
X12648753Y-15395888D02*
X12639230Y-15414936D01*
X12639230Y-15414936D02*
X12629706Y-15424460D01*
X12629706Y-15424460D02*
X12610658Y-15433984D01*
X12610658Y-15433984D02*
X12582087Y-15433984D01*
X12763039Y-15433984D02*
X12743991Y-15424460D01*
X12743991Y-15424460D02*
X12734468Y-15405412D01*
X12734468Y-15405412D02*
X12734468Y-15233984D01*
X12915420Y-15424460D02*
X12896372Y-15433984D01*
X12896372Y-15433984D02*
X12858277Y-15433984D01*
X12858277Y-15433984D02*
X12839230Y-15424460D01*
X12839230Y-15424460D02*
X12829706Y-15405412D01*
X12829706Y-15405412D02*
X12829706Y-15329222D01*
X12829706Y-15329222D02*
X12839230Y-15310174D01*
X12839230Y-15310174D02*
X12858277Y-15300650D01*
X12858277Y-15300650D02*
X12896372Y-15300650D01*
X12896372Y-15300650D02*
X12915420Y-15310174D01*
X12915420Y-15310174D02*
X12924944Y-15329222D01*
X12924944Y-15329222D02*
X12924944Y-15348269D01*
X12924944Y-15348269D02*
X12829706Y-15367317D01*
X13001134Y-15424460D02*
X13020182Y-15433984D01*
X13020182Y-15433984D02*
X13058277Y-15433984D01*
X13058277Y-15433984D02*
X13077325Y-15424460D01*
X13077325Y-15424460D02*
X13086849Y-15405412D01*
X13086849Y-15405412D02*
X13086849Y-15395888D01*
X13086849Y-15395888D02*
X13077325Y-15376841D01*
X13077325Y-15376841D02*
X13058277Y-15367317D01*
X13058277Y-15367317D02*
X13029706Y-15367317D01*
X13029706Y-15367317D02*
X13010658Y-15357793D01*
X13010658Y-15357793D02*
X13001134Y-15338746D01*
X13001134Y-15338746D02*
X13001134Y-15329222D01*
X13001134Y-15329222D02*
X13010658Y-15310174D01*
X13010658Y-15310174D02*
X13029706Y-15300650D01*
X13029706Y-15300650D02*
X13058277Y-15300650D01*
X13058277Y-15300650D02*
X13077325Y-15310174D01*
X13153515Y-15510174D02*
X13163039Y-15500650D01*
X13163039Y-15500650D02*
X13182087Y-15472079D01*
X13182087Y-15472079D02*
X13191611Y-15453031D01*
X13191611Y-15453031D02*
X13201134Y-15424460D01*
X13201134Y-15424460D02*
X13210658Y-15376841D01*
X13210658Y-15376841D02*
X13210658Y-15338746D01*
X13210658Y-15338746D02*
X13201134Y-15291127D01*
X13201134Y-15291127D02*
X13191611Y-15262555D01*
X13191611Y-15262555D02*
X13182087Y-15243508D01*
X13182087Y-15243508D02*
X13163039Y-15214936D01*
X13163039Y-15214936D02*
X13153515Y-15205412D01*
D12*
X7997500Y-15606500D02*
G75*
G02*
X7977500Y-15606500I-10000J0D01*
G01*
X7977500Y-15606500D02*
G75*
G02*
X7997500Y-15606500I10000J0D01*
G01*
D11*
X8296372Y-15497984D02*
X8315420Y-15497984D01*
X8315420Y-15497984D02*
X8334467Y-15507508D01*
X8334467Y-15507508D02*
X8343991Y-15517031D01*
X8343991Y-15517031D02*
X8353515Y-15536079D01*
X8353515Y-15536079D02*
X8363039Y-15574174D01*
X8363039Y-15574174D02*
X8363039Y-15621793D01*
X8363039Y-15621793D02*
X8353515Y-15659888D01*
X8353515Y-15659888D02*
X8343991Y-15678936D01*
X8343991Y-15678936D02*
X8334467Y-15688460D01*
X8334467Y-15688460D02*
X8315420Y-15697984D01*
X8315420Y-15697984D02*
X8296372Y-15697984D01*
X8296372Y-15697984D02*
X8277324Y-15688460D01*
X8277324Y-15688460D02*
X8267801Y-15678936D01*
X8267801Y-15678936D02*
X8258277Y-15659888D01*
X8258277Y-15659888D02*
X8248753Y-15621793D01*
X8248753Y-15621793D02*
X8248753Y-15574174D01*
X8248753Y-15574174D02*
X8258277Y-15536079D01*
X8258277Y-15536079D02*
X8267801Y-15517031D01*
X8267801Y-15517031D02*
X8277324Y-15507508D01*
X8277324Y-15507508D02*
X8296372Y-15497984D01*
X8448753Y-15678936D02*
X8458277Y-15688460D01*
X8458277Y-15688460D02*
X8448753Y-15697984D01*
X8448753Y-15697984D02*
X8439229Y-15688460D01*
X8439229Y-15688460D02*
X8448753Y-15678936D01*
X8448753Y-15678936D02*
X8448753Y-15697984D01*
X8534467Y-15517031D02*
X8543991Y-15507508D01*
X8543991Y-15507508D02*
X8563039Y-15497984D01*
X8563039Y-15497984D02*
X8610658Y-15497984D01*
X8610658Y-15497984D02*
X8629705Y-15507508D01*
X8629705Y-15507508D02*
X8639229Y-15517031D01*
X8639229Y-15517031D02*
X8648753Y-15536079D01*
X8648753Y-15536079D02*
X8648753Y-15555127D01*
X8648753Y-15555127D02*
X8639229Y-15583698D01*
X8639229Y-15583698D02*
X8524944Y-15697984D01*
X8524944Y-15697984D02*
X8648753Y-15697984D01*
X8772563Y-15497984D02*
X8791610Y-15497984D01*
X8791610Y-15497984D02*
X8810658Y-15507508D01*
X8810658Y-15507508D02*
X8820182Y-15517031D01*
X8820182Y-15517031D02*
X8829705Y-15536079D01*
X8829705Y-15536079D02*
X8839229Y-15574174D01*
X8839229Y-15574174D02*
X8839229Y-15621793D01*
X8839229Y-15621793D02*
X8829705Y-15659888D01*
X8829705Y-15659888D02*
X8820182Y-15678936D01*
X8820182Y-15678936D02*
X8810658Y-15688460D01*
X8810658Y-15688460D02*
X8791610Y-15697984D01*
X8791610Y-15697984D02*
X8772563Y-15697984D01*
X8772563Y-15697984D02*
X8753515Y-15688460D01*
X8753515Y-15688460D02*
X8743991Y-15678936D01*
X8743991Y-15678936D02*
X8734467Y-15659888D01*
X8734467Y-15659888D02*
X8724944Y-15621793D01*
X8724944Y-15621793D02*
X8724944Y-15574174D01*
X8724944Y-15574174D02*
X8734467Y-15536079D01*
X8734467Y-15536079D02*
X8743991Y-15517031D01*
X8743991Y-15517031D02*
X8753515Y-15507508D01*
X8753515Y-15507508D02*
X8772563Y-15497984D01*
X8963039Y-15497984D02*
X8982086Y-15497984D01*
X8982086Y-15497984D02*
X9001134Y-15507508D01*
X9001134Y-15507508D02*
X9010658Y-15517031D01*
X9010658Y-15517031D02*
X9020182Y-15536079D01*
X9020182Y-15536079D02*
X9029705Y-15574174D01*
X9029705Y-15574174D02*
X9029705Y-15621793D01*
X9029705Y-15621793D02*
X9020182Y-15659888D01*
X9020182Y-15659888D02*
X9010658Y-15678936D01*
X9010658Y-15678936D02*
X9001134Y-15688460D01*
X9001134Y-15688460D02*
X8982086Y-15697984D01*
X8982086Y-15697984D02*
X8963039Y-15697984D01*
X8963039Y-15697984D02*
X8943991Y-15688460D01*
X8943991Y-15688460D02*
X8934467Y-15678936D01*
X8934467Y-15678936D02*
X8924944Y-15659888D01*
X8924944Y-15659888D02*
X8915420Y-15621793D01*
X8915420Y-15621793D02*
X8915420Y-15574174D01*
X8915420Y-15574174D02*
X8924944Y-15536079D01*
X8924944Y-15536079D02*
X8934467Y-15517031D01*
X8934467Y-15517031D02*
X8943991Y-15507508D01*
X8943991Y-15507508D02*
X8963039Y-15497984D01*
X9115420Y-15697984D02*
X9115420Y-15564650D01*
X9115420Y-15583698D02*
X9124944Y-15574174D01*
X9124944Y-15574174D02*
X9143991Y-15564650D01*
X9143991Y-15564650D02*
X9172563Y-15564650D01*
X9172563Y-15564650D02*
X9191610Y-15574174D01*
X9191610Y-15574174D02*
X9201134Y-15593222D01*
X9201134Y-15593222D02*
X9201134Y-15697984D01*
X9201134Y-15593222D02*
X9210658Y-15574174D01*
X9210658Y-15574174D02*
X9229705Y-15564650D01*
X9229705Y-15564650D02*
X9258277Y-15564650D01*
X9258277Y-15564650D02*
X9277325Y-15574174D01*
X9277325Y-15574174D02*
X9286848Y-15593222D01*
X9286848Y-15593222D02*
X9286848Y-15697984D01*
X9382086Y-15697984D02*
X9382086Y-15564650D01*
X9382086Y-15583698D02*
X9391610Y-15574174D01*
X9391610Y-15574174D02*
X9410658Y-15564650D01*
X9410658Y-15564650D02*
X9439229Y-15564650D01*
X9439229Y-15564650D02*
X9458277Y-15574174D01*
X9458277Y-15574174D02*
X9467801Y-15593222D01*
X9467801Y-15593222D02*
X9467801Y-15697984D01*
X9467801Y-15593222D02*
X9477325Y-15574174D01*
X9477325Y-15574174D02*
X9496372Y-15564650D01*
X9496372Y-15564650D02*
X9524944Y-15564650D01*
X9524944Y-15564650D02*
X9543991Y-15574174D01*
X9543991Y-15574174D02*
X9553515Y-15593222D01*
X9553515Y-15593222D02*
X9553515Y-15697984D01*
X9943991Y-15488460D02*
X9772563Y-15745603D01*
X10201134Y-15497984D02*
X10220182Y-15497984D01*
X10220182Y-15497984D02*
X10239229Y-15507508D01*
X10239229Y-15507508D02*
X10248753Y-15517031D01*
X10248753Y-15517031D02*
X10258277Y-15536079D01*
X10258277Y-15536079D02*
X10267801Y-15574174D01*
X10267801Y-15574174D02*
X10267801Y-15621793D01*
X10267801Y-15621793D02*
X10258277Y-15659888D01*
X10258277Y-15659888D02*
X10248753Y-15678936D01*
X10248753Y-15678936D02*
X10239229Y-15688460D01*
X10239229Y-15688460D02*
X10220182Y-15697984D01*
X10220182Y-15697984D02*
X10201134Y-15697984D01*
X10201134Y-15697984D02*
X10182087Y-15688460D01*
X10182087Y-15688460D02*
X10172563Y-15678936D01*
X10172563Y-15678936D02*
X10163039Y-15659888D01*
X10163039Y-15659888D02*
X10153515Y-15621793D01*
X10153515Y-15621793D02*
X10153515Y-15574174D01*
X10153515Y-15574174D02*
X10163039Y-15536079D01*
X10163039Y-15536079D02*
X10172563Y-15517031D01*
X10172563Y-15517031D02*
X10182087Y-15507508D01*
X10182087Y-15507508D02*
X10201134Y-15497984D01*
X10353515Y-15678936D02*
X10363039Y-15688460D01*
X10363039Y-15688460D02*
X10353515Y-15697984D01*
X10353515Y-15697984D02*
X10343991Y-15688460D01*
X10343991Y-15688460D02*
X10353515Y-15678936D01*
X10353515Y-15678936D02*
X10353515Y-15697984D01*
X10486848Y-15497984D02*
X10505896Y-15497984D01*
X10505896Y-15497984D02*
X10524944Y-15507508D01*
X10524944Y-15507508D02*
X10534468Y-15517031D01*
X10534468Y-15517031D02*
X10543991Y-15536079D01*
X10543991Y-15536079D02*
X10553515Y-15574174D01*
X10553515Y-15574174D02*
X10553515Y-15621793D01*
X10553515Y-15621793D02*
X10543991Y-15659888D01*
X10543991Y-15659888D02*
X10534468Y-15678936D01*
X10534468Y-15678936D02*
X10524944Y-15688460D01*
X10524944Y-15688460D02*
X10505896Y-15697984D01*
X10505896Y-15697984D02*
X10486848Y-15697984D01*
X10486848Y-15697984D02*
X10467801Y-15688460D01*
X10467801Y-15688460D02*
X10458277Y-15678936D01*
X10458277Y-15678936D02*
X10448753Y-15659888D01*
X10448753Y-15659888D02*
X10439229Y-15621793D01*
X10439229Y-15621793D02*
X10439229Y-15574174D01*
X10439229Y-15574174D02*
X10448753Y-15536079D01*
X10448753Y-15536079D02*
X10458277Y-15517031D01*
X10458277Y-15517031D02*
X10467801Y-15507508D01*
X10467801Y-15507508D02*
X10486848Y-15497984D01*
X10677325Y-15497984D02*
X10696372Y-15497984D01*
X10696372Y-15497984D02*
X10715420Y-15507508D01*
X10715420Y-15507508D02*
X10724944Y-15517031D01*
X10724944Y-15517031D02*
X10734468Y-15536079D01*
X10734468Y-15536079D02*
X10743991Y-15574174D01*
X10743991Y-15574174D02*
X10743991Y-15621793D01*
X10743991Y-15621793D02*
X10734468Y-15659888D01*
X10734468Y-15659888D02*
X10724944Y-15678936D01*
X10724944Y-15678936D02*
X10715420Y-15688460D01*
X10715420Y-15688460D02*
X10696372Y-15697984D01*
X10696372Y-15697984D02*
X10677325Y-15697984D01*
X10677325Y-15697984D02*
X10658277Y-15688460D01*
X10658277Y-15688460D02*
X10648753Y-15678936D01*
X10648753Y-15678936D02*
X10639229Y-15659888D01*
X10639229Y-15659888D02*
X10629706Y-15621793D01*
X10629706Y-15621793D02*
X10629706Y-15574174D01*
X10629706Y-15574174D02*
X10639229Y-15536079D01*
X10639229Y-15536079D02*
X10648753Y-15517031D01*
X10648753Y-15517031D02*
X10658277Y-15507508D01*
X10658277Y-15507508D02*
X10677325Y-15497984D01*
X10810658Y-15497984D02*
X10943991Y-15497984D01*
X10943991Y-15497984D02*
X10858277Y-15697984D01*
X11029706Y-15697984D02*
X11067801Y-15697984D01*
X11067801Y-15697984D02*
X11086849Y-15688460D01*
X11086849Y-15688460D02*
X11096372Y-15678936D01*
X11096372Y-15678936D02*
X11115420Y-15650365D01*
X11115420Y-15650365D02*
X11124944Y-15612269D01*
X11124944Y-15612269D02*
X11124944Y-15536079D01*
X11124944Y-15536079D02*
X11115420Y-15517031D01*
X11115420Y-15517031D02*
X11105896Y-15507508D01*
X11105896Y-15507508D02*
X11086849Y-15497984D01*
X11086849Y-15497984D02*
X11048753Y-15497984D01*
X11048753Y-15497984D02*
X11029706Y-15507508D01*
X11029706Y-15507508D02*
X11020182Y-15517031D01*
X11020182Y-15517031D02*
X11010658Y-15536079D01*
X11010658Y-15536079D02*
X11010658Y-15583698D01*
X11010658Y-15583698D02*
X11020182Y-15602746D01*
X11020182Y-15602746D02*
X11029706Y-15612269D01*
X11029706Y-15612269D02*
X11048753Y-15621793D01*
X11048753Y-15621793D02*
X11086849Y-15621793D01*
X11086849Y-15621793D02*
X11105896Y-15612269D01*
X11105896Y-15612269D02*
X11115420Y-15602746D01*
X11115420Y-15602746D02*
X11124944Y-15583698D01*
X11201134Y-15497984D02*
X11201134Y-15536079D01*
X11277325Y-15497984D02*
X11277325Y-15536079D01*
X11572563Y-15774174D02*
X11563039Y-15764650D01*
X11563039Y-15764650D02*
X11543991Y-15736079D01*
X11543991Y-15736079D02*
X11534468Y-15717031D01*
X11534468Y-15717031D02*
X11524944Y-15688460D01*
X11524944Y-15688460D02*
X11515420Y-15640841D01*
X11515420Y-15640841D02*
X11515420Y-15602746D01*
X11515420Y-15602746D02*
X11524944Y-15555127D01*
X11524944Y-15555127D02*
X11534468Y-15526555D01*
X11534468Y-15526555D02*
X11543991Y-15507508D01*
X11543991Y-15507508D02*
X11563039Y-15478936D01*
X11563039Y-15478936D02*
X11572563Y-15469412D01*
X11629706Y-15497984D02*
X11763039Y-15497984D01*
X11763039Y-15497984D02*
X11677325Y-15697984D01*
X11829706Y-15517031D02*
X11839229Y-15507508D01*
X11839229Y-15507508D02*
X11858277Y-15497984D01*
X11858277Y-15497984D02*
X11905896Y-15497984D01*
X11905896Y-15497984D02*
X11924944Y-15507508D01*
X11924944Y-15507508D02*
X11934468Y-15517031D01*
X11934468Y-15517031D02*
X11943991Y-15536079D01*
X11943991Y-15536079D02*
X11943991Y-15555127D01*
X11943991Y-15555127D02*
X11934468Y-15583698D01*
X11934468Y-15583698D02*
X11820182Y-15697984D01*
X11820182Y-15697984D02*
X11943991Y-15697984D01*
X12020182Y-15517031D02*
X12029706Y-15507508D01*
X12029706Y-15507508D02*
X12048753Y-15497984D01*
X12048753Y-15497984D02*
X12096372Y-15497984D01*
X12096372Y-15497984D02*
X12115420Y-15507508D01*
X12115420Y-15507508D02*
X12124944Y-15517031D01*
X12124944Y-15517031D02*
X12134468Y-15536079D01*
X12134468Y-15536079D02*
X12134468Y-15555127D01*
X12134468Y-15555127D02*
X12124944Y-15583698D01*
X12124944Y-15583698D02*
X12010658Y-15697984D01*
X12010658Y-15697984D02*
X12134468Y-15697984D01*
X12372563Y-15697984D02*
X12372563Y-15497984D01*
X12458277Y-15697984D02*
X12458277Y-15593222D01*
X12458277Y-15593222D02*
X12448753Y-15574174D01*
X12448753Y-15574174D02*
X12429706Y-15564650D01*
X12429706Y-15564650D02*
X12401134Y-15564650D01*
X12401134Y-15564650D02*
X12382087Y-15574174D01*
X12382087Y-15574174D02*
X12372563Y-15583698D01*
X12582087Y-15697984D02*
X12563039Y-15688460D01*
X12563039Y-15688460D02*
X12553515Y-15678936D01*
X12553515Y-15678936D02*
X12543991Y-15659888D01*
X12543991Y-15659888D02*
X12543991Y-15602746D01*
X12543991Y-15602746D02*
X12553515Y-15583698D01*
X12553515Y-15583698D02*
X12563039Y-15574174D01*
X12563039Y-15574174D02*
X12582087Y-15564650D01*
X12582087Y-15564650D02*
X12610658Y-15564650D01*
X12610658Y-15564650D02*
X12629706Y-15574174D01*
X12629706Y-15574174D02*
X12639230Y-15583698D01*
X12639230Y-15583698D02*
X12648753Y-15602746D01*
X12648753Y-15602746D02*
X12648753Y-15659888D01*
X12648753Y-15659888D02*
X12639230Y-15678936D01*
X12639230Y-15678936D02*
X12629706Y-15688460D01*
X12629706Y-15688460D02*
X12610658Y-15697984D01*
X12610658Y-15697984D02*
X12582087Y-15697984D01*
X12763039Y-15697984D02*
X12743991Y-15688460D01*
X12743991Y-15688460D02*
X12734468Y-15669412D01*
X12734468Y-15669412D02*
X12734468Y-15497984D01*
X12915420Y-15688460D02*
X12896372Y-15697984D01*
X12896372Y-15697984D02*
X12858277Y-15697984D01*
X12858277Y-15697984D02*
X12839230Y-15688460D01*
X12839230Y-15688460D02*
X12829706Y-15669412D01*
X12829706Y-15669412D02*
X12829706Y-15593222D01*
X12829706Y-15593222D02*
X12839230Y-15574174D01*
X12839230Y-15574174D02*
X12858277Y-15564650D01*
X12858277Y-15564650D02*
X12896372Y-15564650D01*
X12896372Y-15564650D02*
X12915420Y-15574174D01*
X12915420Y-15574174D02*
X12924944Y-15593222D01*
X12924944Y-15593222D02*
X12924944Y-15612269D01*
X12924944Y-15612269D02*
X12829706Y-15631317D01*
X13001134Y-15688460D02*
X13020182Y-15697984D01*
X13020182Y-15697984D02*
X13058277Y-15697984D01*
X13058277Y-15697984D02*
X13077325Y-15688460D01*
X13077325Y-15688460D02*
X13086849Y-15669412D01*
X13086849Y-15669412D02*
X13086849Y-15659888D01*
X13086849Y-15659888D02*
X13077325Y-15640841D01*
X13077325Y-15640841D02*
X13058277Y-15631317D01*
X13058277Y-15631317D02*
X13029706Y-15631317D01*
X13029706Y-15631317D02*
X13010658Y-15621793D01*
X13010658Y-15621793D02*
X13001134Y-15602746D01*
X13001134Y-15602746D02*
X13001134Y-15593222D01*
X13001134Y-15593222D02*
X13010658Y-15574174D01*
X13010658Y-15574174D02*
X13029706Y-15564650D01*
X13029706Y-15564650D02*
X13058277Y-15564650D01*
X13058277Y-15564650D02*
X13077325Y-15574174D01*
X13153515Y-15774174D02*
X13163039Y-15764650D01*
X13163039Y-15764650D02*
X13182087Y-15736079D01*
X13182087Y-15736079D02*
X13191611Y-15717031D01*
X13191611Y-15717031D02*
X13201134Y-15688460D01*
X13201134Y-15688460D02*
X13210658Y-15640841D01*
X13210658Y-15640841D02*
X13210658Y-15602746D01*
X13210658Y-15602746D02*
X13201134Y-15555127D01*
X13201134Y-15555127D02*
X13191611Y-15526555D01*
X13191611Y-15526555D02*
X13182087Y-15507508D01*
X13182087Y-15507508D02*
X13163039Y-15478936D01*
X13163039Y-15478936D02*
X13153515Y-15469412D01*
D12*
X7967500Y-15840500D02*
X7967500Y-15900500D01*
X7937500Y-15870500D02*
X7997500Y-15870500D01*
D11*
X8296372Y-15761984D02*
X8315420Y-15761984D01*
X8315420Y-15761984D02*
X8334467Y-15771508D01*
X8334467Y-15771508D02*
X8343991Y-15781031D01*
X8343991Y-15781031D02*
X8353515Y-15800079D01*
X8353515Y-15800079D02*
X8363039Y-15838174D01*
X8363039Y-15838174D02*
X8363039Y-15885793D01*
X8363039Y-15885793D02*
X8353515Y-15923888D01*
X8353515Y-15923888D02*
X8343991Y-15942936D01*
X8343991Y-15942936D02*
X8334467Y-15952460D01*
X8334467Y-15952460D02*
X8315420Y-15961984D01*
X8315420Y-15961984D02*
X8296372Y-15961984D01*
X8296372Y-15961984D02*
X8277324Y-15952460D01*
X8277324Y-15952460D02*
X8267801Y-15942936D01*
X8267801Y-15942936D02*
X8258277Y-15923888D01*
X8258277Y-15923888D02*
X8248753Y-15885793D01*
X8248753Y-15885793D02*
X8248753Y-15838174D01*
X8248753Y-15838174D02*
X8258277Y-15800079D01*
X8258277Y-15800079D02*
X8267801Y-15781031D01*
X8267801Y-15781031D02*
X8277324Y-15771508D01*
X8277324Y-15771508D02*
X8296372Y-15761984D01*
X8448753Y-15942936D02*
X8458277Y-15952460D01*
X8458277Y-15952460D02*
X8448753Y-15961984D01*
X8448753Y-15961984D02*
X8439229Y-15952460D01*
X8439229Y-15952460D02*
X8448753Y-15942936D01*
X8448753Y-15942936D02*
X8448753Y-15961984D01*
X8629705Y-15761984D02*
X8591610Y-15761984D01*
X8591610Y-15761984D02*
X8572563Y-15771508D01*
X8572563Y-15771508D02*
X8563039Y-15781031D01*
X8563039Y-15781031D02*
X8543991Y-15809603D01*
X8543991Y-15809603D02*
X8534467Y-15847698D01*
X8534467Y-15847698D02*
X8534467Y-15923888D01*
X8534467Y-15923888D02*
X8543991Y-15942936D01*
X8543991Y-15942936D02*
X8553515Y-15952460D01*
X8553515Y-15952460D02*
X8572563Y-15961984D01*
X8572563Y-15961984D02*
X8610658Y-15961984D01*
X8610658Y-15961984D02*
X8629705Y-15952460D01*
X8629705Y-15952460D02*
X8639229Y-15942936D01*
X8639229Y-15942936D02*
X8648753Y-15923888D01*
X8648753Y-15923888D02*
X8648753Y-15876269D01*
X8648753Y-15876269D02*
X8639229Y-15857222D01*
X8639229Y-15857222D02*
X8629705Y-15847698D01*
X8629705Y-15847698D02*
X8610658Y-15838174D01*
X8610658Y-15838174D02*
X8572563Y-15838174D01*
X8572563Y-15838174D02*
X8553515Y-15847698D01*
X8553515Y-15847698D02*
X8543991Y-15857222D01*
X8543991Y-15857222D02*
X8534467Y-15876269D01*
X8772563Y-15761984D02*
X8791610Y-15761984D01*
X8791610Y-15761984D02*
X8810658Y-15771508D01*
X8810658Y-15771508D02*
X8820182Y-15781031D01*
X8820182Y-15781031D02*
X8829705Y-15800079D01*
X8829705Y-15800079D02*
X8839229Y-15838174D01*
X8839229Y-15838174D02*
X8839229Y-15885793D01*
X8839229Y-15885793D02*
X8829705Y-15923888D01*
X8829705Y-15923888D02*
X8820182Y-15942936D01*
X8820182Y-15942936D02*
X8810658Y-15952460D01*
X8810658Y-15952460D02*
X8791610Y-15961984D01*
X8791610Y-15961984D02*
X8772563Y-15961984D01*
X8772563Y-15961984D02*
X8753515Y-15952460D01*
X8753515Y-15952460D02*
X8743991Y-15942936D01*
X8743991Y-15942936D02*
X8734467Y-15923888D01*
X8734467Y-15923888D02*
X8724944Y-15885793D01*
X8724944Y-15885793D02*
X8724944Y-15838174D01*
X8724944Y-15838174D02*
X8734467Y-15800079D01*
X8734467Y-15800079D02*
X8743991Y-15781031D01*
X8743991Y-15781031D02*
X8753515Y-15771508D01*
X8753515Y-15771508D02*
X8772563Y-15761984D01*
X8963039Y-15761984D02*
X8982086Y-15761984D01*
X8982086Y-15761984D02*
X9001134Y-15771508D01*
X9001134Y-15771508D02*
X9010658Y-15781031D01*
X9010658Y-15781031D02*
X9020182Y-15800079D01*
X9020182Y-15800079D02*
X9029705Y-15838174D01*
X9029705Y-15838174D02*
X9029705Y-15885793D01*
X9029705Y-15885793D02*
X9020182Y-15923888D01*
X9020182Y-15923888D02*
X9010658Y-15942936D01*
X9010658Y-15942936D02*
X9001134Y-15952460D01*
X9001134Y-15952460D02*
X8982086Y-15961984D01*
X8982086Y-15961984D02*
X8963039Y-15961984D01*
X8963039Y-15961984D02*
X8943991Y-15952460D01*
X8943991Y-15952460D02*
X8934467Y-15942936D01*
X8934467Y-15942936D02*
X8924944Y-15923888D01*
X8924944Y-15923888D02*
X8915420Y-15885793D01*
X8915420Y-15885793D02*
X8915420Y-15838174D01*
X8915420Y-15838174D02*
X8924944Y-15800079D01*
X8924944Y-15800079D02*
X8934467Y-15781031D01*
X8934467Y-15781031D02*
X8943991Y-15771508D01*
X8943991Y-15771508D02*
X8963039Y-15761984D01*
X9115420Y-15961984D02*
X9115420Y-15828650D01*
X9115420Y-15847698D02*
X9124944Y-15838174D01*
X9124944Y-15838174D02*
X9143991Y-15828650D01*
X9143991Y-15828650D02*
X9172563Y-15828650D01*
X9172563Y-15828650D02*
X9191610Y-15838174D01*
X9191610Y-15838174D02*
X9201134Y-15857222D01*
X9201134Y-15857222D02*
X9201134Y-15961984D01*
X9201134Y-15857222D02*
X9210658Y-15838174D01*
X9210658Y-15838174D02*
X9229705Y-15828650D01*
X9229705Y-15828650D02*
X9258277Y-15828650D01*
X9258277Y-15828650D02*
X9277325Y-15838174D01*
X9277325Y-15838174D02*
X9286848Y-15857222D01*
X9286848Y-15857222D02*
X9286848Y-15961984D01*
X9382086Y-15961984D02*
X9382086Y-15828650D01*
X9382086Y-15847698D02*
X9391610Y-15838174D01*
X9391610Y-15838174D02*
X9410658Y-15828650D01*
X9410658Y-15828650D02*
X9439229Y-15828650D01*
X9439229Y-15828650D02*
X9458277Y-15838174D01*
X9458277Y-15838174D02*
X9467801Y-15857222D01*
X9467801Y-15857222D02*
X9467801Y-15961984D01*
X9467801Y-15857222D02*
X9477325Y-15838174D01*
X9477325Y-15838174D02*
X9496372Y-15828650D01*
X9496372Y-15828650D02*
X9524944Y-15828650D01*
X9524944Y-15828650D02*
X9543991Y-15838174D01*
X9543991Y-15838174D02*
X9553515Y-15857222D01*
X9553515Y-15857222D02*
X9553515Y-15961984D01*
X9943991Y-15752460D02*
X9772563Y-16009603D01*
X10201134Y-15761984D02*
X10220182Y-15761984D01*
X10220182Y-15761984D02*
X10239229Y-15771508D01*
X10239229Y-15771508D02*
X10248753Y-15781031D01*
X10248753Y-15781031D02*
X10258277Y-15800079D01*
X10258277Y-15800079D02*
X10267801Y-15838174D01*
X10267801Y-15838174D02*
X10267801Y-15885793D01*
X10267801Y-15885793D02*
X10258277Y-15923888D01*
X10258277Y-15923888D02*
X10248753Y-15942936D01*
X10248753Y-15942936D02*
X10239229Y-15952460D01*
X10239229Y-15952460D02*
X10220182Y-15961984D01*
X10220182Y-15961984D02*
X10201134Y-15961984D01*
X10201134Y-15961984D02*
X10182087Y-15952460D01*
X10182087Y-15952460D02*
X10172563Y-15942936D01*
X10172563Y-15942936D02*
X10163039Y-15923888D01*
X10163039Y-15923888D02*
X10153515Y-15885793D01*
X10153515Y-15885793D02*
X10153515Y-15838174D01*
X10153515Y-15838174D02*
X10163039Y-15800079D01*
X10163039Y-15800079D02*
X10172563Y-15781031D01*
X10172563Y-15781031D02*
X10182087Y-15771508D01*
X10182087Y-15771508D02*
X10201134Y-15761984D01*
X10353515Y-15942936D02*
X10363039Y-15952460D01*
X10363039Y-15952460D02*
X10353515Y-15961984D01*
X10353515Y-15961984D02*
X10343991Y-15952460D01*
X10343991Y-15952460D02*
X10353515Y-15942936D01*
X10353515Y-15942936D02*
X10353515Y-15961984D01*
X10486848Y-15761984D02*
X10505896Y-15761984D01*
X10505896Y-15761984D02*
X10524944Y-15771508D01*
X10524944Y-15771508D02*
X10534468Y-15781031D01*
X10534468Y-15781031D02*
X10543991Y-15800079D01*
X10543991Y-15800079D02*
X10553515Y-15838174D01*
X10553515Y-15838174D02*
X10553515Y-15885793D01*
X10553515Y-15885793D02*
X10543991Y-15923888D01*
X10543991Y-15923888D02*
X10534468Y-15942936D01*
X10534468Y-15942936D02*
X10524944Y-15952460D01*
X10524944Y-15952460D02*
X10505896Y-15961984D01*
X10505896Y-15961984D02*
X10486848Y-15961984D01*
X10486848Y-15961984D02*
X10467801Y-15952460D01*
X10467801Y-15952460D02*
X10458277Y-15942936D01*
X10458277Y-15942936D02*
X10448753Y-15923888D01*
X10448753Y-15923888D02*
X10439229Y-15885793D01*
X10439229Y-15885793D02*
X10439229Y-15838174D01*
X10439229Y-15838174D02*
X10448753Y-15800079D01*
X10448753Y-15800079D02*
X10458277Y-15781031D01*
X10458277Y-15781031D02*
X10467801Y-15771508D01*
X10467801Y-15771508D02*
X10486848Y-15761984D01*
X10629706Y-15781031D02*
X10639229Y-15771508D01*
X10639229Y-15771508D02*
X10658277Y-15761984D01*
X10658277Y-15761984D02*
X10705896Y-15761984D01*
X10705896Y-15761984D02*
X10724944Y-15771508D01*
X10724944Y-15771508D02*
X10734468Y-15781031D01*
X10734468Y-15781031D02*
X10743991Y-15800079D01*
X10743991Y-15800079D02*
X10743991Y-15819127D01*
X10743991Y-15819127D02*
X10734468Y-15847698D01*
X10734468Y-15847698D02*
X10620182Y-15961984D01*
X10620182Y-15961984D02*
X10743991Y-15961984D01*
X10810658Y-15761984D02*
X10934468Y-15761984D01*
X10934468Y-15761984D02*
X10867801Y-15838174D01*
X10867801Y-15838174D02*
X10896372Y-15838174D01*
X10896372Y-15838174D02*
X10915420Y-15847698D01*
X10915420Y-15847698D02*
X10924944Y-15857222D01*
X10924944Y-15857222D02*
X10934468Y-15876269D01*
X10934468Y-15876269D02*
X10934468Y-15923888D01*
X10934468Y-15923888D02*
X10924944Y-15942936D01*
X10924944Y-15942936D02*
X10915420Y-15952460D01*
X10915420Y-15952460D02*
X10896372Y-15961984D01*
X10896372Y-15961984D02*
X10839229Y-15961984D01*
X10839229Y-15961984D02*
X10820182Y-15952460D01*
X10820182Y-15952460D02*
X10810658Y-15942936D01*
X11105896Y-15761984D02*
X11067801Y-15761984D01*
X11067801Y-15761984D02*
X11048753Y-15771508D01*
X11048753Y-15771508D02*
X11039229Y-15781031D01*
X11039229Y-15781031D02*
X11020182Y-15809603D01*
X11020182Y-15809603D02*
X11010658Y-15847698D01*
X11010658Y-15847698D02*
X11010658Y-15923888D01*
X11010658Y-15923888D02*
X11020182Y-15942936D01*
X11020182Y-15942936D02*
X11029706Y-15952460D01*
X11029706Y-15952460D02*
X11048753Y-15961984D01*
X11048753Y-15961984D02*
X11086849Y-15961984D01*
X11086849Y-15961984D02*
X11105896Y-15952460D01*
X11105896Y-15952460D02*
X11115420Y-15942936D01*
X11115420Y-15942936D02*
X11124944Y-15923888D01*
X11124944Y-15923888D02*
X11124944Y-15876269D01*
X11124944Y-15876269D02*
X11115420Y-15857222D01*
X11115420Y-15857222D02*
X11105896Y-15847698D01*
X11105896Y-15847698D02*
X11086849Y-15838174D01*
X11086849Y-15838174D02*
X11048753Y-15838174D01*
X11048753Y-15838174D02*
X11029706Y-15847698D01*
X11029706Y-15847698D02*
X11020182Y-15857222D01*
X11020182Y-15857222D02*
X11010658Y-15876269D01*
X11201134Y-15761984D02*
X11201134Y-15800079D01*
X11277325Y-15761984D02*
X11277325Y-15800079D01*
X11572563Y-16038174D02*
X11563039Y-16028650D01*
X11563039Y-16028650D02*
X11543991Y-16000079D01*
X11543991Y-16000079D02*
X11534468Y-15981031D01*
X11534468Y-15981031D02*
X11524944Y-15952460D01*
X11524944Y-15952460D02*
X11515420Y-15904841D01*
X11515420Y-15904841D02*
X11515420Y-15866746D01*
X11515420Y-15866746D02*
X11524944Y-15819127D01*
X11524944Y-15819127D02*
X11534468Y-15790555D01*
X11534468Y-15790555D02*
X11543991Y-15771508D01*
X11543991Y-15771508D02*
X11563039Y-15742936D01*
X11563039Y-15742936D02*
X11572563Y-15733412D01*
X11686848Y-15761984D02*
X11705896Y-15761984D01*
X11705896Y-15761984D02*
X11724944Y-15771508D01*
X11724944Y-15771508D02*
X11734468Y-15781031D01*
X11734468Y-15781031D02*
X11743991Y-15800079D01*
X11743991Y-15800079D02*
X11753515Y-15838174D01*
X11753515Y-15838174D02*
X11753515Y-15885793D01*
X11753515Y-15885793D02*
X11743991Y-15923888D01*
X11743991Y-15923888D02*
X11734468Y-15942936D01*
X11734468Y-15942936D02*
X11724944Y-15952460D01*
X11724944Y-15952460D02*
X11705896Y-15961984D01*
X11705896Y-15961984D02*
X11686848Y-15961984D01*
X11686848Y-15961984D02*
X11667801Y-15952460D01*
X11667801Y-15952460D02*
X11658277Y-15942936D01*
X11658277Y-15942936D02*
X11648753Y-15923888D01*
X11648753Y-15923888D02*
X11639229Y-15885793D01*
X11639229Y-15885793D02*
X11639229Y-15838174D01*
X11639229Y-15838174D02*
X11648753Y-15800079D01*
X11648753Y-15800079D02*
X11658277Y-15781031D01*
X11658277Y-15781031D02*
X11667801Y-15771508D01*
X11667801Y-15771508D02*
X11686848Y-15761984D01*
X11991610Y-15961984D02*
X11991610Y-15761984D01*
X12077325Y-15961984D02*
X12077325Y-15857222D01*
X12077325Y-15857222D02*
X12067801Y-15838174D01*
X12067801Y-15838174D02*
X12048753Y-15828650D01*
X12048753Y-15828650D02*
X12020182Y-15828650D01*
X12020182Y-15828650D02*
X12001134Y-15838174D01*
X12001134Y-15838174D02*
X11991610Y-15847698D01*
X12201134Y-15961984D02*
X12182087Y-15952460D01*
X12182087Y-15952460D02*
X12172563Y-15942936D01*
X12172563Y-15942936D02*
X12163039Y-15923888D01*
X12163039Y-15923888D02*
X12163039Y-15866746D01*
X12163039Y-15866746D02*
X12172563Y-15847698D01*
X12172563Y-15847698D02*
X12182087Y-15838174D01*
X12182087Y-15838174D02*
X12201134Y-15828650D01*
X12201134Y-15828650D02*
X12229706Y-15828650D01*
X12229706Y-15828650D02*
X12248753Y-15838174D01*
X12248753Y-15838174D02*
X12258277Y-15847698D01*
X12258277Y-15847698D02*
X12267801Y-15866746D01*
X12267801Y-15866746D02*
X12267801Y-15923888D01*
X12267801Y-15923888D02*
X12258277Y-15942936D01*
X12258277Y-15942936D02*
X12248753Y-15952460D01*
X12248753Y-15952460D02*
X12229706Y-15961984D01*
X12229706Y-15961984D02*
X12201134Y-15961984D01*
X12382087Y-15961984D02*
X12363039Y-15952460D01*
X12363039Y-15952460D02*
X12353515Y-15933412D01*
X12353515Y-15933412D02*
X12353515Y-15761984D01*
X12534468Y-15952460D02*
X12515420Y-15961984D01*
X12515420Y-15961984D02*
X12477325Y-15961984D01*
X12477325Y-15961984D02*
X12458277Y-15952460D01*
X12458277Y-15952460D02*
X12448753Y-15933412D01*
X12448753Y-15933412D02*
X12448753Y-15857222D01*
X12448753Y-15857222D02*
X12458277Y-15838174D01*
X12458277Y-15838174D02*
X12477325Y-15828650D01*
X12477325Y-15828650D02*
X12515420Y-15828650D01*
X12515420Y-15828650D02*
X12534468Y-15838174D01*
X12534468Y-15838174D02*
X12543991Y-15857222D01*
X12543991Y-15857222D02*
X12543991Y-15876269D01*
X12543991Y-15876269D02*
X12448753Y-15895317D01*
X12620182Y-15952460D02*
X12639230Y-15961984D01*
X12639230Y-15961984D02*
X12677325Y-15961984D01*
X12677325Y-15961984D02*
X12696372Y-15952460D01*
X12696372Y-15952460D02*
X12705896Y-15933412D01*
X12705896Y-15933412D02*
X12705896Y-15923888D01*
X12705896Y-15923888D02*
X12696372Y-15904841D01*
X12696372Y-15904841D02*
X12677325Y-15895317D01*
X12677325Y-15895317D02*
X12648753Y-15895317D01*
X12648753Y-15895317D02*
X12629706Y-15885793D01*
X12629706Y-15885793D02*
X12620182Y-15866746D01*
X12620182Y-15866746D02*
X12620182Y-15857222D01*
X12620182Y-15857222D02*
X12629706Y-15838174D01*
X12629706Y-15838174D02*
X12648753Y-15828650D01*
X12648753Y-15828650D02*
X12677325Y-15828650D01*
X12677325Y-15828650D02*
X12696372Y-15838174D01*
X12943992Y-15885793D02*
X13096373Y-15885793D01*
X13020182Y-15961984D02*
X13020182Y-15809603D01*
X13372563Y-15847698D02*
X13353515Y-15838174D01*
X13353515Y-15838174D02*
X13343992Y-15828650D01*
X13343992Y-15828650D02*
X13334468Y-15809603D01*
X13334468Y-15809603D02*
X13334468Y-15800079D01*
X13334468Y-15800079D02*
X13343992Y-15781031D01*
X13343992Y-15781031D02*
X13353515Y-15771508D01*
X13353515Y-15771508D02*
X13372563Y-15761984D01*
X13372563Y-15761984D02*
X13410658Y-15761984D01*
X13410658Y-15761984D02*
X13429706Y-15771508D01*
X13429706Y-15771508D02*
X13439230Y-15781031D01*
X13439230Y-15781031D02*
X13448753Y-15800079D01*
X13448753Y-15800079D02*
X13448753Y-15809603D01*
X13448753Y-15809603D02*
X13439230Y-15828650D01*
X13439230Y-15828650D02*
X13429706Y-15838174D01*
X13429706Y-15838174D02*
X13410658Y-15847698D01*
X13410658Y-15847698D02*
X13372563Y-15847698D01*
X13372563Y-15847698D02*
X13353515Y-15857222D01*
X13353515Y-15857222D02*
X13343992Y-15866746D01*
X13343992Y-15866746D02*
X13334468Y-15885793D01*
X13334468Y-15885793D02*
X13334468Y-15923888D01*
X13334468Y-15923888D02*
X13343992Y-15942936D01*
X13343992Y-15942936D02*
X13353515Y-15952460D01*
X13353515Y-15952460D02*
X13372563Y-15961984D01*
X13372563Y-15961984D02*
X13410658Y-15961984D01*
X13410658Y-15961984D02*
X13429706Y-15952460D01*
X13429706Y-15952460D02*
X13439230Y-15942936D01*
X13439230Y-15942936D02*
X13448753Y-15923888D01*
X13448753Y-15923888D02*
X13448753Y-15885793D01*
X13448753Y-15885793D02*
X13439230Y-15866746D01*
X13439230Y-15866746D02*
X13429706Y-15857222D01*
X13429706Y-15857222D02*
X13410658Y-15847698D01*
X13677325Y-15952460D02*
X13696373Y-15961984D01*
X13696373Y-15961984D02*
X13734468Y-15961984D01*
X13734468Y-15961984D02*
X13753515Y-15952460D01*
X13753515Y-15952460D02*
X13763039Y-15933412D01*
X13763039Y-15933412D02*
X13763039Y-15923888D01*
X13763039Y-15923888D02*
X13753515Y-15904841D01*
X13753515Y-15904841D02*
X13734468Y-15895317D01*
X13734468Y-15895317D02*
X13705896Y-15895317D01*
X13705896Y-15895317D02*
X13686849Y-15885793D01*
X13686849Y-15885793D02*
X13677325Y-15866746D01*
X13677325Y-15866746D02*
X13677325Y-15857222D01*
X13677325Y-15857222D02*
X13686849Y-15838174D01*
X13686849Y-15838174D02*
X13705896Y-15828650D01*
X13705896Y-15828650D02*
X13734468Y-15828650D01*
X13734468Y-15828650D02*
X13753515Y-15838174D01*
X13877325Y-15961984D02*
X13858277Y-15952460D01*
X13858277Y-15952460D02*
X13848754Y-15933412D01*
X13848754Y-15933412D02*
X13848754Y-15761984D01*
X13982087Y-15961984D02*
X13963039Y-15952460D01*
X13963039Y-15952460D02*
X13953515Y-15942936D01*
X13953515Y-15942936D02*
X13943992Y-15923888D01*
X13943992Y-15923888D02*
X13943992Y-15866746D01*
X13943992Y-15866746D02*
X13953515Y-15847698D01*
X13953515Y-15847698D02*
X13963039Y-15838174D01*
X13963039Y-15838174D02*
X13982087Y-15828650D01*
X13982087Y-15828650D02*
X14010658Y-15828650D01*
X14010658Y-15828650D02*
X14029706Y-15838174D01*
X14029706Y-15838174D02*
X14039230Y-15847698D01*
X14039230Y-15847698D02*
X14048754Y-15866746D01*
X14048754Y-15866746D02*
X14048754Y-15923888D01*
X14048754Y-15923888D02*
X14039230Y-15942936D01*
X14039230Y-15942936D02*
X14029706Y-15952460D01*
X14029706Y-15952460D02*
X14010658Y-15961984D01*
X14010658Y-15961984D02*
X13982087Y-15961984D01*
X14105896Y-15828650D02*
X14182087Y-15828650D01*
X14134468Y-15761984D02*
X14134468Y-15933412D01*
X14134468Y-15933412D02*
X14143992Y-15952460D01*
X14143992Y-15952460D02*
X14163039Y-15961984D01*
X14163039Y-15961984D02*
X14182087Y-15961984D01*
X14239230Y-15952460D02*
X14258277Y-15961984D01*
X14258277Y-15961984D02*
X14296373Y-15961984D01*
X14296373Y-15961984D02*
X14315420Y-15952460D01*
X14315420Y-15952460D02*
X14324944Y-15933412D01*
X14324944Y-15933412D02*
X14324944Y-15923888D01*
X14324944Y-15923888D02*
X14315420Y-15904841D01*
X14315420Y-15904841D02*
X14296373Y-15895317D01*
X14296373Y-15895317D02*
X14267801Y-15895317D01*
X14267801Y-15895317D02*
X14248754Y-15885793D01*
X14248754Y-15885793D02*
X14239230Y-15866746D01*
X14239230Y-15866746D02*
X14239230Y-15857222D01*
X14239230Y-15857222D02*
X14248754Y-15838174D01*
X14248754Y-15838174D02*
X14267801Y-15828650D01*
X14267801Y-15828650D02*
X14296373Y-15828650D01*
X14296373Y-15828650D02*
X14315420Y-15838174D01*
X14391611Y-16038174D02*
X14401135Y-16028650D01*
X14401135Y-16028650D02*
X14420182Y-16000079D01*
X14420182Y-16000079D02*
X14429706Y-15981031D01*
X14429706Y-15981031D02*
X14439230Y-15952460D01*
X14439230Y-15952460D02*
X14448754Y-15904841D01*
X14448754Y-15904841D02*
X14448754Y-15866746D01*
X14448754Y-15866746D02*
X14439230Y-15819127D01*
X14439230Y-15819127D02*
X14429706Y-15790555D01*
X14429706Y-15790555D02*
X14420182Y-15771508D01*
X14420182Y-15771508D02*
X14401135Y-15742936D01*
X14401135Y-15742936D02*
X14391611Y-15733412D01*
M02*
