M48
; DRILL file KiCad 10.0.6 date 2026-09-10T10:46:44
; FORMAT={-:-/ absolute / metric / decimal}
; #@! TF.CreationDate,2026-09-10T10:46:44+08:00
; #@! TF.GenerationSoftware,Kicad,Pcbnew,10.0.6
; #@! TF.FileFunction,Plated,1,8,PTH
FMAT,2
METRIC
; #@! TA.AperFunction,Plated,PTH,ViaDrill
T1C0.150
; #@! TA.AperFunction,Plated,PTH,ViaDrill
T2C0.200
; #@! TA.AperFunction,Plated,PTH,ComponentDrill
T3C0.600
%
G90
G05
T1
X80.4Y-67.75
X80.45Y-61.8
X80.45Y-67.35
X80.85Y-64.35
X81.6Y-71.0
X81.6Y-99.15
X81.6Y-101.85
X81.85Y-81.25
X82.2Y-61.725
X82.25Y-64.0
X82.25Y-81.9
X82.275Y-81.375
X82.3Y-62.75
X82.6Y-68.45
X82.75Y-70.05
X82.8Y-69.2
X82.8Y-69.65
X83.05Y-74.55
X83.05Y-78.25
X83.05Y-92.85
X83.15Y-70.15
X83.2Y-65.9
X83.2Y-83.9
X83.35Y-136.65
X83.35Y-137.7
X83.45Y-62.8
X83.45Y-65.1
X83.55Y-86.65
X83.7Y-90.3
X83.75Y-74.35
X83.9Y-88.25
X84.15Y-69.55
X84.3Y-65.05
X84.65Y-69.2
X84.7Y-65.85
X84.7Y-73.6
X84.7Y-74.45
X84.75Y-65.0
X84.8Y-66.25
X84.8Y-85.85
X85.0Y-88.35
X85.0Y-89.15
X85.1Y-85.0
X85.2Y-81.0
X85.25Y-86.05
X85.35Y-62.9
X85.35Y-102.4
X85.5Y-88.15
X85.55Y-89.5
X85.586Y-92.316
X85.65Y-73.9
X85.7Y-102.2
X85.95Y-90.9
X86.025Y-66.45
X86.2Y-65.85
X86.25Y-65.0
X86.45Y-84.35
X86.65Y-66.05
X86.75Y-67.5
X86.8Y-101.4
X86.85Y-64.95
X87.0Y-57.7
X87.0Y-90.15
X87.0Y-90.95
X87.15Y-107.8
X87.15Y-116.7
X87.2Y-68.9
X87.2Y-101.35
X87.3Y-65.0
X87.35Y-65.95
X87.45Y-69.525
X87.7Y-92.0
X88.0Y-76.2
X88.2Y-73.5
X88.55Y-73.9
X88.6Y-104.85
X88.65Y-66.2
X88.75Y-80.3
X88.75Y-89.2
X88.8Y-62.3
X88.8Y-93.1
X89.0Y-73.9
X89.15Y-68.25
X89.2Y-64.1
X89.2Y-92.35
X89.25Y-72.0
X89.35Y-103.45
X89.85Y-61.2
X90.3Y-63.3
X90.45Y-76.2
X90.55Y-78.2
X90.75Y-78.55
X90.9Y-98.75
X91.1Y-99.1
X91.2Y-81.8
X91.25Y-90.3
X91.6Y-106.0
X91.9Y-65.55
X92.1Y-77.65
X92.25Y-76.5
X92.35Y-76.05
X92.45Y-70.8
X92.5Y-71.9
X92.6Y-86.35
X92.7Y-107.1
X92.75Y-79.3
X92.85Y-92.55
X92.9Y-81.45
X93.2Y-82.05
X93.5Y-105.45
X93.55Y-75.35
X93.6Y-74.95
X93.65Y-84.0
X93.75Y-92.0
X93.8Y-103.95
X93.85Y-64.35
X93.9Y-90.05
X94.0Y-103.6
X94.1Y-76.35
X94.1Y-76.8
X94.7Y-88.3
X94.7Y-124.25
X94.75Y-95.7
X94.9Y-67.4
X95.025Y-86.475
X95.1Y-97.1
X95.3Y-85.0
X95.35Y-69.0
X95.55Y-82.9
X95.85Y-65.5
X95.9Y-65.9
X96.05Y-98.1
X96.25Y-94.4
X96.95Y-86.15
X96.95Y-102.45
X97.1Y-97.0
X97.3Y-75.35
X97.5Y-101.5
X97.85Y-84.25
X98.1Y-91.2
X98.3Y-84.9
X99.15Y-97.5
X99.2Y-72.35
X99.55Y-82.2
X99.55Y-83.85
X99.55Y-84.7
X99.95Y-91.2
X99.95Y-91.9
X99.95Y-97.95
X100.1Y-64.6
X100.2Y-73.5
X100.2Y-100.1
X100.65Y-95.25
X100.65Y-106.25
X100.9Y-94.45
X100.95Y-83.65
X101.15Y-88.05
X101.25Y-81.3
X101.35Y-91.05
X101.5Y-97.85
X101.75Y-84.05
X102.25Y-73.05
X102.5Y-70.8
X102.7Y-78.4
X102.9Y-70.9
X103.35Y-70.9
X103.35Y-86.05
X103.8Y-87.6
X104.6Y-76.05
X104.8Y-78.3
X105.15Y-93.2
X105.9Y-72.85
X106.2Y-80.8
X107.9Y-100.15
X107.95Y-99.75
X108.05Y-67.75
X108.85Y-99.75
T2
X80.4Y-68.55
X80.625Y-61.05
X80.77Y-65.75
X81.25Y-66.4
X81.4Y-69.55
X81.6Y-80.4
X81.6Y-100.65
X81.6Y-101.2
X81.75Y-97.25
X81.8Y-61.4
X81.8Y-61.9
X81.9Y-96.35
X81.9Y-104.5
X81.95Y-106.45
X81.95Y-140.05
X82.0Y-94.5
X82.025Y-96.825
X82.125Y-87.9
X82.15Y-86.7
X82.15Y-90.7
X82.2Y-75.05
X82.2Y-79.65
X82.2Y-88.7
X82.3Y-63.55
X82.3Y-64.45
X82.3Y-76.2
X82.4Y-58.2
X82.4Y-59.15
X82.45Y-98.25
X82.45Y-100.1
X82.5Y-76.725
X82.5Y-104.55
X82.51Y-134.5
X82.6Y-139.55
X82.85Y-135.2
X82.925Y-60.05
X82.925Y-65.0
X83.05Y-95.95
X83.1Y-138.45
X83.15Y-94.75
X83.35Y-68.2
X83.35Y-139.05
X83.4Y-58.7
X83.4Y-59.6
X83.4Y-60.95
X83.4Y-61.85
X83.4Y-63.65
X83.4Y-70.5
X83.45Y-75.1
X83.475Y-81.75
X83.6Y-91.45
X83.65Y-101.45
X83.75Y-59.2
X83.85Y-64.05
X83.9Y-79.7
X83.9Y-97.9
X83.9Y-99.2
X83.925Y-66.45
X84.0Y-57.975
X84.05Y-62.05
X84.05Y-135.45
X84.1Y-68.0
X84.1Y-83.15
X84.1Y-92.45
X84.15Y-63.35
X84.15Y-76.275
X84.15Y-92.95
X84.3Y-82.3
X84.3Y-106.85
X84.4Y-90.0
X84.45Y-70.5
X84.45Y-75.2
X84.6Y-66.75
X84.65Y-58.75
X84.65Y-105.75
X84.7Y-69.75
X84.75Y-61.4
X84.75Y-62.3
X84.75Y-63.2
X84.75Y-64.1
X84.8Y-86.82
X84.85Y-67.2
X84.85Y-68.35
X84.85Y-74.85
X84.85Y-139.5
X85.05Y-97.85
X85.1Y-134.75
X85.125Y-82.95
X85.15Y-81.65
X85.2Y-58.7
X85.25Y-110.8
X85.275Y-83.4
X85.3Y-73.2
X85.35Y-64.5
X85.35Y-99.225
X85.5Y-90.15
X85.5Y-138.225
X85.6Y-134.7
X85.65Y-57.7
X85.65Y-59.6
X85.65Y-60.5
X85.65Y-88.55
X85.65Y-136.55
X85.8Y-82.8
X85.85Y-139.85
X85.875Y-80.025
X85.95Y-82.05
X85.95Y-129.5
X86.02Y-73.0
X86.1Y-57.65
X86.1Y-58.7
X86.1Y-76.25
X86.25Y-69.75
X86.35Y-69.275
X86.35Y-139.9
X86.4Y-88.1
X86.45Y-92.65
X86.5Y-73.95
X86.5Y-100.1
X86.5Y-127.95
X86.55Y-57.7
X86.55Y-59.6
X86.55Y-60.5
X86.55Y-61.4
X86.55Y-62.3
X86.55Y-63.2
X86.55Y-63.95
X86.55Y-93.6
X86.65Y-102.05
X86.7Y-140.65
X86.85Y-71.0
X86.85Y-71.75
X86.85Y-77.05
X86.85Y-88.0
X86.98Y-80.7
X87.0Y-91.8
X87.0Y-93.55
X87.0Y-95.1
X87.0Y-97.05
X87.0Y-131.95
X87.05Y-89.55
X87.05Y-113.35
X87.05Y-131.5
X87.15Y-81.35
X87.2Y-87.6
X87.45Y-57.7
X87.45Y-59.6
X87.45Y-60.5
X87.45Y-61.4
X87.45Y-62.3
X87.45Y-63.2
X87.45Y-64.1
X87.5Y-138.575
X87.5Y-139.05
X87.6Y-74.1
X87.6Y-138.1
X87.675Y-74.775
X87.7Y-97.05
X87.75Y-81.8
X87.75Y-88.2
X87.75Y-106.75
X87.8Y-97.5
X87.8Y-134.5
X87.8Y-137.65
X87.9Y-58.7
X87.9Y-95.1
X87.9Y-99.3
X88.05Y-74.0
X88.05Y-92.45
X88.05Y-126.0
X88.1Y-140.0
X88.15Y-75.35
X88.15Y-76.65
X88.15Y-77.9
X88.2Y-61.05
X88.2Y-84.6
X88.275Y-86.85
X88.3Y-82.6
X88.35Y-57.7
X88.35Y-60.6
X88.35Y-61.5
X88.35Y-64.0
X88.35Y-64.75
X88.5Y-80.65
X88.5Y-139.15
X88.575Y-108.0
X88.6Y-67.1
X88.6Y-69.9
X88.6Y-71.2
X88.6Y-134.5
X88.65Y-70.7
X88.7Y-104.15
X88.725Y-99.75
X88.75Y-60.95
X88.75Y-61.85
X88.75Y-62.75
X88.75Y-63.65
X88.8Y-58.7
X88.8Y-64.3
X88.85Y-115.5
X88.875Y-93.525
X88.9Y-96.15
X88.9Y-96.7
X88.9Y-103.45
X88.9Y-125.9
X88.95Y-76.0
X88.95Y-77.05
X89.0Y-78.25
X89.0Y-98.2
X89.025Y-75.15
X89.05Y-68.95
X89.1Y-81.0
X89.1Y-97.75
X89.1Y-101.6
X89.1Y-132.45
X89.15Y-138.4
X89.2Y-66.9
X89.2Y-67.65
X89.2Y-77.45
X89.2Y-140.75
X89.25Y-81.8
X89.25Y-88.2
X89.25Y-111.05
X89.25Y-135.0
X89.352Y-115.502
X89.4Y-99.7
X89.4Y-133.2
X89.45Y-69.7
X89.5Y-101.95
X89.5Y-131.05
X89.55Y-97.5
X89.55Y-111.85
X89.55Y-131.7
X89.7Y-92.4
X89.75Y-62.77
X89.75Y-64.55
X89.8Y-98.15
X89.9Y-60.15
X89.9Y-61.95
X89.9Y-128.05
X89.95Y-65.862
X90.0Y-72.0
X90.05Y-78.4
X90.075Y-81.375
X90.3Y-60.55
X90.3Y-88.95
X90.4Y-62.8
X90.4Y-64.05
X90.4Y-70.95
X90.4Y-133.35
X90.45Y-72.6
X90.525Y-68.025
X90.525Y-141.225
X90.65Y-88.1
X90.675Y-109.65
X90.7Y-81.7
X90.75Y-64.4
X90.75Y-92.45
X90.75Y-94.3
X90.775Y-79.3
X90.85Y-89.0
X90.9Y-102.45
X90.95Y-134.85
X91.05Y-62.25
X91.05Y-64.75
X91.05Y-71.1
X91.1Y-96.05
X91.1Y-133.95
X91.1Y-137.85
X91.125Y-100.05
X91.15Y-60.0
X91.15Y-103.5
X91.2Y-72.35
X91.2Y-93.55
X91.2Y-96.55
X91.2Y-97.75
X91.2Y-98.3
X91.25Y-94.4
X91.25Y-97.15
X91.4Y-91.45
X91.45Y-87.2
X91.45Y-93.15
X91.5Y-95.15
X91.55Y-92.15
X91.6Y-76.25
X91.6Y-80.1
X91.7Y-83.25
X91.7Y-83.75
X91.8Y-82.6
X91.85Y-84.5
X91.95Y-72.1
X91.95Y-87.15
X92.0Y-62.25
X92.0Y-138.775
X92.025Y-70.875
X92.05Y-75.65
X92.25Y-63.35
X92.3Y-64.45
X92.3Y-88.95
X92.4Y-69.0
X92.475Y-82.5
X92.55Y-80.05
X92.55Y-84.15
X92.55Y-112.25
X92.55Y-134.75
X92.625Y-73.35
X92.75Y-92.05
X92.75Y-113.0
X92.8Y-98.4
X92.85Y-69.05
X93.0Y-81.0
X93.0Y-95.3
X93.0Y-97.0
X93.025Y-67.0
X93.075Y-65.55
X93.225Y-100.05
X93.25Y-77.98
X93.3Y-69.85
X93.3Y-92.5
X93.5Y-81.51
X93.5Y-97.775
X93.55Y-65.7
X93.55Y-74.3
X93.55Y-76.35
X93.6Y-73.6
X93.65Y-63.65
X93.75Y-130.95
X93.862Y-114.95
X93.9Y-66.15
X93.95Y-61.0
X93.95Y-85.562
X93.95Y-126.0
X94.0Y-78.7
X94.0Y-117.35
X94.05Y-71.1
X94.05Y-77.7
X94.1Y-80.25
X94.1Y-92.85
X94.1Y-133.95
X94.15Y-81.3
X94.15Y-97.05
X94.3Y-83.65
X94.35Y-87.9
X94.4Y-57.45
X94.4Y-115.5
X94.5Y-59.45
X94.5Y-69.4
X94.5Y-71.775
X94.6Y-100.3
X94.65Y-67.05
X94.65Y-70.75
X94.65Y-92.95
X94.65Y-107.15
X94.65Y-132.4
X94.65Y-136.3
X94.7Y-71.3
X94.7Y-135.8
X94.75Y-97.35
X94.85Y-78.25
X94.85Y-89.95
X94.9Y-103.25
X94.95Y-88.75
X94.95Y-113.65
X94.95Y-114.6
X95.0Y-82.125
X95.05Y-87.5
X95.05Y-108.35
X95.1Y-102.55
X95.2Y-71.35
X95.2Y-145.15
X95.25Y-65.0
X95.25Y-94.2
X95.325Y-94.65
X95.35Y-116.05
X95.4Y-87.8
X95.4Y-90.0
X95.6Y-69.35
X95.6Y-72.75
X95.7Y-96.675
X95.8Y-99.8
X95.9Y-109.8
X95.9Y-119.1
X96.0Y-69.75
X96.0Y-101.65
X96.0Y-114.45
X96.05Y-71.0
X96.05Y-81.45
X96.05Y-111.45
X96.1Y-75.3
X96.1Y-137.0
X96.2Y-77.75
X96.2Y-78.8
X96.225Y-73.5
X96.25Y-76.4
X96.25Y-78.3
X96.3Y-87.75
X96.4Y-85.4
X96.4Y-92.6
X96.4Y-117.15
X96.45Y-80.3
X96.45Y-93.35
X96.5Y-71.4
X96.55Y-74.75
X96.65Y-83.2
X96.7Y-139.55
X96.75Y-85.75
X96.75Y-119.3
X96.8Y-98.85
X96.9Y-81.4
X97.0Y-74.5
X97.0Y-94.6
X97.05Y-100.6
X97.05Y-109.35
X97.25Y-98.25
X97.45Y-71.05
X97.45Y-72.45
X97.45Y-108.2
X97.5Y-66.2
X97.5Y-70.05
X97.5Y-100.4
X97.5Y-127.55
X97.65Y-112.45
X97.7Y-116.0
X97.75Y-114.2
X97.75Y-118.45
X97.75Y-119.55
X97.8Y-111.1
X97.85Y-91.9
X97.9Y-71.5
X97.95Y-70.0
X97.95Y-76.0
X97.95Y-87.6
X98.0Y-87.1
X98.05Y-74.2
X98.05Y-125.0
X98.15Y-77.9
X98.15Y-78.45
X98.2Y-112.6
X98.2Y-141.3
X98.25Y-96.4
X98.25Y-109.6
X98.25Y-117.5
X98.3Y-113.5
X98.312Y-114.473
X98.4Y-69.95
X98.4Y-83.55
X98.4Y-94.55
X98.45Y-74.55
X98.45Y-85.3
X98.8Y-80.65
X98.9Y-76.75
X98.9Y-140.9
X99.0Y-113.075
X99.05Y-56.6
X99.1Y-138.3
X99.137Y-118.45
X99.15Y-123.25
X99.25Y-72.85
X99.25Y-78.5
X99.5Y-115.95
X99.525Y-109.95
X99.55Y-83.4
X99.55Y-90.5
X99.55Y-91.55
X99.55Y-109.4
X99.6Y-90.95
X99.6Y-115.45
X99.6Y-138.375
X99.65Y-87.5
X99.65Y-112.85
X99.65Y-114.8
X99.7Y-75.85
X99.7Y-77.5
X99.7Y-102.7
X99.7Y-113.35
X99.75Y-77.0
X99.8Y-65.35
X99.8Y-70.35
X99.85Y-67.15
X99.9Y-84.1
X99.95Y-82.55
X100.15Y-70.75
X100.15Y-81.45
X100.2Y-72.3
X100.2Y-88.05
X100.2Y-133.8
X100.5Y-126.5
X100.575Y-117.0
X100.6Y-110.95
X100.6Y-112.4
X100.6Y-112.95
X100.6Y-114.2
X100.65Y-92.65
X100.65Y-93.7
X100.7Y-95.7
X100.75Y-72.3
X100.75Y-137.0
X100.85Y-74.55
X100.9Y-88.9
X100.95Y-84.6
X100.95Y-101.5
X101.05Y-104.75
X101.1Y-138.7
X101.2Y-70.75
X101.25Y-96.15
X101.3Y-94.65
X101.35Y-103.8
X101.35Y-131.2
X101.4Y-89.4
X101.4Y-90.45
X101.65Y-97.2
X101.85Y-67.75
X101.85Y-102.4
X101.9Y-128.45
X101.95Y-75.7
X101.95Y-76.65
X101.95Y-77.7
X101.95Y-78.6
X102.0Y-94.0
X102.1Y-96.75
X102.25Y-74.05
X102.25Y-87.5
X102.25Y-95.3
X102.3Y-72.6
X102.35Y-71.85
X102.35Y-139.25
X102.4Y-142.0
X102.55Y-120.95
X102.6Y-67.2
X102.6Y-99.15
X102.72Y-64.9
X102.75Y-77.95
X102.75Y-95.85
X102.85Y-96.95
X102.9Y-106.95
X102.95Y-106.4
X103.0Y-61.49
X103.0Y-104.9
X103.15Y-127.6
X103.2Y-78.5
X103.25Y-80.25
X103.262Y-140.2
X103.35Y-82.35
X103.4Y-137.95
X103.45Y-66.55
X103.55Y-78.8
X103.55Y-108.05
X103.55Y-121.5
X103.55Y-122.55
X103.55Y-124.9
X103.55Y-125.6
X103.6Y-91.45
X103.725Y-73.05
X103.85Y-103.0
X103.95Y-92.925
X103.95Y-93.4
X104.0Y-92.0
X104.0Y-142.75
X104.05Y-95.45
X104.05Y-99.0
X104.05Y-106.0
X104.1Y-97.4
X104.1Y-100.6
X104.1Y-104.45
X104.25Y-133.55
X104.3Y-64.5
X104.4Y-69.52
X104.575Y-77.0
X104.65Y-63.65
X104.65Y-66.35
X104.7Y-92.7
X104.75Y-131.1
X104.9Y-110.35
X104.95Y-72.85
X104.95Y-102.45
X104.95Y-103.2
X105.0Y-138.05
X105.1Y-65.05
X105.2Y-85.25
X105.25Y-131.55
X105.35Y-119.7
X105.4Y-76.2
X105.45Y-70.95
X105.45Y-72.9
X105.5Y-127.2
X105.51Y-87.5
X105.55Y-62.75
X105.55Y-67.25
X105.85Y-80.4
X106.05Y-56.6
X106.15Y-101.3
X106.25Y-97.0
X106.25Y-98.3
X106.25Y-100.3
X106.25Y-104.7
X106.25Y-108.6
X106.4Y-67.6
X106.45Y-120.0
X106.65Y-99.6
X106.75Y-135.55
X106.75Y-136.5
X106.8Y-131.0
X106.95Y-133.0
X107.05Y-100.7
X107.35Y-71.85
X107.45Y-106.45
X107.5Y-73.9
X107.55Y-107.7
X107.6Y-127.85
X107.85Y-122.8
X108.35Y-85.05
X108.4Y-90.6
X108.6Y-136.95
X108.65Y-135.0
X108.7Y-70.8
X108.75Y-139.9
X108.85Y-95.7
X108.85Y-98.3
X108.85Y-108.0
X108.85Y-122.2
X108.975Y-101.025
X109.075Y-138.5
X109.25Y-121.5
X109.25Y-134.45
X109.4Y-69.52
X109.5Y-63.85
X109.5Y-66.0
X109.5Y-107.6
X109.75Y-97.0
X109.75Y-99.6
X109.9Y-119.35
X110.02Y-75.7
X110.05Y-102.55
X110.1Y-111.7
X110.2Y-101.9
X110.3Y-87.5
X110.5Y-66.05
X110.8Y-119.75
X110.9Y-138.55
X111.0Y-112.75
X111.225Y-138.975
X111.25Y-135.6
X111.4Y-67.9
X111.45Y-128.362
X111.5Y-119.075
X111.8Y-139.5
X111.9Y-136.725
X111.95Y-96.65
X111.95Y-99.25
X111.95Y-104.7
X111.95Y-106.7
X111.95Y-107.6
X111.95Y-109.3
X112.05Y-101.9
X112.15Y-130.65
X112.45Y-136.45
X112.5Y-99.075
X112.5Y-139.9
X112.6Y-126.1
X112.6Y-135.25
X112.8Y-104.85
X112.8Y-109.15
X112.85Y-106.0
X112.85Y-127.3
X112.95Y-139.2
X113.05Y-128.1
X113.1Y-137.45
X113.2Y-108.8
X113.35Y-100.25
X113.4Y-138.4
X113.41Y-125.2
X113.45Y-97.75
X113.5Y-85.75
X113.6Y-104.8
X113.6Y-137.5
X113.6Y-139.65
X113.65Y-80.0
X113.7Y-69.2
X113.7Y-118.85
X113.85Y-79.5
X113.85Y-103.4
X113.95Y-97.4
X113.95Y-98.55
X113.95Y-106.4
X114.0Y-93.362
X114.0Y-99.05
X114.1Y-110.75
X114.15Y-123.95
X114.6Y-68.7
X114.6Y-80.9
X114.8Y-135.6
X114.8Y-137.9
X114.85Y-138.4
X114.95Y-96.55
X115.0Y-100.05
X115.15Y-107.7
X115.15Y-139.15
X115.2Y-125.05
X115.25Y-105.15
X115.5Y-80.4
X115.5Y-99.51
X115.55Y-69.6
X115.6Y-124.7
X115.75Y-77.65
X115.85Y-136.55
X115.85Y-139.65
X115.95Y-95.0
X116.1Y-88.05
X116.2Y-70.65
X116.2Y-80.1
X116.35Y-136.6
X116.5Y-97.275
X116.65Y-139.6
X117.1Y-96.55
X117.3Y-138.325
X117.65Y-139.15
X117.85Y-138.0
X117.85Y-139.6
X117.9Y-136.5
X117.9Y-142.4
X118.3Y-137.0
X118.5Y-140.99
T3
X83.18Y-140.845G85X83.18Y-141.945
G05
X83.18Y-145.175G85X83.18Y-145.975
G05
X91.82Y-140.845G85X91.82Y-141.945
G05
X91.82Y-145.175G85X91.82Y-145.975
G05
X108.18Y-140.845G85X108.18Y-141.945
G05
X108.18Y-145.175G85X108.18Y-145.975
G05
X116.82Y-140.845G85X116.82Y-141.945
G05
X116.82Y-145.175G85X116.82Y-145.975
G05
M30
