%TF.GenerationSoftware,KiCad,Pcbnew,10.0.6*%
%TF.CreationDate,2026-09-10T10:45:21+08:00*%
%TF.ProjectId,FD-MAIN-01,46442d4d-4149-44e2-9d30-312e6b696361,K / eight-layer engineering review*%
%TF.SameCoordinates,Original*%
%TF.FileFunction,Copper,L4,Inr*%
%TF.FilePolarity,Positive*%
%FSLAX46Y46*%
G04 Gerber Fmt 4.6, Leading zero omitted, Abs format (unit mm)*
G04 Created by KiCad (PCBNEW 10.0.6) date 2026-09-10 10:45:21*
%MOMM*%
%LPD*%
G01*
G04 APERTURE LIST*
%TA.AperFunction,ComponentPad*%
%ADD10O,1.000000X2.100000*%
%TD*%
%TA.AperFunction,ComponentPad*%
%ADD11O,1.000000X1.800000*%
%TD*%
%TA.AperFunction,ViaPad*%
%ADD12C,0.350000*%
%TD*%
%TA.AperFunction,ViaPad*%
%ADD13C,0.300000*%
%TD*%
%TA.AperFunction,Conductor*%
%ADD14C,0.250000*%
%TD*%
%TA.AperFunction,Conductor*%
%ADD15C,0.100000*%
%TD*%
%TA.AperFunction,Conductor*%
%ADD16C,0.150000*%
%TD*%
%TA.AperFunction,Conductor*%
%ADD17C,0.142000*%
%TD*%
%TA.AperFunction,Conductor*%
%ADD18C,0.300000*%
%TD*%
G04 APERTURE END LIST*
D10*
%TO.N,GND*%
%TO.C,J102*%
X108180000Y-141395000D03*
D11*
X108180000Y-145575000D03*
D10*
X116820000Y-141395000D03*
D11*
X116820000Y-145575000D03*
%TD*%
D10*
%TO.N,GND*%
%TO.C,J101*%
X83180000Y-141395000D03*
D11*
X83180000Y-145575000D03*
D10*
X91820000Y-141395000D03*
D11*
X91820000Y-145575000D03*
%TD*%
D12*
%TO.N,PHONE5*%
X94700000Y-135800000D03*
X99100000Y-138300000D03*
%TO.N,GND*%
X84150000Y-76275000D03*
D13*
X86025000Y-66450000D03*
X93900000Y-90050000D03*
D12*
X89025000Y-75150000D03*
X84000000Y-57975000D03*
X88575000Y-108000000D03*
X93250000Y-77980000D03*
X111900000Y-136725000D03*
X82500000Y-76725000D03*
X103725000Y-73050000D03*
X115550000Y-69600000D03*
X84400000Y-90000000D03*
X103950000Y-92925000D03*
X89550000Y-97500000D03*
X87500000Y-138575000D03*
X104000000Y-92000000D03*
D13*
X82275000Y-81375000D03*
D12*
X83475000Y-81750000D03*
X92475000Y-82500000D03*
X86020000Y-73000000D03*
D13*
X101250000Y-81300000D03*
D12*
X82510000Y-134500000D03*
X96225000Y-73500000D03*
X90525000Y-68025000D03*
X86550000Y-60500000D03*
X85500000Y-138225000D03*
X93500000Y-81510000D03*
D13*
X95350000Y-69000000D03*
D12*
X111225000Y-138975000D03*
X92025000Y-70875000D03*
X99525000Y-109950000D03*
X99600000Y-138375000D03*
X104000000Y-142750000D03*
X113650000Y-80000000D03*
X111500000Y-119075000D03*
X112500000Y-99075000D03*
X103262500Y-140200000D03*
X99000000Y-113075000D03*
X116500000Y-97275000D03*
X102600000Y-67200000D03*
X85350000Y-99225000D03*
X80400000Y-68550000D03*
X93950000Y-85562500D03*
X102720000Y-64900000D03*
X115500000Y-99510000D03*
X93075000Y-65550000D03*
X94500000Y-71775000D03*
D13*
X87450000Y-69525000D03*
D12*
X87600000Y-74100000D03*
X118500000Y-140990000D03*
X87900000Y-99300000D03*
X88875000Y-93525000D03*
X86980000Y-80700000D03*
X93025000Y-67000000D03*
X95000000Y-82125000D03*
X104400000Y-69520000D03*
X82125000Y-87900000D03*
X103350000Y-82350000D03*
X88200000Y-84600000D03*
X85875000Y-80025000D03*
X95700000Y-96675000D03*
X105510000Y-87500000D03*
X90000000Y-72000000D03*
D13*
X85585700Y-92315700D03*
D12*
X90525000Y-141225000D03*
X104575000Y-77000000D03*
X99137500Y-118450000D03*
X114000000Y-93362500D03*
X109075000Y-138500000D03*
X96300000Y-87750000D03*
X95250000Y-94200000D03*
X110020000Y-75700000D03*
X88275000Y-86850000D03*
X93500000Y-97775000D03*
X89950000Y-65862500D03*
X87000000Y-91800000D03*
X93225000Y-100050000D03*
D13*
X86850000Y-64950000D03*
D12*
X90775000Y-79300000D03*
X86350000Y-69275000D03*
X88950000Y-76000000D03*
X82025000Y-96825000D03*
X102600000Y-99150000D03*
X85275000Y-83400000D03*
X93862500Y-114950000D03*
X100750000Y-137000000D03*
X89750000Y-62770000D03*
X91125000Y-100050000D03*
X88725000Y-99750000D03*
X90675000Y-109650000D03*
X85125000Y-82950000D03*
X108975000Y-101025000D03*
X92000000Y-138775000D03*
X92625000Y-73350000D03*
X103000000Y-61490000D03*
X95325000Y-94650000D03*
X80625000Y-61050000D03*
X83925000Y-66450000D03*
X80770000Y-65750000D03*
X109400000Y-69520000D03*
D13*
X95025000Y-86475000D03*
D12*
X82925000Y-60050000D03*
X82925000Y-65000000D03*
X90075000Y-81375000D03*
X87675000Y-74775000D03*
X84800000Y-86820000D03*
D13*
X82200000Y-61725000D03*
D12*
X111450000Y-128362500D03*
D13*
X100200000Y-73500000D03*
X83700000Y-90300000D03*
D12*
X117300000Y-138325000D03*
X100575000Y-117000000D03*
%TO.N,AUX_VBUS_RAW*%
X108750000Y-139900000D03*
X114800000Y-135600000D03*
X114850000Y-138400000D03*
X116350000Y-136600000D03*
%TO.N,AUX_CC2*%
X110900000Y-138550000D03*
X113600000Y-139650000D03*
%TO.N,SD_DAT2*%
X96750000Y-119300000D03*
X100600000Y-110950000D03*
%TO.N,SD_CS_CARD_N*%
X98312500Y-114472600D03*
X99650000Y-112850000D03*
X96400000Y-117150000D03*
X89352500Y-115502300D03*
%TO.N,SD_CMD*%
X99700000Y-113350000D03*
X97750000Y-114200000D03*
%TO.N,SD_VDD*%
X89250000Y-111050000D03*
X95900000Y-109800000D03*
X100600000Y-114200000D03*
X94000000Y-117350000D03*
X94650000Y-70750000D03*
X98900000Y-76750000D03*
X97050000Y-109350000D03*
X97750000Y-119550000D03*
X96000000Y-69750000D03*
X84850000Y-68350000D03*
X88850000Y-115500000D03*
X98150000Y-77900000D03*
X99700000Y-75850000D03*
X99600000Y-115450000D03*
%TO.N,SD_CLK*%
X95900000Y-119100000D03*
X99650000Y-114800000D03*
X96000000Y-114450000D03*
%TO.N,SD_DAT0*%
X92550000Y-112250000D03*
X97650000Y-112450000D03*
X100600000Y-112400000D03*
%TO.N,SD_DAT1*%
X98250000Y-109600000D03*
X99550000Y-109400000D03*
X97800000Y-111100000D03*
X96050000Y-111450000D03*
%TO.N,SD_DETECT_RAW_N*%
X97450000Y-108200000D03*
%TO.N,CORE5*%
X99550000Y-91550000D03*
X101900000Y-128450000D03*
X95400000Y-87800000D03*
X93300000Y-92500000D03*
X100500000Y-126500000D03*
X92550000Y-80050000D03*
%TO.N,NFC_VDD_AM*%
X89700000Y-92400000D03*
X87750000Y-88200000D03*
X89000000Y-78250000D03*
X88050000Y-92450000D03*
%TO.N,PHONE_EF_ILM*%
X87600000Y-138100000D03*
X89150000Y-138400000D03*
%TO.N,NFC_ANT_N*%
X97250000Y-98250000D03*
X100700000Y-95700000D03*
X96400000Y-92600000D03*
%TO.N,AUX_EF_ILM*%
X117850000Y-138000000D03*
X117900000Y-136500000D03*
%TO.N,NFC_AGDC*%
X91700000Y-83250000D03*
X94300000Y-83650000D03*
%TO.N,V3V3_RF*%
X98050000Y-74200000D03*
X94000000Y-78700000D03*
D13*
X90450000Y-76200000D03*
D12*
X116200000Y-70650000D03*
X97050000Y-100600000D03*
X86850000Y-71750000D03*
X109500000Y-66000000D03*
X102100000Y-96750000D03*
X108400000Y-90600000D03*
X97900000Y-71500000D03*
X109500000Y-63850000D03*
X87150000Y-81350000D03*
X86400000Y-88100000D03*
X90400000Y-70950000D03*
D13*
X108050000Y-67750000D03*
D12*
X116200000Y-80100000D03*
X87200000Y-87600000D03*
X104100000Y-104450000D03*
X101050000Y-104750000D03*
%TO.N,V3V3*%
X96050000Y-71000000D03*
X88150000Y-75350000D03*
X87800000Y-137650000D03*
X99150000Y-123250000D03*
X96100000Y-75300000D03*
X102550000Y-120950000D03*
X96200000Y-78800000D03*
X108600000Y-136950000D03*
X98050000Y-125000000D03*
X97700000Y-116000000D03*
X111250000Y-135600000D03*
X82300000Y-76200000D03*
X106150000Y-101300000D03*
X89200000Y-67650000D03*
X92850000Y-69050000D03*
X90400000Y-133350000D03*
X112600000Y-126100000D03*
X83350000Y-68200000D03*
X90750000Y-64400000D03*
X96900000Y-81400000D03*
X82200000Y-79650000D03*
X81950000Y-106450000D03*
X103150000Y-127600000D03*
X85150000Y-81650000D03*
X81950000Y-140050000D03*
X101200000Y-70750000D03*
D13*
X81600000Y-101850000D03*
D12*
X108650000Y-135000000D03*
X89900000Y-128050000D03*
X96100000Y-137000000D03*
X107450000Y-106450000D03*
X85250000Y-110800000D03*
X95600000Y-72750000D03*
X90450000Y-72600000D03*
X85650000Y-136550000D03*
X91600000Y-76250000D03*
X102900000Y-106950000D03*
X102250000Y-74050000D03*
X98200000Y-112600000D03*
X107500000Y-73900000D03*
X94650000Y-107150000D03*
X95350000Y-116050000D03*
X105250000Y-131550000D03*
X84150000Y-63350000D03*
X96650000Y-83200000D03*
X88650000Y-70700000D03*
X100200000Y-133800000D03*
X87000000Y-131950000D03*
X107550000Y-107700000D03*
X88600000Y-67100000D03*
%TO.N,V3V3_A*%
X83400000Y-59600000D03*
X90300000Y-60550000D03*
%TO.N,IR_VS*%
X116100000Y-88050000D03*
X110300000Y-87500000D03*
%TO.N,EXT_IR_EDGE*%
X113500000Y-85750000D03*
X104900000Y-110350000D03*
%TO.N,SD_CS_N*%
X94400000Y-115500000D03*
X97500000Y-66200000D03*
X99250000Y-78500000D03*
X100200000Y-72300000D03*
X99500000Y-115950000D03*
X88750000Y-60950000D03*
%TO.N,AUX_HIGH_LIMIT*%
X97500000Y-127550000D03*
X106750000Y-135550000D03*
%TO.N,USB_DP*%
X88100000Y-140000000D03*
X83100000Y-138450000D03*
X88050000Y-74000000D03*
X81400000Y-69550000D03*
X88350000Y-64750000D03*
%TO.N,USB_DM*%
X86700000Y-140650000D03*
X86250000Y-69750000D03*
X89200000Y-66900000D03*
X87500000Y-139050000D03*
X83400000Y-70500000D03*
D13*
%TO.N,NRST*%
X83050000Y-78250000D03*
X85650000Y-73900000D03*
D12*
X88900000Y-125900000D03*
D13*
X82300000Y-62750000D03*
D12*
X84300000Y-106850000D03*
D13*
X82800000Y-69650000D03*
%TO.N,PHONE_BUDGET_OK*%
X95100000Y-97100000D03*
X88600000Y-104850000D03*
D12*
X86550000Y-63200000D03*
X86500000Y-127950000D03*
D13*
X91250000Y-90300000D03*
D12*
X83850000Y-64050000D03*
D13*
X83450000Y-62800000D03*
%TO.N,PHONE_ATTACHED*%
X99550000Y-82200000D03*
X103350000Y-86050000D03*
X107900000Y-100150000D03*
D12*
X85950000Y-129500000D03*
X89750000Y-64550000D03*
D13*
X100200000Y-100100000D03*
X87150000Y-107800000D03*
D12*
%TO.N,PHONE_HIGH_LIMIT*%
X89500000Y-131050000D03*
X93750000Y-130950000D03*
%TO.N,SUB_CS_N*%
X101950000Y-77700000D03*
X91150000Y-60000000D03*
X85650000Y-57700000D03*
%TO.N,VIBRO_LOW*%
X101850000Y-102400000D03*
X101350000Y-103800000D03*
%TO.N,TOOLS5*%
X91050000Y-71100000D03*
X97950000Y-70000000D03*
X95250000Y-65000000D03*
X99850000Y-67150000D03*
X94050000Y-71100000D03*
X91950000Y-72100000D03*
%TO.N,AUX_5V_PROTECTED*%
X116650000Y-139600000D03*
X105000000Y-138050000D03*
X102350000Y-139250000D03*
X103400000Y-137950000D03*
X106750000Y-136500000D03*
X98200000Y-141300000D03*
%TO.N,AUX_LIMIT_FAULT_N*%
X102400000Y-142000000D03*
X95200000Y-145150000D03*
%TO.N,EXT5*%
X104250000Y-133550000D03*
X105500000Y-127200000D03*
D13*
%TO.N,LED_A*%
X92850000Y-92550000D03*
X94700000Y-88300000D03*
D12*
%TO.N,TOOLS_ARM*%
X84850000Y-67200000D03*
X85300000Y-73200000D03*
X85350000Y-64500000D03*
%TO.N,HARD_ALLOW*%
X100600000Y-112950000D03*
D13*
X82750000Y-70050000D03*
X85550000Y-89500000D03*
X80450000Y-61800000D03*
D12*
X84100000Y-68000000D03*
X85650000Y-59600000D03*
D13*
%TO.N,TOOLS_ENABLE*%
X84700000Y-73600000D03*
D12*
X87700000Y-97050000D03*
X93550000Y-76350000D03*
X88900000Y-96700000D03*
X88600000Y-69900000D03*
X102300000Y-72600000D03*
D13*
X91100000Y-99100000D03*
X83050000Y-74550000D03*
D12*
X91600000Y-80100000D03*
X82200000Y-75050000D03*
X89050000Y-68950000D03*
X93900000Y-66150000D03*
X96800000Y-98850000D03*
X88500000Y-80650000D03*
X107350000Y-71850000D03*
X81600000Y-80400000D03*
X84850000Y-74850000D03*
X87000000Y-95100000D03*
X102250000Y-95300000D03*
X93950000Y-61000000D03*
X103200000Y-78500000D03*
X93300000Y-69850000D03*
%TO.N,NFC_ANT_P*%
X91200000Y-96550000D03*
X94650000Y-92950000D03*
%TO.N,NFC_RFI1*%
X92550000Y-84150000D03*
X95050000Y-87500000D03*
%TO.N,SUB_F_OUT_433*%
X113850000Y-79500000D03*
X115750000Y-77650000D03*
%TO.N,AUX_VBUS_DET*%
X111800000Y-139500000D03*
X113600000Y-137500000D03*
D13*
%TO.N,NFC_VDD_D*%
X86450000Y-84350000D03*
X81600000Y-99150000D03*
D12*
%TO.N,IBTN_PULLUP_SOURCE*%
X100950000Y-84600000D03*
X94100000Y-80250000D03*
X94650000Y-67050000D03*
%TO.N,IBTN_BUS*%
X105200000Y-85250000D03*
X98400000Y-83550000D03*
X104700000Y-92700000D03*
X103550000Y-108050000D03*
%TO.N,AUX_EF_FAULT_N*%
X115150000Y-139150000D03*
X117900000Y-142400000D03*
X115600000Y-124700000D03*
X115850000Y-139650000D03*
%TO.N,IR_LED_A1*%
X99050000Y-56600000D03*
X106050000Y-56600000D03*
%TO.N,BEEP_P*%
X101850000Y-67750000D03*
X100150000Y-70750000D03*
X99250000Y-72850000D03*
%TO.N,PHONE_5V_PROTECTED*%
X91100000Y-137850000D03*
X84850000Y-139500000D03*
X90950000Y-134850000D03*
X91100000Y-133950000D03*
X94650000Y-132400000D03*
%TO.N,LF_AR1*%
X82500000Y-104550000D03*
X89500000Y-101950000D03*
%TO.N,LF_AR2*%
X83650000Y-101450000D03*
D13*
%TO.N,STATUS_LED*%
X93800000Y-103950000D03*
X92600000Y-86350000D03*
X85350000Y-102400000D03*
X80450000Y-67350000D03*
X101500000Y-97850000D03*
X93750000Y-92000000D03*
D12*
X87450000Y-60500000D03*
%TO.N,BOOT0*%
X91100000Y-96050000D03*
X91200000Y-98300000D03*
X83450000Y-75100000D03*
X83400000Y-63650000D03*
D13*
X87700000Y-92000000D03*
%TO.N,TOOLS_IO_ENABLED*%
X91900000Y-65550000D03*
D12*
X81250000Y-66400000D03*
X93600000Y-73600000D03*
X99950000Y-82550000D03*
X96550000Y-74750000D03*
D13*
X80400000Y-67750000D03*
D12*
X92000000Y-62250000D03*
D13*
%TO.N,IR_DRIVE_GATED*%
X100100000Y-64600000D03*
X101750000Y-84050000D03*
X102250000Y-73050000D03*
X82800000Y-69200000D03*
X87200000Y-101350000D03*
X83900000Y-88250000D03*
X101350000Y-91050000D03*
X102700000Y-78400000D03*
X94000000Y-103600000D03*
D12*
%TO.N,PHONE_CC1*%
X86350000Y-139900000D03*
X87050000Y-131500000D03*
%TO.N,PHONE_CC2*%
X85600000Y-134700000D03*
X89200000Y-140750000D03*
%TO.N,PHONE_VBUS_DET*%
X89550000Y-131700000D03*
X87800000Y-134500000D03*
D13*
%TO.N,MGMT_IRQ_N*%
X84800000Y-66250000D03*
X100650000Y-106250000D03*
D12*
X112950000Y-139200000D03*
D13*
X84700000Y-74450000D03*
X86800000Y-101400000D03*
X91600000Y-106000000D03*
X83550000Y-86650000D03*
D12*
X88600000Y-134500000D03*
%TO.N,MGMT_SDA*%
X89400000Y-133200000D03*
X113400000Y-138400000D03*
D13*
X83150000Y-70150000D03*
X83450000Y-65100000D03*
D12*
%TO.N,MGMT_SCL*%
X86850000Y-77050000D03*
X88750000Y-61850000D03*
X113100000Y-137450000D03*
D13*
X85700000Y-102200000D03*
X85950000Y-90900000D03*
D12*
X88050000Y-126000000D03*
D13*
X85500000Y-88150000D03*
D12*
X89100000Y-132450000D03*
D13*
X88800000Y-93100000D03*
D12*
X88350000Y-64000000D03*
%TO.N,IBTN_DRIVE*%
X91050000Y-64750000D03*
D13*
X87350000Y-65950000D03*
X86200000Y-65850000D03*
D12*
%TO.N,IBTN_DRIVE_GATED*%
X103250000Y-80250000D03*
X92250000Y-63350000D03*
%TO.N,VIBRO_GATE*%
X100950000Y-101500000D03*
X99700000Y-102700000D03*
%TO.N,NFC_CS_N*%
X101950000Y-78600000D03*
X88350000Y-57700000D03*
%TO.N,IR_EDGE*%
X82300000Y-64450000D03*
X103000000Y-104900000D03*
X111950000Y-109300000D03*
%TO.N,TOOLS5_QOD*%
X90050000Y-78400000D03*
D13*
X92500000Y-71900000D03*
%TO.N,VIBRO_GATED*%
X99950000Y-97950000D03*
X89000000Y-73900000D03*
X99550000Y-83850000D03*
X93600000Y-74950000D03*
D12*
X97500000Y-100400000D03*
D13*
X99950000Y-91200000D03*
D12*
%TO.N,NFC_VDD_RF*%
X88900000Y-96150000D03*
X86850000Y-88000000D03*
X87050000Y-89550000D03*
X89250000Y-88200000D03*
%TO.N,RF_TOOL_SCK*%
X104650000Y-63650000D03*
X96250000Y-76400000D03*
X98250000Y-96400000D03*
X96500000Y-71400000D03*
X87750000Y-81800000D03*
X99800000Y-70350000D03*
X94700000Y-71300000D03*
%TO.N,RF_TOOL_MISO*%
X84050000Y-62050000D03*
X100750000Y-72300000D03*
X84650000Y-58750000D03*
X104300000Y-64500000D03*
X98400000Y-69950000D03*
X94050000Y-77700000D03*
X85950000Y-82050000D03*
X98450000Y-74550000D03*
%TO.N,SUB_SWITCH_V2*%
X114600000Y-80900000D03*
X105100000Y-65050000D03*
X114600000Y-68700000D03*
%TO.N,SUB_DCOUPL*%
X103450000Y-66550000D03*
X104650000Y-66350000D03*
%TO.N,RF_SUB_GDO0*%
X105550000Y-67250000D03*
X104950000Y-72850000D03*
X98800000Y-80650000D03*
%TO.N,RF_SUB_CS_N*%
X106400000Y-67600000D03*
X105450000Y-70950000D03*
X99700000Y-77500000D03*
X102750000Y-77950000D03*
X96250000Y-78300000D03*
X94850000Y-78250000D03*
X93000000Y-81000000D03*
%TO.N,SUB_RFP*%
X111400000Y-67900000D03*
X110500000Y-66050000D03*
%TO.N,RF_TOOL_MOSI*%
X96200000Y-77750000D03*
X105550000Y-62750000D03*
X100650000Y-93700000D03*
D13*
X88750000Y-80300000D03*
D12*
X105450000Y-72900000D03*
X100650000Y-92650000D03*
X100150000Y-81450000D03*
X94150000Y-81300000D03*
%TO.N,AUX_OVLO*%
X114800000Y-137900000D03*
X117850000Y-139600000D03*
%TO.N,EXT_IBTN_EDGE*%
X106250000Y-108600000D03*
%TO.N,NFC_RFI2*%
X91700000Y-83750000D03*
X91850000Y-84500000D03*
%TO.N,PHONE_ILIM*%
X94650000Y-136300000D03*
X94100000Y-133950000D03*
%TO.N,IR_LED_A0*%
X99800000Y-65350000D03*
X94400000Y-57450000D03*
%TO.N,CONFIRM_N*%
X88800000Y-64300000D03*
D13*
X90300000Y-63300000D03*
D12*
X94500000Y-69400000D03*
X96050000Y-81450000D03*
X95600000Y-69350000D03*
X86550000Y-63950000D03*
X97950000Y-76000000D03*
X97450000Y-72450000D03*
%TO.N,AUX_CC_ADDR*%
X112500000Y-139900000D03*
X112450000Y-136450000D03*
%TO.N,PHONE_EF_FAULT_N*%
X82600000Y-139550000D03*
X83350000Y-139050000D03*
%TO.N,PHONE_DVDT*%
X85850000Y-139850000D03*
X88500000Y-139150000D03*
%TO.N,PHONE_OVLO*%
X84050000Y-135450000D03*
D13*
X83350000Y-137700000D03*
%TO.N,STOP_N*%
X103800000Y-87600000D03*
X89850000Y-61200000D03*
X108850000Y-99750000D03*
D12*
X87450000Y-63200000D03*
D13*
X99200000Y-72350000D03*
X100950000Y-83650000D03*
X93850000Y-64350000D03*
D12*
%TO.N,AUX_DVDT*%
X117650000Y-139150000D03*
X112600000Y-135250000D03*
%TO.N,PR1*%
X98900000Y-140900000D03*
X96700000Y-139550000D03*
%TO.N,EXT_SELECTED*%
X101350000Y-131200000D03*
X101100000Y-138700000D03*
%TO.N,AUX_EF_EN*%
X118300000Y-137000000D03*
X115850000Y-136550000D03*
%TO.N,IBTN_EDGE*%
X108850000Y-108000000D03*
D13*
X85000000Y-88350000D03*
X84700000Y-65850000D03*
D12*
X83900000Y-79700000D03*
D13*
X89200000Y-92350000D03*
D12*
X84450000Y-70500000D03*
%TO.N,V3V3_TARGET*%
X115950000Y-95000000D03*
%TO.N,HDR_TARGET_SCK*%
X104100000Y-97400000D03*
X113450000Y-97750000D03*
%TO.N,HDR_TARGET_MISO*%
X113950000Y-98550000D03*
%TO.N,HDR_TARGET_MOSI*%
X113350000Y-100250000D03*
X104100000Y-100600000D03*
X107050000Y-100700000D03*
%TO.N,HDR_TARGET_CS_N*%
X115000000Y-100050000D03*
%TO.N,HDR_TARGET_TX*%
X110050000Y-102550000D03*
%TO.N,HDR_TARGET_RX*%
X113850000Y-103400000D03*
%TO.N,HDR_TARGET_SCL*%
X113600000Y-104800000D03*
X104950000Y-103200000D03*
%TO.N,HDR_TARGET_SDA*%
X103850000Y-103000000D03*
X115250000Y-105150000D03*
%TO.N,HDR_TARGET_IO0*%
X109500000Y-107600000D03*
X102950000Y-106400000D03*
X113200000Y-108800000D03*
%TO.N,HDR_TARGET_IO1*%
X115150000Y-107700000D03*
%TO.N,HDR_TARGET_IO2*%
X110100000Y-111700000D03*
%TO.N,HDR_TARGET_IO3*%
X114100000Y-110750000D03*
%TO.N,HDR_TARGET_IO4*%
X111000000Y-112750000D03*
%TO.N,SWCLK*%
X90400000Y-64050000D03*
D13*
X87300000Y-65000000D03*
D12*
X103950000Y-93400000D03*
X91200000Y-72350000D03*
X95100000Y-102550000D03*
X101400000Y-89400000D03*
X96750000Y-85750000D03*
X88900000Y-103450000D03*
X102750000Y-95850000D03*
%TO.N,AUX_CAPTURE*%
X112800000Y-109150000D03*
X82400000Y-58200000D03*
D13*
%TO.N,LF_ANALOG*%
X82250000Y-64000000D03*
D12*
X83400000Y-58700000D03*
D13*
X81600000Y-71000000D03*
D12*
%TO.N,SUB_GDO0*%
X100850000Y-74550000D03*
X82400000Y-59150000D03*
%TO.N,LF_REQUEST*%
X83400000Y-60950000D03*
%TO.N,LF_LOAD*%
X81800000Y-61400000D03*
D13*
X84650000Y-69200000D03*
X88200000Y-73500000D03*
X97300000Y-75350000D03*
X94100000Y-76350000D03*
X90550000Y-78200000D03*
D12*
X91050000Y-62250000D03*
%TO.N,CSI_TX*%
X109250000Y-121500000D03*
X83400000Y-61850000D03*
X100200000Y-88050000D03*
%TO.N,CSI_RX*%
X82300000Y-63550000D03*
X87000000Y-97050000D03*
X108850000Y-122200000D03*
X85050000Y-97850000D03*
D13*
%TO.N,TOOL_MOSI*%
X87200000Y-68900000D03*
D12*
X88600000Y-71200000D03*
X101950000Y-76650000D03*
X94950000Y-113650000D03*
X84600000Y-66750000D03*
D13*
%TO.N,TARGET_SDA*%
X84300000Y-65050000D03*
X99950000Y-91900000D03*
X107950000Y-99750000D03*
D12*
X84700000Y-69750000D03*
X90650000Y-88100000D03*
D13*
%TO.N,SWDIO*%
X100900000Y-94450000D03*
X93500000Y-105450000D03*
X89150000Y-68250000D03*
X93550000Y-75350000D03*
X87000000Y-90150000D03*
X97500000Y-101500000D03*
X101150000Y-88050000D03*
X92700000Y-107100000D03*
X86250000Y-65000000D03*
%TO.N,AUX_BUDGET_OK*%
X82600000Y-68450000D03*
X83200000Y-65900000D03*
X87150000Y-116700000D03*
X84750000Y-65000000D03*
X94700000Y-124250000D03*
D12*
%TO.N,TARGET_RX*%
X111950000Y-99250000D03*
X86100000Y-57650000D03*
X88200000Y-61050000D03*
D13*
%TO.N,SUB_RF_SELECT*%
X89200000Y-64100000D03*
D12*
%TO.N,TARGET_SCK*%
X108850000Y-95700000D03*
X88750000Y-63650000D03*
D13*
%TO.N,TARGET_IO2*%
X88800000Y-62300000D03*
D12*
X112850000Y-106000000D03*
X97500000Y-70050000D03*
D13*
%TO.N,TARGET_MISO*%
X104600000Y-76050000D03*
X95850000Y-65500000D03*
X102900000Y-70900000D03*
D12*
X88750000Y-62750000D03*
X111950000Y-96650000D03*
D13*
X94900000Y-67400000D03*
X104800000Y-78300000D03*
D12*
%TO.N,TARGET_MOSI*%
X89900000Y-61950000D03*
X109750000Y-97000000D03*
D13*
X95900000Y-65900000D03*
D12*
%TO.N,SD_DETECT_N*%
X89100000Y-101600000D03*
X95200000Y-71350000D03*
%TO.N,NFC_IRQ*%
X89900000Y-60150000D03*
%TO.N,BEEP_PWM*%
X94500000Y-59450000D03*
X88800000Y-58700000D03*
%TO.N,LF_CARRIER*%
X87900000Y-58700000D03*
%TO.N,TARGET_TX*%
X108850000Y-98300000D03*
X87450000Y-57700000D03*
X105850000Y-80400000D03*
%TO.N,TARGET_SCL*%
X109750000Y-99600000D03*
D13*
X87000000Y-57700000D03*
X106200000Y-80800000D03*
X105150000Y-93200000D03*
D12*
X102850000Y-96950000D03*
D13*
X102500000Y-70800000D03*
D12*
%TO.N,TOOL_MISO*%
X87750000Y-106750000D03*
D13*
X90900000Y-98750000D03*
D12*
X102000000Y-94000000D03*
D13*
X99150000Y-97500000D03*
X92250000Y-76500000D03*
D12*
X99750000Y-77000000D03*
D13*
X96950000Y-102450000D03*
D12*
X100900000Y-88900000D03*
X86550000Y-57700000D03*
%TO.N,TOOL_SCK*%
X95050000Y-108350000D03*
X86100000Y-58700000D03*
X101950000Y-75700000D03*
%TO.N,LF_EDGE*%
X85200000Y-58700000D03*
X81800000Y-61900000D03*
D13*
X81850000Y-81250000D03*
D12*
X83900000Y-99200000D03*
%TO.N,CSI_IRQ*%
X107850000Y-122800000D03*
X84750000Y-61400000D03*
%TO.N,AUX_PROBE_BUDGET_OK*%
X101650000Y-97200000D03*
X84750000Y-62300000D03*
X105400000Y-76200000D03*
X103600000Y-91450000D03*
X101300000Y-94650000D03*
X94900000Y-103250000D03*
X86100000Y-76250000D03*
%TO.N,CSI_REQUEST*%
X84450000Y-75200000D03*
D13*
X85000000Y-89150000D03*
X85100000Y-85000000D03*
D12*
X84750000Y-63200000D03*
D13*
X88750000Y-89200000D03*
D12*
X109900000Y-119350000D03*
D13*
%TO.N,TARGET_CS_N*%
X92900000Y-81450000D03*
D12*
X88150000Y-77900000D03*
X84750000Y-64100000D03*
D13*
X83750000Y-74350000D03*
X95550000Y-82900000D03*
%TO.N,SD_POWER_EN*%
X86650000Y-66050000D03*
D12*
X87450000Y-64100000D03*
D13*
%TO.N,TARGET_IO3*%
X92450000Y-70800000D03*
X93650000Y-84000000D03*
D12*
X87450000Y-62300000D03*
X111950000Y-106700000D03*
%TO.N,TOOLS_IO_ARM*%
X92300000Y-64450000D03*
X90400000Y-62800000D03*
X87450000Y-61400000D03*
X88350000Y-60600000D03*
X108700000Y-70800000D03*
X93550000Y-65700000D03*
%TO.N,EXT_GOOD*%
X102350000Y-71850000D03*
X93950000Y-126000000D03*
X87450000Y-59600000D03*
X103550000Y-78800000D03*
%TO.N,EXT_REQUEST*%
X86500000Y-73950000D03*
X86550000Y-59600000D03*
X85800000Y-82800000D03*
X88350000Y-61500000D03*
%TO.N,TARGET_IO0*%
X85650000Y-60500000D03*
X111950000Y-104700000D03*
%TO.N,SD_BUS_DISABLE*%
X83750000Y-59200000D03*
D13*
X80850000Y-64350000D03*
X85350000Y-62900000D03*
D12*
X92750000Y-113000000D03*
X98250000Y-117500000D03*
X81900000Y-104500000D03*
X87050000Y-113350000D03*
%TO.N,TARGET_IO1*%
X86550000Y-62300000D03*
X112800000Y-104850000D03*
%TO.N,TARGET_IO4*%
X86550000Y-61400000D03*
X111950000Y-107600000D03*
%TO.N,PHONE_VBUS_RAW*%
X92550000Y-134750000D03*
D13*
%TO.N,PHONE_EF_EN*%
X83350000Y-136650000D03*
D12*
X85100000Y-134750000D03*
%TO.N,RF_SUB_RF_SELECT*%
X115500000Y-80400000D03*
X113700000Y-69200000D03*
X99650000Y-87500000D03*
X108350000Y-85050000D03*
%TO.N,RF_NFC_IRQ*%
X89250000Y-81800000D03*
X98000000Y-87100000D03*
X96450000Y-80300000D03*
X99550000Y-90500000D03*
D13*
%TO.N,RF_NFC_CS_N*%
X92750000Y-79300000D03*
D12*
X88300000Y-82600000D03*
%TO.N,LF_RECT*%
X82450000Y-98250000D03*
X90900000Y-102450000D03*
X84150000Y-92950000D03*
X81900000Y-96350000D03*
X86650000Y-102050000D03*
X82150000Y-90700000D03*
%TO.N,LF_LOAD_DRAIN*%
X89000000Y-98200000D03*
X88700000Y-104150000D03*
X91150000Y-103500000D03*
X89400000Y-99700000D03*
%TO.N,SD_MISO_DISABLE*%
X89550000Y-111850000D03*
X97750000Y-118450000D03*
D13*
%TO.N,SD_QOD*%
X86750000Y-67500000D03*
D12*
X89450000Y-69700000D03*
%TO.N,LF_F1_NEG*%
X91200000Y-93550000D03*
X96450000Y-93350000D03*
%TO.N,LF_FILTER1*%
X97000000Y-94600000D03*
D13*
X96050000Y-98100000D03*
D12*
X90750000Y-92450000D03*
X94750000Y-97350000D03*
D13*
%TO.N,LF_POWER_ON*%
X88550000Y-73900000D03*
X100650000Y-95250000D03*
X99550000Y-84700000D03*
X84150000Y-69550000D03*
X92350000Y-76050000D03*
X97850000Y-84250000D03*
X87000000Y-90950000D03*
X88650000Y-66200000D03*
X85200000Y-81000000D03*
D12*
%TO.N,LF_QOD*%
X94100000Y-92850000D03*
X93000000Y-95300000D03*
%TO.N,LF5*%
X91550000Y-92150000D03*
X91450000Y-93150000D03*
X91500000Y-95150000D03*
X94850000Y-89950000D03*
X94950000Y-88750000D03*
D13*
%TO.N,AUX_PROBE_ALLOWED*%
X92100000Y-77650000D03*
X103350000Y-70900000D03*
X94100000Y-76800000D03*
X88000000Y-76200000D03*
X105900000Y-72850000D03*
D12*
%TO.N,EXT_LOAD_ENABLE*%
X89100000Y-81000000D03*
X89100000Y-97750000D03*
D13*
X91200000Y-81800000D03*
D12*
X109250000Y-134450000D03*
X107600000Y-127850000D03*
%TO.N,LF_ENV*%
X85500000Y-90150000D03*
X82200000Y-88700000D03*
%TO.N,TARGET_POWER_FAULT_N*%
X117100000Y-96550000D03*
X114950000Y-96550000D03*
%TO.N,EXT_PROBE5*%
X113700000Y-118850000D03*
X106950000Y-133000000D03*
%TO.N,PLUG_CSI_RX*%
X106450000Y-120000000D03*
X110800000Y-119750000D03*
%TO.N,PLUG_CSI_IRQ*%
X103550000Y-124900000D03*
X115200000Y-125050000D03*
X114150000Y-123950000D03*
%TO.N,PLUG_CSI_REQUEST*%
X113410300Y-125200000D03*
X113050000Y-128100000D03*
X112850000Y-127300000D03*
X103550000Y-125600000D03*
D13*
%TO.N,LF_AVDD*%
X96250000Y-94400000D03*
D12*
X87800000Y-97500000D03*
D13*
X93200000Y-82050000D03*
D12*
X85650000Y-88550000D03*
X86450000Y-92650000D03*
D13*
X96950000Y-86150000D03*
D12*
X91200000Y-97750000D03*
X93000000Y-97000000D03*
X83900000Y-97900000D03*
D13*
X94750000Y-95700000D03*
D12*
X92800000Y-98400000D03*
X84100000Y-92450000D03*
%TO.N,LF_GAIN1*%
X84300000Y-82300000D03*
D13*
X82250000Y-81900000D03*
D12*
%TO.N,LF_F1_NODE*%
X82150000Y-86700000D03*
X98400000Y-94550000D03*
X97850000Y-91900000D03*
X90850000Y-89000000D03*
X83050000Y-95950000D03*
%TO.N,TOOLS_BUS_DISABLE*%
X92050000Y-75650000D03*
X98150000Y-78450000D03*
X101400000Y-90450000D03*
X106250000Y-104700000D03*
X93550000Y-74300000D03*
X104050000Y-95450000D03*
%TO.N,PROBE_IO_ENABLED*%
X112150000Y-130650000D03*
X106800000Y-131000000D03*
%TO.N,PROBE_BUS_DISABLE*%
X104750000Y-131100000D03*
X103550000Y-121500000D03*
%TO.N,EXT_TARGET_MISO*%
X106250000Y-97000000D03*
X113950000Y-97400000D03*
D13*
%TO.N,LF_LOAD_GATED*%
X98300000Y-84900000D03*
D12*
X97450000Y-71050000D03*
X88150000Y-76650000D03*
X97000000Y-74500000D03*
D13*
X98100000Y-91200000D03*
D12*
X93650000Y-63650000D03*
X99900000Y-84100000D03*
%TO.N,AUX_VGOOD_N*%
X89250000Y-135000000D03*
X82850000Y-135200000D03*
%TO.N,LF_AC*%
X83600000Y-91450000D03*
X87900000Y-95100000D03*
X91250000Y-94400000D03*
X91450000Y-87200000D03*
%TO.N,LF_MID*%
X90750000Y-94300000D03*
D13*
X83050000Y-92850000D03*
X85250000Y-86050000D03*
X83200000Y-83900000D03*
D12*
X87000000Y-93550000D03*
%TO.N,LF_F2_NODE*%
X82450000Y-100100000D03*
X95800000Y-99800000D03*
X81600000Y-100650000D03*
X94600000Y-100300000D03*
X86500000Y-100100000D03*
%TO.N,RF_QOD*%
X86850000Y-71000000D03*
D13*
X89250000Y-72000000D03*
D12*
%TO.N,LF_DRIVER_GATE*%
X94350000Y-87900000D03*
X95400000Y-90000000D03*
X92300000Y-88950000D03*
%TO.N,LF_P_DRAIN*%
X84650000Y-105750000D03*
D13*
X89350000Y-103450000D03*
D12*
X91400000Y-91450000D03*
D13*
X97100000Y-97000000D03*
D12*
%TO.N,LF_DRIVE_GATED*%
X99600000Y-90950000D03*
X92400000Y-69000000D03*
X99550000Y-83400000D03*
X88950000Y-77050000D03*
%TO.N,LF_LEVEL_GATE*%
X90700000Y-81700000D03*
X91950000Y-87150000D03*
X90300000Y-88950000D03*
D13*
X95300000Y-85000000D03*
D12*
%TO.N,LF_FILTER2*%
X83150000Y-94750000D03*
X81600000Y-101200000D03*
X86550000Y-93600000D03*
X84100000Y-83150000D03*
D13*
X84800000Y-85850000D03*
D12*
%TO.N,LF_N_DRAIN*%
X91800000Y-82600000D03*
X97950000Y-87600000D03*
X92750000Y-92050000D03*
X96000000Y-101650000D03*
%TO.N,LF_F2_NEG*%
X81750000Y-97250000D03*
X82000000Y-94500000D03*
%TO.N,EXT_TARGET_IO1*%
X113950000Y-106400000D03*
X104050000Y-106000000D03*
%TO.N,EXT_TARGET_CS_N*%
X114000000Y-99050000D03*
X106250000Y-98300000D03*
D13*
%TO.N,LF_LOAD_GATE*%
X90750000Y-78550000D03*
D12*
X101250000Y-96150000D03*
X91250000Y-97150000D03*
X102250000Y-87500000D03*
X96400000Y-85400000D03*
X89800000Y-98150000D03*
X94150000Y-97050000D03*
X98450000Y-85300000D03*
X89200000Y-77450000D03*
%TO.N,EXT_TARGET_TX*%
X104050000Y-99000000D03*
X110200000Y-101900000D03*
%TO.N,PROBE_CSI_RX*%
X105350000Y-119700000D03*
X103550000Y-122550000D03*
%TO.N,SD_CMD_DRV*%
X94950000Y-114600000D03*
X98300000Y-113500000D03*
%TO.N,EXT_TARGET_SCL*%
X104950000Y-102450000D03*
X106250000Y-100300000D03*
%TO.N,EXT_TARGET_RX*%
X106650000Y-99600000D03*
X112050000Y-101900000D03*
%TD*%
%TO.N,PHONE5*%
D14*
X96550000Y-136750000D02*
X96400000Y-136600000D01*
X96300000Y-136550000D02*
X96100000Y-136550000D01*
X96050000Y-136500000D02*
X95600000Y-136500000D01*
X97400000Y-136850000D02*
X96700000Y-136850000D01*
X94950000Y-135950000D02*
X94900000Y-135900000D01*
X95000000Y-135950000D02*
X94950000Y-135950000D01*
X95300000Y-136200000D02*
X95250000Y-136200000D01*
X96350000Y-136600000D02*
X96300000Y-136550000D01*
X94750000Y-135800000D02*
X94700000Y-135800000D01*
X96400000Y-136600000D02*
X96350000Y-136600000D01*
X99050000Y-138300000D02*
X98200000Y-137450000D01*
X98000000Y-137450000D02*
X97400000Y-136850000D01*
X95250000Y-136200000D02*
X95000000Y-135950000D01*
X94900000Y-135900000D02*
X94850000Y-135900000D01*
X98200000Y-137450000D02*
X98000000Y-137450000D01*
X95600000Y-136500000D02*
X95300000Y-136200000D01*
X94850000Y-135900000D02*
X94750000Y-135800000D01*
X99100000Y-138300000D02*
X99050000Y-138300000D01*
X96600000Y-136750000D02*
X96550000Y-136750000D01*
X96100000Y-136550000D02*
X96050000Y-136500000D01*
X96700000Y-136850000D02*
X96600000Y-136750000D01*
%TO.N,AUX_VBUS_RAW*%
X116250000Y-136350000D02*
X116250000Y-136300000D01*
X115700000Y-136100000D02*
X115300000Y-135700000D01*
X115300000Y-135700000D02*
X115250000Y-135700000D01*
X115250000Y-135700000D02*
X115150000Y-135600000D01*
X116250000Y-136300000D02*
X116200000Y-136250000D01*
X115150000Y-135600000D02*
X114800000Y-135600000D01*
X116200000Y-136200000D02*
X116100000Y-136100000D01*
X116100000Y-136100000D02*
X115700000Y-136100000D01*
X116350000Y-136600000D02*
X116300000Y-136500000D01*
X116200000Y-136250000D02*
X116200000Y-136200000D01*
X116300000Y-136400000D02*
X116250000Y-136350000D01*
X116300000Y-136500000D02*
X116300000Y-136400000D01*
%TO.N,SD_VDD*%
D15*
X98550000Y-118500000D02*
X98550000Y-118100000D01*
X98250000Y-118900000D02*
X98250000Y-118850000D01*
X98900000Y-117700000D02*
X98950000Y-117650000D01*
X99400000Y-115550000D02*
X99450000Y-115550000D01*
X98900000Y-77150000D02*
X98150000Y-77900000D01*
X98950000Y-115950000D02*
X99300000Y-115600000D01*
X95900000Y-109800000D02*
X96600000Y-109800000D01*
X99500000Y-115500000D02*
X99550000Y-115500000D01*
X99550000Y-115500000D02*
X99600000Y-115450000D01*
X97750000Y-119550000D02*
X97750000Y-119400000D01*
X98900000Y-76750000D02*
X98900000Y-77150000D01*
X98550000Y-118100000D02*
X98900000Y-117750000D01*
X98500000Y-118600000D02*
X98500000Y-118550000D01*
X99300000Y-115600000D02*
X99350000Y-115600000D01*
X98900000Y-117750000D02*
X98900000Y-117700000D01*
X97750000Y-119400000D02*
X98250000Y-118900000D01*
X98250000Y-118850000D02*
X98500000Y-118600000D01*
X99350000Y-115600000D02*
X99400000Y-115550000D01*
X99450000Y-115550000D02*
X99500000Y-115500000D01*
X96600000Y-109800000D02*
X97050000Y-109350000D01*
X98950000Y-117650000D02*
X98950000Y-115950000D01*
X98500000Y-118550000D02*
X98550000Y-118500000D01*
%TO.N,CORE5*%
D14*
X92800000Y-82150000D02*
X92800000Y-82100000D01*
X93250000Y-92150000D02*
X93250000Y-92100000D01*
X93300000Y-92200000D02*
X93250000Y-92150000D01*
X95300000Y-87050000D02*
X95250000Y-87050000D01*
X93000000Y-82500000D02*
X92900000Y-82400000D01*
X92850000Y-82200000D02*
X92800000Y-82150000D01*
X92600000Y-81900000D02*
X92600000Y-81800000D01*
X94550000Y-86700000D02*
X94500000Y-86700000D01*
X95500000Y-87200000D02*
X95400000Y-87100000D01*
X93050000Y-91100000D02*
X93000000Y-91050000D01*
D16*
X92450000Y-81650000D02*
X92450000Y-80150000D01*
D14*
X95450000Y-87700000D02*
X95450000Y-87650000D01*
X95200000Y-87000000D02*
X94850000Y-87000000D01*
X93100000Y-91350000D02*
X93050000Y-91300000D01*
X94850000Y-87000000D02*
X94550000Y-86700000D01*
X93250000Y-92100000D02*
X93150000Y-92000000D01*
X93150000Y-92000000D02*
X93150000Y-91500000D01*
X95400000Y-87750000D02*
X95450000Y-87700000D01*
X92900000Y-82350000D02*
X92850000Y-82300000D01*
X93300000Y-92500000D02*
X93300000Y-92200000D01*
X95450000Y-87650000D02*
X95500000Y-87600000D01*
X93150000Y-91500000D02*
X93100000Y-91450000D01*
X93100000Y-91450000D02*
X93100000Y-91350000D01*
X92900000Y-82400000D02*
X92900000Y-82350000D01*
X94450000Y-86650000D02*
X93150000Y-86650000D01*
D16*
X92575000Y-81775000D02*
X92450000Y-81650000D01*
D14*
X92800000Y-82100000D02*
X92600000Y-81900000D01*
X95400000Y-87800000D02*
X95400000Y-87750000D01*
X93050000Y-91300000D02*
X93050000Y-91100000D01*
X95250000Y-87050000D02*
X95200000Y-87000000D01*
X92600000Y-81800000D02*
X92550000Y-81750000D01*
X93000000Y-91050000D02*
X93000000Y-82500000D01*
X92850000Y-82300000D02*
X92850000Y-82200000D01*
X94500000Y-86700000D02*
X94450000Y-86650000D01*
X95400000Y-87100000D02*
X95350000Y-87100000D01*
X95500000Y-87600000D02*
X95500000Y-87200000D01*
X95350000Y-87100000D02*
X95300000Y-87050000D01*
D16*
X92450000Y-80150000D02*
X92550000Y-80050000D01*
%TO.N,NFC_VDD_AM*%
D15*
X87850000Y-88100000D02*
X87850000Y-82400000D01*
X88088500Y-79161500D02*
X88150000Y-79100000D01*
X87850000Y-82400000D02*
X87900000Y-82350000D01*
X87900000Y-82200000D02*
X88100000Y-82000000D01*
X88150000Y-79100000D02*
X89000000Y-78250000D01*
X88088500Y-79597400D02*
X88088500Y-79161500D01*
X88100000Y-81900000D02*
X88150000Y-81850000D01*
X88150000Y-81850000D02*
X88150000Y-79658900D01*
X87900000Y-82350000D02*
X87900000Y-82200000D01*
X88100000Y-82000000D02*
X88100000Y-81900000D01*
X87750000Y-88200000D02*
X87850000Y-88100000D01*
X88150000Y-79658900D02*
X88088500Y-79597400D01*
%TO.N,V3V3_RF*%
D16*
X85900000Y-69550000D02*
X85900000Y-69700000D01*
X90450000Y-76100000D02*
X90450000Y-76200000D01*
X86200000Y-68900000D02*
X86800000Y-68900000D01*
X90250000Y-72300000D02*
X90200000Y-72300000D01*
X85950000Y-70000000D02*
X85900000Y-69950000D01*
X86150000Y-68900000D02*
X86000000Y-69050000D01*
X86450000Y-71350000D02*
X86450000Y-70100000D01*
X86100000Y-68950000D02*
X86150000Y-68950000D01*
X87250000Y-73100000D02*
X86000000Y-71850000D01*
X86550000Y-72350000D02*
X88600000Y-72350000D01*
X108050000Y-67550000D02*
X109400000Y-66200000D01*
X87192730Y-81307270D02*
X87250000Y-81200000D01*
X86850000Y-69000000D02*
X86800000Y-68900000D01*
X88750000Y-72700000D02*
X87650000Y-72700000D01*
X85900000Y-69700000D02*
X85900000Y-69550000D01*
X90250000Y-72250000D02*
X90250000Y-72300000D01*
X87650000Y-72700000D02*
X87350000Y-73000000D01*
X86450000Y-70100000D02*
X86550000Y-70000000D01*
X86550000Y-68950000D02*
X86500000Y-68900000D01*
X85950000Y-69550000D02*
X85900000Y-69550000D01*
X89930450Y-75280450D02*
X90050000Y-75200000D01*
X87150000Y-81350000D02*
X87050000Y-81450000D01*
D14*
X97950000Y-74100000D02*
X97950000Y-71550000D01*
D16*
X86800000Y-69150000D02*
X86600000Y-68950000D01*
X86000000Y-69050000D02*
X86000000Y-69450000D01*
D14*
X90200000Y-75550000D02*
X90200000Y-75800000D01*
D16*
X86850000Y-69050000D02*
X86850000Y-69000000D01*
X90350000Y-72150000D02*
X90350000Y-72200000D01*
X85850000Y-71650000D02*
X86550000Y-72350000D01*
X86500000Y-68900000D02*
X86150000Y-68900000D01*
D14*
X98050000Y-74200000D02*
X97950000Y-74100000D01*
D16*
X86150000Y-68950000D02*
X86200000Y-68900000D01*
X85900000Y-69950000D02*
X85900000Y-69850000D01*
X89150000Y-72850000D02*
X89600000Y-72850000D01*
X86600000Y-68950000D02*
X86550000Y-68950000D01*
D14*
X86550000Y-71450000D02*
X86850000Y-71750000D01*
D16*
X90300000Y-72250000D02*
X90250000Y-72250000D01*
X88600000Y-72350000D02*
X89050000Y-72800000D01*
D14*
X90000000Y-75350000D02*
X90200000Y-75550000D01*
D16*
X85850000Y-69700000D02*
X85900000Y-69700000D01*
X86900000Y-69550000D02*
X86800000Y-69450000D01*
X90050000Y-72550000D02*
X90004770Y-72445230D01*
X90400000Y-76000000D02*
X90450000Y-76100000D01*
X86000000Y-69150000D02*
X86000000Y-69050000D01*
X109400000Y-66200000D02*
X109500000Y-66075000D01*
X90200000Y-72350000D02*
X90100000Y-72350000D01*
X90050000Y-75200000D02*
X90050000Y-72550000D01*
X87050000Y-81450000D02*
X87050000Y-87450000D01*
X90400000Y-72025000D02*
X90350000Y-72150000D01*
X85900000Y-69700000D02*
X85850000Y-69700000D01*
X90100000Y-72350000D02*
X90050000Y-72400000D01*
X89600000Y-72850000D02*
X90004770Y-72445230D01*
D14*
X97950000Y-71550000D02*
X97900000Y-71500000D01*
D16*
X86900000Y-69550000D02*
X86600000Y-69850000D01*
X86600000Y-69850000D02*
X86600000Y-69950000D01*
X86000000Y-71850000D02*
X86000000Y-71800000D01*
X86550000Y-71450000D02*
X86450000Y-71350000D01*
D14*
X90400000Y-70950000D02*
X90400000Y-71950000D01*
X90200000Y-75800000D02*
X90400000Y-76000000D01*
D16*
X85950000Y-69200000D02*
X86000000Y-69150000D01*
X85900000Y-69550000D02*
X85950000Y-69550000D01*
X89050000Y-72800000D02*
X89100000Y-72800000D01*
X85850000Y-69800000D02*
X85850000Y-69700000D01*
X88800000Y-72650000D02*
X88750000Y-72700000D01*
X89100000Y-72800000D02*
X89150000Y-72850000D01*
X85950000Y-69500000D02*
X85950000Y-69550000D01*
X86000000Y-69450000D02*
X85950000Y-69500000D01*
X88900000Y-72650000D02*
X88800000Y-72650000D01*
X85900000Y-69850000D02*
X85850000Y-69800000D01*
X90200000Y-72300000D02*
X90200000Y-72350000D01*
X85850000Y-69700000D02*
X85850000Y-71650000D01*
X86000000Y-69050000D02*
X86100000Y-68950000D01*
X86600000Y-69950000D02*
X86550000Y-70000000D01*
X90350000Y-72200000D02*
X90300000Y-72250000D01*
D14*
X109500000Y-66000000D02*
X109500000Y-63850000D01*
D16*
X108050000Y-67750000D02*
X108050000Y-67550000D01*
X85950000Y-69550000D02*
X85950000Y-69200000D01*
X87350000Y-73000000D02*
X87267678Y-73117678D01*
X85950000Y-71750000D02*
X85950000Y-70000000D01*
D14*
X116200000Y-70650000D02*
X116200000Y-80100000D01*
D16*
X86800000Y-69450000D02*
X86800000Y-69150000D01*
X86000000Y-71800000D02*
X85950000Y-71750000D01*
%TO.N,V3V3*%
D14*
X89450000Y-132100000D02*
X89450000Y-132150000D01*
X88275000Y-131775000D02*
X88150000Y-131900000D01*
X89500000Y-132200000D02*
X89500000Y-132250000D01*
X90100000Y-133050000D02*
X90400000Y-133350000D01*
X105300000Y-73800000D02*
X105350000Y-73800000D01*
X102250000Y-74050000D02*
X105050000Y-74050000D01*
X108250000Y-135000000D02*
X105550000Y-132300000D01*
X105550000Y-132300000D02*
X105550000Y-131850000D01*
X107450000Y-73900000D02*
X107500000Y-73900000D01*
X95900000Y-76050000D02*
X95900000Y-76100000D01*
X107250000Y-73700000D02*
X107450000Y-73900000D01*
X97850000Y-113350000D02*
X97850000Y-113400000D01*
X82300000Y-76200000D02*
X82150000Y-76350000D01*
X96000000Y-75950000D02*
X95900000Y-76050000D01*
X88275000Y-131775000D02*
X88500000Y-132000000D01*
X107450000Y-107600000D02*
X107550000Y-107700000D01*
X89750000Y-132600000D02*
X89750000Y-132650000D01*
X82050000Y-76550000D02*
X82050000Y-79500000D01*
X103100000Y-106800000D02*
X103150000Y-106800000D01*
X88150000Y-131900000D02*
X87100000Y-131900000D01*
X95900000Y-78650000D02*
X95950000Y-78650000D01*
X95750000Y-78500000D02*
X95900000Y-78650000D01*
X95800000Y-77550000D02*
X95750000Y-77600000D01*
X107450000Y-106450000D02*
X107450000Y-107600000D01*
X96000000Y-75400000D02*
X96000000Y-75950000D01*
X105450000Y-73750000D02*
X105500000Y-73700000D01*
X89450000Y-132150000D02*
X89500000Y-132200000D01*
X105550000Y-131850000D02*
X105250000Y-131550000D01*
X108650000Y-135000000D02*
X108250000Y-135000000D01*
X103200000Y-106750000D02*
X103250000Y-106750000D01*
X97950000Y-113200000D02*
X97900000Y-113250000D01*
X89550000Y-132300000D02*
X89550000Y-132400000D01*
X88500000Y-132000000D02*
X89250000Y-132000000D01*
X96100000Y-78750000D02*
X96150000Y-78750000D01*
X90800000Y-75350000D02*
X90900000Y-75450000D01*
X97300000Y-114050000D02*
X97300000Y-115600000D01*
X105500000Y-73700000D02*
X107250000Y-73700000D01*
X96150000Y-78750000D02*
X96200000Y-78800000D01*
X82150000Y-76350000D02*
X82150000Y-76400000D01*
X82150000Y-76400000D02*
X82100000Y-76450000D01*
X96100000Y-75300000D02*
X96000000Y-75400000D01*
X103250000Y-106750000D02*
X103300000Y-106700000D01*
X105400000Y-73750000D02*
X105450000Y-73750000D01*
X90900000Y-75500000D02*
X90950000Y-75550000D01*
X95950000Y-78650000D02*
X96000000Y-78700000D01*
X107200000Y-106700000D02*
X107450000Y-106450000D01*
X82100000Y-76450000D02*
X82100000Y-76500000D01*
X90800000Y-75250000D02*
X90800000Y-75350000D01*
X89550000Y-132400000D02*
X89750000Y-132600000D01*
X95850000Y-76200000D02*
X95800000Y-76250000D01*
X102900000Y-106950000D02*
X102950000Y-106950000D01*
X82050000Y-79500000D02*
X82200000Y-79650000D01*
X89350000Y-132050000D02*
X89400000Y-132100000D01*
X82100000Y-76500000D02*
X82050000Y-76550000D01*
X95750000Y-77600000D02*
X95750000Y-78500000D01*
X97900000Y-113250000D02*
X97900000Y-113300000D01*
X90100000Y-133000000D02*
X90100000Y-133050000D01*
X97950000Y-113150000D02*
X97950000Y-113200000D01*
X90950000Y-75600000D02*
X91600000Y-76250000D01*
X89400000Y-132100000D02*
X89450000Y-132100000D01*
X97400000Y-113900000D02*
X97350000Y-113950000D01*
X97350000Y-114000000D02*
X97300000Y-114050000D01*
X102950000Y-106950000D02*
X103100000Y-106800000D01*
X97850000Y-113400000D02*
X97400000Y-113850000D01*
X87100000Y-131900000D02*
X87000000Y-131950000D01*
X97350000Y-113950000D02*
X97350000Y-114000000D01*
X103150000Y-106800000D02*
X103200000Y-106750000D01*
X105050000Y-74050000D02*
X105300000Y-73800000D01*
X98200000Y-112600000D02*
X98200000Y-112900000D01*
X98200000Y-112900000D02*
X97950000Y-113150000D01*
X105350000Y-73800000D02*
X105400000Y-73750000D01*
X97400000Y-113850000D02*
X97400000Y-113900000D01*
X90450000Y-74900000D02*
X90800000Y-75250000D01*
X95800000Y-76250000D02*
X95800000Y-77550000D01*
X103300000Y-106700000D02*
X107200000Y-106700000D01*
X95850000Y-76150000D02*
X95850000Y-76200000D01*
X89500000Y-132250000D02*
X89550000Y-132300000D01*
X90450000Y-72600000D02*
X90450000Y-74900000D01*
X90950000Y-75550000D02*
X90950000Y-75600000D01*
X90900000Y-75450000D02*
X90900000Y-75500000D01*
X96050000Y-78700000D02*
X96100000Y-78750000D01*
X97300000Y-115600000D02*
X97700000Y-116000000D01*
X95900000Y-76100000D02*
X95850000Y-76150000D01*
X89300000Y-132050000D02*
X89350000Y-132050000D01*
X97900000Y-113300000D02*
X97850000Y-113350000D01*
X89750000Y-132650000D02*
X90100000Y-133000000D01*
X89250000Y-132000000D02*
X89300000Y-132050000D01*
X96000000Y-78700000D02*
X96050000Y-78700000D01*
%TO.N,IR_VS*%
D15*
X110300000Y-87500000D02*
X115550000Y-87500000D01*
X115550000Y-87500000D02*
X116100000Y-88050000D01*
%TO.N,AUX_HIGH_LIMIT*%
X100950000Y-131000000D02*
X97500000Y-127550000D01*
X104350000Y-134350000D02*
X103850000Y-133850000D01*
X106500000Y-135450000D02*
X105400000Y-134350000D01*
X100950000Y-131250000D02*
X100950000Y-131000000D01*
X105400000Y-134350000D02*
X104350000Y-134350000D01*
X103800000Y-133850000D02*
X101550000Y-131600000D01*
X101550000Y-131600000D02*
X101300000Y-131600000D01*
X101250000Y-131550000D02*
X101150000Y-131550000D01*
X106650000Y-135450000D02*
X106500000Y-135450000D01*
X101000000Y-131400000D02*
X101000000Y-131300000D01*
X101150000Y-131550000D02*
X101000000Y-131400000D01*
%TO.N,USB_DM*%
D17*
X87750000Y-69700000D02*
X87300000Y-70150000D01*
X88450000Y-68550000D02*
X88450000Y-68650000D01*
X86700000Y-72100000D02*
X86200000Y-71600000D01*
X87750000Y-69650000D02*
X87750000Y-69700000D01*
X88500000Y-68500000D02*
X88450000Y-68550000D01*
X88400000Y-68700000D02*
X88400000Y-68950000D01*
X87300000Y-70150000D02*
X87300000Y-70200000D01*
X87200000Y-71900000D02*
X87000000Y-72100000D01*
X88850000Y-67350000D02*
X88850000Y-67400000D01*
X88550000Y-68300000D02*
X88550000Y-68350000D01*
X88550000Y-68350000D02*
X88500000Y-68400000D01*
X86200000Y-69800000D02*
X86250000Y-69750000D01*
X89200000Y-66900000D02*
X88950000Y-67150000D01*
X87000000Y-72100000D02*
X86700000Y-72100000D01*
X88500000Y-68400000D02*
X88500000Y-68500000D01*
X88950000Y-67150000D02*
X88950000Y-67250000D01*
X88350000Y-69050000D02*
X87750000Y-69650000D01*
X88750000Y-67500000D02*
X88750000Y-67850000D01*
X87300000Y-70200000D02*
X87200000Y-70300000D01*
X88400000Y-68950000D02*
X88350000Y-69000000D01*
X88750000Y-67850000D02*
X88650000Y-67950000D01*
X88950000Y-67250000D02*
X88850000Y-67350000D01*
X86200000Y-71600000D02*
X86200000Y-69800000D01*
X88850000Y-67400000D02*
X88750000Y-67500000D01*
X88350000Y-69000000D02*
X88350000Y-69050000D01*
X88650000Y-67950000D02*
X88650000Y-68200000D01*
X87200000Y-70300000D02*
X87200000Y-71900000D01*
X88650000Y-68200000D02*
X88550000Y-68300000D01*
X88450000Y-68650000D02*
X88400000Y-68700000D01*
%TO.N,NRST*%
D15*
X84250000Y-99000000D02*
X84250000Y-99100000D01*
X82500000Y-87850000D02*
X82500000Y-88450000D01*
X82550000Y-87700000D02*
X82550000Y-87800000D01*
X82550000Y-88500000D02*
X82550000Y-88600000D01*
X82600000Y-77950000D02*
X82600000Y-87650000D01*
X82700000Y-97450000D02*
X84250000Y-99000000D01*
X82600000Y-91100000D02*
X82573180Y-91223180D01*
X82600000Y-88650000D02*
X82600000Y-91100000D01*
X82600000Y-91250000D02*
X82700000Y-91350000D01*
X82700000Y-91350000D02*
X82700000Y-97450000D01*
X84300000Y-99150000D02*
X84300000Y-106850000D01*
X82900000Y-78250000D02*
X82600000Y-77950000D01*
%TO.N,PHONE_BUDGET_OK*%
X86000000Y-63400000D02*
X86350000Y-63400000D01*
X88350000Y-104600000D02*
X88600000Y-104850000D01*
X89700000Y-102250000D02*
X89650000Y-102250000D01*
X95050000Y-97500000D02*
X95050000Y-97550000D01*
X95100000Y-97450000D02*
X95050000Y-97500000D01*
X84600000Y-63750000D02*
X84550000Y-63800000D01*
X89550000Y-102300000D02*
X88350000Y-103500000D01*
X84550000Y-63800000D02*
X84500000Y-63800000D01*
X89650000Y-102250000D02*
X89600000Y-102300000D01*
X83950000Y-63950000D02*
X83850000Y-64050000D01*
X94900000Y-97650000D02*
X94850000Y-97700000D01*
X85800000Y-63600000D02*
X86000000Y-63400000D01*
X94250000Y-97700000D02*
X89700000Y-102250000D01*
X95050000Y-97550000D02*
X94950000Y-97650000D01*
X86350000Y-63400000D02*
X86550000Y-63200000D01*
X94850000Y-97700000D02*
X94250000Y-97700000D01*
X95100000Y-97100000D02*
X95100000Y-97450000D01*
X85650000Y-63750000D02*
X84600000Y-63750000D01*
X89600000Y-102300000D02*
X89550000Y-102300000D01*
X85800000Y-63600000D02*
X85650000Y-63750000D01*
X94950000Y-97650000D02*
X94900000Y-97650000D01*
X88350000Y-103500000D02*
X88350000Y-104600000D01*
X84350000Y-63950000D02*
X83950000Y-63950000D01*
X84500000Y-63800000D02*
X84350000Y-63950000D01*
%TO.N,PHONE_ATTACHED*%
X103350000Y-86050000D02*
X103350000Y-89550000D01*
X103700000Y-91050000D02*
X103900000Y-91250000D01*
X103700000Y-89950000D02*
X103700000Y-91050000D01*
X88200000Y-107350000D02*
X88150000Y-107350000D01*
X103650000Y-89850000D02*
X103650000Y-89900000D01*
X88400000Y-107200000D02*
X88350000Y-107200000D01*
X105000000Y-92550000D02*
X105050000Y-92600000D01*
X97600000Y-103400000D02*
X95600000Y-103400000D01*
X100200000Y-100100000D02*
X97850000Y-102450000D01*
X97800000Y-103200000D02*
X97800000Y-103250000D01*
X95150000Y-103800000D02*
X95100000Y-103800000D01*
X88100000Y-107400000D02*
X87550000Y-107400000D01*
X106150000Y-98650000D02*
X106400000Y-98650000D01*
X90700000Y-107000000D02*
X90600000Y-107100000D01*
X87550000Y-107400000D02*
X87150000Y-107800000D01*
X95050000Y-103850000D02*
X94650000Y-103850000D01*
X88350000Y-107200000D02*
X88200000Y-107350000D01*
X90600000Y-107100000D02*
X90550000Y-107100000D01*
X97700000Y-103350000D02*
X97650000Y-103350000D01*
X105500000Y-98050000D02*
X106050000Y-98600000D01*
X105050000Y-92650000D02*
X105450000Y-93050000D01*
X105500000Y-93200000D02*
X105500000Y-98050000D01*
X103350000Y-89550000D02*
X103650000Y-89850000D01*
X103950000Y-91350000D02*
X103950000Y-91450000D01*
X103900000Y-91250000D02*
X103900000Y-91300000D01*
X97800000Y-103250000D02*
X97700000Y-103350000D01*
X105450000Y-93050000D02*
X105450000Y-93150000D01*
X95600000Y-103400000D02*
X95250000Y-103750000D01*
X106400000Y-98650000D02*
X107900000Y-100150000D01*
X91600000Y-106900000D02*
X91550000Y-106900000D01*
X95250000Y-103750000D02*
X95200000Y-103750000D01*
X97850000Y-102450000D02*
X97850000Y-103150000D01*
X91400000Y-107000000D02*
X90700000Y-107000000D01*
X91500000Y-106950000D02*
X91450000Y-106950000D01*
X106050000Y-98600000D02*
X106100000Y-98600000D01*
X103950000Y-91450000D02*
X105000000Y-92500000D01*
X90500000Y-107150000D02*
X88450000Y-107150000D01*
X94650000Y-103850000D02*
X91600000Y-106900000D01*
%TO.N,SUB_CS_N*%
X100700000Y-75950000D02*
X100700000Y-76450000D01*
X94050000Y-63550000D02*
X94400000Y-63900000D01*
X93550000Y-62950000D02*
X94050000Y-63450000D01*
X98850000Y-70500000D02*
X98850000Y-74100000D01*
X94800000Y-64800000D02*
X94800000Y-64950000D01*
X98700000Y-69350000D02*
X98800000Y-69450000D01*
X94400000Y-63900000D02*
X94400000Y-64100000D01*
X100700000Y-76450000D02*
X101950000Y-77700000D01*
X93550000Y-62800000D02*
X93550000Y-62950000D01*
X94750000Y-64650000D02*
X94750000Y-64750000D01*
X94850000Y-65000000D02*
X94850000Y-65150000D01*
X94700000Y-64450000D02*
X94700000Y-64600000D01*
X98600000Y-69200000D02*
X98700000Y-69300000D01*
X98850000Y-74100000D02*
X100700000Y-75950000D01*
X94400000Y-64100000D02*
X94650000Y-64350000D01*
X95200000Y-65650000D02*
X97950000Y-68400000D01*
X97950000Y-68450000D02*
X98600000Y-69100000D01*
X91150000Y-60050000D02*
X91950000Y-60850000D01*
X91950000Y-61200000D02*
X93550000Y-62800000D01*
X91950000Y-60850000D02*
X91950000Y-61200000D01*
X94900000Y-65300000D02*
X95200000Y-65600000D01*
X94650000Y-64350000D02*
X94650000Y-64400000D01*
X98600000Y-69100000D02*
X98600000Y-69200000D01*
X94050000Y-63450000D02*
X94050000Y-63550000D01*
X98800000Y-69450000D02*
X98800000Y-70450000D01*
X94900000Y-65200000D02*
X94900000Y-65300000D01*
%TO.N,VIBRO_LOW*%
X101850000Y-102400000D02*
X101850000Y-103300000D01*
X101850000Y-103300000D02*
X101350000Y-103800000D01*
%TO.N,TOOLS5*%
D14*
X98750000Y-66200000D02*
X98800000Y-66200000D01*
X95350000Y-65100000D02*
X96050000Y-65100000D01*
X98500000Y-66000000D02*
X98550000Y-66000000D01*
X95250000Y-65000000D02*
X95350000Y-65100000D01*
X96800000Y-65750000D02*
X98100000Y-65750000D01*
X98150000Y-65800000D02*
X98300000Y-65800000D01*
X96650000Y-65600000D02*
X96800000Y-65750000D01*
X99750000Y-67150000D02*
X99850000Y-67150000D01*
X96550000Y-65600000D02*
X96650000Y-65600000D01*
X96050000Y-65100000D02*
X96550000Y-65600000D01*
X98100000Y-65750000D02*
X98150000Y-65800000D01*
X98800000Y-66200000D02*
X99750000Y-67150000D01*
X98550000Y-66000000D02*
X98750000Y-66200000D01*
X98300000Y-65800000D02*
X98500000Y-66000000D01*
%TO.N,EXT5*%
X105250000Y-128650000D02*
X105250000Y-128550000D01*
X105100000Y-129750000D02*
X105100000Y-129150000D01*
X105250000Y-128550000D02*
X105300000Y-128500000D01*
X104850000Y-130000000D02*
X105100000Y-129750000D01*
X104250000Y-133550000D02*
X104250000Y-130650000D01*
X105150000Y-128750000D02*
X105250000Y-128650000D01*
X105300000Y-127400000D02*
X105500000Y-127200000D01*
X105100000Y-129150000D02*
X105150000Y-129100000D01*
X104850000Y-130050000D02*
X104850000Y-130000000D01*
X105150000Y-129100000D02*
X105150000Y-128750000D01*
X105300000Y-128500000D02*
X105300000Y-127400000D01*
X104250000Y-130650000D02*
X104850000Y-130050000D01*
%TO.N,TOOLS_ARM*%
D15*
X84850000Y-67200000D02*
X85200000Y-67550000D01*
X85350000Y-64500000D02*
X85350000Y-66700000D01*
X85200000Y-67550000D02*
X85200000Y-67750000D01*
X85200000Y-67750000D02*
X85350000Y-67900000D01*
X85350000Y-66700000D02*
X84850000Y-67200000D01*
X85350000Y-67900000D02*
X85350000Y-73150000D01*
%TO.N,HARD_ALLOW*%
X81600000Y-73500000D02*
X81600000Y-73350000D01*
X83400000Y-78300000D02*
X83400000Y-75600000D01*
X81050000Y-60950000D02*
X81050000Y-61000000D01*
X80900000Y-61300000D02*
X80900000Y-61350000D01*
X82150000Y-59800000D02*
X81900000Y-60050000D01*
X85350000Y-89200000D02*
X85550000Y-89400000D01*
X82900000Y-86850000D02*
X82900000Y-86800000D01*
X83050000Y-58600000D02*
X83050000Y-59000000D01*
X82850000Y-86750000D02*
X82850000Y-81400000D01*
X82900000Y-78900000D02*
X83350000Y-78450000D01*
X83100000Y-86950000D02*
X84950000Y-88800000D01*
X81900000Y-71200000D02*
X81900000Y-71100000D01*
X85550000Y-58550000D02*
X85400000Y-58400000D01*
X83200000Y-58400000D02*
X83100000Y-58500000D01*
X81900000Y-60100000D02*
X81050000Y-60950000D01*
X82250000Y-59750000D02*
X82200000Y-59800000D01*
X83000000Y-86900000D02*
X82950000Y-86900000D01*
X81550000Y-71550000D02*
X81900000Y-71200000D01*
X85100000Y-88850000D02*
X85200000Y-88850000D01*
X81700000Y-73700000D02*
X81700000Y-73650000D01*
X80950000Y-61150000D02*
X80950000Y-61250000D01*
X81650000Y-73600000D02*
X81650000Y-73550000D01*
X82900000Y-81350000D02*
X82900000Y-78900000D01*
X81950000Y-71000000D02*
X82800000Y-70150000D01*
X83100000Y-86950000D02*
X83050000Y-86950000D01*
X83050000Y-59000000D02*
X82300000Y-59750000D01*
X80900000Y-61350000D02*
X80550000Y-61700000D01*
X85200000Y-88850000D02*
X85300000Y-88950000D01*
X84950000Y-88800000D02*
X85050000Y-88800000D01*
X85350000Y-89100000D02*
X85350000Y-89200000D01*
X85550000Y-59500000D02*
X85550000Y-58550000D01*
X83350000Y-78450000D02*
X83350000Y-78350000D01*
X85400000Y-58400000D02*
X85350000Y-58400000D01*
X81850000Y-73900000D02*
X81750000Y-73800000D01*
X81950000Y-71050000D02*
X81950000Y-71000000D01*
X81550000Y-73300000D02*
X81550000Y-71550000D01*
X83150000Y-75300000D02*
X83100000Y-75250000D01*
X83100000Y-75200000D02*
X81850000Y-73950000D01*
X81000000Y-61050000D02*
X81000000Y-61100000D01*
X85300000Y-58350000D02*
X83300000Y-58350000D01*
X85300000Y-88950000D02*
X85300000Y-89050000D01*
X81750000Y-73800000D02*
X81750000Y-73750000D01*
X83250000Y-58400000D02*
X83200000Y-58400000D01*
X83100000Y-58500000D02*
X83100000Y-58550000D01*
X83400000Y-75600000D02*
X83150000Y-75350000D01*
%TO.N,TOOLS_ENABLE*%
X103150000Y-79250000D02*
X102750000Y-79650000D01*
X102500000Y-94350000D02*
X102250000Y-94600000D01*
X102700000Y-80900000D02*
X102700000Y-93700000D01*
X103150000Y-79200000D02*
X103150000Y-79250000D01*
X103200000Y-78500000D02*
X103200000Y-79150000D01*
X81600000Y-80150000D02*
X81750000Y-80000000D01*
X81600000Y-80400000D02*
X81600000Y-80150000D01*
X102550000Y-94200000D02*
X102550000Y-94250000D01*
X93150000Y-70000000D02*
X93150000Y-75950000D01*
X81750000Y-80000000D02*
X81750000Y-75500000D01*
X81750000Y-75500000D02*
X82200000Y-75050000D01*
X102700000Y-93700000D02*
X102600000Y-93800000D01*
X102600000Y-93800000D02*
X102600000Y-94150000D01*
X102750000Y-79650000D02*
X102750000Y-80850000D01*
X93150000Y-75950000D02*
X93550000Y-76350000D01*
X87700000Y-97050000D02*
X87700000Y-95800000D01*
X102500000Y-94300000D02*
X102500000Y-94350000D01*
X87700000Y-95800000D02*
X87000000Y-95100000D01*
X102250000Y-94600000D02*
X102250000Y-95300000D01*
%TO.N,NFC_ANT_P*%
D18*
X91400000Y-96500000D02*
X91600000Y-96300000D01*
X92650000Y-94950000D02*
X94650000Y-92950000D01*
X91850000Y-95850000D02*
X91850000Y-95800000D01*
X91650000Y-96100000D02*
X91650000Y-96050000D01*
X91850000Y-95800000D02*
X92650000Y-95000000D01*
%TO.N,IBTN_BUS*%
D15*
X103450000Y-105350000D02*
X102600000Y-106200000D01*
X102700000Y-107300000D02*
X102800000Y-107300000D01*
X102550000Y-107050000D02*
X102550000Y-107150000D01*
X104600000Y-92850000D02*
X104600000Y-93350000D01*
X103700000Y-95250000D02*
X103700000Y-95350000D01*
X103650000Y-95400000D02*
X103650000Y-102650000D01*
X104100000Y-94850000D02*
X103700000Y-95250000D01*
X104150000Y-94650000D02*
X104150000Y-94750000D01*
X103650000Y-102650000D02*
X103500000Y-102800000D01*
X102800000Y-107300000D02*
X103550000Y-108050000D01*
X103450000Y-102950000D02*
X103450000Y-105350000D01*
X104550000Y-93400000D02*
X104550000Y-93650000D01*
X104300000Y-94500000D02*
X104150000Y-94650000D01*
X103500000Y-102800000D02*
X103500000Y-102900000D01*
X104300000Y-94400000D02*
X104300000Y-94500000D01*
X102550000Y-106350000D02*
X102550000Y-106850000D01*
X104100000Y-94800000D02*
X104100000Y-94850000D01*
X104500000Y-93700000D02*
X104500000Y-94000000D01*
X102550000Y-107150000D02*
X102700000Y-107300000D01*
X104350000Y-94200000D02*
X104350000Y-94350000D01*
X104450000Y-94050000D02*
X104350000Y-94162500D01*
X102500000Y-106900000D02*
X102500000Y-107000000D01*
X102600000Y-106200000D02*
X102600000Y-106300000D01*
%TO.N,AUX_EF_FAULT_N*%
X116050000Y-140400000D02*
X116150000Y-140500000D01*
X117750000Y-142600000D02*
X117800000Y-142550000D01*
X115950000Y-140000000D02*
X116050000Y-140100000D01*
X116050000Y-140100000D02*
X116050000Y-140400000D01*
X116150000Y-140500000D02*
X116150000Y-142550000D01*
X115950000Y-139750000D02*
X115950000Y-140000000D01*
X116200000Y-142600000D02*
X117750000Y-142600000D01*
%TO.N,IR_LED_A1*%
X106050000Y-56600000D02*
X99050000Y-56600000D01*
%TO.N,BEEP_P*%
X99250000Y-71650000D02*
X99350000Y-71750000D01*
X99350000Y-72000000D02*
X99500000Y-72150000D01*
X99500000Y-72450000D02*
X99500000Y-72550000D01*
X99350000Y-71750000D02*
X99350000Y-72000000D01*
X99550000Y-72300000D02*
X99550000Y-72400000D01*
X99500000Y-72150000D02*
X99500000Y-72250000D01*
X99500000Y-72550000D02*
X99350000Y-72700000D01*
X100150000Y-70750000D02*
X99250000Y-71650000D01*
%TO.N,PHONE_5V_PROTECTED*%
X84950000Y-139450000D02*
X87000000Y-139450000D01*
X87300000Y-139700000D02*
X87400000Y-139700000D01*
X93200000Y-133850000D02*
X94650000Y-132400000D01*
X89850000Y-138350000D02*
X90250000Y-137950000D01*
X90250000Y-137950000D02*
X91000000Y-137950000D01*
X87200000Y-139650000D02*
X87250000Y-139650000D01*
X88100000Y-139600000D02*
X88550000Y-139600000D01*
X87450000Y-139750000D02*
X87850000Y-139750000D01*
X87950000Y-139650000D02*
X88050000Y-139650000D01*
X87000000Y-139450000D02*
X87200000Y-139650000D01*
X91200000Y-133850000D02*
X93200000Y-133850000D01*
X87850000Y-139750000D02*
X87950000Y-139650000D01*
X88550000Y-139600000D02*
X89800000Y-138350000D01*
%TO.N,BOOT0*%
X84450000Y-72950000D02*
X84450000Y-73350000D01*
X83800000Y-66050000D02*
X83600000Y-66250000D01*
X83750000Y-71700000D02*
X84150000Y-72100000D01*
X83800000Y-67750000D02*
X83750000Y-67800000D01*
X83500000Y-64550000D02*
X83750000Y-64800000D01*
X83750000Y-67600000D02*
X83829320Y-67720680D01*
X83750000Y-64900000D02*
X83800000Y-64950000D01*
X84450000Y-74100000D02*
X83450000Y-75100000D01*
X84350000Y-72450000D02*
X84350000Y-72550000D01*
X83750000Y-64800000D02*
X83750000Y-64900000D01*
X84400000Y-73400000D02*
X84400000Y-73500000D01*
X84350000Y-73550000D02*
X84350000Y-74000000D01*
X83550000Y-66400000D02*
X83550000Y-67400000D01*
X83800000Y-65100000D02*
X83800000Y-66050000D01*
X84300000Y-72350000D02*
X84300000Y-72400000D01*
X83550000Y-67400000D02*
X83750000Y-67600000D01*
X84150000Y-72150000D02*
X84250000Y-72250000D01*
X84350000Y-74000000D02*
X84450000Y-74100000D01*
X84400000Y-72600000D02*
X84400000Y-72900000D01*
X83750000Y-68050000D02*
X83750000Y-71700000D01*
X84250000Y-72250000D02*
X84250000Y-72300000D01*
X83750000Y-67800000D02*
X83750000Y-67900000D01*
X83500000Y-63750000D02*
X83500000Y-64550000D01*
X83700000Y-67950000D02*
X83750000Y-68050000D01*
X83600000Y-66250000D02*
X83600000Y-66350000D01*
X83829320Y-64979320D02*
X83800000Y-65100000D01*
%TO.N,TOOLS_IO_ENABLED*%
X93700000Y-68850000D02*
X93050000Y-68200000D01*
X97050000Y-80050000D02*
X97050000Y-80150000D01*
X91900000Y-66450000D02*
X91900000Y-63450000D01*
X93050000Y-68150000D02*
X92950000Y-68050000D01*
X97450000Y-81050000D02*
X97450000Y-81100000D01*
X81025200Y-68450200D02*
X80775300Y-68450200D01*
X99950000Y-82550000D02*
X98850000Y-82550000D01*
X92450000Y-67450000D02*
X92450000Y-67000000D01*
X80775300Y-68450200D02*
X80450000Y-68124900D01*
X81250000Y-68225400D02*
X81025200Y-68450200D01*
X96650000Y-77300000D02*
X96750000Y-77400000D01*
X97100000Y-80200000D02*
X97100000Y-80700000D01*
X92450000Y-67000000D02*
X91900000Y-66450000D01*
X92500000Y-67550000D02*
X92500000Y-67500000D01*
X98850000Y-82550000D02*
X97650000Y-81350000D01*
X97650000Y-81350000D02*
X97525000Y-81275000D01*
X96900000Y-79850000D02*
X97000000Y-79950000D01*
X96600000Y-76200000D02*
X96600000Y-76300000D01*
X96800000Y-77500000D02*
X96800000Y-77600000D01*
X97100000Y-80700000D02*
X97450000Y-81050000D01*
X96750000Y-77400000D02*
X96750000Y-77450000D01*
X92950000Y-68000000D02*
X92500000Y-67550000D01*
X93700000Y-73500000D02*
X93700000Y-68850000D01*
X96650000Y-76350000D02*
X96650000Y-77300000D01*
X80450000Y-67961245D02*
X80450000Y-67800000D01*
X81250000Y-66400000D02*
X81250000Y-68225400D01*
X96550000Y-74750000D02*
X96550000Y-76150000D01*
X80450000Y-68124900D02*
X80450000Y-68000000D01*
X96850000Y-77650000D02*
X96850000Y-78150000D01*
X97500000Y-81150000D02*
X97500000Y-81250000D01*
X91850000Y-63400000D02*
X91850000Y-62400000D01*
X96900000Y-78200000D02*
X96900000Y-79850000D01*
X97000000Y-79950000D02*
X97000000Y-80000000D01*
%TO.N,IR_DRIVE_GATED*%
X94700000Y-102900000D02*
X95200000Y-102900000D01*
X98450000Y-97750000D02*
X98450000Y-97700000D01*
X100250000Y-94650000D02*
X100250000Y-94550000D01*
X98100000Y-98450000D02*
X98100000Y-98400000D01*
X99650000Y-95900000D02*
X99650000Y-95250000D01*
X97950000Y-99000000D02*
X97950000Y-98850000D01*
X95300000Y-102850000D02*
X97400000Y-100750000D01*
X100300000Y-94500000D02*
X100300000Y-92100000D01*
X98300000Y-98200000D02*
X98300000Y-98150000D01*
X99550000Y-96100000D02*
X99550000Y-96050000D01*
X97900000Y-99100000D02*
X97900000Y-99050000D01*
X99500000Y-96200000D02*
X99500000Y-96150000D01*
X99650000Y-95250000D02*
X100250000Y-94650000D01*
X94000000Y-103600000D02*
X94700000Y-102900000D01*
X99400000Y-96400000D02*
X99400000Y-96350000D01*
X98650000Y-97300000D02*
X98650000Y-97200000D01*
X98400000Y-98000000D02*
X98400000Y-97800000D01*
X95250000Y-102850000D02*
X95300000Y-102850000D01*
X97400000Y-100750000D02*
X97600000Y-100750000D01*
X100300000Y-92100000D02*
X101350000Y-91050000D01*
X98550000Y-97550000D02*
X98550000Y-97450000D01*
X99450000Y-96300000D02*
X99450000Y-96250000D01*
X98600000Y-97400000D02*
X98600000Y-97350000D01*
X98050000Y-98600000D02*
X98050000Y-98500000D01*
X98650000Y-97200000D02*
X99250000Y-96600000D01*
X98100000Y-98400000D02*
X98300000Y-98200000D01*
X98500000Y-97650000D02*
X98500000Y-97600000D01*
X99600000Y-96000000D02*
X99600000Y-95950000D01*
X98350000Y-98100000D02*
X98350000Y-98050000D01*
X97800000Y-100600000D02*
X97800000Y-100550000D01*
X99250000Y-96550000D02*
X99400000Y-96400000D01*
X98000000Y-98800000D02*
X98000000Y-98650000D01*
X97650000Y-100700000D02*
X97700000Y-100700000D01*
X97700000Y-100700000D02*
X97800000Y-100600000D01*
X97850000Y-100500000D02*
X97850000Y-99150000D01*
%TO.N,MGMT_IRQ_N*%
X91200000Y-135350000D02*
X91250000Y-135350000D01*
X83750000Y-83050000D02*
X83750000Y-86400000D01*
X111200000Y-138150000D02*
X111450000Y-138400000D01*
X104900000Y-135950000D02*
X105050000Y-135950000D01*
X89400000Y-134600000D02*
X89850000Y-135050000D01*
X83800000Y-81550000D02*
X83800000Y-81650000D01*
X104500000Y-135850000D02*
X104800000Y-135850000D01*
X101400000Y-135500000D02*
X102050000Y-135500000D01*
X105050000Y-135950000D02*
X105150000Y-136050000D01*
X83800000Y-79300000D02*
X83600000Y-79500000D01*
X83600000Y-79500000D02*
X83600000Y-79550000D01*
X98400000Y-135450000D02*
X98200000Y-135250000D01*
X110150000Y-137350000D02*
X110250000Y-137450000D01*
X101000000Y-112450000D02*
X101000000Y-105350000D01*
X88700000Y-134600000D02*
X89400000Y-134600000D01*
X90900000Y-135250000D02*
X91100000Y-135250000D01*
X91300000Y-135400000D02*
X95400000Y-135400000D01*
X100200000Y-116150000D02*
X100200000Y-116100000D01*
X103600000Y-135600000D02*
X103700000Y-135700000D01*
X97100000Y-123650000D02*
X99400000Y-121350000D01*
X108700000Y-136100000D02*
X109100000Y-136500000D01*
X83700000Y-86450000D02*
X83550000Y-86600000D01*
X100450000Y-114900000D02*
X100900000Y-114450000D01*
X111450000Y-138400000D02*
X111500000Y-138400000D01*
X90750000Y-135200000D02*
X90850000Y-135200000D01*
X100400000Y-115250000D02*
X100400000Y-115200000D01*
X100650000Y-106250000D02*
X100650000Y-105700000D01*
X104800000Y-135850000D02*
X104900000Y-135950000D01*
X100900000Y-114450000D02*
X100900000Y-114400000D01*
X84100000Y-75800000D02*
X83800000Y-76100000D01*
X98200000Y-133350000D02*
X97800000Y-132950000D01*
X105350000Y-136100000D02*
X108700000Y-136100000D01*
X83550000Y-79600000D02*
X83550000Y-81250000D01*
X109150000Y-136500000D02*
X109500000Y-136850000D01*
X103900000Y-135750000D02*
X103950000Y-135750000D01*
X111100000Y-138100000D02*
X111150000Y-138150000D01*
X105150000Y-136050000D02*
X105300000Y-136050000D01*
X104000000Y-135800000D02*
X104450000Y-135800000D01*
X100250000Y-116050000D02*
X100250000Y-115500000D01*
X103700000Y-135700000D02*
X103850000Y-135700000D01*
X97600000Y-129300000D02*
X97400000Y-129100000D01*
X97600000Y-132200000D02*
X97600000Y-129300000D01*
X111550000Y-138450000D02*
X112200000Y-138450000D01*
X97400000Y-129100000D02*
X97400000Y-128000000D01*
X110800000Y-137850000D02*
X111050000Y-138100000D01*
X97800000Y-132950000D02*
X97800000Y-132400000D01*
X100300000Y-115350000D02*
X100400000Y-115250000D01*
X83800000Y-76100000D02*
X83800000Y-79300000D01*
X99450000Y-121250000D02*
X99450000Y-119050000D01*
X83700000Y-81450000D02*
X83800000Y-81550000D01*
X97100000Y-127600000D02*
X97100000Y-123650000D01*
X95450000Y-135450000D02*
X101350000Y-135450000D01*
X100450000Y-115150000D02*
X100450000Y-114900000D01*
X99850000Y-116500000D02*
X100200000Y-116150000D01*
X102200000Y-135600000D02*
X103600000Y-135600000D01*
X84150000Y-75000000D02*
X84150000Y-75050000D01*
X99400000Y-121350000D02*
X99400000Y-121300000D01*
X91100000Y-135250000D02*
X91200000Y-135350000D01*
X110300000Y-137450000D02*
X110400000Y-137550000D01*
X90650000Y-135100000D02*
X90750000Y-135200000D01*
X83800000Y-82950000D02*
X83800000Y-83000000D01*
X97400000Y-128000000D02*
X97150000Y-127750000D01*
X99450000Y-119050000D02*
X99700000Y-118800000D01*
X83550000Y-81250000D02*
X83700000Y-81400000D01*
X109700000Y-136950000D02*
X110100000Y-137350000D01*
X100650000Y-105700000D02*
X101000000Y-105350000D01*
X99800000Y-118650000D02*
X99800000Y-118600000D01*
X97150000Y-127750000D02*
X97150000Y-127650000D01*
X98200000Y-135250000D02*
X98200000Y-133350000D01*
X84700000Y-74450000D02*
X84150000Y-75000000D01*
X102100000Y-135550000D02*
X102150000Y-135550000D01*
X84100000Y-75100000D02*
X84100000Y-75800000D01*
X100300000Y-115450000D02*
X100300000Y-115350000D01*
X99700000Y-118750000D02*
X99800000Y-118650000D01*
X100950000Y-114350000D02*
X100950000Y-112500000D01*
X97800000Y-132400000D02*
X97600000Y-132200000D01*
X112200000Y-138450000D02*
X112950000Y-139200000D01*
X89850000Y-135050000D02*
X90100000Y-135050000D01*
X110450000Y-137550000D02*
X110750000Y-137850000D01*
X109550000Y-136850000D02*
X109650000Y-136950000D01*
X90150000Y-135100000D02*
X90650000Y-135100000D01*
X99850000Y-118550000D02*
X99850000Y-116500000D01*
X83850000Y-81700000D02*
X83850000Y-82900000D01*
%TO.N,MGMT_SCL*%
X87500000Y-98800000D02*
X87500000Y-100200000D01*
X85650000Y-69450000D02*
X85650000Y-69550000D01*
X86150000Y-84150000D02*
X86150000Y-84250000D01*
X85700000Y-72650000D02*
X86150000Y-72650000D01*
X88550000Y-93350000D02*
X88550000Y-97650000D01*
X86000000Y-64650000D02*
X85900000Y-64650000D01*
X86723180Y-77176820D02*
X86750000Y-77300000D01*
X86500000Y-101200000D02*
X86500000Y-101300000D01*
X86600000Y-72950000D02*
X86750000Y-73100000D01*
X88600000Y-93250000D02*
X88600000Y-93300000D01*
X86650000Y-80500000D02*
X86650000Y-81450000D01*
X85900000Y-64650000D02*
X85750000Y-64800000D01*
X86900000Y-73900000D02*
X86900000Y-77000000D01*
X88550000Y-97650000D02*
X87550000Y-98650000D01*
X87500000Y-100200000D02*
X86500000Y-101200000D01*
X86650000Y-81450000D02*
X86764320Y-81535680D01*
X86750000Y-80400000D02*
X86650000Y-80500000D01*
X86850000Y-73750000D02*
X86850000Y-73850000D01*
X85600000Y-72550000D02*
X85700000Y-72650000D01*
X86350000Y-82000000D02*
X86350000Y-83300000D01*
X85750000Y-64800000D02*
X85750000Y-64900000D01*
X86750000Y-81550000D02*
X86400000Y-81900000D01*
X88750000Y-93100000D02*
X88600000Y-93250000D01*
X86250000Y-83450000D02*
X86250000Y-83500000D01*
X86450000Y-101350000D02*
X86450000Y-101450000D01*
X86450000Y-101450000D02*
X85700000Y-102200000D01*
X86750000Y-73100000D02*
X86750000Y-73200000D01*
X86200000Y-72700000D02*
X86250000Y-72700000D01*
X86200000Y-83550000D02*
X86200000Y-84100000D01*
X87550000Y-98650000D02*
X87550000Y-98750000D01*
X85600000Y-69600000D02*
X85600000Y-72550000D01*
X86100000Y-87500000D02*
X85850000Y-87750000D01*
X85850000Y-87800000D02*
X85500000Y-88150000D01*
X86800000Y-73250000D02*
X86800000Y-73700000D01*
X85700000Y-64950000D02*
X85700000Y-69400000D01*
X86400000Y-81900000D02*
X86400000Y-81950000D01*
X86450000Y-72900000D02*
X86500000Y-72950000D01*
X87750000Y-64600000D02*
X86050000Y-64600000D01*
X86500000Y-72950000D02*
X86600000Y-72950000D01*
X88350000Y-64000000D02*
X87750000Y-64600000D01*
X86100000Y-84300000D02*
X86100000Y-87500000D01*
X86250000Y-72700000D02*
X86420680Y-72870680D01*
X86750000Y-77300000D02*
X86750000Y-80400000D01*
X86300000Y-83350000D02*
X86300000Y-83400000D01*
%TO.N,IBTN_DRIVE*%
X86950000Y-65400000D02*
X90400000Y-65400000D01*
X87350000Y-65800000D02*
X86925000Y-65375000D01*
X90400000Y-65400000D02*
X91050000Y-64750000D01*
%TO.N,VIBRO_GATE*%
X99700000Y-102700000D02*
X100900000Y-101500000D01*
%TO.N,NFC_CS_N*%
X94950000Y-69000000D02*
X95050000Y-69100000D01*
X95050000Y-69100000D02*
X95050000Y-69450000D01*
X95050000Y-69450000D02*
X95300000Y-69700000D01*
X92400000Y-62200000D02*
X92400000Y-62950000D01*
X90100000Y-59800000D02*
X92350000Y-62050000D01*
X95300000Y-69800000D02*
X95450000Y-69950000D01*
X96600000Y-73200000D02*
X96700000Y-73300000D01*
X94800000Y-68700000D02*
X94800000Y-68800000D01*
X93750000Y-67500000D02*
X94250000Y-68000000D01*
X96400000Y-72700000D02*
X96600000Y-72900000D01*
X95450000Y-69950000D02*
X95450000Y-71100000D01*
X96700000Y-73350000D02*
X101950000Y-78600000D01*
X94800000Y-68800000D02*
X94950000Y-68950000D01*
X92900000Y-65900000D02*
X92900000Y-65950000D01*
X96150000Y-71800000D02*
X96150000Y-72100000D01*
X90000000Y-59800000D02*
X90100000Y-59800000D01*
X92950000Y-66000000D02*
X92950000Y-66200000D01*
X96300000Y-72550000D02*
X96400000Y-72650000D01*
X92400000Y-62950000D02*
X92600000Y-63150000D01*
X93050000Y-66350000D02*
X93600000Y-66900000D01*
X88400000Y-58850000D02*
X89300000Y-59750000D01*
X94250000Y-68050000D02*
X94400000Y-68200000D01*
X92650000Y-63300000D02*
X92650000Y-65650000D01*
X96300000Y-72500000D02*
X96300000Y-72550000D01*
X96150000Y-72100000D02*
X96250000Y-72200000D01*
X88400000Y-57800000D02*
X88400000Y-58850000D01*
X92350000Y-62050000D02*
X92350000Y-62150000D01*
X96600000Y-72900000D02*
X96600000Y-73200000D01*
X95450000Y-71100000D02*
X96150000Y-71800000D01*
X89300000Y-59750000D02*
X89950000Y-59750000D01*
X93600000Y-67350000D02*
X93743180Y-67493180D01*
X94400000Y-68250000D02*
X94750000Y-68600000D01*
X93600000Y-66900000D02*
X93600000Y-67350000D01*
X92950000Y-66235000D02*
X93050000Y-66350000D01*
X94750000Y-68600000D02*
X94750000Y-68650000D01*
X95300000Y-69700000D02*
X95300000Y-69800000D01*
X92600000Y-63150000D02*
X92600000Y-63250000D01*
X96250000Y-72200000D02*
X96250000Y-72450000D01*
X92650000Y-65650000D02*
X92900000Y-65900000D01*
%TO.N,VIBRO_GATED*%
X99950000Y-87300000D02*
X99950000Y-87350000D01*
X99550000Y-83850000D02*
X99550000Y-84250000D01*
X99900000Y-90400000D02*
X99900000Y-90800000D01*
X100000000Y-87400000D02*
X100000000Y-87600000D01*
X99850000Y-84550000D02*
X99850000Y-84650000D01*
X99900000Y-84700000D02*
X99900000Y-87250000D01*
X99950000Y-87650000D02*
X99950000Y-87700000D01*
X99850000Y-87800000D02*
X99850000Y-90350000D01*
X99950000Y-87700000D02*
X99850000Y-87800000D01*
X99550000Y-84250000D02*
X99850000Y-84550000D01*
X99950000Y-90850000D02*
X99950000Y-91200000D01*
%TO.N,NFC_VDD_RF*%
X86850000Y-88000000D02*
X86850000Y-89350000D01*
X86850000Y-89350000D02*
X87050000Y-89550000D01*
%TO.N,RF_TOOL_SCK*%
X99150000Y-94350000D02*
X99150000Y-95850000D01*
X99000000Y-96000000D02*
X99000000Y-96150000D01*
X98525000Y-96675000D02*
X98250000Y-96400000D01*
X96350000Y-77350000D02*
X96550000Y-77550000D01*
X96850000Y-80800000D02*
X97250000Y-81200000D01*
X99050000Y-94100000D02*
X99050000Y-94150000D01*
X96550000Y-77550000D02*
X96550000Y-77650000D01*
X97300000Y-81350000D02*
X97300000Y-92300000D01*
X97250000Y-81200000D02*
X97250000Y-81300000D01*
X96800000Y-80100000D02*
X96800000Y-80200000D01*
X99000000Y-94000000D02*
X99000000Y-94050000D01*
X96650000Y-79950000D02*
X96800000Y-80100000D01*
X96600000Y-77700000D02*
X96600000Y-78200000D01*
X99100000Y-94200000D02*
X99100000Y-94300000D01*
X97300000Y-92300000D02*
X99000000Y-94000000D01*
X99150000Y-95850000D02*
X99000000Y-96000000D01*
X96850000Y-80250000D02*
X96850000Y-80800000D01*
X98850000Y-96350000D02*
X98525000Y-96675000D01*
X96350000Y-76500000D02*
X96350000Y-77350000D01*
X99000000Y-96150000D02*
X98850000Y-96300000D01*
X96650000Y-78250000D02*
X96650000Y-79950000D01*
%TO.N,RF_TOOL_MISO*%
X98450000Y-74550000D02*
X98450000Y-70000000D01*
%TO.N,RF_SUB_GDO0*%
X105100000Y-70650000D02*
X105100000Y-70600000D01*
X105300000Y-70200000D02*
X105300000Y-68450000D01*
X105400000Y-68350000D02*
X105400000Y-67400000D01*
X105150000Y-70450000D02*
X105250000Y-70350000D01*
X105250000Y-70350000D02*
X105250000Y-70250000D01*
X105050000Y-72000000D02*
X105050000Y-70700000D01*
X105000000Y-72800000D02*
X105000000Y-72050000D01*
X105150000Y-70550000D02*
X105150000Y-70450000D01*
X105300000Y-68450000D02*
X105400000Y-68350000D01*
%TO.N,RF_TOOL_MOSI*%
X100650000Y-92650000D02*
X100650000Y-93700000D01*
X105450000Y-71500000D02*
X105800000Y-71150000D01*
X105900000Y-67450000D02*
X105900000Y-67350000D01*
X105850000Y-71000000D02*
X105850000Y-67500000D01*
X105800000Y-71150000D02*
X105800000Y-71050000D01*
X105950000Y-63150000D02*
X105550000Y-62750000D01*
X105950000Y-67300000D02*
X105950000Y-63150000D01*
X105450000Y-72900000D02*
X105450000Y-71500000D01*
%TO.N,IR_LED_A0*%
X96450000Y-59900000D02*
X96200000Y-59650000D01*
X94700000Y-57750000D02*
X94400000Y-57450000D01*
X95600000Y-58800000D02*
X95250000Y-58450000D01*
X96200000Y-59600000D02*
X95850000Y-59250000D01*
X99800000Y-65300000D02*
X99650000Y-65150000D01*
X96550000Y-60050000D02*
X96450000Y-59950000D01*
X98400000Y-62450000D02*
X98350000Y-62400000D01*
X98350000Y-62350000D02*
X98150000Y-62150000D01*
X98700000Y-62800000D02*
X98400000Y-62500000D01*
X95250000Y-58400000D02*
X94800000Y-57950000D01*
X94800000Y-57900000D02*
X94700000Y-57800000D01*
X97700000Y-61500000D02*
X97700000Y-61350000D01*
X95750000Y-59000000D02*
X95600000Y-58850000D01*
X99650000Y-65150000D02*
X99650000Y-64500000D01*
X99650000Y-64500000D02*
X98750000Y-63600000D01*
X97800000Y-61750000D02*
X97800000Y-61650000D01*
X96800000Y-60350000D02*
X96550000Y-60100000D01*
X98700000Y-63500000D02*
X98700000Y-62800000D01*
X98750000Y-63600000D02*
X98750000Y-63550000D01*
X98150000Y-62100000D02*
X97800000Y-61750000D01*
X97750000Y-61600000D02*
X97750000Y-61550000D01*
X97700000Y-61350000D02*
X97200000Y-60850000D01*
X95850000Y-59200000D02*
X95800000Y-59150000D01*
X95800000Y-59100000D02*
X95750000Y-59050000D01*
X97200000Y-60800000D02*
X96800000Y-60400000D01*
%TO.N,CONFIRM_N*%
X87250000Y-63750000D02*
X87350000Y-63750000D01*
X95700000Y-70100000D02*
X96850000Y-71250000D01*
X86650000Y-64000000D02*
X87000000Y-64000000D01*
X96900000Y-71400000D02*
X96900000Y-71900000D01*
X95700000Y-69950000D02*
X95700000Y-70100000D01*
X88950000Y-63300000D02*
X89100000Y-63450000D01*
X96850000Y-71250000D02*
X96850000Y-71350000D01*
X87400000Y-63700000D02*
X88100000Y-63700000D01*
X88700000Y-63250000D02*
X88800000Y-63250000D01*
X88200000Y-63650000D02*
X88550000Y-63300000D01*
X95600000Y-69350000D02*
X95600000Y-69800000D01*
X88150000Y-63650000D02*
X88200000Y-63650000D01*
X88550000Y-63300000D02*
X88650000Y-63300000D01*
X96900000Y-71900000D02*
X97450000Y-72450000D01*
X89200000Y-63350000D02*
X90250000Y-63350000D01*
X87000000Y-64000000D02*
X87250000Y-63750000D01*
X95650000Y-69850000D02*
X95650000Y-69900000D01*
X89100000Y-63450000D02*
X89200000Y-63350000D01*
X88850000Y-63300000D02*
X88950000Y-63300000D01*
%TO.N,AUX_CC_ADDR*%
X113150000Y-139550000D02*
X113300000Y-139400000D01*
X112600000Y-137500000D02*
X112600000Y-136600000D01*
X113300000Y-139400000D02*
X113300000Y-139300000D01*
X112750000Y-137650000D02*
X112600000Y-137500000D01*
X112950000Y-138650000D02*
X112950000Y-137900000D01*
X113050000Y-139550000D02*
X113150000Y-139550000D01*
X113350000Y-139050000D02*
X112950000Y-138650000D01*
X113350000Y-139250000D02*
X113350000Y-139050000D01*
X112800000Y-139600000D02*
X113000000Y-139600000D01*
X112500000Y-139900000D02*
X112800000Y-139600000D01*
X112950000Y-137900000D02*
X112750000Y-137700000D01*
%TO.N,AUX_DVDT*%
X114950000Y-137500000D02*
X114500000Y-137050000D01*
X116050000Y-137900000D02*
X115700000Y-137550000D01*
X117650000Y-139150000D02*
X116400000Y-137900000D01*
X115500000Y-137500000D02*
X114950000Y-137500000D01*
X116400000Y-137900000D02*
X116050000Y-137900000D01*
X115700000Y-137550000D02*
X115550000Y-137550000D01*
X114450000Y-137050000D02*
X112625000Y-135225000D01*
%TO.N,AUX_EF_EN*%
X116200000Y-137000000D02*
X115950000Y-136750000D01*
X118300000Y-137000000D02*
X116200000Y-137000000D01*
%TO.N,HDR_TARGET_SDA*%
X106200000Y-105100000D02*
X112500000Y-105100000D01*
X105850000Y-104850000D02*
X106050000Y-105050000D01*
X106050000Y-105050000D02*
X106150000Y-105050000D01*
X114523200Y-105876800D02*
X115150000Y-105250000D01*
X104750000Y-103850000D02*
X105700000Y-104800000D01*
X105750000Y-104800000D02*
X105800000Y-104850000D01*
X112500000Y-105100000D02*
X112600000Y-105200000D01*
X112600000Y-105200000D02*
X112700000Y-105200000D01*
X103850000Y-103000000D02*
X104700000Y-103850000D01*
X113376800Y-105876800D02*
X114523200Y-105876800D01*
X112750000Y-105250000D02*
X113376800Y-105876800D01*
%TO.N,SWCLK*%
X87400000Y-65100000D02*
X88700000Y-65100000D01*
X89600000Y-64250000D02*
X89650000Y-64200000D01*
X89700000Y-64150000D02*
X90300000Y-64150000D01*
X88700000Y-65100000D02*
X89550000Y-64250000D01*
%TO.N,LF_ANALOG*%
X81950000Y-64350000D02*
X81950000Y-70650000D01*
X81950000Y-70650000D02*
X81600000Y-71000000D01*
X82250000Y-64000000D02*
X82000000Y-64250000D01*
X82000000Y-64250000D02*
X82000000Y-64300000D01*
%TO.N,LF_LOAD*%
X89300000Y-73750000D02*
X89300000Y-73850000D01*
X89400000Y-77050000D02*
X90550000Y-78200000D01*
X89400000Y-75100000D02*
X89400000Y-77050000D01*
X88200000Y-73500000D02*
X89050000Y-73500000D01*
X89050000Y-73500000D02*
X89300000Y-73750000D01*
X89350000Y-73900000D02*
X89350000Y-75050000D01*
%TO.N,TARGET_SDA*%
X84250000Y-66600000D02*
X84250000Y-67300000D01*
X84400000Y-67650000D02*
X84400000Y-67750000D01*
X84250000Y-65800000D02*
X84250000Y-66350000D01*
X84950000Y-68950000D02*
X84950000Y-69000000D01*
X84500000Y-67950000D02*
X84500000Y-68250000D01*
X84850000Y-68850000D02*
X84950000Y-68950000D01*
X84300000Y-65050000D02*
X84300000Y-65750000D01*
X85000000Y-69050000D02*
X85000000Y-69500000D01*
X84200000Y-67400000D02*
X84350000Y-67550000D01*
X84450000Y-68300000D02*
X84450000Y-68800000D01*
X85000000Y-69500000D02*
X84800000Y-69700000D01*
X84450000Y-68800000D02*
X84750000Y-68800000D01*
X84350000Y-67550000D02*
X84350000Y-67600000D01*
X84800000Y-68850000D02*
X84850000Y-68850000D01*
X84300000Y-66400000D02*
X84300000Y-66550000D01*
X84450000Y-67800000D02*
X84450000Y-67900000D01*
X84250000Y-67300000D02*
X84175680Y-67375680D01*
%TO.N,SWDIO*%
X99600000Y-96500000D02*
X99450000Y-96650000D01*
X99600000Y-96450000D02*
X99600000Y-96500000D01*
X98500000Y-98300000D02*
X98300000Y-98500000D01*
X86950000Y-65850000D02*
X86950000Y-65950000D01*
X87000000Y-66100000D02*
X87100000Y-66200000D01*
X87000000Y-66000000D02*
X87000000Y-66100000D01*
X98250000Y-98650000D02*
X98250000Y-98800000D01*
X88100000Y-66300000D02*
X88500000Y-65900000D01*
X98850000Y-97350000D02*
X98850000Y-97400000D01*
X99750000Y-96150000D02*
X99750000Y-96200000D01*
X98550000Y-98150000D02*
X98550000Y-98200000D01*
X98800000Y-97450000D02*
X98800000Y-97550000D01*
X86650000Y-65700000D02*
X86700000Y-65700000D01*
X98150000Y-99050000D02*
X98150000Y-99100000D01*
X88800000Y-65900000D02*
X89200000Y-66300000D01*
X99850000Y-95950000D02*
X99850000Y-96000000D01*
X89500000Y-66400000D02*
X89550000Y-66400000D01*
X98000000Y-100700000D02*
X97500000Y-101200000D01*
X89200000Y-66300000D02*
X89350000Y-66300000D01*
X89700000Y-66550000D02*
X89700000Y-66600000D01*
X98200000Y-98850000D02*
X98200000Y-99000000D01*
X89800000Y-66750000D02*
X89800000Y-69850000D01*
X88700000Y-69050000D02*
X88700000Y-68700000D01*
X86750000Y-65750000D02*
X86850000Y-65750000D01*
X89750000Y-66650000D02*
X89750000Y-66700000D01*
X98500000Y-98250000D02*
X98500000Y-98300000D01*
X89600000Y-70050000D02*
X89300000Y-70050000D01*
X88750000Y-69500000D02*
X88750000Y-69100000D01*
X89400000Y-66350000D02*
X89450000Y-66350000D01*
X89300000Y-70050000D02*
X88750000Y-69500000D01*
X98000000Y-100650000D02*
X98000000Y-100700000D01*
X98700000Y-97700000D02*
X98700000Y-97750000D01*
X98100000Y-99150000D02*
X98100000Y-100500000D01*
X86850000Y-65750000D02*
X86950000Y-65850000D01*
X87150000Y-66200000D02*
X87250000Y-66300000D01*
X93500000Y-105450000D02*
X92900000Y-106050000D01*
X99800000Y-96050000D02*
X99800000Y-96100000D01*
X98900000Y-97250000D02*
X98900000Y-97300000D01*
X92900000Y-106050000D02*
X92900000Y-106700000D01*
X99450000Y-96700000D02*
X98900000Y-97250000D01*
X89550000Y-66400000D02*
X89700000Y-66550000D01*
X92900000Y-106700000D02*
X92800000Y-106800000D01*
X99700000Y-96250000D02*
X99700000Y-96300000D01*
X86250000Y-65000000D02*
X86250000Y-65300000D01*
X87250000Y-66300000D02*
X88100000Y-66300000D01*
X97500000Y-101200000D02*
X97500000Y-101500000D01*
X89800000Y-69850000D02*
X89600000Y-70050000D01*
X100900000Y-94450000D02*
X99900000Y-95450000D01*
X88700000Y-65900000D02*
X88800000Y-65900000D01*
X98300000Y-98500000D02*
X98300000Y-98600000D01*
X92750000Y-106900000D02*
X92750000Y-107050000D01*
X88500000Y-65900000D02*
X88600000Y-65900000D01*
X86250000Y-65300000D02*
X86650000Y-65700000D01*
X92800000Y-106800000D02*
X92800000Y-106850000D01*
X88650000Y-65850000D02*
X88700000Y-65900000D01*
X98750000Y-97600000D02*
X98750000Y-97650000D01*
X88700000Y-68700000D02*
X89150000Y-68250000D01*
X98650000Y-97800000D02*
X98650000Y-98000000D01*
X98600000Y-98050000D02*
X98600000Y-98100000D01*
X99650000Y-96350000D02*
X99650000Y-96400000D01*
X98050000Y-100550000D02*
X98050000Y-100600000D01*
X99900000Y-95450000D02*
X99900000Y-95900000D01*
%TO.N,TARGET_RX*%
X86650000Y-58300000D02*
X86250000Y-57900000D01*
X87150000Y-59850000D02*
X87150000Y-59800000D01*
X86250000Y-57850000D02*
X86200000Y-57800000D01*
X87100000Y-59750000D02*
X87100000Y-59300000D01*
X87700000Y-60200000D02*
X87650000Y-60200000D01*
X88000000Y-60500000D02*
X87700000Y-60200000D01*
X86700000Y-58900000D02*
X86700000Y-58850000D01*
X87100000Y-59300000D02*
X86700000Y-58900000D01*
X88050000Y-60800000D02*
X88050000Y-60750000D01*
X88000000Y-60700000D02*
X88000000Y-60500000D01*
X87600000Y-60150000D02*
X87450000Y-60150000D01*
X88200000Y-60950000D02*
X88050000Y-60800000D01*
X86650000Y-58800000D02*
X86650000Y-58300000D01*
X87450000Y-60150000D02*
X87150000Y-59850000D01*
%TO.N,TARGET_MISO*%
X97450000Y-66900000D02*
X98500000Y-66900000D01*
X98650000Y-66950000D02*
X102150000Y-70450000D01*
X102150000Y-70450000D02*
X102500000Y-70450000D01*
X96100000Y-65550000D02*
X97450000Y-66900000D01*
X98550000Y-66950000D02*
X98650000Y-66950000D01*
X102800000Y-70650000D02*
X102800000Y-70750000D01*
X102550000Y-70500000D02*
X102650000Y-70500000D01*
X102650000Y-70500000D02*
X102800000Y-70650000D01*
X96000000Y-65500000D02*
X96050000Y-65550000D01*
%TO.N,TARGET_MOSI*%
X103100000Y-76650000D02*
X103100000Y-76800000D01*
X101400000Y-71700000D02*
X101500000Y-71800000D01*
X102650000Y-75750000D02*
X102650000Y-75800000D01*
X103550000Y-77350000D02*
X103850000Y-77650000D01*
X102700000Y-76100000D02*
X102800000Y-76200000D01*
X101300000Y-71400000D02*
X101300000Y-71550000D01*
X95900000Y-65900000D02*
X98550000Y-68550000D01*
X103100000Y-76800000D02*
X103550000Y-77250000D01*
X102250000Y-75250000D02*
X102500000Y-75500000D01*
X102800000Y-76200000D02*
X102800000Y-76300000D01*
X102950000Y-76500000D02*
X103100000Y-76650000D01*
X103850000Y-77700000D02*
X103950000Y-77800000D01*
X98550000Y-68600000D02*
X101200000Y-71250000D01*
X101500000Y-72000000D02*
X101750000Y-72250000D01*
X102600000Y-75650000D02*
X102600000Y-75700000D01*
X104450000Y-78400000D02*
X109650000Y-83600000D01*
X102800000Y-76300000D02*
X102950000Y-76450000D01*
X101200000Y-71300000D02*
X101300000Y-71400000D01*
X103950000Y-77850000D02*
X104450000Y-78350000D01*
X101300000Y-71550000D02*
X101400000Y-71650000D01*
X102250000Y-75200000D02*
X102250000Y-75250000D01*
X102500000Y-75550000D02*
X102600000Y-75650000D01*
X101750000Y-74600000D02*
X102200000Y-75050000D01*
X102200000Y-75050000D02*
X102200000Y-75150000D01*
X103550000Y-77250000D02*
X103550000Y-77350000D01*
X102700000Y-75850000D02*
X102700000Y-76100000D01*
X101750000Y-72250000D02*
X101750000Y-74600000D01*
X101500000Y-71800000D02*
X101500000Y-72000000D01*
X109650000Y-83600000D02*
X109650000Y-96900000D01*
%TO.N,SD_DETECT_N*%
X95800000Y-94900000D02*
X95700000Y-95000000D01*
X95700000Y-95000000D02*
X95700000Y-95250000D01*
X95950000Y-89450000D02*
X95800000Y-89600000D01*
X92500000Y-98200000D02*
X89100000Y-101600000D01*
X96050000Y-84200000D02*
X96050000Y-85300000D01*
X96350000Y-82750000D02*
X96350000Y-82850000D01*
X96300000Y-82900000D02*
X96300000Y-83100000D01*
X95950000Y-85400000D02*
X95950000Y-89450000D01*
X96450000Y-82650000D02*
X96350000Y-82750000D01*
X96400000Y-81250000D02*
X96400000Y-81350000D01*
X94250000Y-96700000D02*
X94000000Y-96700000D01*
X95700000Y-95250000D02*
X94250000Y-96700000D01*
X96050000Y-85300000D02*
X95950000Y-85400000D01*
X95200000Y-80050000D02*
X96400000Y-81250000D01*
X96300000Y-83100000D02*
X96100000Y-83300000D01*
X96450000Y-81400000D02*
X96450000Y-82650000D01*
X95200000Y-71350000D02*
X95200000Y-80050000D01*
X93900000Y-96750000D02*
X92500000Y-98150000D01*
X93950000Y-96750000D02*
X93900000Y-96750000D01*
X95800000Y-89600000D02*
X95800000Y-94900000D01*
X96100000Y-83300000D02*
X96100000Y-84150000D01*
%TO.N,BEEP_PWM*%
X89600000Y-59200000D02*
X93500000Y-59200000D01*
X89050000Y-58950000D02*
X89350000Y-58950000D01*
X89350000Y-58950000D02*
X89600000Y-59200000D01*
X93500000Y-59200000D02*
X93600000Y-59300000D01*
X93600000Y-59300000D02*
X94350000Y-59300000D01*
X88800000Y-58700000D02*
X89050000Y-58950000D01*
%TO.N,TOOL_MISO*%
X91600000Y-75750000D02*
X92250000Y-76400000D01*
X98700000Y-98400000D02*
X98700000Y-98450000D01*
X89550000Y-61400000D02*
X89650000Y-61500000D01*
X89550000Y-61300000D02*
X89550000Y-61400000D01*
X100050000Y-77350000D02*
X100050000Y-80100000D01*
X89650000Y-61500000D02*
X89750000Y-61500000D01*
X97850000Y-101200000D02*
X97850000Y-101550000D01*
X88550000Y-60000000D02*
X89500000Y-60950000D01*
X100100000Y-80150000D02*
X100100000Y-80850000D01*
X99750000Y-77000000D02*
X100000000Y-77250000D01*
X91600000Y-71750000D02*
X91600000Y-75750000D01*
X100450000Y-81200000D02*
X100450000Y-81250000D01*
X98950000Y-97750000D02*
X98950000Y-97800000D01*
X89400000Y-98625000D02*
X89400000Y-99150000D01*
X91450000Y-62150000D02*
X91450000Y-71150000D01*
X100500000Y-81300000D02*
X100500000Y-82250000D01*
X86550000Y-57700000D02*
X87350000Y-58500000D01*
X91500000Y-71200000D02*
X91500000Y-71450000D01*
X90100000Y-61600000D02*
X90350000Y-61850000D01*
X88300000Y-59700000D02*
X88550000Y-59950000D01*
X87450000Y-58700000D02*
X87450000Y-58800000D01*
X100750000Y-86300000D02*
X100750000Y-86350000D01*
X97800000Y-101700000D02*
X97700000Y-101800000D01*
X99000000Y-97650000D02*
X99000000Y-97700000D01*
X98800000Y-98200000D02*
X98800000Y-98250000D01*
X98550000Y-98600000D02*
X98550000Y-98650000D01*
X90350000Y-61850000D02*
X91100000Y-61850000D01*
X98700000Y-98450000D02*
X98550000Y-98600000D01*
X98200000Y-100800000D02*
X98200000Y-100850000D01*
X97600000Y-101800000D02*
X96950000Y-102450000D01*
X89300000Y-100850000D02*
X87750000Y-102400000D01*
X98250000Y-100700000D02*
X98250000Y-100750000D01*
X87350000Y-58600000D02*
X87450000Y-58700000D01*
X100550000Y-82300000D02*
X100550000Y-82400000D01*
X98900000Y-97850000D02*
X98900000Y-98050000D01*
X89500000Y-98700000D02*
X89400000Y-98625000D01*
X89050000Y-99600000D02*
X89050000Y-100600000D01*
X90900000Y-98750000D02*
X89550000Y-98750000D01*
X87750000Y-102400000D02*
X87750000Y-106750000D01*
X98850000Y-98100000D02*
X98850000Y-98150000D01*
X89400000Y-99150000D02*
X89100000Y-99450000D01*
X89750000Y-61500000D02*
X89850000Y-61550000D01*
X91550000Y-71500000D02*
X91550000Y-71700000D01*
X98500000Y-98700000D02*
X98500000Y-98850000D01*
X99150000Y-97500000D02*
X99000000Y-97650000D01*
X91400000Y-62050000D02*
X91400000Y-62100000D01*
X100600000Y-86150000D02*
X100750000Y-86300000D01*
X87350000Y-58500000D02*
X87350000Y-58600000D01*
X98450000Y-98900000D02*
X98450000Y-99050000D01*
X89500000Y-61200000D02*
X89550000Y-61300000D01*
X100800000Y-86400000D02*
X100800000Y-88800000D01*
X91150000Y-61900000D02*
X91250000Y-61900000D01*
X98400000Y-99100000D02*
X98400000Y-99150000D01*
X89050000Y-100600000D02*
X89300000Y-100850000D01*
X98350000Y-99200000D02*
X98350000Y-100550000D01*
X89500000Y-60950000D02*
X89500000Y-61200000D01*
X97700000Y-101800000D02*
X97600000Y-101800000D01*
X87450000Y-58800000D02*
X88300000Y-59650000D01*
X100000000Y-77250000D02*
X100000000Y-77300000D01*
X89850000Y-61550000D02*
X89950000Y-61550000D01*
X100600000Y-82450000D02*
X100600000Y-86150000D01*
X100100000Y-80850000D02*
X100450000Y-81200000D01*
X91250000Y-61900000D02*
X91400000Y-62050000D01*
X89100000Y-99450000D02*
X89100000Y-99550000D01*
X98300000Y-100600000D02*
X98300000Y-100650000D01*
X97800000Y-101600000D02*
X97800000Y-101700000D01*
X98750000Y-98300000D02*
X98750000Y-98350000D01*
X90000000Y-61600000D02*
X90100000Y-61600000D01*
X98200000Y-100850000D02*
X97850000Y-101200000D01*
%TO.N,TOOL_SCK*%
X101800000Y-91900000D02*
X101650000Y-92050000D01*
X100900000Y-100650000D02*
X95050000Y-106500000D01*
X95050000Y-106500000D02*
X95050000Y-108350000D01*
X101900000Y-88550000D02*
X101800000Y-88650000D01*
X101800000Y-88650000D02*
X101800000Y-91900000D01*
X101900000Y-86900000D02*
X101900000Y-88550000D01*
X101650000Y-95250000D02*
X100900000Y-96000000D01*
X102350000Y-76600000D02*
X102350000Y-86450000D01*
X101650000Y-92050000D02*
X101650000Y-95250000D01*
X102300000Y-76450000D02*
X102300000Y-76550000D01*
X102350000Y-86450000D02*
X101900000Y-86900000D01*
X102050000Y-76200000D02*
X102300000Y-76450000D01*
X100900000Y-96000000D02*
X100900000Y-100650000D01*
X102050000Y-75800000D02*
X102050000Y-76200000D01*
%TO.N,LF_EDGE*%
X81550000Y-96150000D02*
X81650000Y-96050000D01*
X82300000Y-96550000D02*
X82300000Y-96600000D01*
X81650000Y-96050000D02*
X81700000Y-96050000D01*
X83300000Y-60600000D02*
X83200000Y-60600000D01*
X82800000Y-61000000D02*
X81750000Y-61000000D01*
X85200000Y-58700000D02*
X83300000Y-60600000D01*
X81550000Y-96150000D02*
X81550000Y-81550000D01*
X81750000Y-96000000D02*
X82050000Y-96000000D01*
X83200000Y-60600000D02*
X82800000Y-61000000D01*
X82250000Y-96200000D02*
X82250000Y-96500000D01*
X81600000Y-61050000D02*
X81450000Y-61200000D01*
X82350000Y-96650000D02*
X82350000Y-97600000D01*
X81450000Y-61200000D02*
X81450000Y-61300000D01*
X82200000Y-96100000D02*
X82200000Y-96150000D01*
X82100000Y-96050000D02*
X82150000Y-96050000D01*
X81750000Y-61900000D02*
X81450000Y-61600000D01*
X82750000Y-98050000D02*
X83900000Y-99200000D01*
X81850000Y-81250000D02*
X81550000Y-81550000D01*
X81400000Y-61350000D02*
X81400000Y-61600000D01*
X81700000Y-61050000D02*
X81600000Y-61050000D01*
X82350000Y-97600000D02*
X82750000Y-98000000D01*
%TO.N,CSI_REQUEST*%
X85400000Y-90500000D02*
X87450000Y-90500000D01*
X85150000Y-84800000D02*
X85150000Y-84900000D01*
X84550000Y-75300000D02*
X84550000Y-76400000D01*
X84600000Y-76450000D02*
X84600000Y-76850000D01*
X85000000Y-90150000D02*
X85300000Y-90450000D01*
X85300000Y-90450000D02*
X85350000Y-90450000D01*
X84650000Y-76900000D02*
X84650000Y-78450000D01*
X84850000Y-84700000D02*
X85050000Y-84700000D01*
X84700000Y-78500000D02*
X84700000Y-81600000D01*
X84750000Y-81650000D02*
X84750000Y-84500000D01*
X84800000Y-84550000D02*
X84800000Y-84650000D01*
X87450000Y-90500000D02*
X88750000Y-89200000D01*
X85050000Y-84700000D02*
X85150000Y-84800000D01*
X85000000Y-89150000D02*
X85000000Y-90150000D01*
%TO.N,TARGET_IO3*%
X92250000Y-73300000D02*
X92250000Y-73500000D01*
X94000000Y-83400000D02*
X94000000Y-83450000D01*
X92500000Y-73850000D02*
X92800000Y-74150000D01*
X92550000Y-70900000D02*
X92550000Y-71450000D01*
X92500000Y-73750000D02*
X92500000Y-73850000D01*
X92550000Y-71450000D02*
X92800000Y-71700000D01*
X93700000Y-80400000D02*
X94250000Y-80950000D01*
X92850000Y-71850000D02*
X92850000Y-72600000D01*
X94350000Y-81000000D02*
X94400000Y-81000000D01*
X93650000Y-79550000D02*
X93650000Y-79600000D01*
X92850000Y-72600000D02*
X92450000Y-73000000D01*
X93200000Y-79100000D02*
X93650000Y-79550000D01*
X93700000Y-79650000D02*
X93700000Y-80400000D01*
X93950000Y-83500000D02*
X93950000Y-83700000D01*
X94500000Y-81150000D02*
X94500000Y-82900000D01*
X94450000Y-81050000D02*
X94450000Y-81100000D01*
X93950000Y-83700000D02*
X93650000Y-84000000D01*
X94250000Y-80950000D02*
X94300000Y-80950000D01*
X94500000Y-82900000D02*
X94000000Y-83400000D01*
X92450000Y-73000000D02*
X92300000Y-73150000D01*
X92300000Y-73150000D02*
X92300000Y-73250000D01*
X92800000Y-74150000D02*
X92800000Y-76150000D01*
X92250000Y-73500000D02*
X92500000Y-73750000D01*
X92800000Y-71700000D02*
X92800000Y-71800000D01*
X92850000Y-78700000D02*
X93200000Y-79050000D01*
X92850000Y-76200000D02*
X92850000Y-78700000D01*
%TO.N,EXT_GOOD*%
X101150000Y-100700000D02*
X101150000Y-96900000D01*
X101100000Y-100800000D02*
X101100000Y-100750000D01*
X103000000Y-82250000D02*
X103000000Y-95100000D01*
X95050000Y-124900000D02*
X93950000Y-126000000D01*
X98319320Y-118430680D02*
X98300000Y-118350000D01*
X102450000Y-95600000D02*
X102500000Y-95600000D01*
X98050000Y-118750000D02*
X95050000Y-121750000D01*
X103350000Y-81250000D02*
X103350000Y-81300000D01*
X98600000Y-117650000D02*
X98600000Y-114700000D01*
X98300000Y-118350000D02*
X98300000Y-118000000D01*
X103500000Y-78900000D02*
X103500000Y-79450000D01*
X103100000Y-82000000D02*
X103100000Y-82100000D01*
X98300000Y-118000000D02*
X98550000Y-117750000D01*
X103500000Y-79600000D02*
X103500000Y-79950000D01*
X99500000Y-102400000D02*
X101100000Y-100800000D01*
X98550000Y-117750000D02*
X98550000Y-117700000D01*
X103550000Y-80000000D02*
X103550000Y-80050000D01*
X103600000Y-80100000D02*
X103600000Y-80950000D01*
X103050000Y-82150000D02*
X103050000Y-82200000D01*
X102550000Y-95550000D02*
X103000000Y-95100000D01*
X103600000Y-80950000D02*
X103450000Y-81100000D01*
X95050000Y-121750000D02*
X95050000Y-124900000D01*
X103450000Y-79500000D02*
X103500000Y-79600000D01*
X103300000Y-81350000D02*
X103300000Y-81800000D01*
X103400000Y-81150000D02*
X103400000Y-81200000D01*
X101150000Y-96900000D02*
X102450000Y-95600000D01*
X98650000Y-103250000D02*
X99400000Y-102500000D01*
X99400000Y-102450000D02*
X99450000Y-102450000D01*
X98300000Y-118450000D02*
X98050000Y-118700000D01*
X103300000Y-81800000D02*
X103100000Y-82000000D01*
X98650000Y-114650000D02*
X98650000Y-103250000D01*
%TO.N,EXT_REQUEST*%
X86950000Y-60450000D02*
X86950000Y-60550000D01*
X87550000Y-61050000D02*
X87650000Y-61050000D01*
X87400000Y-61000000D02*
X87500000Y-61000000D01*
X86400000Y-78100000D02*
X86300000Y-78200000D01*
X86650000Y-60050000D02*
X86900000Y-60300000D01*
X86900000Y-60300000D02*
X86900000Y-60400000D01*
X85600000Y-81850000D02*
X85600000Y-81950000D01*
X85550000Y-82000000D02*
X85550000Y-82550000D01*
X86500000Y-73950000D02*
X86500000Y-77600000D01*
X87650000Y-61050000D02*
X88100000Y-61500000D01*
X86400000Y-77750000D02*
X86400000Y-78100000D01*
X86450000Y-77650000D02*
X86450000Y-77700000D01*
X86300000Y-81150000D02*
X85600000Y-81850000D01*
X88100000Y-61500000D02*
X88350000Y-61500000D01*
X86650000Y-59700000D02*
X86650000Y-60050000D01*
X86950000Y-60550000D02*
X87400000Y-61000000D01*
X86300000Y-78200000D02*
X86300000Y-78300000D01*
X86250000Y-78350000D02*
X86250000Y-78750000D01*
X85550000Y-82550000D02*
X85800000Y-82800000D01*
X86300000Y-78800000D02*
X86300000Y-81150000D01*
%TO.N,SD_BUS_DISABLE*%
X84950000Y-108300000D02*
X85100000Y-108450000D01*
X83950000Y-107000000D02*
X84150000Y-107200000D01*
X97750000Y-117000000D02*
X98250000Y-117500000D01*
X84750000Y-108050000D02*
X84950000Y-108250000D01*
X85400000Y-108900000D02*
X85550000Y-109050000D01*
X86700000Y-112450000D02*
X86700000Y-112550000D01*
X92750000Y-113000000D02*
X94100000Y-114350000D01*
X94900000Y-115000000D02*
X95450000Y-115000000D01*
X97150000Y-116500000D02*
X97600000Y-116950000D01*
X83650000Y-106600000D02*
X83800000Y-106750000D01*
X83000000Y-105750000D02*
X83150000Y-105900000D01*
X86700000Y-112550000D02*
X86950000Y-112800000D01*
X94150000Y-114350000D02*
X94750000Y-114950000D01*
X83800000Y-106800000D02*
X83950000Y-106950000D01*
X82350000Y-60000000D02*
X82300000Y-60050000D01*
X82250000Y-60050000D02*
X82150000Y-60150000D01*
X94750000Y-114950000D02*
X94850000Y-114950000D01*
X97000000Y-116400000D02*
X97100000Y-116500000D01*
X81200000Y-61200000D02*
X81200000Y-61250000D01*
X83150000Y-105950000D02*
X83350000Y-106150000D01*
X83250000Y-59300000D02*
X83200000Y-59300000D01*
X81150000Y-64150000D02*
X81050000Y-64150000D01*
X83350000Y-106200000D02*
X83500000Y-106350000D01*
X85550000Y-109100000D02*
X86650000Y-110200000D01*
X85250000Y-108700000D02*
X85400000Y-108850000D01*
X81150000Y-61300000D02*
X81200000Y-61250000D01*
X85100000Y-108500000D02*
X85250000Y-108650000D01*
X84450000Y-107650000D02*
X84600000Y-107800000D01*
X81050000Y-63650000D02*
X81050000Y-64150000D01*
X81050000Y-64150000D02*
X80850000Y-64350000D01*
X81150000Y-61300000D02*
X81150000Y-64150000D01*
X82100000Y-60200000D02*
X81250000Y-61050000D01*
X83200000Y-59250000D02*
X82500000Y-59950000D01*
X81150000Y-63575000D02*
X81050000Y-63650000D01*
X81950000Y-104500000D02*
X82100000Y-104650000D01*
X96850000Y-116400000D02*
X97000000Y-116400000D01*
X84150000Y-107250000D02*
X84300000Y-107400000D01*
X82850000Y-105550000D02*
X83000000Y-105700000D01*
X82850000Y-105450000D02*
X82850000Y-105550000D01*
X84600000Y-107850000D02*
X84750000Y-108000000D01*
X81250000Y-61100000D02*
X81250000Y-61150000D01*
X97650000Y-116950000D02*
X97700000Y-117000000D01*
X86950000Y-112800000D02*
X86950000Y-113250000D01*
X83500000Y-106400000D02*
X83650000Y-106550000D01*
X95450000Y-115000000D02*
X96850000Y-116400000D01*
X86650000Y-110200000D02*
X86650000Y-112400000D01*
X82100000Y-104700000D02*
X82850000Y-105450000D01*
X82500000Y-59950000D02*
X82400000Y-59950000D01*
X84300000Y-107450000D02*
X84450000Y-107600000D01*
X83650000Y-59250000D02*
X83300000Y-59250000D01*
%TO.N,RF_SUB_RF_SELECT*%
X114950000Y-79750000D02*
X114700000Y-79500000D01*
X114600000Y-75600000D02*
X114500000Y-75500000D01*
X114650000Y-78950000D02*
X114650000Y-78600000D01*
X114350000Y-73050000D02*
X114350000Y-69850000D01*
X114500000Y-73200000D02*
X114350000Y-73050000D01*
X114500000Y-75500000D02*
X114500000Y-73200000D01*
X115100000Y-79950000D02*
X114950000Y-79800000D01*
X114700000Y-79500000D02*
X114700000Y-79000000D01*
X114600000Y-78550000D02*
X114600000Y-75600000D01*
X114350000Y-69850000D02*
X113700000Y-69200000D01*
X115500000Y-80400000D02*
X115100000Y-80000000D01*
%TO.N,RF_NFC_CS_N*%
X88900000Y-81700000D02*
X88900000Y-82000000D01*
X89800000Y-81100000D02*
X89450000Y-81450000D01*
X88950000Y-81600000D02*
X88950000Y-81650000D01*
X90150000Y-81050000D02*
X89900000Y-81050000D01*
X88900000Y-82000000D02*
X88300000Y-82600000D01*
X92300000Y-79750000D02*
X91500000Y-79750000D01*
X89100000Y-81500000D02*
X89050000Y-81500000D01*
X89450000Y-81450000D02*
X89150000Y-81450000D01*
X92750000Y-79300000D02*
X92300000Y-79750000D01*
X91400000Y-79800000D02*
X90150000Y-81050000D01*
X89850000Y-81100000D02*
X89800000Y-81100000D01*
X91450000Y-79800000D02*
X91400000Y-79800000D01*
X89050000Y-81500000D02*
X88950000Y-81600000D01*
%TO.N,SD_MISO_DISABLE*%
X96350000Y-118150000D02*
X96550000Y-118150000D01*
X92100000Y-113950000D02*
X92200000Y-114050000D01*
X89700000Y-111950000D02*
X89800000Y-111950000D01*
X91900000Y-113950000D02*
X92100000Y-113950000D01*
X90300000Y-112400000D02*
X91800000Y-113900000D01*
X96550000Y-118150000D02*
X96750000Y-118350000D01*
X91800000Y-113900000D02*
X91850000Y-113900000D01*
X96750000Y-118350000D02*
X97650000Y-118350000D01*
X92250000Y-114050000D02*
X96350000Y-118150000D01*
X89800000Y-111950000D02*
X90250000Y-112400000D01*
%TO.N,SD_QOD*%
X89550000Y-66750000D02*
X89550000Y-69600000D01*
X89400000Y-66600000D02*
X89450000Y-66600000D01*
X86850000Y-67400000D02*
X87800000Y-67400000D01*
X89500000Y-66650000D02*
X89500000Y-66700000D01*
X87800000Y-67400000D02*
X88400000Y-66800000D01*
X88800000Y-66750000D02*
X88950000Y-66600000D01*
X88400000Y-66800000D02*
X88450000Y-66800000D01*
X89050000Y-66550000D02*
X89350000Y-66550000D01*
X88500000Y-66750000D02*
X88800000Y-66750000D01*
X88950000Y-66600000D02*
X89000000Y-66600000D01*
%TO.N,LF_POWER_ON*%
X84850000Y-72950000D02*
X84850000Y-73050000D01*
X85050000Y-73450000D02*
X85050000Y-74550000D01*
X84400000Y-69950000D02*
X84800000Y-70350000D01*
X84350000Y-69750000D02*
X84350000Y-69850000D01*
X84900000Y-73100000D02*
X84900000Y-73300000D01*
X84800000Y-70350000D02*
X84800000Y-72900000D01*
X85150000Y-74650000D02*
X85150000Y-74700000D01*
X84900000Y-73300000D02*
X85050000Y-73450000D01*
X85050000Y-74550000D02*
X85150000Y-74650000D01*
X85200000Y-74750000D02*
X85200000Y-81000000D01*
X84150000Y-69550000D02*
X84350000Y-69750000D01*
X84400000Y-69900000D02*
X84400000Y-69950000D01*
%TO.N,LF5*%
D14*
X91450000Y-93200000D02*
X91650000Y-93400000D01*
X91650000Y-93400000D02*
X91650000Y-95000000D01*
X94900000Y-89900000D02*
X94900000Y-89600000D01*
X94850000Y-89950000D02*
X94900000Y-89900000D01*
X91450000Y-93150000D02*
X91450000Y-93200000D01*
X94950000Y-89550000D02*
X94950000Y-88750000D01*
X91650000Y-95000000D02*
X91500000Y-95150000D01*
X94900000Y-89600000D02*
X94950000Y-89550000D01*
%TO.N,AUX_PROBE_ALLOWED*%
D15*
X89350000Y-78150000D02*
X89300000Y-78100000D01*
X103000000Y-71250000D02*
X103350000Y-70900000D01*
X102900000Y-71250000D02*
X103000000Y-71250000D01*
X88500000Y-77250000D02*
X88500000Y-76550000D01*
X104500000Y-73250000D02*
X102450000Y-71200000D01*
X90050000Y-78900000D02*
X89350000Y-78200000D01*
X90900000Y-78850000D02*
X90800000Y-78850000D01*
X105800000Y-73000000D02*
X105750000Y-73050000D01*
X88250000Y-76300000D02*
X88100000Y-76300000D01*
X102750000Y-71200000D02*
X102850000Y-71200000D01*
X92100000Y-77650000D02*
X90900000Y-78850000D01*
X88450000Y-76450000D02*
X88350000Y-76350000D01*
X88450000Y-76500000D02*
X88450000Y-76450000D01*
X105650000Y-73200000D02*
X105600000Y-73200000D01*
X90750000Y-78900000D02*
X90050000Y-78900000D01*
X102500000Y-71150000D02*
X102700000Y-71150000D01*
X89300000Y-78050000D02*
X88500000Y-77250000D01*
X105750000Y-73100000D02*
X105650000Y-73200000D01*
X105550000Y-73250000D02*
X104500000Y-73250000D01*
X88350000Y-76350000D02*
X88300000Y-76350000D01*
%TO.N,EXT_LOAD_ENABLE*%
X106600000Y-131800000D02*
X108400000Y-133600000D01*
X107500000Y-127950000D02*
X107500000Y-129750000D01*
X106450000Y-130800000D02*
X106450000Y-130900000D01*
X107500000Y-129750000D02*
X106450000Y-130800000D01*
X106400000Y-131200000D02*
X106600000Y-131400000D01*
X108650000Y-133850000D02*
X109250000Y-134450000D01*
X106600000Y-131400000D02*
X106600000Y-131800000D01*
X106400000Y-130950000D02*
X106400000Y-131200000D01*
X108400000Y-133600000D02*
X108400000Y-133700000D01*
X108550000Y-133850000D02*
X108650000Y-133850000D01*
X108400000Y-133700000D02*
X108550000Y-133850000D01*
%TO.N,TARGET_POWER_FAULT_N*%
X114950000Y-96550000D02*
X117100000Y-96550000D01*
%TO.N,PLUG_CSI_RX*%
X106450000Y-120000000D02*
X110550000Y-120000000D01*
X110550000Y-120000000D02*
X110800000Y-119750000D01*
%TO.N,PLUG_CSI_IRQ*%
X114150000Y-124000000D02*
X115200000Y-125050000D01*
%TO.N,LF_AVDD*%
X93200000Y-96800000D02*
X93500000Y-96800000D01*
X87250000Y-98150000D02*
X87300000Y-98100000D01*
X86400000Y-100450000D02*
X86450000Y-100500000D01*
X86850000Y-100200000D02*
X86900000Y-100150000D01*
X96800000Y-93450000D02*
X96800000Y-86300000D01*
X93000000Y-97000000D02*
X93200000Y-96800000D01*
X94250000Y-96150000D02*
X94700000Y-95700000D01*
X86100000Y-100150000D02*
X86150000Y-100200000D01*
X84800000Y-98550000D02*
X84900000Y-98550000D01*
X86900000Y-98600000D02*
X87250000Y-98250000D01*
X86900000Y-100150000D02*
X86900000Y-98600000D01*
X84000000Y-98000000D02*
X84250000Y-98000000D01*
X94150000Y-96150000D02*
X94250000Y-96150000D01*
X84250000Y-98000000D02*
X84800000Y-98550000D01*
X94700000Y-95700000D02*
X94750000Y-95700000D01*
X86150000Y-100200000D02*
X86150000Y-100300000D01*
X86450000Y-100500000D02*
X86650000Y-100500000D01*
X84900000Y-98550000D02*
X84950000Y-98600000D01*
X96250000Y-94400000D02*
X96250000Y-94050000D01*
X96250000Y-94050000D02*
X96750000Y-93550000D01*
X96800000Y-86300000D02*
X96950000Y-86150000D01*
X96750000Y-93550000D02*
X96750000Y-93500000D01*
X87300000Y-98000000D02*
X87800000Y-97500000D01*
X86650000Y-100500000D02*
X86850000Y-100300000D01*
X87300000Y-98100000D02*
X87300000Y-98000000D01*
X84950000Y-98600000D02*
X85200000Y-98600000D01*
X96750000Y-93500000D02*
X96800000Y-93450000D01*
X83900000Y-97900000D02*
X84000000Y-98000000D01*
X86300000Y-100450000D02*
X86400000Y-100450000D01*
X87250000Y-98250000D02*
X87250000Y-98150000D01*
X86100000Y-99500000D02*
X86100000Y-100150000D01*
X86150000Y-100300000D02*
X86300000Y-100450000D01*
X93500000Y-96800000D02*
X94150000Y-96150000D01*
X85200000Y-98600000D02*
X86100000Y-99500000D01*
X86850000Y-100300000D02*
X86850000Y-100200000D01*
%TO.N,LF_F1_NODE*%
X85450000Y-94850000D02*
X85900000Y-94850000D01*
X84850000Y-95000000D02*
X85100000Y-95000000D01*
X87150000Y-94750000D02*
X87550000Y-95150000D01*
X88550000Y-92900000D02*
X88550000Y-89800000D01*
X88800000Y-89550000D02*
X90300000Y-89550000D01*
X85200000Y-94900000D02*
X85400000Y-94900000D01*
X88050000Y-95450000D02*
X88250000Y-95250000D01*
X87550000Y-95200000D02*
X87600000Y-95250000D01*
X87800000Y-95450000D02*
X88050000Y-95450000D01*
X85100000Y-95000000D02*
X85200000Y-94900000D01*
X86900000Y-94750000D02*
X87150000Y-94750000D01*
X83200000Y-95850000D02*
X83300000Y-95750000D01*
X90300000Y-89550000D02*
X90850000Y-89000000D01*
X88700000Y-89600000D02*
X88750000Y-89600000D01*
X88350000Y-93100000D02*
X88550000Y-92900000D01*
X84400000Y-95400000D02*
X84700000Y-95100000D01*
X88600000Y-89750000D02*
X88600000Y-89700000D01*
X83700000Y-95400000D02*
X84400000Y-95400000D01*
X88350000Y-93150000D02*
X88350000Y-93100000D01*
X87700000Y-95400000D02*
X87750000Y-95400000D01*
X88300000Y-93400000D02*
X88300000Y-93200000D01*
X84750000Y-95100000D02*
X84850000Y-95000000D01*
X83350000Y-95750000D02*
X83700000Y-95400000D01*
X88600000Y-89700000D02*
X88700000Y-89600000D01*
X85950000Y-94800000D02*
X86850000Y-94800000D01*
X87600000Y-95300000D02*
X87700000Y-95400000D01*
X88250000Y-95250000D02*
X88250000Y-93450000D01*
%TO.N,TOOLS_BUS_DISABLE*%
X99600000Y-81350000D02*
X99600000Y-81650000D01*
X100550000Y-86450000D02*
X100550000Y-89600000D01*
X98350000Y-78800000D02*
X98500000Y-78950000D01*
X99350000Y-80750000D02*
X99350000Y-81000000D01*
X100550000Y-89600000D02*
X101400000Y-90450000D01*
X104550000Y-103300000D02*
X105850000Y-104600000D01*
X99600000Y-81650000D02*
X100300000Y-82350000D01*
X98550000Y-79100000D02*
X98550000Y-79250000D01*
X99450000Y-81100000D02*
X99450000Y-81200000D01*
X99050000Y-80050000D02*
X99150000Y-80150000D01*
X104150000Y-95550000D02*
X104150000Y-95950000D01*
X104550000Y-97450000D02*
X104550000Y-103300000D01*
X98700000Y-79550000D02*
X98850000Y-79700000D01*
X100300000Y-82350000D02*
X100300000Y-82450000D01*
X98200000Y-78550000D02*
X98300000Y-78650000D01*
X104500000Y-96950000D02*
X104500000Y-97400000D01*
X98850000Y-79750000D02*
X99050000Y-79950000D01*
X99150000Y-80150000D02*
X99150000Y-80550000D01*
X99050000Y-79950000D02*
X99050000Y-80050000D01*
X104400000Y-96200000D02*
X104400000Y-96300000D01*
X98500000Y-78950000D02*
X98500000Y-79050000D01*
X98650000Y-79350000D02*
X98650000Y-79450000D01*
X104450000Y-96350000D02*
X104450000Y-96900000D01*
X100350000Y-82500000D02*
X100350000Y-86250000D01*
X99150000Y-80550000D02*
X99350000Y-80750000D01*
X104150000Y-95950000D02*
X104400000Y-96200000D01*
X99350000Y-81000000D02*
X99450000Y-81100000D01*
X99450000Y-81200000D02*
X99600000Y-81350000D01*
X98300000Y-78700000D02*
X98350000Y-78750000D01*
X98550000Y-79250000D02*
X98650000Y-79350000D01*
X100350000Y-86250000D02*
X100550000Y-86450000D01*
X105850000Y-104600000D02*
X106150000Y-104600000D01*
X98700000Y-79500000D02*
X98700000Y-79550000D01*
%TO.N,PROBE_IO_ENABLED*%
X107050000Y-130750000D02*
X106800000Y-131000000D01*
X112050000Y-130750000D02*
X107050000Y-130750000D01*
%TO.N,PROBE_BUS_DISABLE*%
X105850000Y-127400000D02*
X105850000Y-127300000D01*
X104850000Y-130500000D02*
X105150000Y-130200000D01*
X105600000Y-128650000D02*
X105600000Y-127650000D01*
X105150000Y-130150000D02*
X105400000Y-129900000D01*
X105600000Y-127650000D02*
X105850000Y-127400000D01*
X105450000Y-129250000D02*
X105450000Y-128900000D01*
X104850000Y-131000000D02*
X104850000Y-130500000D01*
X104750000Y-122700000D02*
X103550000Y-121500000D01*
X104750000Y-123300000D02*
X104750000Y-122700000D01*
X105150000Y-125650000D02*
X104800000Y-125300000D01*
X105550000Y-128800000D02*
X105550000Y-128700000D01*
X105400000Y-129900000D02*
X105400000Y-129300000D01*
X105900000Y-127250000D02*
X105900000Y-126450000D01*
X104800000Y-125300000D02*
X104800000Y-123350000D01*
X105450000Y-128900000D02*
X105550000Y-128800000D01*
X105900000Y-126450000D02*
X105150000Y-125700000D01*
%TO.N,EXT_TARGET_MISO*%
X113250000Y-97400000D02*
X113350000Y-97400000D01*
X112500000Y-97600000D02*
X113050000Y-97600000D01*
X106350000Y-97100000D02*
X106750000Y-97100000D01*
X112350000Y-97550000D02*
X112450000Y-97550000D01*
X107000000Y-97350000D02*
X107800000Y-97350000D01*
X113400000Y-97350000D02*
X113900000Y-97350000D01*
X106750000Y-97100000D02*
X107000000Y-97350000D01*
X113050000Y-97600000D02*
X113250000Y-97400000D01*
X112200000Y-97400000D02*
X112350000Y-97550000D01*
X107850000Y-97400000D02*
X112200000Y-97400000D01*
%TO.N,AUX_VGOOD_N*%
X85250000Y-137350000D02*
X87350000Y-139450000D01*
X87650000Y-139450000D02*
X87750000Y-139450000D01*
X87950000Y-139150000D02*
X87950000Y-138050000D01*
X88200000Y-136950000D02*
X89000000Y-136150000D01*
X88200000Y-137800000D02*
X88200000Y-136950000D01*
X82950000Y-136900000D02*
X82950000Y-137000000D01*
X87350000Y-139450000D02*
X87450000Y-139450000D01*
X83000000Y-137150000D02*
X83150000Y-137300000D01*
X87500000Y-139500000D02*
X87600000Y-139500000D01*
X83300000Y-137350000D02*
X85250000Y-137350000D01*
X82700000Y-136250000D02*
X82700000Y-136350000D01*
X87950000Y-138050000D02*
X88200000Y-137800000D01*
X82750000Y-135300000D02*
X82750000Y-136200000D01*
X87750000Y-139450000D02*
X87900000Y-139300000D01*
X83000000Y-137050000D02*
X83000000Y-137150000D01*
X82650000Y-136400000D02*
X82650000Y-136500000D01*
X87900000Y-139300000D02*
X87900000Y-139200000D01*
X82700000Y-136550000D02*
X82700000Y-136650000D01*
X83150000Y-137300000D02*
X83250000Y-137300000D01*
X89000000Y-136100000D02*
X89150000Y-135950000D01*
X82700000Y-136650000D02*
X82950000Y-136900000D01*
X89150000Y-135950000D02*
X89150000Y-135100000D01*
%TO.N,LF_AC*%
X90850000Y-93650000D02*
X90850000Y-92850000D01*
X91100000Y-92550000D02*
X91100000Y-92100000D01*
X91750000Y-87500000D02*
X91450000Y-87200000D01*
X91250000Y-94100000D02*
X90900000Y-93750000D01*
X87400000Y-94300000D02*
X87400000Y-94450000D01*
X86250000Y-92950000D02*
X86300000Y-92950000D01*
X87400000Y-94450000D02*
X87900000Y-94950000D01*
X91550000Y-91750000D02*
X91600000Y-91750000D01*
X91100000Y-92100000D02*
X91400000Y-91800000D01*
X91250000Y-94400000D02*
X91250000Y-94100000D01*
X91750000Y-91550000D02*
X91750000Y-87500000D01*
X91400000Y-91800000D02*
X91500000Y-91800000D01*
X86350000Y-93000000D02*
X86850000Y-93000000D01*
X90850000Y-92850000D02*
X91050000Y-92650000D01*
X91600000Y-91750000D02*
X91700000Y-91650000D01*
X85200000Y-92850000D02*
X85250000Y-92850000D01*
X87000000Y-93050000D02*
X87350000Y-93400000D01*
X86900000Y-93050000D02*
X87000000Y-93050000D01*
X90900000Y-93750000D02*
X90900000Y-93700000D01*
X87350000Y-93400000D02*
X87350000Y-94250000D01*
X91700000Y-91650000D02*
X91700000Y-91600000D01*
X83800000Y-91450000D02*
X85200000Y-92850000D01*
X85300000Y-92900000D02*
X86200000Y-92900000D01*
X91050000Y-92650000D02*
X91050000Y-92600000D01*
%TO.N,LF_MID*%
X86700000Y-93300000D02*
X86750000Y-93300000D01*
X86450000Y-93250000D02*
X86650000Y-93250000D01*
X83050000Y-92850000D02*
X83500000Y-92850000D01*
X83950000Y-93250000D02*
X84000000Y-93250000D01*
X83750000Y-93050000D02*
X83950000Y-93250000D01*
X84050000Y-93300000D02*
X86400000Y-93300000D01*
X83500000Y-92850000D02*
X83700000Y-93050000D01*
X86750000Y-93300000D02*
X87000000Y-93550000D01*
%TO.N,LF_F2_NODE*%
X82150000Y-100100000D02*
X81600000Y-100650000D01*
X82450000Y-100100000D02*
X82150000Y-100100000D01*
%TO.N,LF_DRIVER_GATE*%
X94050000Y-92200000D02*
X94050000Y-92100000D01*
X93650000Y-92600000D02*
X94050000Y-92200000D01*
X93500000Y-92850000D02*
X93650000Y-92700000D01*
X92300000Y-88950000D02*
X92300000Y-89600000D01*
X93050000Y-92900000D02*
X93350000Y-92900000D01*
X94100000Y-90400000D02*
X94300000Y-90200000D01*
X92600000Y-92950000D02*
X92700000Y-92950000D01*
X94300000Y-90200000D02*
X94400000Y-90300000D01*
X93650000Y-92700000D02*
X93650000Y-92600000D01*
X93400000Y-92850000D02*
X93500000Y-92850000D01*
X94300000Y-90200000D02*
X94300000Y-90100000D01*
X94300000Y-88750000D02*
X94300000Y-88100000D01*
X95000000Y-90250000D02*
X95150000Y-90250000D01*
X94100000Y-92050000D02*
X94100000Y-90400000D01*
X92900000Y-92950000D02*
X93000000Y-92950000D01*
X92350000Y-89650000D02*
X92350000Y-92700000D01*
X94400000Y-90300000D02*
X94950000Y-90300000D01*
X95150000Y-90250000D02*
X95400000Y-90000000D01*
X94350000Y-90050000D02*
X94350000Y-88800000D01*
X92750000Y-93000000D02*
X92850000Y-93000000D01*
X92350000Y-92700000D02*
X92600000Y-92950000D01*
%TO.N,LF_P_DRAIN*%
X93450000Y-99400000D02*
X93150000Y-99700000D01*
X93150000Y-99700000D02*
X93050000Y-99700000D01*
X96550000Y-97250000D02*
X96400000Y-97400000D01*
X94750000Y-98450000D02*
X94550000Y-98450000D01*
X93050000Y-99700000D02*
X92900000Y-99850000D01*
X95600000Y-97750000D02*
X95500000Y-97850000D01*
X94400000Y-98500000D02*
X93500000Y-99400000D01*
X97100000Y-97000000D02*
X96850000Y-97000000D01*
X96850000Y-97000000D02*
X96600000Y-97250000D01*
X95800000Y-97700000D02*
X95750000Y-97700000D01*
X96150000Y-97550000D02*
X96050000Y-97650000D01*
X94500000Y-98500000D02*
X94400000Y-98500000D01*
X95700000Y-97750000D02*
X95600000Y-97750000D01*
X95350000Y-97900000D02*
X95200000Y-98050000D01*
X92900000Y-99900000D02*
X89350000Y-103450000D01*
X95150000Y-98050000D02*
X94750000Y-98450000D01*
X95450000Y-97850000D02*
X95400000Y-97900000D01*
X96350000Y-97400000D02*
X96200000Y-97550000D01*
X96050000Y-97650000D02*
X95850000Y-97650000D01*
%TO.N,LF_DRIVE_GATED*%
X99200000Y-83750000D02*
X99550000Y-83400000D01*
X99200000Y-90650000D02*
X99200000Y-83750000D01*
X99400000Y-90850000D02*
X99350000Y-90800000D01*
X99350000Y-90800000D02*
X99300000Y-90800000D01*
X99250000Y-90750000D02*
X99250000Y-90700000D01*
%TO.N,LF_FILTER2*%
X85450000Y-94250000D02*
X84900000Y-94250000D01*
X86000000Y-93850000D02*
X85950000Y-93900000D01*
X86550000Y-93600000D02*
X86300000Y-93600000D01*
X84900000Y-94250000D02*
X84800000Y-94350000D01*
X86300000Y-93600000D02*
X86050000Y-93850000D01*
X84800000Y-94350000D02*
X83600000Y-94350000D01*
X85550000Y-94150000D02*
X85450000Y-94250000D01*
X83600000Y-94350000D02*
X83200000Y-94750000D01*
X85650000Y-94100000D02*
X85600000Y-94150000D01*
X85900000Y-93900000D02*
X85700000Y-94100000D01*
%TO.N,LF_N_DRAIN*%
X92350000Y-87100000D02*
X92350000Y-88450000D01*
X92350000Y-88450000D02*
X92700000Y-88800000D01*
X92150000Y-83700000D02*
X92150000Y-84250000D01*
X92250000Y-84450000D02*
X92250000Y-86900000D01*
X92050000Y-83050000D02*
X92050000Y-83150000D01*
X92700000Y-88800000D02*
X92700000Y-91200000D01*
X92100000Y-83200000D02*
X92100000Y-83650000D01*
X92200000Y-84300000D02*
X92200000Y-84400000D01*
X91800000Y-82800000D02*
X92050000Y-83050000D01*
X92300000Y-86950000D02*
X92300000Y-87050000D01*
X92750000Y-91250000D02*
X92750000Y-92050000D01*
%TO.N,EXT_TARGET_CS_N*%
X106350000Y-98400000D02*
X106850000Y-98400000D01*
X106850000Y-98400000D02*
X107000000Y-98550000D01*
X112600000Y-98700000D02*
X112700000Y-98800000D01*
X107000000Y-98550000D02*
X107450000Y-98550000D01*
X108650000Y-98650000D02*
X108750000Y-98650000D01*
X108800000Y-98700000D02*
X112600000Y-98700000D01*
X113650000Y-98800000D02*
X113750000Y-98900000D01*
X107500000Y-98600000D02*
X108600000Y-98600000D01*
X112700000Y-98800000D02*
X113650000Y-98800000D01*
X113750000Y-98900000D02*
X113850000Y-98900000D01*
%TO.N,LF_LOAD_GATE*%
X101850000Y-95350000D02*
X101850000Y-95300000D01*
X101250000Y-95950000D02*
X101850000Y-95350000D01*
X89800000Y-98150000D02*
X90250000Y-98150000D01*
X102250000Y-90250000D02*
X102250000Y-87500000D01*
X101900000Y-94600000D02*
X102300000Y-94200000D01*
X102300000Y-94200000D02*
X102300000Y-94150000D01*
X102350000Y-94100000D02*
X102350000Y-90350000D01*
X90250000Y-98150000D02*
X91250000Y-97150000D01*
X102350000Y-90350000D02*
X102250000Y-90250000D01*
X101900000Y-95250000D02*
X101900000Y-94600000D01*
%TO.N,EXT_TARGET_SCL*%
X104950000Y-101600000D02*
X104950000Y-102450000D01*
X106250000Y-100300000D02*
X104950000Y-101600000D01*
%TD*%
M02*
