%TF.GenerationSoftware,KiCad,Pcbnew,10.0.6*%
%TF.CreationDate,2026-09-10T10:45:21+08:00*%
%TF.ProjectId,FD-MAIN-01,46442d4d-4149-44e2-9d30-312e6b696361,K / eight-layer engineering review*%
%TF.SameCoordinates,Original*%
%TF.FileFunction,Legend,Top*%
%TF.FilePolarity,Positive*%
%FSLAX46Y46*%
G04 Gerber Fmt 4.6, Leading zero omitted, Abs format (unit mm)*
G04 Created by KiCad (PCBNEW 10.0.6) date 2026-09-10 10:45:21*
%MOMM*%
%LPD*%
G01*
G04 APERTURE LIST*
%ADD10C,0.150000*%
%ADD11C,0.120000*%
G04 APERTURE END LIST*
D10*
X108333333Y-119731009D02*
X108000000Y-119731009D01*
X108000000Y-120254819D02*
X108000000Y-119254819D01*
X108000000Y-119254819D02*
X108476190Y-119254819D01*
X109285714Y-120254819D02*
X109285714Y-119731009D01*
X109285714Y-119731009D02*
X109238095Y-119635771D01*
X109238095Y-119635771D02*
X109142857Y-119588152D01*
X109142857Y-119588152D02*
X108952381Y-119588152D01*
X108952381Y-119588152D02*
X108857143Y-119635771D01*
X109285714Y-120207200D02*
X109190476Y-120254819D01*
X109190476Y-120254819D02*
X108952381Y-120254819D01*
X108952381Y-120254819D02*
X108857143Y-120207200D01*
X108857143Y-120207200D02*
X108809524Y-120111961D01*
X108809524Y-120111961D02*
X108809524Y-120016723D01*
X108809524Y-120016723D02*
X108857143Y-119921485D01*
X108857143Y-119921485D02*
X108952381Y-119873866D01*
X108952381Y-119873866D02*
X109190476Y-119873866D01*
X109190476Y-119873866D02*
X109285714Y-119826247D01*
X109761905Y-120254819D02*
X109761905Y-119588152D01*
X109761905Y-119254819D02*
X109714286Y-119302438D01*
X109714286Y-119302438D02*
X109761905Y-119350057D01*
X109761905Y-119350057D02*
X109809524Y-119302438D01*
X109809524Y-119302438D02*
X109761905Y-119254819D01*
X109761905Y-119254819D02*
X109761905Y-119350057D01*
X110238095Y-120254819D02*
X110238095Y-119588152D01*
X110238095Y-119778628D02*
X110285714Y-119683390D01*
X110285714Y-119683390D02*
X110333333Y-119635771D01*
X110333333Y-119635771D02*
X110428571Y-119588152D01*
X110428571Y-119588152D02*
X110523809Y-119588152D01*
X111285714Y-120254819D02*
X111285714Y-119731009D01*
X111285714Y-119731009D02*
X111238095Y-119635771D01*
X111238095Y-119635771D02*
X111142857Y-119588152D01*
X111142857Y-119588152D02*
X110952381Y-119588152D01*
X110952381Y-119588152D02*
X110857143Y-119635771D01*
X111285714Y-120207200D02*
X111190476Y-120254819D01*
X111190476Y-120254819D02*
X110952381Y-120254819D01*
X110952381Y-120254819D02*
X110857143Y-120207200D01*
X110857143Y-120207200D02*
X110809524Y-120111961D01*
X110809524Y-120111961D02*
X110809524Y-120016723D01*
X110809524Y-120016723D02*
X110857143Y-119921485D01*
X110857143Y-119921485D02*
X110952381Y-119873866D01*
X110952381Y-119873866D02*
X111190476Y-119873866D01*
X111190476Y-119873866D02*
X111285714Y-119826247D01*
X111761905Y-119588152D02*
X111761905Y-120254819D01*
X111761905Y-119683390D02*
X111809524Y-119635771D01*
X111809524Y-119635771D02*
X111904762Y-119588152D01*
X111904762Y-119588152D02*
X112047619Y-119588152D01*
X112047619Y-119588152D02*
X112142857Y-119635771D01*
X112142857Y-119635771D02*
X112190476Y-119731009D01*
X112190476Y-119731009D02*
X112190476Y-120254819D01*
X112666667Y-120254819D02*
X112666667Y-119254819D01*
X112761905Y-119873866D02*
X113047619Y-120254819D01*
X113047619Y-119588152D02*
X112666667Y-119969104D01*
X108071428Y-121231009D02*
X107738095Y-121231009D01*
X107738095Y-121754819D02*
X107738095Y-120754819D01*
X107738095Y-120754819D02*
X108214285Y-120754819D01*
X108595238Y-121754819D02*
X108595238Y-120754819D01*
X108595238Y-120754819D02*
X108833333Y-120754819D01*
X108833333Y-120754819D02*
X108976190Y-120802438D01*
X108976190Y-120802438D02*
X109071428Y-120897676D01*
X109071428Y-120897676D02*
X109119047Y-120992914D01*
X109119047Y-120992914D02*
X109166666Y-121183390D01*
X109166666Y-121183390D02*
X109166666Y-121326247D01*
X109166666Y-121326247D02*
X109119047Y-121516723D01*
X109119047Y-121516723D02*
X109071428Y-121611961D01*
X109071428Y-121611961D02*
X108976190Y-121707200D01*
X108976190Y-121707200D02*
X108833333Y-121754819D01*
X108833333Y-121754819D02*
X108595238Y-121754819D01*
X109785714Y-120754819D02*
X109880952Y-120754819D01*
X109880952Y-120754819D02*
X109976190Y-120802438D01*
X109976190Y-120802438D02*
X110023809Y-120850057D01*
X110023809Y-120850057D02*
X110071428Y-120945295D01*
X110071428Y-120945295D02*
X110119047Y-121135771D01*
X110119047Y-121135771D02*
X110119047Y-121373866D01*
X110119047Y-121373866D02*
X110071428Y-121564342D01*
X110071428Y-121564342D02*
X110023809Y-121659580D01*
X110023809Y-121659580D02*
X109976190Y-121707200D01*
X109976190Y-121707200D02*
X109880952Y-121754819D01*
X109880952Y-121754819D02*
X109785714Y-121754819D01*
X109785714Y-121754819D02*
X109690476Y-121707200D01*
X109690476Y-121707200D02*
X109642857Y-121659580D01*
X109642857Y-121659580D02*
X109595238Y-121564342D01*
X109595238Y-121564342D02*
X109547619Y-121373866D01*
X109547619Y-121373866D02*
X109547619Y-121135771D01*
X109547619Y-121135771D02*
X109595238Y-120945295D01*
X109595238Y-120945295D02*
X109642857Y-120850057D01*
X109642857Y-120850057D02*
X109690476Y-120802438D01*
X109690476Y-120802438D02*
X109785714Y-120754819D01*
X111071428Y-121754819D02*
X110500000Y-121754819D01*
X110785714Y-121754819D02*
X110785714Y-120754819D01*
X110785714Y-120754819D02*
X110690476Y-120897676D01*
X110690476Y-120897676D02*
X110595238Y-120992914D01*
X110595238Y-120992914D02*
X110500000Y-121040533D01*
X111500000Y-121373866D02*
X112261905Y-121373866D01*
X112738095Y-121754819D02*
X112738095Y-120754819D01*
X113309523Y-121754819D02*
X112880952Y-121183390D01*
X113309523Y-120754819D02*
X112738095Y-121326247D01*
%TO.C,C202*%
D11*
X99538748Y-136265000D02*
X100061252Y-136265000D01*
X99538748Y-137735000D02*
X100061252Y-137735000D01*
%TO.C,J102*%
X107830000Y-144400000D02*
X107830000Y-142700000D01*
X117170000Y-144400000D02*
X117170000Y-142700000D01*
%TO.C,J301*%
X80715000Y-109955000D02*
X80715000Y-111815000D01*
X80715000Y-109955000D02*
X80915000Y-109755000D01*
X80715000Y-111815000D02*
X80915000Y-112025000D01*
X80715000Y-118905000D02*
X81065000Y-118395000D01*
X80715000Y-121215000D02*
X80715000Y-118905000D01*
X80715000Y-121215000D02*
X80915000Y-121415000D01*
X80915000Y-121415000D02*
X80915000Y-121675000D01*
X81065000Y-112025000D02*
X80915000Y-112025000D01*
X81065000Y-112025000D02*
X81065000Y-118395000D01*
X85675000Y-108925000D02*
X83875000Y-108925000D01*
X91675000Y-108925000D02*
X86975000Y-108925000D01*
X96985000Y-108925000D02*
X93375000Y-108925000D01*
X96985000Y-109375000D02*
X96985000Y-108925000D01*
X96985000Y-120975000D02*
X96985000Y-122895000D01*
X96985000Y-122895000D02*
X82975000Y-122895000D01*
%TO.C,TP6*%
X100700000Y-126000000D02*
G75*
G02*
X99300000Y-126000000I-700000J0D01*
G01*
X99300000Y-126000000D02*
G75*
G02*
X100700000Y-126000000I700000J0D01*
G01*
%TO.C,C510*%
X87640000Y-89407836D02*
X87640000Y-89192164D01*
X88360000Y-89407836D02*
X88360000Y-89192164D01*
%TO.C,R115*%
X89346359Y-138120000D02*
X89653641Y-138120000D01*
X89346359Y-138880000D02*
X89653641Y-138880000D01*
%TO.C,C527*%
X94359420Y-98490000D02*
X94640580Y-98490000D01*
X94359420Y-99510000D02*
X94640580Y-99510000D01*
%TO.C,R155*%
X117846359Y-135620000D02*
X118153641Y-135620000D01*
X117846359Y-136380000D02*
X118153641Y-136380000D01*
%TO.C,C513*%
X92040000Y-83007836D02*
X92040000Y-82792164D01*
X92760000Y-83007836D02*
X92760000Y-82792164D01*
%TO.C,C434*%
X108392164Y-67790000D02*
X108607836Y-67790000D01*
X108392164Y-68510000D02*
X108607836Y-68510000D01*
%TO.C,R1*%
X98477500Y-60737258D02*
X98477500Y-60262742D01*
X99522500Y-60737258D02*
X99522500Y-60262742D01*
%TO.C,R12*%
X97262742Y-65977500D02*
X97737258Y-65977500D01*
X97262742Y-67022500D02*
X97737258Y-67022500D01*
%TO.C,R158*%
X111346359Y-134620000D02*
X111653641Y-134620000D01*
X111346359Y-135380000D02*
X111653641Y-135380000D01*
%TO.C,D101*%
X86850000Y-138450000D02*
X87050000Y-138450000D01*
X86850000Y-139000000D02*
X86850000Y-138450000D01*
X88150000Y-138450000D02*
X87950000Y-138450000D01*
X88150000Y-139000000D02*
X88150000Y-138450000D01*
X86740000Y-139430000D02*
X86740000Y-139710000D01*
X86460000Y-139430000D01*
X86740000Y-139430000D01*
G36*
X86740000Y-139710000D02*
G01*
X86460000Y-139430000D01*
X86740000Y-139430000D01*
X86740000Y-139710000D01*
G37*
%TO.C,C5*%
X86359420Y-73490000D02*
X86640580Y-73490000D01*
X86359420Y-74510000D02*
X86640580Y-74510000D01*
%TO.C,R720*%
X100620000Y-63153641D02*
X100620000Y-62846359D01*
X101380000Y-63153641D02*
X101380000Y-62846359D01*
%TO.C,R430*%
X108346359Y-61120000D02*
X108653641Y-61120000D01*
X108346359Y-61880000D02*
X108653641Y-61880000D01*
%TO.C,C531*%
X95790000Y-96459420D02*
X95790000Y-96740580D01*
X96810000Y-96459420D02*
X96810000Y-96740580D01*
%TO.C,D150*%
X108950000Y-137850000D02*
X108950000Y-138050000D01*
X108950000Y-139150000D02*
X108950000Y-138950000D01*
X109500000Y-137850000D02*
X108950000Y-137850000D01*
X109500000Y-139150000D02*
X108950000Y-139150000D01*
X109930000Y-139260000D02*
X110210000Y-139260000D01*
X109930000Y-139540000D01*
X109930000Y-139260000D01*
G36*
X109930000Y-139540000D02*
G01*
X109930000Y-139260000D01*
X110210000Y-139260000D01*
X109930000Y-139540000D01*
G37*
%TO.C,U114*%
X87090000Y-127940000D02*
X88910000Y-127940000D01*
X87090000Y-127990000D02*
X87090000Y-127940000D01*
X87090000Y-131060000D02*
X87090000Y-131010000D01*
X88910000Y-127940000D02*
X88910000Y-127990000D01*
X88910000Y-129110000D02*
X88910000Y-129890000D01*
X88910000Y-131010000D02*
X88910000Y-131060000D01*
X88910000Y-131060000D02*
X87090000Y-131060000D01*
X86550000Y-127990000D02*
X86310000Y-127660000D01*
X86790000Y-127660000D01*
X86550000Y-127990000D01*
G36*
X86550000Y-127990000D02*
G01*
X86310000Y-127660000D01*
X86790000Y-127660000D01*
X86550000Y-127990000D01*
G37*
%TO.C,R10*%
X101262742Y-79477500D02*
X101737258Y-79477500D01*
X101262742Y-80522500D02*
X101737258Y-80522500D01*
%TO.C,L201*%
X114300000Y-125600000D02*
X110300000Y-125600000D01*
X114300000Y-133800000D02*
X110300000Y-133800000D01*
%TO.C,C741*%
X97859420Y-64490000D02*
X98140580Y-64490000D01*
X97859420Y-65510000D02*
X98140580Y-65510000D01*
%TO.C,R723*%
X108265000Y-57727064D02*
X108265000Y-57272936D01*
X109735000Y-57727064D02*
X109735000Y-57272936D01*
%TO.C,U152*%
X103490000Y-138640000D02*
X105310000Y-138640000D01*
X103490000Y-138690000D02*
X103490000Y-138640000D01*
X103490000Y-141760000D02*
X103490000Y-141710000D01*
X105310000Y-138640000D02*
X105310000Y-138690000D01*
X105310000Y-141710000D02*
X105310000Y-141760000D01*
X105310000Y-141760000D02*
X103490000Y-141760000D01*
X102950000Y-138690000D02*
X102710000Y-138360000D01*
X103190000Y-138360000D01*
X102950000Y-138690000D01*
G36*
X102950000Y-138690000D02*
G01*
X102710000Y-138360000D01*
X103190000Y-138360000D01*
X102950000Y-138690000D01*
G37*
%TO.C,D1*%
X95265000Y-104200000D02*
X95265000Y-106485000D01*
X95265000Y-106485000D02*
X96735000Y-106485000D01*
X96735000Y-106485000D02*
X96735000Y-104200000D01*
%TO.C,U2*%
X86090000Y-66440000D02*
X87910000Y-66440000D01*
X86090000Y-66490000D02*
X86090000Y-66440000D01*
X86090000Y-69560000D02*
X86090000Y-69510000D01*
X87910000Y-66440000D02*
X87910000Y-66490000D01*
X87910000Y-67610000D02*
X87910000Y-68390000D01*
X87910000Y-69510000D02*
X87910000Y-69560000D01*
X87910000Y-69560000D02*
X86090000Y-69560000D01*
X85550000Y-66490000D02*
X85310000Y-66160000D01*
X85790000Y-66160000D01*
X85550000Y-66490000D01*
G36*
X85550000Y-66490000D02*
G01*
X85310000Y-66160000D01*
X85790000Y-66160000D01*
X85550000Y-66490000D01*
G37*
%TO.C,C523*%
X94390000Y-91640580D02*
X94390000Y-91359420D01*
X95410000Y-91640580D02*
X95410000Y-91359420D01*
%TO.C,C440*%
X110392164Y-64040000D02*
X110607836Y-64040000D01*
X110392164Y-64760000D02*
X110607836Y-64760000D01*
%TO.C,C436*%
X110392164Y-62940000D02*
X110607836Y-62940000D01*
X110392164Y-63660000D02*
X110607836Y-63660000D01*
%TO.C,C503*%
X89859420Y-78790000D02*
X90140580Y-78790000D01*
X89859420Y-79810000D02*
X90140580Y-79810000D01*
%TO.C,R150*%
X113620000Y-138653641D02*
X113620000Y-138346359D01*
X114380000Y-138653641D02*
X114380000Y-138346359D01*
%TO.C,C150*%
X108990000Y-136140580D02*
X108990000Y-135859420D01*
X110010000Y-136140580D02*
X110010000Y-135859420D01*
%TO.C,C504*%
X84640000Y-83607836D02*
X84640000Y-83392164D01*
X85360000Y-83607836D02*
X85360000Y-83392164D01*
%TO.C,R728*%
X94120000Y-80153641D02*
X94120000Y-79846359D01*
X94880000Y-80153641D02*
X94880000Y-79846359D01*
%TO.C,C203*%
X99990000Y-134311252D02*
X99990000Y-132888748D01*
X101810000Y-134311252D02*
X101810000Y-132888748D01*
%TO.C,C502*%
X86392164Y-80340000D02*
X86607836Y-80340000D01*
X86392164Y-81060000D02*
X86607836Y-81060000D01*
%TO.C,R159*%
X118120000Y-143653641D02*
X118120000Y-143346359D01*
X118880000Y-143653641D02*
X118880000Y-143346359D01*
%TO.C,R722*%
X106265000Y-57727064D02*
X106265000Y-57272936D01*
X107735000Y-57727064D02*
X107735000Y-57272936D01*
%TO.C,C6*%
X91990000Y-69140580D02*
X91990000Y-68859420D01*
X93010000Y-69140580D02*
X93010000Y-68859420D01*
%TO.C,R500*%
X89777500Y-100662742D02*
X89777500Y-101137258D01*
X90822500Y-100662742D02*
X90822500Y-101137258D01*
%TO.C,R7*%
X88762742Y-80477500D02*
X89237258Y-80477500D01*
X88762742Y-81522500D02*
X89237258Y-81522500D01*
%TO.C,Q710*%
X99865000Y-59765000D02*
X100515000Y-59765000D01*
X99865000Y-61235000D02*
X99865000Y-59765000D01*
X101165000Y-61235000D02*
X100835000Y-61235000D01*
X101485000Y-59765000D02*
X102135000Y-59765000D01*
X102135000Y-59765000D02*
X102135000Y-61235000D01*
X100840000Y-61680000D02*
X101030000Y-61540000D01*
X101030000Y-61820000D01*
X100840000Y-61680000D01*
G36*
X101030000Y-61820000D02*
G01*
X100840000Y-61680000D01*
X101030000Y-61540000D01*
X101030000Y-61820000D01*
G37*
%TO.C,C113*%
X94990000Y-131640580D02*
X94990000Y-131359420D01*
X96010000Y-131640580D02*
X96010000Y-131359420D01*
%TO.C,C740*%
X98892164Y-62140000D02*
X99107836Y-62140000D01*
X98892164Y-62860000D02*
X99107836Y-62860000D01*
%TO.C,C437*%
X110392164Y-61840000D02*
X110607836Y-61840000D01*
X110392164Y-62560000D02*
X110607836Y-62560000D01*
%TO.C,D303*%
X98350000Y-109950000D02*
X98550000Y-109950000D01*
X98350000Y-110500000D02*
X98350000Y-109950000D01*
X99650000Y-109950000D02*
X99450000Y-109950000D01*
X99650000Y-110500000D02*
X99650000Y-109950000D01*
X98240000Y-110930000D02*
X98240000Y-111210000D01*
X97960000Y-110930000D01*
X98240000Y-110930000D01*
G36*
X98240000Y-111210000D02*
G01*
X97960000Y-110930000D01*
X98240000Y-110930000D01*
X98240000Y-111210000D01*
G37*
%TO.C,R16*%
X94762742Y-88477500D02*
X95237258Y-88477500D01*
X94762742Y-89522500D02*
X95237258Y-89522500D01*
%TO.C,C8*%
X87738748Y-75265000D02*
X88261252Y-75265000D01*
X87738748Y-76735000D02*
X88261252Y-76735000D01*
%TO.C,C522*%
X88040580Y-98490000D02*
X87759420Y-98490000D01*
X88040580Y-99510000D02*
X87759420Y-99510000D01*
%TO.C,C447*%
X116340000Y-80107836D02*
X116340000Y-79892164D01*
X117060000Y-80107836D02*
X117060000Y-79892164D01*
%TO.C,D301*%
X98350000Y-112950000D02*
X98550000Y-112950000D01*
X98350000Y-113500000D02*
X98350000Y-112950000D01*
X99650000Y-112950000D02*
X99450000Y-112950000D01*
X99650000Y-113500000D02*
X99650000Y-112950000D01*
X98240000Y-113930000D02*
X98240000Y-114210000D01*
X97960000Y-113930000D01*
X98240000Y-113930000D01*
G36*
X98240000Y-114210000D02*
G01*
X97960000Y-113930000D01*
X98240000Y-113930000D01*
X98240000Y-114210000D01*
G37*
%TO.C,R2*%
X83762742Y-75477500D02*
X84237258Y-75477500D01*
X83762742Y-76522500D02*
X84237258Y-76522500D01*
%TO.C,C501*%
X82392164Y-86940000D02*
X82607836Y-86940000D01*
X82392164Y-87660000D02*
X82607836Y-87660000D01*
%TO.C,R740*%
X102346359Y-63120000D02*
X102653641Y-63120000D01*
X102346359Y-63880000D02*
X102653641Y-63880000D01*
%TO.C,TP2*%
X100200000Y-128500000D02*
G75*
G02*
X98800000Y-128500000I-700000J0D01*
G01*
X98800000Y-128500000D02*
G75*
G02*
X100200000Y-128500000I700000J0D01*
G01*
%TO.C,U711*%
X81590000Y-66440000D02*
X83410000Y-66440000D01*
X81590000Y-66490000D02*
X81590000Y-66440000D01*
X81590000Y-69560000D02*
X81590000Y-69510000D01*
X83410000Y-66440000D02*
X83410000Y-66490000D01*
X83410000Y-67610000D02*
X83410000Y-68390000D01*
X83410000Y-69510000D02*
X83410000Y-69560000D01*
X83410000Y-69560000D02*
X81590000Y-69560000D01*
X81050000Y-66490000D02*
X80810000Y-66160000D01*
X81290000Y-66160000D01*
X81050000Y-66490000D01*
G36*
X81050000Y-66490000D02*
G01*
X80810000Y-66160000D01*
X81290000Y-66160000D01*
X81050000Y-66490000D01*
G37*
%TO.C,C714*%
X94642164Y-62890000D02*
X94857836Y-62890000D01*
X94642164Y-63610000D02*
X94857836Y-63610000D01*
%TO.C,U110*%
X87040000Y-133910000D02*
X87040000Y-133560000D01*
X88960000Y-132090000D02*
X88960000Y-132440000D01*
X88960000Y-133560000D02*
X88960000Y-133910000D01*
X86950000Y-132430000D02*
X86810000Y-132240000D01*
X87090000Y-132240000D01*
X86950000Y-132430000D01*
G36*
X86950000Y-132430000D02*
G01*
X86810000Y-132240000D01*
X87090000Y-132240000D01*
X86950000Y-132430000D01*
G37*
%TO.C,C205*%
X104138748Y-131865000D02*
X104661252Y-131865000D01*
X104138748Y-133335000D02*
X104661252Y-133335000D01*
%TO.C,TP8*%
X92200000Y-129500000D02*
G75*
G02*
X90800000Y-129500000I-700000J0D01*
G01*
X90800000Y-129500000D02*
G75*
G02*
X92200000Y-129500000I700000J0D01*
G01*
%TO.C,U713*%
X90440000Y-63590000D02*
X90490000Y-63590000D01*
X90440000Y-65410000D02*
X90440000Y-63590000D01*
X90490000Y-65410000D02*
X90440000Y-65410000D01*
X91610000Y-63590000D02*
X92390000Y-63590000D01*
X93510000Y-63590000D02*
X93560000Y-63590000D01*
X93560000Y-63590000D02*
X93560000Y-65410000D01*
X93560000Y-65410000D02*
X93510000Y-65410000D01*
X90490000Y-65950000D02*
X90160000Y-66190000D01*
X90160000Y-65710000D01*
X90490000Y-65950000D01*
G36*
X90490000Y-65950000D02*
G01*
X90160000Y-66190000D01*
X90160000Y-65710000D01*
X90490000Y-65950000D01*
G37*
%TO.C,Q740*%
X100265000Y-100365000D02*
X101735000Y-100365000D01*
X100265000Y-101665000D02*
X100265000Y-101335000D01*
X101735000Y-100365000D02*
X101735000Y-101015000D01*
X101735000Y-101985000D02*
X101735000Y-102635000D01*
X101735000Y-102635000D02*
X100265000Y-102635000D01*
X99820000Y-101340000D02*
X99960000Y-101530000D01*
X99680000Y-101530000D01*
X99820000Y-101340000D01*
G36*
X99960000Y-101530000D02*
G01*
X99680000Y-101530000D01*
X99820000Y-101340000D01*
X99960000Y-101530000D01*
G37*
%TO.C,C438*%
X103307836Y-66940000D02*
X103092164Y-66940000D01*
X103307836Y-67660000D02*
X103092164Y-67660000D01*
%TO.C,R11*%
X96262742Y-79477500D02*
X96737258Y-79477500D01*
X96262742Y-80522500D02*
X96737258Y-80522500D01*
%TO.C,R725*%
X106620000Y-108653641D02*
X106620000Y-108346359D01*
X107380000Y-108653641D02*
X107380000Y-108346359D01*
%TO.C,R719*%
X99620000Y-64153641D02*
X99620000Y-63846359D01*
X100380000Y-64153641D02*
X100380000Y-63846359D01*
%TO.C,C526*%
X91690000Y-96459420D02*
X91690000Y-96740580D01*
X92710000Y-96459420D02*
X92710000Y-96740580D01*
%TO.C,C530*%
X85690000Y-96459420D02*
X85690000Y-96740580D01*
X86710000Y-96459420D02*
X86710000Y-96740580D01*
%TO.C,R7100*%
X89346359Y-74120000D02*
X89653641Y-74120000D01*
X89346359Y-74880000D02*
X89653641Y-74880000D01*
%TO.C,R727*%
X104846359Y-87120000D02*
X105153641Y-87120000D01*
X104846359Y-87880000D02*
X105153641Y-87880000D01*
%TO.C,C521*%
X89790000Y-96459420D02*
X89790000Y-96740580D01*
X90810000Y-96459420D02*
X90810000Y-96740580D01*
%TO.C,U741*%
X86090000Y-69940000D02*
X87910000Y-69940000D01*
X86090000Y-69990000D02*
X86090000Y-69940000D01*
X86090000Y-73060000D02*
X86090000Y-73010000D01*
X87910000Y-69940000D02*
X87910000Y-69990000D01*
X87910000Y-71110000D02*
X87910000Y-71890000D01*
X87910000Y-73010000D02*
X87910000Y-73060000D01*
X87910000Y-73060000D02*
X86090000Y-73060000D01*
X85550000Y-69990000D02*
X85310000Y-69660000D01*
X85790000Y-69660000D01*
X85550000Y-69990000D01*
G36*
X85550000Y-69990000D02*
G01*
X85310000Y-69660000D01*
X85790000Y-69660000D01*
X85550000Y-69990000D01*
G37*
%TO.C,C508*%
X86240000Y-89307836D02*
X86240000Y-89092164D01*
X86960000Y-89307836D02*
X86960000Y-89092164D01*
%TO.C,U430*%
X104790000Y-62890000D02*
X105515000Y-62890000D01*
X104790000Y-63615000D02*
X104790000Y-62890000D01*
X104790000Y-67110000D02*
X104790000Y-66385000D01*
X105515000Y-67110000D02*
X104790000Y-67110000D01*
X108285000Y-62890000D02*
X109010000Y-62890000D01*
X109010000Y-62890000D02*
X109010000Y-63615000D01*
X109010000Y-66385000D02*
X109010000Y-67110000D01*
X109010000Y-67110000D02*
X108285000Y-67110000D01*
X104260000Y-64000000D02*
X103930000Y-64240000D01*
X103930000Y-63760000D01*
X104260000Y-64000000D01*
G36*
X104260000Y-64000000D02*
G01*
X103930000Y-64240000D01*
X103930000Y-63760000D01*
X104260000Y-64000000D01*
G37*
%TO.C,C525*%
X94359420Y-93790000D02*
X94640580Y-93790000D01*
X94359420Y-94810000D02*
X94640580Y-94810000D01*
%TO.C,C520*%
X88440580Y-93790000D02*
X88159420Y-93790000D01*
X88440580Y-94810000D02*
X88159420Y-94810000D01*
%TO.C,R154*%
X118120000Y-141653641D02*
X118120000Y-141346359D01*
X118880000Y-141653641D02*
X118880000Y-141346359D01*
%TO.C,Q711*%
X103940000Y-84240000D02*
X104940000Y-84240000D01*
X103940000Y-85760000D02*
X103940000Y-84240000D01*
X103990000Y-85760000D02*
X103940000Y-85760000D01*
X105890000Y-85760000D02*
X105110000Y-85760000D01*
X106060000Y-84240000D02*
X107060000Y-84240000D01*
X107060000Y-84240000D02*
X107060000Y-85760000D01*
X107060000Y-85760000D02*
X107010000Y-85760000D01*
X105120000Y-86300000D02*
X105450000Y-86060000D01*
X105450000Y-86540000D01*
X105120000Y-86300000D01*
G36*
X105450000Y-86540000D02*
G01*
X105120000Y-86300000D01*
X105450000Y-86060000D01*
X105450000Y-86540000D01*
G37*
%TO.C,R743*%
X98346359Y-101620000D02*
X98653641Y-101620000D01*
X98346359Y-102380000D02*
X98653641Y-102380000D01*
%TO.C,R729*%
X104346359Y-108120000D02*
X104653641Y-108120000D01*
X104346359Y-108880000D02*
X104653641Y-108880000D01*
%TO.C,D714*%
X104450000Y-76350000D02*
X104450000Y-76550000D01*
X104450000Y-77650000D02*
X104450000Y-77450000D01*
X105000000Y-76350000D02*
X104450000Y-76350000D01*
X105000000Y-77650000D02*
X104450000Y-77650000D01*
X105430000Y-77760000D02*
X105710000Y-77760000D01*
X105430000Y-78040000D01*
X105430000Y-77760000D01*
G36*
X105430000Y-78040000D02*
G01*
X105430000Y-77760000D01*
X105710000Y-77760000D01*
X105430000Y-78040000D01*
G37*
%TO.C,U202*%
X103790000Y-128140000D02*
X105610000Y-128140000D01*
X103790000Y-128190000D02*
X103790000Y-128140000D01*
X103790000Y-131260000D02*
X103790000Y-131210000D01*
X105610000Y-128140000D02*
X105610000Y-128190000D01*
X105610000Y-131210000D02*
X105610000Y-131260000D01*
X105610000Y-131260000D02*
X103790000Y-131260000D01*
X103250000Y-128190000D02*
X103010000Y-127860000D01*
X103490000Y-127860000D01*
X103250000Y-128190000D01*
G36*
X103250000Y-128190000D02*
G01*
X103010000Y-127860000D01*
X103490000Y-127860000D01*
X103250000Y-128190000D01*
G37*
%TO.C,C442*%
X116640000Y-63107836D02*
X116640000Y-62892164D01*
X117360000Y-63107836D02*
X117360000Y-62892164D01*
%TO.C,C528*%
X95990000Y-91640580D02*
X95990000Y-91359420D01*
X97010000Y-91640580D02*
X97010000Y-91359420D01*
%TO.C,U112*%
X91690000Y-134740000D02*
X93510000Y-134740000D01*
X91690000Y-134790000D02*
X91690000Y-134740000D01*
X91690000Y-137860000D02*
X91690000Y-137810000D01*
X93510000Y-134740000D02*
X93510000Y-134790000D01*
X93510000Y-137810000D02*
X93510000Y-137860000D01*
X93510000Y-137860000D02*
X91690000Y-137860000D01*
X91150000Y-134790000D02*
X90910000Y-134460000D01*
X91390000Y-134460000D01*
X91150000Y-134790000D01*
G36*
X91150000Y-134790000D02*
G01*
X90910000Y-134460000D01*
X91390000Y-134460000D01*
X91150000Y-134790000D01*
G37*
%TO.C,C512*%
X94490000Y-83040580D02*
X94490000Y-82759420D01*
X95510000Y-83040580D02*
X95510000Y-82759420D01*
%TO.C,C151*%
X114738748Y-134765000D02*
X115261252Y-134765000D01*
X114738748Y-136235000D02*
X115261252Y-136235000D01*
%TO.C,C1*%
X89765000Y-69261252D02*
X89765000Y-68738748D01*
X91235000Y-69261252D02*
X91235000Y-68738748D01*
%TO.C,R117*%
X87346359Y-126620000D02*
X87653641Y-126620000D01*
X87346359Y-127380000D02*
X87653641Y-127380000D01*
%TO.C,TP1*%
X97700000Y-144500000D02*
G75*
G02*
X96300000Y-144500000I-700000J0D01*
G01*
X96300000Y-144500000D02*
G75*
G02*
X97700000Y-144500000I700000J0D01*
G01*
%TO.C,R204*%
X102762742Y-126477500D02*
X103237258Y-126477500D01*
X102762742Y-127522500D02*
X103237258Y-127522500D01*
%TO.C,R432*%
X112746359Y-81320000D02*
X113053641Y-81320000D01*
X112746359Y-82080000D02*
X113053641Y-82080000D01*
%TO.C,C445*%
X118040000Y-67207836D02*
X118040000Y-66992164D01*
X118760000Y-67207836D02*
X118760000Y-66992164D01*
%TO.C,R4*%
X95977500Y-83237258D02*
X95977500Y-82762742D01*
X97022500Y-83237258D02*
X97022500Y-82762742D01*
%TO.C,C452*%
X118392164Y-72840000D02*
X118607836Y-72840000D01*
X118392164Y-73560000D02*
X118607836Y-73560000D01*
%TO.C,U150*%
X111040000Y-138910000D02*
X111040000Y-138560000D01*
X112960000Y-137090000D02*
X112960000Y-137440000D01*
X112960000Y-138560000D02*
X112960000Y-138910000D01*
X110950000Y-137430000D02*
X110810000Y-137240000D01*
X111090000Y-137240000D01*
X110950000Y-137430000D01*
G36*
X110950000Y-137430000D02*
G01*
X110810000Y-137240000D01*
X111090000Y-137240000D01*
X110950000Y-137430000D01*
G37*
%TO.C,C443*%
X111640000Y-68107836D02*
X111640000Y-67892164D01*
X112360000Y-68107836D02*
X112360000Y-67892164D01*
%TO.C,C455*%
X107107836Y-75340000D02*
X106892164Y-75340000D01*
X107107836Y-76060000D02*
X106892164Y-76060000D01*
%TO.C,C206*%
X117290000Y-128711252D02*
X117290000Y-127288748D01*
X119110000Y-128711252D02*
X119110000Y-127288748D01*
%TO.C,R721*%
X99765000Y-67227064D02*
X99765000Y-66772936D01*
X101235000Y-67227064D02*
X101235000Y-66772936D01*
%TO.C,TP110*%
X84700000Y-129000000D02*
G75*
G02*
X83300000Y-129000000I-700000J0D01*
G01*
X83300000Y-129000000D02*
G75*
G02*
X84700000Y-129000000I700000J0D01*
G01*
%TO.C,D713*%
X94150000Y-67110000D02*
X94150000Y-64450000D01*
X94150000Y-67110000D02*
X95850000Y-67110000D01*
X95850000Y-67110000D02*
X95850000Y-64450000D01*
%TO.C,U113*%
X91690000Y-130840000D02*
X93510000Y-130840000D01*
X91690000Y-130890000D02*
X91690000Y-130840000D01*
X91690000Y-133960000D02*
X91690000Y-133910000D01*
X93510000Y-130840000D02*
X93510000Y-130890000D01*
X93510000Y-133910000D02*
X93510000Y-133960000D01*
X93510000Y-133960000D02*
X91690000Y-133960000D01*
X91150000Y-130890000D02*
X90910000Y-130560000D01*
X91390000Y-130560000D01*
X91150000Y-130890000D01*
G36*
X91150000Y-130890000D02*
G01*
X90910000Y-130560000D01*
X91390000Y-130560000D01*
X91150000Y-130890000D01*
G37*
%TO.C,R119*%
X81120000Y-140153641D02*
X81120000Y-139846359D01*
X81880000Y-140153641D02*
X81880000Y-139846359D01*
%TO.C,TP150*%
X116200000Y-124000000D02*
G75*
G02*
X114800000Y-124000000I-700000J0D01*
G01*
X114800000Y-124000000D02*
G75*
G02*
X116200000Y-124000000I700000J0D01*
G01*
%TO.C,R120*%
X95120000Y-138153641D02*
X95120000Y-137846359D01*
X95880000Y-138153641D02*
X95880000Y-137846359D01*
%TO.C,C112*%
X86359420Y-134990000D02*
X86640580Y-134990000D01*
X86359420Y-136010000D02*
X86640580Y-136010000D01*
%TO.C,R114*%
X81846359Y-134120000D02*
X82153641Y-134120000D01*
X81846359Y-134880000D02*
X82153641Y-134880000D01*
%TO.C,R726*%
X103846359Y-80120000D02*
X104153641Y-80120000D01*
X103846359Y-80880000D02*
X104153641Y-80880000D01*
%TO.C,C201*%
X103265000Y-143961252D02*
X103265000Y-143438748D01*
X104735000Y-143961252D02*
X104735000Y-143438748D01*
%TO.C,C114*%
X91609420Y-127240000D02*
X91890580Y-127240000D01*
X91609420Y-128260000D02*
X91890580Y-128260000D01*
%TO.C,R3*%
X103977500Y-99237258D02*
X103977500Y-98762742D01*
X105022500Y-99237258D02*
X105022500Y-98762742D01*
%TO.C,C507*%
X83259420Y-88990000D02*
X83540580Y-88990000D01*
X83259420Y-90010000D02*
X83540580Y-90010000D01*
%TO.C,C152*%
X106490000Y-133140580D02*
X106490000Y-132859420D01*
X107510000Y-133140580D02*
X107510000Y-132859420D01*
%TO.C,C3*%
X90490000Y-60140580D02*
X90490000Y-59859420D01*
X91510000Y-60140580D02*
X91510000Y-59859420D01*
%TO.C,R156*%
X107346359Y-138620000D02*
X107653641Y-138620000D01*
X107346359Y-139380000D02*
X107653641Y-139380000D01*
%TO.C,C430*%
X104040000Y-70107836D02*
X104040000Y-69892164D01*
X104760000Y-70107836D02*
X104760000Y-69892164D01*
%TO.C,C444*%
X111640000Y-62107836D02*
X111640000Y-61892164D01*
X112360000Y-62107836D02*
X112360000Y-61892164D01*
%TO.C,R9*%
X82262742Y-78477500D02*
X82737258Y-78477500D01*
X82262742Y-79522500D02*
X82737258Y-79522500D01*
%TO.C,C711*%
X94859420Y-67490000D02*
X95140580Y-67490000D01*
X94859420Y-68510000D02*
X95140580Y-68510000D01*
%TO.C,R742*%
X98346359Y-100620000D02*
X98653641Y-100620000D01*
X98346359Y-101380000D02*
X98653641Y-101380000D01*
%TO.C,R431*%
X112620000Y-69153641D02*
X112620000Y-68846359D01*
X113380000Y-69153641D02*
X113380000Y-68846359D01*
%TO.C,R116*%
X95120000Y-136153641D02*
X95120000Y-135846359D01*
X95880000Y-136153641D02*
X95880000Y-135846359D01*
%TO.C,C433*%
X103307836Y-64540000D02*
X103092164Y-64540000D01*
X103307836Y-65260000D02*
X103092164Y-65260000D01*
%TO.C,TP111*%
X94700000Y-143000000D02*
G75*
G02*
X93300000Y-143000000I-700000J0D01*
G01*
X93300000Y-143000000D02*
G75*
G02*
X94700000Y-143000000I700000J0D01*
G01*
%TO.C,C450*%
X110607836Y-72840000D02*
X110392164Y-72840000D01*
X110607836Y-73560000D02*
X110392164Y-73560000D01*
%TO.C,U201*%
X100650000Y-138640000D02*
X99600000Y-138640000D01*
X100650000Y-140960000D02*
X99350000Y-140960000D01*
X99240000Y-138640000D02*
X98960000Y-138640000D01*
X99240000Y-138360000D01*
X99240000Y-138640000D01*
G36*
X99240000Y-138640000D02*
G01*
X98960000Y-138640000D01*
X99240000Y-138360000D01*
X99240000Y-138640000D01*
G37*
%TO.C,C4*%
X91990000Y-60140580D02*
X91990000Y-59859420D01*
X93010000Y-60140580D02*
X93010000Y-59859420D01*
%TO.C,R151*%
X111346359Y-135620000D02*
X111653641Y-135620000D01*
X111346359Y-136380000D02*
X111653641Y-136380000D01*
%TO.C,C506*%
X84440000Y-87407836D02*
X84440000Y-87192164D01*
X85160000Y-87407836D02*
X85160000Y-87192164D01*
%TO.C,R152*%
X118120000Y-137653641D02*
X118120000Y-137346359D01*
X118880000Y-137653641D02*
X118880000Y-137346359D01*
%TO.C,R730*%
X106620000Y-106653641D02*
X106620000Y-106346359D01*
X107380000Y-106653641D02*
X107380000Y-106346359D01*
%TO.C,J700*%
X109360000Y-94900000D02*
X110750000Y-94900000D01*
X110750000Y-94330000D02*
X110750000Y-94900000D01*
X110750000Y-94330000D02*
X116050000Y-94330000D01*
X110750000Y-96520000D02*
X110750000Y-97440000D01*
X110750000Y-99060000D02*
X110750000Y-99980000D01*
X110750000Y-101600000D02*
X110750000Y-102520000D01*
X110750000Y-104140000D02*
X110750000Y-105060000D01*
X110750000Y-106680000D02*
X110750000Y-107600000D01*
X110750000Y-109220000D02*
X110750000Y-110140000D01*
X110750000Y-111760000D02*
X110750000Y-112680000D01*
X110750000Y-114300000D02*
X110750000Y-114870000D01*
X110750000Y-114870000D02*
X116050000Y-114870000D01*
X116050000Y-94330000D02*
X116050000Y-94900000D01*
X116050000Y-96520000D02*
X116050000Y-97440000D01*
X116050000Y-99060000D02*
X116050000Y-99980000D01*
X116050000Y-101600000D02*
X116050000Y-102520000D01*
X116050000Y-104140000D02*
X116050000Y-105060000D01*
X116050000Y-106680000D02*
X116050000Y-107600000D01*
X116050000Y-109220000D02*
X116050000Y-110140000D01*
X116050000Y-111760000D02*
X116050000Y-112680000D01*
X116050000Y-114300000D02*
X116050000Y-114870000D01*
%TO.C,TP4*%
X87700000Y-105000000D02*
G75*
G02*
X86300000Y-105000000I-700000J0D01*
G01*
X86300000Y-105000000D02*
G75*
G02*
X87700000Y-105000000I700000J0D01*
G01*
%TO.C,U1*%
X82330000Y-54675000D02*
X82330000Y-57430000D01*
X82330000Y-65920000D02*
X82330000Y-63170000D01*
X84130000Y-54675000D02*
X82330000Y-54675000D01*
X84155000Y-65920000D02*
X82330000Y-65920000D01*
X88045000Y-54680000D02*
X89870000Y-54680000D01*
X88045000Y-65920000D02*
X89870000Y-65920000D01*
X89870000Y-54680000D02*
X89870000Y-57430000D01*
X89870000Y-65920000D02*
X89870000Y-63170000D01*
X82340000Y-58200000D02*
X82010000Y-58440000D01*
X82010000Y-57960000D01*
X82340000Y-58200000D01*
G36*
X82340000Y-58200000D02*
G01*
X82010000Y-58440000D01*
X82010000Y-57960000D01*
X82340000Y-58200000D01*
G37*
%TO.C,R153*%
X118120000Y-139653641D02*
X118120000Y-139346359D01*
X118880000Y-139653641D02*
X118880000Y-139346359D01*
%TO.C,SW4*%
X100900000Y-114900000D02*
X103200000Y-114900000D01*
X100900000Y-116100000D02*
X100900000Y-114900000D01*
X100900000Y-117900000D02*
X100900000Y-118600000D01*
X100900000Y-120400000D02*
X100900000Y-121100000D01*
X100900000Y-124100000D02*
X100900000Y-122900000D01*
X103200000Y-124100000D02*
X100900000Y-124100000D01*
%TO.C,C435*%
X110392164Y-66240000D02*
X110607836Y-66240000D01*
X110392164Y-66960000D02*
X110607836Y-66960000D01*
%TO.C,D302*%
X98350000Y-111450000D02*
X98550000Y-111450000D01*
X98350000Y-112000000D02*
X98350000Y-111450000D01*
X99650000Y-111450000D02*
X99450000Y-111450000D01*
X99650000Y-112000000D02*
X99650000Y-111450000D01*
X98240000Y-112430000D02*
X98240000Y-112710000D01*
X97960000Y-112430000D01*
X98240000Y-112430000D01*
G36*
X98240000Y-112710000D02*
G01*
X97960000Y-112430000D01*
X98240000Y-112430000D01*
X98240000Y-112710000D01*
G37*
%TO.C,C2*%
X89490000Y-72640580D02*
X89490000Y-72359420D01*
X90510000Y-72640580D02*
X90510000Y-72359420D01*
%TO.C,R5*%
X100477500Y-112737258D02*
X100477500Y-112262742D01*
X101522500Y-112737258D02*
X101522500Y-112262742D01*
%TO.C,C500*%
X82392164Y-82340000D02*
X82607836Y-82340000D01*
X82392164Y-83060000D02*
X82607836Y-83060000D01*
%TO.C,C446*%
X116340000Y-69007836D02*
X116340000Y-68792164D01*
X117060000Y-69007836D02*
X117060000Y-68792164D01*
%TO.C,SW3*%
X97850000Y-97250000D02*
X97850000Y-94750000D01*
X98300000Y-94300000D02*
X97850000Y-94750000D01*
X98300000Y-97700000D02*
X97850000Y-97250000D01*
X99600000Y-93250000D02*
X101600000Y-93250000D01*
X99600000Y-98750000D02*
X101600000Y-98750000D01*
X102900000Y-94300000D02*
X103350000Y-94750000D01*
X102900000Y-97700000D02*
X103350000Y-97250000D01*
X103350000Y-97250000D02*
X103350000Y-94750000D01*
%TO.C,R8*%
X83262742Y-76977500D02*
X83737258Y-76977500D01*
X83262742Y-78022500D02*
X83737258Y-78022500D01*
%TO.C,U153*%
X105590000Y-134940000D02*
X107410000Y-134940000D01*
X105590000Y-134990000D02*
X105590000Y-134940000D01*
X105590000Y-138060000D02*
X105590000Y-138010000D01*
X107410000Y-134940000D02*
X107410000Y-134990000D01*
X107410000Y-138010000D02*
X107410000Y-138060000D01*
X107410000Y-138060000D02*
X105590000Y-138060000D01*
X105050000Y-134990000D02*
X104810000Y-134660000D01*
X105290000Y-134660000D01*
X105050000Y-134990000D01*
G36*
X105050000Y-134990000D02*
G01*
X104810000Y-134660000D01*
X105290000Y-134660000D01*
X105050000Y-134990000D01*
G37*
%TO.C,C432*%
X103307836Y-65640000D02*
X103092164Y-65640000D01*
X103307836Y-66360000D02*
X103092164Y-66360000D01*
%TO.C,R112*%
X83846359Y-135620000D02*
X84153641Y-135620000D01*
X83846359Y-136380000D02*
X84153641Y-136380000D01*
%TO.C,C207*%
X117290000Y-133711252D02*
X117290000Y-132288748D01*
X119110000Y-133711252D02*
X119110000Y-132288748D01*
%TO.C,C155*%
X96990000Y-140640580D02*
X96990000Y-140359420D01*
X98010000Y-140640580D02*
X98010000Y-140359420D01*
%TO.C,C454*%
X107107836Y-72840000D02*
X106892164Y-72840000D01*
X107107836Y-73560000D02*
X106892164Y-73560000D01*
%TO.C,SW2*%
X97850000Y-86750000D02*
X97850000Y-84250000D01*
X98300000Y-83800000D02*
X97850000Y-84250000D01*
X98300000Y-87200000D02*
X97850000Y-86750000D01*
X99600000Y-82750000D02*
X101600000Y-82750000D01*
X99600000Y-88250000D02*
X101600000Y-88250000D01*
X102900000Y-83800000D02*
X103350000Y-84250000D01*
X102900000Y-87200000D02*
X103350000Y-86750000D01*
X103350000Y-86750000D02*
X103350000Y-84250000D01*
%TO.C,C441*%
X110392164Y-65140000D02*
X110607836Y-65140000D01*
X110392164Y-65860000D02*
X110607836Y-65860000D01*
%TO.C,C439*%
X106259420Y-59490000D02*
X106540580Y-59490000D01*
X106259420Y-60510000D02*
X106540580Y-60510000D01*
%TO.C,R203*%
X99762742Y-129977500D02*
X100237258Y-129977500D01*
X99762742Y-131022500D02*
X100237258Y-131022500D01*
%TO.C,R157*%
X95346359Y-128120000D02*
X95653641Y-128120000D01*
X95346359Y-128880000D02*
X95653641Y-128880000D01*
%TO.C,C509*%
X85459420Y-91290000D02*
X85740580Y-91290000D01*
X85459420Y-92310000D02*
X85740580Y-92310000D01*
%TO.C,R110*%
X89620000Y-134653641D02*
X89620000Y-134346359D01*
X90380000Y-134653641D02*
X90380000Y-134346359D01*
%TO.C,R14*%
X97762742Y-67477500D02*
X98237258Y-67477500D01*
X97762742Y-68522500D02*
X98237258Y-68522500D01*
%TO.C,C524*%
X93359420Y-84990000D02*
X93640580Y-84990000D01*
X93359420Y-86010000D02*
X93640580Y-86010000D01*
%TO.C,U111*%
D10*
X83175000Y-136800000D02*
G75*
G02*
X83025000Y-136800000I-75000J0D01*
G01*
X83025000Y-136800000D02*
G75*
G02*
X83175000Y-136800000I75000J0D01*
G01*
%TO.C,R113*%
D11*
X83846359Y-134620000D02*
X84153641Y-134620000D01*
X83846359Y-135380000D02*
X84153641Y-135380000D01*
%TO.C,R118*%
X93120000Y-129653641D02*
X93120000Y-129346359D01*
X93880000Y-129653641D02*
X93880000Y-129346359D01*
%TO.C,R724*%
X109620000Y-88653641D02*
X109620000Y-88346359D01*
X110380000Y-88653641D02*
X110380000Y-88346359D01*
%TO.C,R201*%
X95477500Y-141737258D02*
X95477500Y-141262742D01*
X96522500Y-141737258D02*
X96522500Y-141262742D01*
%TO.C,U740*%
X95090000Y-59440000D02*
X96910000Y-59440000D01*
X95090000Y-59490000D02*
X95090000Y-59440000D01*
X95090000Y-62560000D02*
X95090000Y-62510000D01*
X96910000Y-59440000D02*
X96910000Y-59490000D01*
X96910000Y-60610000D02*
X96910000Y-61390000D01*
X96910000Y-62510000D02*
X96910000Y-62560000D01*
X96910000Y-62560000D02*
X95090000Y-62560000D01*
X94550000Y-59490000D02*
X94310000Y-59160000D01*
X94790000Y-59160000D01*
X94550000Y-59490000D01*
G36*
X94550000Y-59490000D02*
G01*
X94310000Y-59160000D01*
X94790000Y-59160000D01*
X94550000Y-59490000D01*
G37*
%TO.C,TP3*%
X85700000Y-94000000D02*
G75*
G02*
X84300000Y-94000000I-700000J0D01*
G01*
X84300000Y-94000000D02*
G75*
G02*
X85700000Y-94000000I700000J0D01*
G01*
%TO.C,R501*%
X91677500Y-100662742D02*
X91677500Y-101137258D01*
X92722500Y-100662742D02*
X92722500Y-101137258D01*
%TO.C,U151*%
D10*
X114975000Y-136900000D02*
G75*
G02*
X114825000Y-136900000I-75000J0D01*
G01*
X114825000Y-136900000D02*
G75*
G02*
X114975000Y-136900000I75000J0D01*
G01*
%TO.C,J430*%
D11*
X108640000Y-79400000D02*
X108640000Y-80040000D01*
X108640000Y-80040000D02*
X108010000Y-80040000D01*
X108640000Y-82200000D02*
X108640000Y-81560000D01*
X111360000Y-79450000D02*
X111360000Y-82150000D01*
%TO.C,D110*%
X84950000Y-132850000D02*
X84950000Y-133050000D01*
X84950000Y-134150000D02*
X84950000Y-133950000D01*
X85500000Y-132850000D02*
X84950000Y-132850000D01*
X85500000Y-134150000D02*
X84950000Y-134150000D01*
X85930000Y-134260000D02*
X86210000Y-134260000D01*
X85930000Y-134540000D01*
X85930000Y-134260000D01*
G36*
X85930000Y-134540000D02*
G01*
X85930000Y-134260000D01*
X86210000Y-134260000D01*
X85930000Y-134540000D01*
G37*
%TO.C,C111*%
X81265000Y-137261252D02*
X81265000Y-136738748D01*
X82735000Y-137261252D02*
X82735000Y-136738748D01*
%TO.C,C529*%
X93359420Y-86590000D02*
X93640580Y-86590000D01*
X93359420Y-87610000D02*
X93640580Y-87610000D01*
%TO.C,C505*%
X83359420Y-80190000D02*
X83640580Y-80190000D01*
X83359420Y-81210000D02*
X83640580Y-81210000D01*
%TO.C,TP5*%
X90200000Y-125500000D02*
G75*
G02*
X88800000Y-125500000I-700000J0D01*
G01*
X88800000Y-125500000D02*
G75*
G02*
X90200000Y-125500000I700000J0D01*
G01*
%TO.C,TP151*%
X95200000Y-145500000D02*
G75*
G02*
X93800000Y-145500000I-700000J0D01*
G01*
X93800000Y-145500000D02*
G75*
G02*
X95200000Y-145500000I700000J0D01*
G01*
%TO.C,R202*%
X96477500Y-137737258D02*
X96477500Y-137262742D01*
X97522500Y-137737258D02*
X97522500Y-137262742D01*
%TO.C,R160*%
X102120000Y-143153641D02*
X102120000Y-142846359D01*
X102880000Y-143153641D02*
X102880000Y-142846359D01*
%TO.C,D740*%
X104000000Y-105360000D02*
X104000000Y-101350000D01*
X104000000Y-105360000D02*
X106000000Y-105360000D01*
X106000000Y-105360000D02*
X106000000Y-101350000D01*
%TO.C,C511*%
X87490000Y-92140580D02*
X87490000Y-91859420D01*
X88510000Y-92140580D02*
X88510000Y-91859420D01*
%TO.C,J101*%
X82830000Y-144400000D02*
X82830000Y-142700000D01*
X92170000Y-144400000D02*
X92170000Y-142700000D01*
%TO.C,TP7*%
X106700000Y-126500000D02*
G75*
G02*
X105300000Y-126500000I-700000J0D01*
G01*
X105300000Y-126500000D02*
G75*
G02*
X106700000Y-126500000I700000J0D01*
G01*
%TO.C,R6*%
X86262742Y-77477500D02*
X86737258Y-77477500D01*
X86262742Y-78522500D02*
X86737258Y-78522500D01*
%TO.C,R741*%
X102620000Y-62153641D02*
X102620000Y-61846359D01*
X103380000Y-62153641D02*
X103380000Y-61846359D01*
%TO.C,C204*%
X106940000Y-129117164D02*
X106940000Y-129332836D01*
X107660000Y-129117164D02*
X107660000Y-129332836D01*
%TO.C,C451*%
X110607836Y-75340000D02*
X110392164Y-75340000D01*
X110607836Y-76060000D02*
X110392164Y-76060000D01*
%TO.C,C153*%
X102990000Y-136640580D02*
X102990000Y-136359420D01*
X104010000Y-136640580D02*
X104010000Y-136359420D01*
%TO.C,C115*%
X96359420Y-133490000D02*
X96640580Y-133490000D01*
X96359420Y-134510000D02*
X96640580Y-134510000D01*
%TO.C,C431*%
X109040000Y-70107836D02*
X109040000Y-69892164D01*
X109760000Y-70107836D02*
X109760000Y-69892164D01*
%TO.C,C710*%
X91859420Y-74490000D02*
X92140580Y-74490000D01*
X91859420Y-75510000D02*
X92140580Y-75510000D01*
%TO.C,R13*%
X91762742Y-76477500D02*
X92237258Y-76477500D01*
X91762742Y-77522500D02*
X92237258Y-77522500D01*
%TO.C,L501*%
X91690000Y-90337221D02*
X91690000Y-90662779D01*
X92710000Y-90337221D02*
X92710000Y-90662779D01*
%TO.C,L500*%
X89790000Y-90337221D02*
X89790000Y-90662779D01*
X90810000Y-90337221D02*
X90810000Y-90662779D01*
%TO.C,U710*%
X91390000Y-71765000D02*
X91415000Y-71765000D01*
X91390000Y-73235000D02*
X91390000Y-71765000D01*
X91415000Y-73235000D02*
X91390000Y-73235000D01*
X93585000Y-71765000D02*
X93610000Y-71765000D01*
X93610000Y-71765000D02*
X93610000Y-73235000D01*
X93610000Y-73235000D02*
X93585000Y-73235000D01*
X91410000Y-73680000D02*
X91220000Y-73820000D01*
X91220000Y-73540000D01*
X91410000Y-73680000D01*
G36*
X91410000Y-73680000D02*
G01*
X91220000Y-73820000D01*
X91220000Y-73540000D01*
X91410000Y-73680000D01*
G37*
%TO.C,U154*%
X95090000Y-124440000D02*
X96910000Y-124440000D01*
X95090000Y-124490000D02*
X95090000Y-124440000D01*
X95090000Y-127560000D02*
X95090000Y-127510000D01*
X96910000Y-124440000D02*
X96910000Y-124490000D01*
X96910000Y-125610000D02*
X96910000Y-126390000D01*
X96910000Y-127510000D02*
X96910000Y-127560000D01*
X96910000Y-127560000D02*
X95090000Y-127560000D01*
X94550000Y-124490000D02*
X94310000Y-124160000D01*
X94790000Y-124160000D01*
X94550000Y-124490000D01*
G36*
X94550000Y-124490000D02*
G01*
X94310000Y-124160000D01*
X94790000Y-124160000D01*
X94550000Y-124490000D01*
G37*
%TO.C,C453*%
X118392164Y-75340000D02*
X118607836Y-75340000D01*
X118392164Y-76060000D02*
X118607836Y-76060000D01*
%TD*%
M02*
