%TF.GenerationSoftware,KiCad,Pcbnew,10.0.6*%
%TF.CreationDate,2026-09-10T10:45:21+08:00*%
%TF.ProjectId,FD-MAIN-01,46442d4d-4149-44e2-9d30-312e6b696361,K / eight-layer engineering review*%
%TF.SameCoordinates,Original*%
%TF.FileFunction,Soldermask,Top*%
%TF.FilePolarity,Negative*%
%FSLAX46Y46*%
G04 Gerber Fmt 4.6, Leading zero omitted, Abs format (unit mm)*
G04 Created by KiCad (PCBNEW 10.0.6) date 2026-09-10 10:45:21*
%MOMM*%
%LPD*%
G01*
G04 APERTURE LIST*
G04 Aperture macros list*
%AMRoundRect*
0 Rectangle with rounded corners*
0 $1 Rounding radius*
0 $2 $3 $4 $5 $6 $7 $8 $9 X,Y pos of 4 corners*
0 Add a 4 corners polygon primitive as box body*
4,1,4,$2,$3,$4,$5,$6,$7,$8,$9,$2,$3,0*
0 Add four circle primitives for the rounded corners*
1,1,$1+$1,$2,$3*
1,1,$1+$1,$4,$5*
1,1,$1+$1,$6,$7*
1,1,$1+$1,$8,$9*
0 Add four rect primitives between the rounded corners*
20,1,$1+$1,$2,$3,$4,$5,0*
20,1,$1+$1,$4,$5,$6,$7,0*
20,1,$1+$1,$6,$7,$8,$9,0*
20,1,$1+$1,$8,$9,$2,$3,0*%
G04 Aperture macros list end*
%ADD10RoundRect,0.250000X-0.250000X-0.475000X0.250000X-0.475000X0.250000X0.475000X-0.250000X0.475000X0*%
%ADD11C,0.650000*%
%ADD12RoundRect,0.150000X-0.150000X-0.425000X0.150000X-0.425000X0.150000X0.425000X-0.150000X0.425000X0*%
%ADD13RoundRect,0.075000X-0.075000X-0.500000X0.075000X-0.500000X0.075000X0.500000X-0.075000X0.500000X0*%
%ADD14O,1.000000X2.100000*%
%ADD15O,1.000000X1.800000*%
%ADD16R,1.200000X0.700000*%
%ADD17R,0.800000X1.000000*%
%ADD18R,1.200000X1.000000*%
%ADD19R,2.800000X1.000000*%
%ADD20R,1.900000X1.300000*%
%ADD21RoundRect,0.120000X-0.480000X-0.880000X0.480000X-0.880000X0.480000X0.880000X-0.480000X0.880000X0*%
%ADD22C,2.400000*%
%ADD23C,1.000000*%
%ADD24RoundRect,0.140000X0.170000X-0.140000X0.170000X0.140000X-0.170000X0.140000X-0.170000X-0.140000X0*%
%ADD25RoundRect,0.135000X-0.135000X-0.185000X0.135000X-0.185000X0.135000X0.185000X-0.135000X0.185000X0*%
%ADD26RoundRect,0.225000X-0.225000X-0.250000X0.225000X-0.250000X0.225000X0.250000X-0.225000X0.250000X0*%
%ADD27RoundRect,0.140000X-0.140000X-0.170000X0.140000X-0.170000X0.140000X0.170000X-0.140000X0.170000X0*%
%ADD28RoundRect,0.200000X0.275000X-0.200000X0.275000X0.200000X-0.275000X0.200000X-0.275000X-0.200000X0*%
%ADD29RoundRect,0.080000X0.320000X0.820000X-0.320000X0.820000X-0.320000X-0.820000X0.320000X-0.820000X0*%
%ADD30RoundRect,0.200000X-0.200000X-0.275000X0.200000X-0.275000X0.200000X0.275000X-0.200000X0.275000X0*%
%ADD31RoundRect,0.075000X-0.075000X-0.075000X0.075000X-0.075000X0.075000X0.075000X-0.075000X0.075000X0*%
%ADD32RoundRect,0.135000X0.185000X-0.135000X0.185000X0.135000X-0.185000X0.135000X-0.185000X-0.135000X0*%
%ADD33RoundRect,0.225000X-0.250000X0.225000X-0.250000X-0.225000X0.250000X-0.225000X0.250000X0.225000X0*%
%ADD34RoundRect,0.075000X0.075000X-0.075000X0.075000X0.075000X-0.075000X0.075000X-0.075000X-0.075000X0*%
%ADD35RoundRect,0.150000X-0.512500X-0.150000X0.512500X-0.150000X0.512500X0.150000X-0.512500X0.150000X0*%
%ADD36R,2.850000X6.600000*%
%ADD37RoundRect,0.147500X-0.172500X0.147500X-0.172500X-0.147500X0.172500X-0.147500X0.172500X0.147500X0*%
%ADD38RoundRect,0.250000X0.450000X-0.262500X0.450000X0.262500X-0.450000X0.262500X-0.450000X-0.262500X0*%
%ADD39RoundRect,0.218750X0.256250X-0.218750X0.256250X0.218750X-0.256250X0.218750X-0.256250X-0.218750X0*%
%ADD40RoundRect,0.225000X0.250000X-0.225000X0.250000X0.225000X-0.250000X0.225000X-0.250000X-0.225000X0*%
%ADD41RoundRect,0.250000X0.650000X-0.325000X0.650000X0.325000X-0.650000X0.325000X-0.650000X-0.325000X0*%
%ADD42RoundRect,0.200000X-0.275000X0.200000X-0.275000X-0.200000X0.275000X-0.200000X0.275000X0.200000X0*%
%ADD43RoundRect,0.112500X0.112500X-0.350000X0.112500X0.350000X-0.112500X0.350000X-0.112500X-0.350000X0*%
%ADD44RoundRect,0.130000X-0.520000X-1.570000X0.520000X-1.570000X0.520000X1.570000X-0.520000X1.570000X0*%
%ADD45RoundRect,0.225000X0.225000X0.250000X-0.225000X0.250000X-0.225000X-0.250000X0.225000X-0.250000X0*%
%ADD46RoundRect,0.050000X-0.375000X-0.050000X0.375000X-0.050000X0.375000X0.050000X-0.375000X0.050000X0*%
%ADD47RoundRect,0.050000X-0.050000X-0.275000X0.050000X-0.275000X0.050000X0.275000X-0.050000X0.275000X0*%
%ADD48RoundRect,0.150000X0.150000X-0.512500X0.150000X0.512500X-0.150000X0.512500X-0.150000X-0.512500X0*%
%ADD49RoundRect,0.112500X-0.350000X-0.112500X0.350000X-0.112500X0.350000X0.112500X-0.350000X0.112500X0*%
%ADD50RoundRect,0.140000X0.140000X0.170000X-0.140000X0.170000X-0.140000X-0.170000X0.140000X-0.170000X0*%
%ADD51RoundRect,0.062500X-0.425000X-0.062500X0.425000X-0.062500X0.425000X0.062500X-0.425000X0.062500X0*%
%ADD52RoundRect,0.062500X-0.062500X-0.425000X0.062500X-0.425000X0.062500X0.425000X-0.062500X0.425000X0*%
%ADD53R,2.400000X2.400000*%
%ADD54RoundRect,0.150000X0.150000X-0.587500X0.150000X0.587500X-0.150000X0.587500X-0.150000X-0.587500X0*%
%ADD55RoundRect,0.250000X0.475000X-0.250000X0.475000X0.250000X-0.475000X0.250000X-0.475000X-0.250000X0*%
%ADD56RoundRect,0.090000X0.360000X0.610000X-0.360000X0.610000X-0.360000X-0.610000X0.360000X-0.610000X0*%
%ADD57RoundRect,0.112500X0.112500X-0.187500X0.112500X0.187500X-0.112500X0.187500X-0.112500X-0.187500X0*%
%ADD58RoundRect,0.050000X-0.285000X-0.100000X0.285000X-0.100000X0.285000X0.100000X-0.285000X0.100000X0*%
%ADD59R,3.150000X1.000000*%
%ADD60R,0.350000X0.350000*%
%ADD61R,0.350000X0.300000*%
%ADD62R,0.300000X0.350000*%
%ADD63R,0.600000X0.600000*%
%ADD64R,0.430000X0.430000*%
%ADD65C,0.900000*%
%ADD66RoundRect,0.250000X1.000000X-0.375000X1.000000X0.375000X-1.000000X0.375000X-1.000000X-0.375000X0*%
%ADD67R,1.000000X1.700000*%
%ADD68RoundRect,0.025000X0.100000X0.100000X-0.100000X0.100000X-0.100000X-0.100000X0.100000X-0.100000X0*%
%ADD69RoundRect,0.070000X-0.305000X-0.280000X0.305000X-0.280000X0.305000X0.280000X-0.305000X0.280000X0*%
%ADD70RoundRect,0.025000X-0.100000X-0.100000X0.100000X-0.100000X0.100000X0.100000X-0.100000X0.100000X0*%
%ADD71RoundRect,0.045000X-0.255000X-0.105000X0.255000X-0.105000X0.255000X0.105000X-0.255000X0.105000X0*%
%ADD72RoundRect,0.037500X-0.087500X-0.287500X0.087500X-0.287500X0.087500X0.287500X-0.087500X0.287500X0*%
%ADD73RoundRect,0.037500X-0.262500X-0.087500X0.262500X-0.087500X0.262500X0.087500X-0.262500X0.087500X0*%
%ADD74RoundRect,0.045000X-0.105000X-1.155000X0.105000X-1.155000X0.105000X1.155000X-0.105000X1.155000X0*%
%ADD75RoundRect,0.033000X-0.172000X-0.132000X0.172000X-0.132000X0.172000X0.132000X-0.172000X0.132000X0*%
%ADD76RoundRect,0.250000X-0.275000X-0.250000X0.275000X-0.250000X0.275000X0.250000X-0.275000X0.250000X0*%
%ADD77RoundRect,0.250000X-0.850000X-0.275000X0.850000X-0.275000X0.850000X0.275000X-0.850000X0.275000X0*%
%ADD78RoundRect,0.147500X-0.147500X-0.172500X0.147500X-0.172500X0.147500X0.172500X-0.147500X0.172500X0*%
%ADD79RoundRect,0.225000X0.375000X-0.225000X0.375000X0.225000X-0.375000X0.225000X-0.375000X-0.225000X0*%
%ADD80RoundRect,0.140000X-0.170000X0.140000X-0.170000X-0.140000X0.170000X-0.140000X0.170000X0.140000X0*%
%ADD81RoundRect,0.070000X0.305000X0.280000X-0.305000X0.280000X-0.305000X-0.280000X0.305000X-0.280000X0*%
%ADD82RoundRect,0.025000X-0.375000X-0.100000X0.375000X-0.100000X0.375000X0.100000X-0.375000X0.100000X0*%
%ADD83RoundRect,0.025000X-0.100000X-0.375000X0.100000X-0.375000X0.100000X0.375000X-0.100000X0.375000X0*%
%ADD84R,3.500000X3.500000*%
%ADD85RoundRect,0.218750X-0.256250X0.218750X-0.256250X-0.218750X0.256250X-0.218750X0.256250X0.218750X0*%
%ADD86RoundRect,0.087500X0.087500X-0.425000X0.087500X0.425000X-0.087500X0.425000X-0.087500X-0.425000X0*%
G04 APERTURE END LIST*
%TO.C,J430*%
G36*
X109010000Y-79860000D02*
G01*
X111100000Y-79860000D01*
X111100000Y-81740000D01*
X109010000Y-81740000D01*
X109010000Y-79860000D01*
G37*
%TD*%
D10*
%TO.C,C202*%
X98850000Y-137000000D03*
X100750000Y-137000000D03*
%TD*%
D11*
%TO.C,J102*%
X109610000Y-141895000D03*
X115390000Y-141895000D03*
D12*
X109300000Y-140820000D03*
X110100000Y-140820000D03*
D13*
X111250000Y-140820000D03*
X112250000Y-140820000D03*
X112750000Y-140820000D03*
X113750000Y-140820000D03*
D12*
X114900000Y-140820000D03*
X115700000Y-140820000D03*
X115700000Y-140820000D03*
X114900000Y-140820000D03*
D13*
X114250000Y-140820000D03*
X113250000Y-140820000D03*
X111750000Y-140820000D03*
X110750000Y-140820000D03*
D12*
X110100000Y-140820000D03*
X109300000Y-140820000D03*
D14*
X108180000Y-141395000D03*
D15*
X108180000Y-145575000D03*
D14*
X116820000Y-141395000D03*
D15*
X116820000Y-145575000D03*
%TD*%
D16*
%TO.C,J301*%
X96825000Y-118675000D03*
X96825000Y-117575000D03*
X96825000Y-116475000D03*
X96825000Y-115375000D03*
X96825000Y-114275000D03*
X96825000Y-113175000D03*
X96825000Y-112075000D03*
X96825000Y-110975000D03*
X96825000Y-110025000D03*
D17*
X86325000Y-109075000D03*
D18*
X92525000Y-109075000D03*
D19*
X82175000Y-109075000D03*
D18*
X96825000Y-120225000D03*
D20*
X81725000Y-122575000D03*
%TD*%
D21*
%TO.C,J500*%
X90250000Y-104500000D03*
X92250000Y-104500000D03*
%TD*%
D22*
%TO.C,H2*%
X117000000Y-57000000D03*
%TD*%
D23*
%TO.C,TP6*%
X100000000Y-126000000D03*
%TD*%
D24*
%TO.C,C510*%
X88000000Y-89780000D03*
X88000000Y-88820000D03*
%TD*%
D25*
%TO.C,R115*%
X88990000Y-138500000D03*
X90010000Y-138500000D03*
%TD*%
D26*
%TO.C,C527*%
X93725000Y-99000000D03*
X95275000Y-99000000D03*
%TD*%
D25*
%TO.C,R155*%
X117490000Y-136000000D03*
X118510000Y-136000000D03*
%TD*%
D24*
%TO.C,C513*%
X92400000Y-83380000D03*
X92400000Y-82420000D03*
%TD*%
D27*
%TO.C,C434*%
X108020000Y-68150000D03*
X108980000Y-68150000D03*
%TD*%
D28*
%TO.C,R1*%
X99000000Y-61325000D03*
X99000000Y-59675000D03*
%TD*%
D29*
%TO.C,U712*%
X116705000Y-86900000D03*
X115435000Y-86900000D03*
X114165000Y-86900000D03*
X112895000Y-86900000D03*
%TD*%
D30*
%TO.C,R12*%
X96675000Y-66500000D03*
X98325000Y-66500000D03*
%TD*%
D25*
%TO.C,R158*%
X110990000Y-135000000D03*
X112010000Y-135000000D03*
%TD*%
D31*
%TO.C,D101*%
X87150000Y-139425000D03*
X87850000Y-139425000D03*
X87500000Y-138575000D03*
%TD*%
D26*
%TO.C,C5*%
X85725000Y-74000000D03*
X87275000Y-74000000D03*
%TD*%
D32*
%TO.C,R720*%
X101000000Y-63510000D03*
X101000000Y-62490000D03*
%TD*%
D25*
%TO.C,R430*%
X107990000Y-61500000D03*
X109010000Y-61500000D03*
%TD*%
D33*
%TO.C,C531*%
X96300000Y-95825000D03*
X96300000Y-97375000D03*
%TD*%
D34*
%TO.C,D150*%
X109925000Y-138850000D03*
X109925000Y-138150000D03*
X109075000Y-138500000D03*
%TD*%
D35*
%TO.C,U114*%
X86862500Y-128550000D03*
X86862500Y-129500000D03*
X86862500Y-130450000D03*
X89137500Y-130450000D03*
X89137500Y-128550000D03*
%TD*%
D30*
%TO.C,R10*%
X100675000Y-80000000D03*
X102325000Y-80000000D03*
%TD*%
D36*
%TO.C,L201*%
X109475000Y-129700000D03*
X115125000Y-129700000D03*
%TD*%
D26*
%TO.C,C741*%
X97225000Y-65000000D03*
X98775000Y-65000000D03*
%TD*%
D37*
%TO.C,L440*%
X112000000Y-71515000D03*
X112000000Y-72485000D03*
%TD*%
D21*
%TO.C,J740*%
X100000000Y-105000000D03*
X102000000Y-105000000D03*
%TD*%
D22*
%TO.C,H1*%
X83000000Y-73000000D03*
%TD*%
D38*
%TO.C,R723*%
X109000000Y-58412500D03*
X109000000Y-56587500D03*
%TD*%
D35*
%TO.C,U152*%
X103262500Y-139250000D03*
X103262500Y-140200000D03*
X103262500Y-141150000D03*
X105537500Y-141150000D03*
X105537500Y-140200000D03*
X105537500Y-139250000D03*
%TD*%
D39*
%TO.C,D1*%
X96000000Y-105787500D03*
X96000000Y-104212500D03*
%TD*%
D35*
%TO.C,U2*%
X85862500Y-67050000D03*
X85862500Y-68000000D03*
X85862500Y-68950000D03*
X88137500Y-68950000D03*
X88137500Y-67050000D03*
%TD*%
D40*
%TO.C,C523*%
X94900000Y-92275000D03*
X94900000Y-90725000D03*
%TD*%
D27*
%TO.C,C440*%
X110020000Y-64400000D03*
X110980000Y-64400000D03*
%TD*%
%TO.C,C436*%
X110020000Y-63300000D03*
X110980000Y-63300000D03*
%TD*%
D37*
%TO.C,L445*%
X117000000Y-76515000D03*
X117000000Y-77485000D03*
%TD*%
D26*
%TO.C,C503*%
X89225000Y-79300000D03*
X90775000Y-79300000D03*
%TD*%
D32*
%TO.C,R150*%
X114000000Y-139010000D03*
X114000000Y-137990000D03*
%TD*%
D40*
%TO.C,C150*%
X109500000Y-136775000D03*
X109500000Y-135225000D03*
%TD*%
D24*
%TO.C,C504*%
X85000000Y-83980000D03*
X85000000Y-83020000D03*
%TD*%
D32*
%TO.C,R728*%
X94500000Y-80510000D03*
X94500000Y-79490000D03*
%TD*%
D41*
%TO.C,C203*%
X100900000Y-135075000D03*
X100900000Y-132125000D03*
%TD*%
D27*
%TO.C,C502*%
X86020000Y-80700000D03*
X86980000Y-80700000D03*
%TD*%
D32*
%TO.C,R159*%
X118500000Y-144010000D03*
X118500000Y-142990000D03*
%TD*%
D38*
%TO.C,R722*%
X107000000Y-58412500D03*
X107000000Y-56587500D03*
%TD*%
D40*
%TO.C,C6*%
X92500000Y-69775000D03*
X92500000Y-68225000D03*
%TD*%
D42*
%TO.C,R500*%
X90300000Y-100075000D03*
X90300000Y-101725000D03*
%TD*%
D30*
%TO.C,R7*%
X88175000Y-81000000D03*
X89825000Y-81000000D03*
%TD*%
D43*
%TO.C,Q710*%
X100350000Y-61387500D03*
X101650000Y-61387500D03*
X101000000Y-59612500D03*
%TD*%
D44*
%TO.C,BZ740*%
X94550000Y-73800000D03*
X103250000Y-73800000D03*
%TD*%
D40*
%TO.C,C113*%
X95500000Y-132275000D03*
X95500000Y-130725000D03*
%TD*%
D27*
%TO.C,C740*%
X98520000Y-62500000D03*
X99480000Y-62500000D03*
%TD*%
%TO.C,C437*%
X110020000Y-62200000D03*
X110980000Y-62200000D03*
%TD*%
D21*
%TO.C,J600*%
X82500000Y-101500000D03*
X84500000Y-101500000D03*
%TD*%
D31*
%TO.C,D303*%
X98650000Y-110925000D03*
X99350000Y-110925000D03*
X99000000Y-110075000D03*
%TD*%
D30*
%TO.C,R16*%
X94175000Y-89000000D03*
X95825000Y-89000000D03*
%TD*%
D10*
%TO.C,C8*%
X87050000Y-76000000D03*
X88950000Y-76000000D03*
%TD*%
D45*
%TO.C,C522*%
X88675000Y-99000000D03*
X87125000Y-99000000D03*
%TD*%
D24*
%TO.C,C447*%
X116700000Y-80480000D03*
X116700000Y-79520000D03*
%TD*%
D31*
%TO.C,D301*%
X98650000Y-113925000D03*
X99350000Y-113925000D03*
X99000000Y-113075000D03*
%TD*%
D30*
%TO.C,R2*%
X83175000Y-76000000D03*
X84825000Y-76000000D03*
%TD*%
D27*
%TO.C,C501*%
X82020000Y-87300000D03*
X82980000Y-87300000D03*
%TD*%
D25*
%TO.C,R740*%
X101990000Y-63500000D03*
X103010000Y-63500000D03*
%TD*%
D23*
%TO.C,TP2*%
X99500000Y-128500000D03*
%TD*%
D35*
%TO.C,U711*%
X81362500Y-67050000D03*
X81362500Y-68000000D03*
X81362500Y-68950000D03*
X83637500Y-68950000D03*
X83637500Y-67050000D03*
%TD*%
D27*
%TO.C,C714*%
X94270000Y-63250000D03*
X95230000Y-63250000D03*
%TD*%
D46*
%TO.C,U110*%
X87275000Y-132800000D03*
X87275000Y-133200000D03*
D47*
X87400000Y-133825000D03*
X87800000Y-133825000D03*
X88200000Y-133825000D03*
X88600000Y-133825000D03*
D46*
X88725000Y-133200000D03*
X88725000Y-132800000D03*
D47*
X88600000Y-132175000D03*
X88200000Y-132175000D03*
X87800000Y-132175000D03*
X87400000Y-132175000D03*
%TD*%
D10*
%TO.C,C205*%
X103450000Y-132600000D03*
X105350000Y-132600000D03*
%TD*%
D23*
%TO.C,TP8*%
X91500000Y-129500000D03*
%TD*%
D48*
%TO.C,U713*%
X91050000Y-65637500D03*
X92000000Y-65637500D03*
X92950000Y-65637500D03*
X92950000Y-63362500D03*
X91050000Y-63362500D03*
%TD*%
D49*
%TO.C,Q740*%
X100112500Y-100850000D03*
X100112500Y-102150000D03*
X101887500Y-101500000D03*
%TD*%
D50*
%TO.C,C438*%
X103680000Y-67300000D03*
X102720000Y-67300000D03*
%TD*%
D30*
%TO.C,R11*%
X95675000Y-80000000D03*
X97325000Y-80000000D03*
%TD*%
D32*
%TO.C,R725*%
X107000000Y-109010000D03*
X107000000Y-107990000D03*
%TD*%
%TO.C,R719*%
X100000000Y-64510000D03*
X100000000Y-63490000D03*
%TD*%
D22*
%TO.C,H3*%
X83000000Y-132000000D03*
%TD*%
D33*
%TO.C,C526*%
X92200000Y-95825000D03*
X92200000Y-97375000D03*
%TD*%
%TO.C,C530*%
X86200000Y-95825000D03*
X86200000Y-97375000D03*
%TD*%
D25*
%TO.C,R7100*%
X88990000Y-74500000D03*
X90010000Y-74500000D03*
%TD*%
%TO.C,R727*%
X104490000Y-87500000D03*
X105510000Y-87500000D03*
%TD*%
D33*
%TO.C,C521*%
X90300000Y-95825000D03*
X90300000Y-97375000D03*
%TD*%
D35*
%TO.C,U741*%
X85862500Y-70550000D03*
X85862500Y-71500000D03*
X85862500Y-72450000D03*
X88137500Y-72450000D03*
X88137500Y-70550000D03*
%TD*%
D24*
%TO.C,C508*%
X86600000Y-89680000D03*
X86600000Y-88720000D03*
%TD*%
D51*
%TO.C,U430*%
X105012500Y-64000000D03*
X105012500Y-64500000D03*
X105012500Y-65000000D03*
X105012500Y-65500000D03*
X105012500Y-66000000D03*
D52*
X105900000Y-66887500D03*
X106400000Y-66887500D03*
X106900000Y-66887500D03*
X107400000Y-66887500D03*
X107900000Y-66887500D03*
D51*
X108787500Y-66000000D03*
X108787500Y-65500000D03*
X108787500Y-65000000D03*
X108787500Y-64500000D03*
X108787500Y-64000000D03*
D52*
X107900000Y-63112500D03*
X107400000Y-63112500D03*
X106900000Y-63112500D03*
X106400000Y-63112500D03*
X105900000Y-63112500D03*
D53*
X106900000Y-65000000D03*
%TD*%
D26*
%TO.C,C525*%
X93725000Y-94300000D03*
X95275000Y-94300000D03*
%TD*%
D45*
%TO.C,C520*%
X89075000Y-94300000D03*
X87525000Y-94300000D03*
%TD*%
D32*
%TO.C,R154*%
X118500000Y-142010000D03*
X118500000Y-140990000D03*
%TD*%
D54*
%TO.C,Q711*%
X104550000Y-85937500D03*
X106450000Y-85937500D03*
X105500000Y-84062500D03*
%TD*%
D25*
%TO.C,R743*%
X97990000Y-102000000D03*
X99010000Y-102000000D03*
%TD*%
%TO.C,R729*%
X103990000Y-108500000D03*
X105010000Y-108500000D03*
%TD*%
D34*
%TO.C,D714*%
X105425000Y-77350000D03*
X105425000Y-76650000D03*
X104575000Y-77000000D03*
%TD*%
D35*
%TO.C,U202*%
X103562500Y-128750000D03*
X103562500Y-129700000D03*
X103562500Y-130650000D03*
X105837500Y-130650000D03*
X105837500Y-129700000D03*
X105837500Y-128750000D03*
%TD*%
D24*
%TO.C,C442*%
X117000000Y-63480000D03*
X117000000Y-62520000D03*
%TD*%
D40*
%TO.C,C528*%
X96500000Y-92275000D03*
X96500000Y-90725000D03*
%TD*%
D35*
%TO.C,U112*%
X91462500Y-135350000D03*
X91462500Y-136300000D03*
X91462500Y-137250000D03*
X93737500Y-137250000D03*
X93737500Y-136300000D03*
X93737500Y-135350000D03*
%TD*%
D40*
%TO.C,C512*%
X95000000Y-83675000D03*
X95000000Y-82125000D03*
%TD*%
D10*
%TO.C,C151*%
X114050000Y-135500000D03*
X115950000Y-135500000D03*
%TD*%
D55*
%TO.C,C1*%
X90500000Y-69950000D03*
X90500000Y-68050000D03*
%TD*%
D37*
%TO.C,L448*%
X108500000Y-76515000D03*
X108500000Y-77485000D03*
%TD*%
D25*
%TO.C,R117*%
X86990000Y-127000000D03*
X88010000Y-127000000D03*
%TD*%
D23*
%TO.C,TP1*%
X97000000Y-144500000D03*
%TD*%
D30*
%TO.C,R204*%
X102175000Y-127000000D03*
X103825000Y-127000000D03*
%TD*%
D25*
%TO.C,R432*%
X112390000Y-81700000D03*
X113410000Y-81700000D03*
%TD*%
D24*
%TO.C,C445*%
X118400000Y-67580000D03*
X118400000Y-66620000D03*
%TD*%
D56*
%TO.C,D710*%
X96850000Y-56500000D03*
X94150000Y-56500000D03*
%TD*%
D28*
%TO.C,R4*%
X96500000Y-83825000D03*
X96500000Y-82175000D03*
%TD*%
D50*
%TO.C,C712*%
X81730000Y-65750000D03*
X80770000Y-65750000D03*
%TD*%
D27*
%TO.C,C452*%
X118020000Y-73200000D03*
X118980000Y-73200000D03*
%TD*%
D46*
%TO.C,U150*%
X111275000Y-137800000D03*
X111275000Y-138200000D03*
D47*
X111400000Y-138825000D03*
X111800000Y-138825000D03*
X112200000Y-138825000D03*
X112600000Y-138825000D03*
D46*
X112725000Y-138200000D03*
X112725000Y-137800000D03*
D47*
X112600000Y-137175000D03*
X112200000Y-137175000D03*
X111800000Y-137175000D03*
X111400000Y-137175000D03*
%TD*%
D24*
%TO.C,C443*%
X112000000Y-68480000D03*
X112000000Y-67520000D03*
%TD*%
D50*
%TO.C,C455*%
X107480000Y-75700000D03*
X106520000Y-75700000D03*
%TD*%
D41*
%TO.C,C206*%
X118200000Y-129475000D03*
X118200000Y-126525000D03*
%TD*%
D38*
%TO.C,R721*%
X100500000Y-67912500D03*
X100500000Y-66087500D03*
%TD*%
D23*
%TO.C,TP110*%
X84000000Y-129000000D03*
%TD*%
D37*
%TO.C,L446*%
X108500000Y-71915000D03*
X108500000Y-72885000D03*
%TD*%
D57*
%TO.C,D713*%
X95000000Y-66550000D03*
X95000000Y-64450000D03*
%TD*%
D35*
%TO.C,U113*%
X91462500Y-131450000D03*
X91462500Y-132400000D03*
X91462500Y-133350000D03*
X93737500Y-133350000D03*
X93737500Y-132400000D03*
X93737500Y-131450000D03*
%TD*%
D32*
%TO.C,R119*%
X81500000Y-140510000D03*
X81500000Y-139490000D03*
%TD*%
D23*
%TO.C,TP150*%
X115500000Y-124000000D03*
%TD*%
D32*
%TO.C,R120*%
X95500000Y-138510000D03*
X95500000Y-137490000D03*
%TD*%
D26*
%TO.C,C112*%
X85725000Y-135500000D03*
X87275000Y-135500000D03*
%TD*%
D25*
%TO.C,R114*%
X81490000Y-134500000D03*
X82510000Y-134500000D03*
%TD*%
%TO.C,R726*%
X103490000Y-80500000D03*
X104510000Y-80500000D03*
%TD*%
D55*
%TO.C,C201*%
X104000000Y-144650000D03*
X104000000Y-142750000D03*
%TD*%
D26*
%TO.C,C114*%
X90975000Y-127750000D03*
X92525000Y-127750000D03*
%TD*%
D28*
%TO.C,R3*%
X104500000Y-99825000D03*
X104500000Y-98175000D03*
%TD*%
D26*
%TO.C,C507*%
X82625000Y-89500000D03*
X84175000Y-89500000D03*
%TD*%
D40*
%TO.C,C152*%
X107000000Y-133775000D03*
X107000000Y-132225000D03*
%TD*%
%TO.C,C3*%
X91000000Y-60775000D03*
X91000000Y-59225000D03*
%TD*%
D25*
%TO.C,R156*%
X106990000Y-139000000D03*
X108010000Y-139000000D03*
%TD*%
D37*
%TO.C,L442*%
X112000000Y-76515000D03*
X112000000Y-77485000D03*
%TD*%
%TO.C,L441*%
X112000000Y-74015000D03*
X112000000Y-74985000D03*
%TD*%
D24*
%TO.C,C430*%
X104400000Y-70480000D03*
X104400000Y-69520000D03*
%TD*%
%TO.C,C444*%
X112000000Y-62480000D03*
X112000000Y-61520000D03*
%TD*%
D30*
%TO.C,R9*%
X81675000Y-79000000D03*
X83325000Y-79000000D03*
%TD*%
D26*
%TO.C,C711*%
X94225000Y-68000000D03*
X95775000Y-68000000D03*
%TD*%
D25*
%TO.C,R742*%
X97990000Y-101000000D03*
X99010000Y-101000000D03*
%TD*%
D32*
%TO.C,R431*%
X113000000Y-69510000D03*
X113000000Y-68490000D03*
%TD*%
%TO.C,R116*%
X95500000Y-136510000D03*
X95500000Y-135490000D03*
%TD*%
D37*
%TO.C,L447*%
X108500000Y-74015000D03*
X108500000Y-74985000D03*
%TD*%
D50*
%TO.C,C433*%
X103680000Y-64900000D03*
X102720000Y-64900000D03*
%TD*%
D23*
%TO.C,TP111*%
X94000000Y-143000000D03*
%TD*%
D50*
%TO.C,C450*%
X110980000Y-73200000D03*
X110020000Y-73200000D03*
%TD*%
D58*
%TO.C,U201*%
X99260000Y-139050000D03*
X99260000Y-139550000D03*
X99260000Y-140050000D03*
X99260000Y-140550000D03*
X100740000Y-140550000D03*
X100740000Y-140050000D03*
X100740000Y-139550000D03*
X100740000Y-139050000D03*
%TD*%
D40*
%TO.C,C4*%
X92500000Y-60775000D03*
X92500000Y-59225000D03*
%TD*%
D25*
%TO.C,R151*%
X110990000Y-136000000D03*
X112010000Y-136000000D03*
%TD*%
D24*
%TO.C,C506*%
X84800000Y-87780000D03*
X84800000Y-86820000D03*
%TD*%
D32*
%TO.C,R152*%
X118500000Y-138010000D03*
X118500000Y-136990000D03*
%TD*%
%TO.C,R730*%
X107000000Y-107010000D03*
X107000000Y-105990000D03*
%TD*%
D59*
%TO.C,J700*%
X110875000Y-95710000D03*
X115925000Y-95710000D03*
X110875000Y-98250000D03*
X115925000Y-98250000D03*
X110875000Y-100790000D03*
X115925000Y-100790000D03*
X110875000Y-103330000D03*
X115925000Y-103330000D03*
X110875000Y-105870000D03*
X115925000Y-105870000D03*
X110875000Y-108410000D03*
X115925000Y-108410000D03*
X110875000Y-110950000D03*
X115925000Y-110950000D03*
X110875000Y-113490000D03*
X115925000Y-113490000D03*
%TD*%
D23*
%TO.C,TP4*%
X87000000Y-105000000D03*
%TD*%
D60*
%TO.C,U1*%
X82925000Y-58225000D03*
D61*
X82925000Y-58700000D03*
X82925000Y-59150000D03*
X82925000Y-59600000D03*
X82925000Y-60050000D03*
X82925000Y-60500000D03*
X82925000Y-60950000D03*
X82925000Y-61400000D03*
X82925000Y-61850000D03*
X82925000Y-62300000D03*
X82925000Y-62750000D03*
X82925000Y-63200000D03*
X82925000Y-63650000D03*
X82925000Y-64100000D03*
X82925000Y-64550000D03*
X82925000Y-65000000D03*
D60*
X82925000Y-65475000D03*
D62*
X83400000Y-65475000D03*
X83850000Y-65475000D03*
X84300000Y-65475000D03*
X84750000Y-65475000D03*
X85200000Y-65475000D03*
X85650000Y-65475000D03*
X86100000Y-65475000D03*
X86550000Y-65475000D03*
X87000000Y-65475000D03*
X87450000Y-65475000D03*
X87900000Y-65475000D03*
X88350000Y-65475000D03*
X88800000Y-65475000D03*
D60*
X89275000Y-65475000D03*
D61*
X89275000Y-65000000D03*
X89275000Y-64550000D03*
X89275000Y-64100000D03*
X89275000Y-63650000D03*
X89275000Y-63200000D03*
X89275000Y-62750000D03*
X89275000Y-62300000D03*
X89275000Y-61850000D03*
X89275000Y-61400000D03*
X89275000Y-60950000D03*
X89275000Y-60500000D03*
X89275000Y-60050000D03*
X89275000Y-59600000D03*
X89275000Y-59150000D03*
X89275000Y-58700000D03*
D60*
X89275000Y-58225000D03*
D62*
X88800000Y-58225000D03*
X88350000Y-58225000D03*
X87900000Y-58225000D03*
X87450000Y-58225000D03*
X87000000Y-58225000D03*
X86550000Y-58225000D03*
X86100000Y-58225000D03*
X85650000Y-58225000D03*
X85200000Y-58225000D03*
X84750000Y-58225000D03*
X84300000Y-58225000D03*
X83850000Y-58225000D03*
X83400000Y-58225000D03*
D63*
X84750000Y-59600000D03*
X84750000Y-60500000D03*
X84750000Y-61400000D03*
X84750000Y-62300000D03*
X84750000Y-63200000D03*
X84750000Y-64100000D03*
X85650000Y-64100000D03*
X86550000Y-64100000D03*
X87450000Y-64100000D03*
X87450000Y-63200000D03*
X87450000Y-62300000D03*
X87450000Y-61400000D03*
X87450000Y-60500000D03*
X87450000Y-59600000D03*
X86550000Y-59600000D03*
X85650000Y-59600000D03*
X85650000Y-60500000D03*
X85650000Y-61400000D03*
X85650000Y-62300000D03*
X85650000Y-63200000D03*
X86550000Y-63200000D03*
X86550000Y-62300000D03*
X86550000Y-61400000D03*
X86550000Y-60500000D03*
D64*
X83050000Y-55265000D03*
X89150000Y-55265000D03*
%TD*%
D32*
%TO.C,R153*%
X118500000Y-140010000D03*
X118500000Y-138990000D03*
%TD*%
D65*
%TO.C,SW4*%
X102800000Y-122900000D03*
X102800000Y-116100000D03*
D66*
X100050000Y-122000000D03*
X100050000Y-119500000D03*
X100050000Y-117000000D03*
%TD*%
D27*
%TO.C,C435*%
X110020000Y-66600000D03*
X110980000Y-66600000D03*
%TD*%
D31*
%TO.C,D302*%
X98650000Y-112425000D03*
X99350000Y-112425000D03*
X99000000Y-111575000D03*
%TD*%
D40*
%TO.C,C2*%
X90000000Y-73275000D03*
X90000000Y-71725000D03*
%TD*%
D28*
%TO.C,R5*%
X101000000Y-113325000D03*
X101000000Y-111675000D03*
%TD*%
D27*
%TO.C,C500*%
X82020000Y-82700000D03*
X82980000Y-82700000D03*
%TD*%
D24*
%TO.C,C446*%
X116700000Y-69380000D03*
X116700000Y-68420000D03*
%TD*%
D67*
%TO.C,SW3*%
X98700000Y-99150000D03*
X98700000Y-92850000D03*
X102500000Y-99150000D03*
X102500000Y-92850000D03*
%TD*%
D30*
%TO.C,R8*%
X82675000Y-77500000D03*
X84325000Y-77500000D03*
%TD*%
D35*
%TO.C,U153*%
X105362500Y-135550000D03*
X105362500Y-136500000D03*
X105362500Y-137450000D03*
X107637500Y-137450000D03*
X107637500Y-136500000D03*
X107637500Y-135550000D03*
%TD*%
D50*
%TO.C,C432*%
X103680000Y-66000000D03*
X102720000Y-66000000D03*
%TD*%
D25*
%TO.C,R112*%
X83490000Y-136000000D03*
X84510000Y-136000000D03*
%TD*%
D56*
%TO.C,D711*%
X101050000Y-56500000D03*
X98350000Y-56500000D03*
%TD*%
D41*
%TO.C,C207*%
X118200000Y-134475000D03*
X118200000Y-131525000D03*
%TD*%
D40*
%TO.C,C155*%
X97500000Y-141275000D03*
X97500000Y-139725000D03*
%TD*%
D50*
%TO.C,C454*%
X107480000Y-73200000D03*
X106520000Y-73200000D03*
%TD*%
D67*
%TO.C,SW2*%
X98700000Y-88650000D03*
X98700000Y-82350000D03*
X102500000Y-88650000D03*
X102500000Y-82350000D03*
%TD*%
D27*
%TO.C,C441*%
X110020000Y-65500000D03*
X110980000Y-65500000D03*
%TD*%
D68*
%TO.C,U432*%
X115000000Y-80400000D03*
X115000000Y-80000000D03*
X115000000Y-79600000D03*
X114600000Y-79600000D03*
X114200000Y-79600000D03*
X114200000Y-80000000D03*
X114200000Y-80400000D03*
X114600000Y-80400000D03*
X114600000Y-80000000D03*
%TD*%
D69*
%TO.C,Y430*%
X106225000Y-70500000D03*
X107575000Y-70500000D03*
X107575000Y-69500000D03*
X106225000Y-69500000D03*
%TD*%
D26*
%TO.C,C439*%
X105625000Y-60000000D03*
X107175000Y-60000000D03*
%TD*%
D30*
%TO.C,R203*%
X99175000Y-130500000D03*
X100825000Y-130500000D03*
%TD*%
D25*
%TO.C,R157*%
X94990000Y-128500000D03*
X96010000Y-128500000D03*
%TD*%
D26*
%TO.C,C509*%
X84825000Y-91800000D03*
X86375000Y-91800000D03*
%TD*%
D32*
%TO.C,R110*%
X90000000Y-135010000D03*
X90000000Y-133990000D03*
%TD*%
D70*
%TO.C,U431*%
X114200000Y-69200000D03*
X114200000Y-69600000D03*
X114200000Y-70000000D03*
X114600000Y-70000000D03*
X115000000Y-70000000D03*
X115000000Y-69600000D03*
X115000000Y-69200000D03*
X114600000Y-69200000D03*
X114600000Y-69600000D03*
%TD*%
D30*
%TO.C,R14*%
X97175000Y-68000000D03*
X98825000Y-68000000D03*
%TD*%
D26*
%TO.C,C524*%
X92725000Y-85500000D03*
X94275000Y-85500000D03*
%TD*%
D71*
%TO.C,U111*%
X83700000Y-137300000D03*
D72*
X83875000Y-137125000D03*
D73*
X83700000Y-137775000D03*
X83700000Y-138225000D03*
D71*
X83700000Y-138700000D03*
D72*
X83875000Y-138875000D03*
D74*
X84350000Y-138000000D03*
X84850000Y-138000000D03*
D72*
X85325000Y-138875000D03*
D71*
X85500000Y-138700000D03*
D73*
X85500000Y-138225000D03*
X85500000Y-137775000D03*
D72*
X85325000Y-137125000D03*
D71*
X85500000Y-137300000D03*
%TD*%
D37*
%TO.C,L444*%
X117000000Y-74015000D03*
X117000000Y-74985000D03*
%TD*%
D25*
%TO.C,R113*%
X83490000Y-135000000D03*
X84510000Y-135000000D03*
%TD*%
D32*
%TO.C,R118*%
X93500000Y-130010000D03*
X93500000Y-128990000D03*
%TD*%
D75*
%TO.C,T430*%
X114160000Y-64505000D03*
X113500000Y-64505000D03*
X112840000Y-64505000D03*
X112840000Y-65495000D03*
X113500000Y-65495000D03*
X114160000Y-65495000D03*
%TD*%
D32*
%TO.C,R724*%
X110000000Y-89010000D03*
X110000000Y-87990000D03*
%TD*%
D28*
%TO.C,R201*%
X96000000Y-142325000D03*
X96000000Y-140675000D03*
%TD*%
D35*
%TO.C,U740*%
X94862500Y-60050000D03*
X94862500Y-61000000D03*
X94862500Y-61950000D03*
X97137500Y-61950000D03*
X97137500Y-60050000D03*
%TD*%
D23*
%TO.C,TP3*%
X85000000Y-94000000D03*
%TD*%
D42*
%TO.C,R501*%
X92200000Y-100075000D03*
X92200000Y-101725000D03*
%TD*%
D71*
%TO.C,U151*%
X115500000Y-137400000D03*
D72*
X115675000Y-137225000D03*
D73*
X115500000Y-137875000D03*
X115500000Y-138325000D03*
D71*
X115500000Y-138800000D03*
D72*
X115675000Y-138975000D03*
D74*
X116150000Y-138100000D03*
X116650000Y-138100000D03*
D72*
X117125000Y-138975000D03*
D71*
X117300000Y-138800000D03*
D73*
X117300000Y-138325000D03*
X117300000Y-137875000D03*
D72*
X117125000Y-137225000D03*
D71*
X117300000Y-137400000D03*
%TD*%
D76*
%TO.C,J430*%
X108475000Y-80800000D03*
D77*
X110000000Y-79325000D03*
X110000000Y-82275000D03*
%TD*%
D34*
%TO.C,D110*%
X85925000Y-133850000D03*
X85925000Y-133150000D03*
X85075000Y-133500000D03*
%TD*%
D55*
%TO.C,C111*%
X82000000Y-137950000D03*
X82000000Y-136050000D03*
%TD*%
D26*
%TO.C,C529*%
X92725000Y-87100000D03*
X94275000Y-87100000D03*
%TD*%
D78*
%TO.C,L430*%
X115515000Y-64500000D03*
X116485000Y-64500000D03*
%TD*%
D26*
%TO.C,C505*%
X82725000Y-80700000D03*
X84275000Y-80700000D03*
%TD*%
D78*
%TO.C,L431*%
X117515000Y-64500000D03*
X118485000Y-64500000D03*
%TD*%
D23*
%TO.C,TP5*%
X89500000Y-125500000D03*
%TD*%
%TO.C,TP151*%
X94500000Y-145500000D03*
%TD*%
D28*
%TO.C,R202*%
X97000000Y-138325000D03*
X97000000Y-136675000D03*
%TD*%
D32*
%TO.C,R160*%
X102500000Y-143510000D03*
X102500000Y-142490000D03*
%TD*%
D79*
%TO.C,D740*%
X105000000Y-104650000D03*
X105000000Y-101350000D03*
%TD*%
D22*
%TO.C,H4*%
X100000000Y-144000000D03*
%TD*%
D40*
%TO.C,C511*%
X88000000Y-92775000D03*
X88000000Y-91225000D03*
%TD*%
D11*
%TO.C,J101*%
X84610000Y-141895000D03*
X90390000Y-141895000D03*
D12*
X84300000Y-140820000D03*
X85100000Y-140820000D03*
D13*
X86250000Y-140820000D03*
X87250000Y-140820000D03*
X87750000Y-140820000D03*
X88750000Y-140820000D03*
D12*
X89900000Y-140820000D03*
X90700000Y-140820000D03*
X90700000Y-140820000D03*
X89900000Y-140820000D03*
D13*
X89250000Y-140820000D03*
X88250000Y-140820000D03*
X86750000Y-140820000D03*
X85750000Y-140820000D03*
D12*
X85100000Y-140820000D03*
X84300000Y-140820000D03*
D14*
X83180000Y-141395000D03*
D15*
X83180000Y-145575000D03*
D14*
X91820000Y-141395000D03*
D15*
X91820000Y-145575000D03*
%TD*%
D23*
%TO.C,TP7*%
X106000000Y-126500000D03*
%TD*%
D37*
%TO.C,L443*%
X117000000Y-71515000D03*
X117000000Y-72485000D03*
%TD*%
D30*
%TO.C,R6*%
X85675000Y-78000000D03*
X87325000Y-78000000D03*
%TD*%
D32*
%TO.C,R741*%
X103000000Y-62510000D03*
X103000000Y-61490000D03*
%TD*%
D80*
%TO.C,C204*%
X107300000Y-128745000D03*
X107300000Y-129705000D03*
%TD*%
D81*
%TO.C,Y500*%
X83675000Y-84500000D03*
X82325000Y-84500000D03*
X82325000Y-85500000D03*
X83675000Y-85500000D03*
%TD*%
D21*
%TO.C,J710*%
X105300000Y-90500000D03*
X107300000Y-90500000D03*
%TD*%
D56*
%TO.C,D712*%
X105250000Y-56500000D03*
X102550000Y-56500000D03*
%TD*%
D50*
%TO.C,C451*%
X110980000Y-75700000D03*
X110020000Y-75700000D03*
%TD*%
D40*
%TO.C,C153*%
X103500000Y-137275000D03*
X103500000Y-135725000D03*
%TD*%
D26*
%TO.C,C115*%
X95725000Y-134000000D03*
X97275000Y-134000000D03*
%TD*%
D24*
%TO.C,C431*%
X109400000Y-70480000D03*
X109400000Y-69520000D03*
%TD*%
D82*
%TO.C,U500*%
X86000000Y-83250000D03*
X86000000Y-83750000D03*
X86000000Y-84250000D03*
X86000000Y-84750000D03*
X86000000Y-85250000D03*
X86000000Y-85750000D03*
X86000000Y-86250000D03*
X86000000Y-86750000D03*
D83*
X86750000Y-87500000D03*
X87250000Y-87500000D03*
X87750000Y-87500000D03*
X88250000Y-87500000D03*
X88750000Y-87500000D03*
X89250000Y-87500000D03*
X89750000Y-87500000D03*
X90250000Y-87500000D03*
D82*
X91000000Y-86750000D03*
X91000000Y-86250000D03*
X91000000Y-85750000D03*
X91000000Y-85250000D03*
X91000000Y-84750000D03*
X91000000Y-84250000D03*
X91000000Y-83750000D03*
X91000000Y-83250000D03*
D83*
X90250000Y-82500000D03*
X89750000Y-82500000D03*
X89250000Y-82500000D03*
X88750000Y-82500000D03*
X88250000Y-82500000D03*
X87750000Y-82500000D03*
X87250000Y-82500000D03*
X86750000Y-82500000D03*
D84*
X88500000Y-85000000D03*
%TD*%
D26*
%TO.C,C710*%
X91225000Y-75000000D03*
X92775000Y-75000000D03*
%TD*%
D30*
%TO.C,R13*%
X91175000Y-77000000D03*
X92825000Y-77000000D03*
%TD*%
D85*
%TO.C,L501*%
X92200000Y-89712500D03*
X92200000Y-91287500D03*
%TD*%
%TO.C,L500*%
X90300000Y-89712500D03*
X90300000Y-91287500D03*
%TD*%
D86*
%TO.C,U710*%
X91850000Y-73337500D03*
X92500000Y-73337500D03*
X93150000Y-73337500D03*
X93150000Y-71662500D03*
X92500000Y-71662500D03*
X91850000Y-71662500D03*
%TD*%
D35*
%TO.C,U154*%
X94862500Y-125050000D03*
X94862500Y-126000000D03*
X94862500Y-126950000D03*
X97137500Y-126950000D03*
X97137500Y-125050000D03*
%TD*%
D27*
%TO.C,C453*%
X118020000Y-75700000D03*
X118980000Y-75700000D03*
%TD*%
M02*
