%TF.GenerationSoftware,KiCad,Pcbnew,10.0.6*%
%TF.CreationDate,2026-09-10T10:45:21+08:00*%
%TF.ProjectId,FD-MAIN-01,46442d4d-4149-44e2-9d30-312e6b696361,K / eight-layer engineering review*%
%TF.SameCoordinates,Original*%
%TF.FileFunction,Soldermask,Bot*%
%TF.FilePolarity,Negative*%
%FSLAX46Y46*%
G04 Gerber Fmt 4.6, Leading zero omitted, Abs format (unit mm)*
G04 Created by KiCad (PCBNEW 10.0.6) date 2026-09-10 10:45:21*
%MOMM*%
%LPD*%
G01*
G04 APERTURE LIST*
G04 Aperture macros list*
%AMRoundRect*
0 Rectangle with rounded corners*
0 $1 Rounding radius*
0 $2 $3 $4 $5 $6 $7 $8 $9 X,Y pos of 4 corners*
0 Add a 4 corners polygon primitive as box body*
4,1,4,$2,$3,$4,$5,$6,$7,$8,$9,$2,$3,0*
0 Add four circle primitives for the rounded corners*
1,1,$1+$1,$2,$3*
1,1,$1+$1,$4,$5*
1,1,$1+$1,$6,$7*
1,1,$1+$1,$8,$9*
0 Add four rect primitives between the rounded corners*
20,1,$1+$1,$2,$3,$4,$5,0*
20,1,$1+$1,$4,$5,$6,$7,0*
20,1,$1+$1,$6,$7,$8,$9,0*
20,1,$1+$1,$8,$9,$2,$3,0*%
G04 Aperture macros list end*
%ADD10C,0.650000*%
%ADD11O,1.000000X2.100000*%
%ADD12O,1.000000X1.800000*%
%ADD13C,2.400000*%
%ADD14C,0.900000*%
%ADD15RoundRect,0.135000X-0.185000X0.135000X-0.185000X-0.135000X0.185000X-0.135000X0.185000X0.135000X0*%
%ADD16RoundRect,0.250000X0.262500X0.450000X-0.262500X0.450000X-0.262500X-0.450000X0.262500X-0.450000X0*%
%ADD17RoundRect,0.200000X-0.275000X0.200000X-0.275000X-0.200000X0.275000X-0.200000X0.275000X0.200000X0*%
%ADD18RoundRect,0.087500X-0.087500X0.425000X-0.087500X-0.425000X0.087500X-0.425000X0.087500X0.425000X0*%
%ADD19RoundRect,0.140000X-0.170000X0.140000X-0.170000X-0.140000X0.170000X-0.140000X0.170000X0.140000X0*%
%ADD20RoundRect,0.087500X0.425000X0.087500X-0.425000X0.087500X-0.425000X-0.087500X0.425000X-0.087500X0*%
%ADD21RoundRect,0.150000X-0.150000X0.512500X-0.150000X-0.512500X0.150000X-0.512500X0.150000X0.512500X0*%
%ADD22RoundRect,0.140000X-0.140000X-0.170000X0.140000X-0.170000X0.140000X0.170000X-0.140000X0.170000X0*%
%ADD23C,1.000000*%
%ADD24RoundRect,0.135000X0.135000X0.185000X-0.135000X0.185000X-0.135000X-0.185000X0.135000X-0.185000X0*%
%ADD25RoundRect,0.150000X-0.700000X0.150000X-0.700000X-0.150000X0.700000X-0.150000X0.700000X0.150000X0*%
%ADD26RoundRect,0.250000X-1.100000X0.250000X-1.100000X-0.250000X1.100000X-0.250000X1.100000X0.250000X0*%
%ADD27RoundRect,0.140000X0.140000X0.170000X-0.140000X0.170000X-0.140000X-0.170000X0.140000X-0.170000X0*%
%ADD28RoundRect,0.200000X0.200000X0.275000X-0.200000X0.275000X-0.200000X-0.275000X0.200000X-0.275000X0*%
%ADD29R,1.700000X1.000000*%
%ADD30RoundRect,0.112500X-0.112500X0.187500X-0.112500X-0.187500X0.112500X-0.187500X0.112500X0.187500X0*%
%ADD31RoundRect,0.100000X0.637500X0.100000X-0.637500X0.100000X-0.637500X-0.100000X0.637500X-0.100000X0*%
%ADD32RoundRect,0.150000X0.512500X0.150000X-0.512500X0.150000X-0.512500X-0.150000X0.512500X-0.150000X0*%
%ADD33RoundRect,0.225000X-0.250000X0.225000X-0.250000X-0.225000X0.250000X-0.225000X0.250000X0.225000X0*%
%ADD34RoundRect,0.225000X0.250000X-0.225000X0.250000X0.225000X-0.250000X0.225000X-0.250000X-0.225000X0*%
%ADD35RoundRect,0.225000X0.225000X0.250000X-0.225000X0.250000X-0.225000X-0.250000X0.225000X-0.250000X0*%
%ADD36RoundRect,0.125000X0.687500X0.125000X-0.687500X0.125000X-0.687500X-0.125000X0.687500X-0.125000X0*%
%ADD37RoundRect,0.075000X-0.075000X0.075000X-0.075000X-0.075000X0.075000X-0.075000X0.075000X0.075000X0*%
%ADD38RoundRect,0.150000X0.587500X0.150000X-0.587500X0.150000X-0.587500X-0.150000X0.587500X-0.150000X0*%
%ADD39RoundRect,0.250000X0.250000X0.475000X-0.250000X0.475000X-0.250000X-0.475000X0.250000X-0.475000X0*%
%ADD40RoundRect,0.150000X-0.150000X0.587500X-0.150000X-0.587500X0.150000X-0.587500X0.150000X0.587500X0*%
%ADD41RoundRect,0.225000X-0.225000X-0.250000X0.225000X-0.250000X0.225000X0.250000X-0.225000X0.250000X0*%
%ADD42RoundRect,0.250000X-0.475000X0.250000X-0.475000X-0.250000X0.475000X-0.250000X0.475000X0.250000X0*%
%ADD43RoundRect,0.225000X-0.375000X0.225000X-0.375000X-0.225000X0.375000X-0.225000X0.375000X0.225000X0*%
%ADD44RoundRect,0.140000X0.170000X-0.140000X0.170000X0.140000X-0.170000X0.140000X-0.170000X-0.140000X0*%
%ADD45RoundRect,0.075000X0.075000X0.075000X-0.075000X0.075000X-0.075000X-0.075000X0.075000X-0.075000X0*%
%ADD46RoundRect,0.100000X-0.155000X-0.100000X0.155000X-0.100000X0.155000X0.100000X-0.155000X0.100000X0*%
G04 APERTURE END LIST*
D10*
%TO.C,J102*%
X109610000Y-141895000D03*
X115390000Y-141895000D03*
D11*
X108180000Y-141395000D03*
D12*
X108180000Y-145575000D03*
D11*
X116820000Y-141395000D03*
D12*
X116820000Y-145575000D03*
%TD*%
D13*
%TO.C,H2*%
X117000000Y-57000000D03*
%TD*%
%TO.C,H1*%
X83000000Y-73000000D03*
%TD*%
%TO.C,H3*%
X83000000Y-132000000D03*
%TD*%
D14*
%TO.C,SW4*%
X102800000Y-122900000D03*
X102800000Y-116100000D03*
%TD*%
D13*
%TO.C,H4*%
X100000000Y-144000000D03*
%TD*%
D10*
%TO.C,J101*%
X84610000Y-141895000D03*
X90390000Y-141895000D03*
D11*
X83180000Y-141395000D03*
D12*
X83180000Y-145575000D03*
D11*
X91820000Y-141395000D03*
D12*
X91820000Y-145575000D03*
%TD*%
D15*
%TO.C,R404*%
X91500000Y-77490000D03*
X91500000Y-78510000D03*
%TD*%
D16*
%TO.C,R612*%
X92912500Y-103500000D03*
X91087500Y-103500000D03*
%TD*%
D17*
%TO.C,R316*%
X86000000Y-109675000D03*
X86000000Y-111325000D03*
%TD*%
D18*
%TO.C,U301*%
X85350000Y-66662500D03*
X86000000Y-66662500D03*
X86650000Y-66662500D03*
X86650000Y-68337500D03*
X86000000Y-68337500D03*
X85350000Y-68337500D03*
%TD*%
D19*
%TO.C,C621*%
X97000000Y-93520000D03*
X97000000Y-94480000D03*
%TD*%
D20*
%TO.C,U602*%
X93837500Y-93350000D03*
X93837500Y-94000000D03*
X93837500Y-94650000D03*
X92162500Y-94650000D03*
X92162500Y-94000000D03*
X92162500Y-93350000D03*
%TD*%
D21*
%TO.C,U194*%
X86550000Y-79362500D03*
X87500000Y-79362500D03*
X88450000Y-79362500D03*
X88450000Y-81637500D03*
X86550000Y-81637500D03*
%TD*%
D15*
%TO.C,R608*%
X83000000Y-97990000D03*
X83000000Y-99010000D03*
%TD*%
%TO.C,R609*%
X81500000Y-88990000D03*
X81500000Y-90010000D03*
%TD*%
D22*
%TO.C,C730*%
X111520000Y-134000000D03*
X112480000Y-134000000D03*
%TD*%
D23*
%TO.C,TP700*%
X116500000Y-101000000D03*
%TD*%
D24*
%TO.C,R628*%
X89510000Y-105500000D03*
X88490000Y-105500000D03*
%TD*%
D25*
%TO.C,J730*%
X114050000Y-118325000D03*
X114050000Y-119575000D03*
X114050000Y-120825000D03*
X114050000Y-122075000D03*
X114050000Y-123325000D03*
X114050000Y-124575000D03*
X114050000Y-125825000D03*
X114050000Y-127075000D03*
D26*
X117250000Y-116475000D03*
X117250000Y-128925000D03*
%TD*%
D27*
%TO.C,C613*%
X85980000Y-91750000D03*
X85020000Y-91750000D03*
%TD*%
D17*
%TO.C,R307*%
X99000000Y-110675000D03*
X99000000Y-112325000D03*
%TD*%
D28*
%TO.C,R308*%
X100825000Y-114000000D03*
X99175000Y-114000000D03*
%TD*%
D29*
%TO.C,SW5*%
X99150000Y-125100000D03*
X92850000Y-125100000D03*
X99150000Y-128900000D03*
X92850000Y-128900000D03*
%TD*%
D28*
%TO.C,R15*%
X96825000Y-122800000D03*
X95175000Y-122800000D03*
%TD*%
D30*
%TO.C,D601*%
X81500000Y-96450000D03*
X81500000Y-98550000D03*
%TD*%
D15*
%TO.C,R620*%
X81000000Y-84990000D03*
X81000000Y-86010000D03*
%TD*%
D31*
%TO.C,U403*%
X100862500Y-75075000D03*
X100862500Y-75725000D03*
X100862500Y-76375000D03*
X100862500Y-77025000D03*
X100862500Y-77675000D03*
X100862500Y-78325000D03*
X100862500Y-78975000D03*
X100862500Y-79625000D03*
X100862500Y-80275000D03*
X100862500Y-80925000D03*
X95137500Y-80925000D03*
X95137500Y-80275000D03*
X95137500Y-79625000D03*
X95137500Y-78975000D03*
X95137500Y-78325000D03*
X95137500Y-77675000D03*
X95137500Y-77025000D03*
X95137500Y-76375000D03*
X95137500Y-75725000D03*
X95137500Y-75075000D03*
%TD*%
D32*
%TO.C,U731*%
X107637500Y-128550000D03*
X107637500Y-129500000D03*
X107637500Y-130450000D03*
X105362500Y-130450000D03*
X105362500Y-128550000D03*
%TD*%
D21*
%TO.C,U401*%
X108050000Y-71862500D03*
X109000000Y-71862500D03*
X109950000Y-71862500D03*
X109950000Y-74137500D03*
X108050000Y-74137500D03*
%TD*%
D15*
%TO.C,R701*%
X114500000Y-97490000D03*
X114500000Y-98510000D03*
%TD*%
D33*
%TO.C,C713*%
X115250000Y-86725000D03*
X115250000Y-88275000D03*
%TD*%
D28*
%TO.C,R315*%
X93825000Y-120000000D03*
X92175000Y-120000000D03*
%TD*%
D17*
%TO.C,R310*%
X96000000Y-109175000D03*
X96000000Y-110825000D03*
%TD*%
%TO.C,R309*%
X97500000Y-110175000D03*
X97500000Y-111825000D03*
%TD*%
D24*
%TO.C,R405*%
X88510000Y-83500000D03*
X87490000Y-83500000D03*
%TD*%
D15*
%TO.C,R718*%
X114500000Y-104490000D03*
X114500000Y-105510000D03*
%TD*%
%TO.C,R700*%
X103500000Y-96990000D03*
X103500000Y-98010000D03*
%TD*%
D34*
%TO.C,C154*%
X98250000Y-123025000D03*
X98250000Y-121475000D03*
%TD*%
D28*
%TO.C,R311*%
X98325000Y-120000000D03*
X96675000Y-120000000D03*
%TD*%
D21*
%TO.C,U192*%
X103050000Y-71862500D03*
X104000000Y-71862500D03*
X104950000Y-71862500D03*
X104950000Y-74137500D03*
X103050000Y-74137500D03*
%TD*%
%TO.C,U603*%
X91050000Y-61362500D03*
X92000000Y-61362500D03*
X92950000Y-61362500D03*
X92950000Y-63637500D03*
X91050000Y-63637500D03*
%TD*%
D15*
%TO.C,R191*%
X93500000Y-135490000D03*
X93500000Y-136510000D03*
%TD*%
%TO.C,R600*%
X95500000Y-90990000D03*
X95500000Y-92010000D03*
%TD*%
D35*
%TO.C,C197*%
X85025000Y-81750000D03*
X83475000Y-81750000D03*
%TD*%
D21*
%TO.C,U191*%
X88550000Y-135862500D03*
X89500000Y-135862500D03*
X90450000Y-135862500D03*
X90450000Y-138137500D03*
X88550000Y-138137500D03*
%TD*%
D36*
%TO.C,U604*%
X90112500Y-85525000D03*
X90112500Y-86175000D03*
X90112500Y-86825000D03*
X90112500Y-87475000D03*
X85887500Y-87475000D03*
X85887500Y-86825000D03*
X85887500Y-86175000D03*
X85887500Y-85525000D03*
%TD*%
D15*
%TO.C,R629*%
X81000000Y-102990000D03*
X81000000Y-104010000D03*
%TD*%
%TO.C,R711*%
X108000000Y-110990000D03*
X108000000Y-112010000D03*
%TD*%
%TO.C,R710*%
X109000000Y-110990000D03*
X109000000Y-112010000D03*
%TD*%
D33*
%TO.C,C600*%
X95500000Y-93225000D03*
X95500000Y-94775000D03*
%TD*%
D15*
%TO.C,R190*%
X92000000Y-134990000D03*
X92000000Y-136010000D03*
%TD*%
D27*
%TO.C,C622*%
X91980000Y-100000000D03*
X91020000Y-100000000D03*
%TD*%
D37*
%TO.C,D701*%
X113425000Y-100650000D03*
X113425000Y-101350000D03*
X112575000Y-101000000D03*
%TD*%
D24*
%TO.C,R180*%
X106010000Y-134000000D03*
X104990000Y-134000000D03*
%TD*%
%TO.C,R181*%
X109010000Y-136000000D03*
X107990000Y-136000000D03*
%TD*%
D21*
%TO.C,U402*%
X91050000Y-73362500D03*
X92000000Y-73362500D03*
X92950000Y-73362500D03*
X92950000Y-75637500D03*
X91050000Y-75637500D03*
%TD*%
D18*
%TO.C,U400*%
X86850000Y-70162500D03*
X87500000Y-70162500D03*
X88150000Y-70162500D03*
X88150000Y-71837500D03*
X87500000Y-71837500D03*
X86850000Y-71837500D03*
%TD*%
D17*
%TO.C,R312*%
X101000000Y-115675000D03*
X101000000Y-117325000D03*
%TD*%
D38*
%TO.C,Q600*%
X89937500Y-89550000D03*
X89937500Y-91450000D03*
X88062500Y-90500000D03*
%TD*%
D21*
%TO.C,U193*%
X85550000Y-74862500D03*
X86500000Y-74862500D03*
X87450000Y-74862500D03*
X87450000Y-77137500D03*
X85550000Y-77137500D03*
%TD*%
D24*
%TO.C,R194*%
X100510000Y-139000000D03*
X99490000Y-139000000D03*
%TD*%
D22*
%TO.C,C701*%
X105520000Y-103000000D03*
X106480000Y-103000000D03*
%TD*%
D15*
%TO.C,R606*%
X90000000Y-78990000D03*
X90000000Y-80010000D03*
%TD*%
D39*
%TO.C,C181*%
X105950000Y-132500000D03*
X104050000Y-132500000D03*
%TD*%
D20*
%TO.C,U606*%
X85837500Y-98350000D03*
X85837500Y-99000000D03*
X85837500Y-99650000D03*
X84162500Y-99650000D03*
X84162500Y-98350000D03*
%TD*%
D24*
%TO.C,R626*%
X84510000Y-83000000D03*
X83490000Y-83000000D03*
%TD*%
D21*
%TO.C,U600*%
X82050000Y-66862500D03*
X83000000Y-66862500D03*
X83950000Y-66862500D03*
X83950000Y-69137500D03*
X82050000Y-69137500D03*
%TD*%
D15*
%TO.C,R616*%
X81500000Y-91990000D03*
X81500000Y-93010000D03*
%TD*%
%TO.C,R735*%
X103000000Y-123990000D03*
X103000000Y-125010000D03*
%TD*%
D27*
%TO.C,C731*%
X103980000Y-128500000D03*
X103020000Y-128500000D03*
%TD*%
D24*
%TO.C,R713*%
X109010000Y-113500000D03*
X107990000Y-113500000D03*
%TD*%
%TO.C,R408*%
X95010000Y-83000000D03*
X93990000Y-83000000D03*
%TD*%
D28*
%TO.C,R314*%
X92325000Y-109000000D03*
X90675000Y-109000000D03*
%TD*%
D35*
%TO.C,C195*%
X101525000Y-73500000D03*
X99975000Y-73500000D03*
%TD*%
D17*
%TO.C,R302*%
X89000000Y-73175000D03*
X89000000Y-74825000D03*
%TD*%
D32*
%TO.C,U190*%
X86637500Y-136050000D03*
X86637500Y-137000000D03*
X86637500Y-137950000D03*
X84362500Y-137950000D03*
X84362500Y-137000000D03*
X84362500Y-136050000D03*
%TD*%
D16*
%TO.C,R604*%
X93412500Y-101500000D03*
X91587500Y-101500000D03*
%TD*%
D24*
%TO.C,R624*%
X82510000Y-100000000D03*
X81490000Y-100000000D03*
%TD*%
D15*
%TO.C,R717*%
X114500000Y-102490000D03*
X114500000Y-103510000D03*
%TD*%
D35*
%TO.C,C607*%
X86275000Y-90000000D03*
X84725000Y-90000000D03*
%TD*%
D15*
%TO.C,R407*%
X93500000Y-80490000D03*
X93500000Y-81510000D03*
%TD*%
D40*
%TO.C,Q602*%
X92050000Y-85562500D03*
X93950000Y-85562500D03*
X93000000Y-87437500D03*
%TD*%
D24*
%TO.C,R615*%
X83010000Y-86000000D03*
X81990000Y-86000000D03*
%TD*%
D31*
%TO.C,U701*%
X110862500Y-104075000D03*
X110862500Y-104725000D03*
X110862500Y-105375000D03*
X110862500Y-106025000D03*
X110862500Y-106675000D03*
X110862500Y-107325000D03*
X110862500Y-107975000D03*
X110862500Y-108625000D03*
X110862500Y-109275000D03*
X110862500Y-109925000D03*
X105137500Y-109925000D03*
X105137500Y-109275000D03*
X105137500Y-108625000D03*
X105137500Y-107975000D03*
X105137500Y-107325000D03*
X105137500Y-106675000D03*
X105137500Y-106025000D03*
X105137500Y-105375000D03*
X105137500Y-104725000D03*
X105137500Y-104075000D03*
%TD*%
D41*
%TO.C,C7*%
X91475000Y-67000000D03*
X93025000Y-67000000D03*
%TD*%
D24*
%TO.C,R401*%
X111010000Y-75750000D03*
X109990000Y-75750000D03*
%TD*%
D33*
%TO.C,C400*%
X85500000Y-70225000D03*
X85500000Y-71775000D03*
%TD*%
D16*
%TO.C,R603*%
X84412500Y-105500000D03*
X82587500Y-105500000D03*
%TD*%
D22*
%TO.C,C625*%
X84270000Y-97250000D03*
X85230000Y-97250000D03*
%TD*%
D39*
%TO.C,C605*%
X84450000Y-103500000D03*
X82550000Y-103500000D03*
%TD*%
D42*
%TO.C,C302*%
X88500000Y-116550000D03*
X88500000Y-118450000D03*
%TD*%
D43*
%TO.C,D600*%
X86500000Y-102850000D03*
X86500000Y-106150000D03*
%TD*%
D24*
%TO.C,R195*%
X98510000Y-139000000D03*
X97490000Y-139000000D03*
%TD*%
D15*
%TO.C,R716*%
X116500000Y-98490000D03*
X116500000Y-99510000D03*
%TD*%
D32*
%TO.C,U303*%
X99137500Y-116550000D03*
X99137500Y-117500000D03*
X99137500Y-118450000D03*
X96862500Y-118450000D03*
X96862500Y-116550000D03*
%TD*%
D24*
%TO.C,R733*%
X108010000Y-119500000D03*
X106990000Y-119500000D03*
%TD*%
D40*
%TO.C,D602*%
X90050000Y-81562500D03*
X91950000Y-81562500D03*
X91000000Y-83437500D03*
%TD*%
D34*
%TO.C,C110*%
X87000000Y-132275000D03*
X87000000Y-130725000D03*
%TD*%
D15*
%TO.C,R402*%
X95000000Y-72990000D03*
X95000000Y-74010000D03*
%TD*%
%TO.C,R607*%
X95500000Y-85490000D03*
X95500000Y-86510000D03*
%TD*%
D17*
%TO.C,R306*%
X94000000Y-107675000D03*
X94000000Y-109325000D03*
%TD*%
D33*
%TO.C,C190*%
X92000000Y-137225000D03*
X92000000Y-138775000D03*
%TD*%
D37*
%TO.C,D732*%
X115425000Y-130650000D03*
X115425000Y-131350000D03*
X114575000Y-131000000D03*
%TD*%
D44*
%TO.C,C402*%
X106750000Y-74230000D03*
X106750000Y-73270000D03*
%TD*%
%TO.C,C603*%
X86750000Y-65480000D03*
X86750000Y-64520000D03*
%TD*%
D42*
%TO.C,C608*%
X83000000Y-89550000D03*
X83000000Y-91450000D03*
%TD*%
D45*
%TO.C,D705*%
X113350000Y-110925000D03*
X112650000Y-110925000D03*
X113000000Y-110075000D03*
%TD*%
D33*
%TO.C,C606*%
X84000000Y-93225000D03*
X84000000Y-94775000D03*
%TD*%
D24*
%TO.C,R731*%
X110010000Y-119500000D03*
X108990000Y-119500000D03*
%TD*%
D32*
%TO.C,U195*%
X110137500Y-132550000D03*
X110137500Y-133500000D03*
X110137500Y-134450000D03*
X107862500Y-134450000D03*
X107862500Y-133500000D03*
X107862500Y-132550000D03*
%TD*%
D45*
%TO.C,D704*%
X113350000Y-108425000D03*
X112650000Y-108425000D03*
X113000000Y-107575000D03*
%TD*%
D40*
%TO.C,Q601*%
X92050000Y-89562500D03*
X93950000Y-89562500D03*
X93000000Y-91437500D03*
%TD*%
D24*
%TO.C,R617*%
X84510000Y-84000000D03*
X83490000Y-84000000D03*
%TD*%
D21*
%TO.C,U702*%
X113050000Y-93362500D03*
X114000000Y-93362500D03*
X114950000Y-93362500D03*
X114950000Y-95637500D03*
X114000000Y-95637500D03*
X113050000Y-95637500D03*
%TD*%
D34*
%TO.C,C304*%
X88250000Y-109275000D03*
X88250000Y-107725000D03*
%TD*%
D19*
%TO.C,C620*%
X83000000Y-96020000D03*
X83000000Y-96980000D03*
%TD*%
D24*
%TO.C,R400*%
X90510000Y-71500000D03*
X89490000Y-71500000D03*
%TD*%
D28*
%TO.C,R301*%
X91325000Y-70000000D03*
X89675000Y-70000000D03*
%TD*%
D15*
%TO.C,R703*%
X114500000Y-99490000D03*
X114500000Y-100510000D03*
%TD*%
D34*
%TO.C,C301*%
X85500000Y-65275000D03*
X85500000Y-63725000D03*
%TD*%
D15*
%TO.C,R622*%
X98000000Y-92990000D03*
X98000000Y-94010000D03*
%TD*%
%TO.C,R611*%
X93000000Y-98990000D03*
X93000000Y-100010000D03*
%TD*%
D37*
%TO.C,D731*%
X113925000Y-130650000D03*
X113925000Y-131350000D03*
X113075000Y-131000000D03*
%TD*%
D45*
%TO.C,D730*%
X111850000Y-119925000D03*
X111150000Y-119925000D03*
X111500000Y-119075000D03*
%TD*%
D15*
%TO.C,R704*%
X110500000Y-101990000D03*
X110500000Y-103010000D03*
%TD*%
%TO.C,R732*%
X103000000Y-120490000D03*
X103000000Y-121510000D03*
%TD*%
%TO.C,R737*%
X110000000Y-117490000D03*
X110000000Y-118510000D03*
%TD*%
D35*
%TO.C,C611*%
X83775000Y-87500000D03*
X82225000Y-87500000D03*
%TD*%
D44*
%TO.C,C732*%
X104750000Y-119730000D03*
X104750000Y-118770000D03*
%TD*%
D27*
%TO.C,C700*%
X105230000Y-94000000D03*
X104270000Y-94000000D03*
%TD*%
D15*
%TO.C,R613*%
X94000000Y-98990000D03*
X94000000Y-100010000D03*
%TD*%
D35*
%TO.C,C303*%
X91775000Y-118500000D03*
X90225000Y-118500000D03*
%TD*%
D33*
%TO.C,C305*%
X95000000Y-116725000D03*
X95000000Y-118275000D03*
%TD*%
D24*
%TO.C,R610*%
X90510000Y-77500000D03*
X89490000Y-77500000D03*
%TD*%
D19*
%TO.C,C612*%
X84250000Y-85270000D03*
X84250000Y-86230000D03*
%TD*%
D15*
%TO.C,R623*%
X95000000Y-97990000D03*
X95000000Y-99010000D03*
%TD*%
%TO.C,R714*%
X115500000Y-98490000D03*
X115500000Y-99510000D03*
%TD*%
D29*
%TO.C,SW1*%
X89150000Y-125100000D03*
X82850000Y-125100000D03*
X89150000Y-128900000D03*
X82850000Y-128900000D03*
%TD*%
D37*
%TO.C,D700*%
X113425000Y-98150000D03*
X113425000Y-98850000D03*
X112575000Y-98500000D03*
%TD*%
D15*
%TO.C,R709*%
X114500000Y-106490000D03*
X114500000Y-107510000D03*
%TD*%
D35*
%TO.C,C401*%
X97775000Y-73500000D03*
X96225000Y-73500000D03*
%TD*%
D41*
%TO.C,C180*%
X111975000Y-132750000D03*
X113525000Y-132750000D03*
%TD*%
D27*
%TO.C,C742*%
X86980000Y-73000000D03*
X86020000Y-73000000D03*
%TD*%
D46*
%TO.C,Q603*%
X89645000Y-96500000D03*
X89645000Y-97500000D03*
X88355000Y-97000000D03*
%TD*%
D15*
%TO.C,R196*%
X88500000Y-132990000D03*
X88500000Y-134010000D03*
%TD*%
D33*
%TO.C,C192*%
X89250000Y-139975000D03*
X89250000Y-141525000D03*
%TD*%
D35*
%TO.C,C196*%
X84025000Y-77250000D03*
X82475000Y-77250000D03*
%TD*%
D33*
%TO.C,C703*%
X116500000Y-95725000D03*
X116500000Y-97275000D03*
%TD*%
D24*
%TO.C,R406*%
X95510000Y-72000000D03*
X94490000Y-72000000D03*
%TD*%
D44*
%TO.C,C609*%
X89750000Y-63730000D03*
X89750000Y-62770000D03*
%TD*%
D38*
%TO.C,D603*%
X89437500Y-99050000D03*
X89437500Y-100950000D03*
X87562500Y-100000000D03*
%TD*%
D33*
%TO.C,C194*%
X94000000Y-137725000D03*
X94000000Y-139275000D03*
%TD*%
D15*
%TO.C,R618*%
X82500000Y-83990000D03*
X82500000Y-85010000D03*
%TD*%
D33*
%TO.C,C306*%
X89500000Y-102725000D03*
X89500000Y-104275000D03*
%TD*%
D24*
%TO.C,R193*%
X90510000Y-134000000D03*
X89490000Y-134000000D03*
%TD*%
%TO.C,R403*%
X93010000Y-71500000D03*
X91990000Y-71500000D03*
%TD*%
D21*
%TO.C,U730*%
X109550000Y-128362500D03*
X110500000Y-128362500D03*
X111450000Y-128362500D03*
X111450000Y-130637500D03*
X109550000Y-130637500D03*
%TD*%
D19*
%TO.C,C624*%
X83000000Y-79520000D03*
X83000000Y-80480000D03*
%TD*%
D15*
%TO.C,R192*%
X87000000Y-133490000D03*
X87000000Y-134510000D03*
%TD*%
D31*
%TO.C,U732*%
X110362500Y-120875000D03*
X110362500Y-121525000D03*
X110362500Y-122175000D03*
X110362500Y-122825000D03*
X110362500Y-123475000D03*
X110362500Y-124125000D03*
X110362500Y-124775000D03*
X110362500Y-125425000D03*
X110362500Y-126075000D03*
X110362500Y-126725000D03*
X104637500Y-126725000D03*
X104637500Y-126075000D03*
X104637500Y-125425000D03*
X104637500Y-124775000D03*
X104637500Y-124125000D03*
X104637500Y-123475000D03*
X104637500Y-122825000D03*
X104637500Y-122175000D03*
X104637500Y-121525000D03*
X104637500Y-120875000D03*
%TD*%
D15*
%TO.C,R625*%
X81000000Y-100990000D03*
X81000000Y-102010000D03*
%TD*%
%TO.C,R707*%
X103500000Y-101490000D03*
X103500000Y-102510000D03*
%TD*%
D45*
%TO.C,D706*%
X110850000Y-113425000D03*
X110150000Y-113425000D03*
X110500000Y-112575000D03*
%TD*%
D27*
%TO.C,C403*%
X89730000Y-76000000D03*
X88770000Y-76000000D03*
%TD*%
D28*
%TO.C,R305*%
X86325000Y-113000000D03*
X84675000Y-113000000D03*
%TD*%
D24*
%TO.C,R715*%
X117510000Y-94500000D03*
X116490000Y-94500000D03*
%TD*%
D39*
%TO.C,C604*%
X84450000Y-101500000D03*
X82550000Y-101500000D03*
%TD*%
D15*
%TO.C,R605*%
X95500000Y-88990000D03*
X95500000Y-90010000D03*
%TD*%
D24*
%TO.C,R182*%
X106010000Y-135000000D03*
X104990000Y-135000000D03*
%TD*%
D15*
%TO.C,R410*%
X102000000Y-82490000D03*
X102000000Y-83510000D03*
%TD*%
%TO.C,R712*%
X107000000Y-110990000D03*
X107000000Y-112010000D03*
%TD*%
%TO.C,R197*%
X85000000Y-78990000D03*
X85000000Y-80010000D03*
%TD*%
D31*
%TO.C,U302*%
X93862500Y-111050000D03*
X93862500Y-111700000D03*
X93862500Y-112350000D03*
X93862500Y-113000000D03*
X93862500Y-113650000D03*
X93862500Y-114300000D03*
X93862500Y-114950000D03*
X88137500Y-114950000D03*
X88137500Y-114300000D03*
X88137500Y-113650000D03*
X88137500Y-113000000D03*
X88137500Y-112350000D03*
X88137500Y-111700000D03*
X88137500Y-111050000D03*
%TD*%
D17*
%TO.C,R303*%
X96000000Y-112175000D03*
X96000000Y-113825000D03*
%TD*%
D15*
%TO.C,R734*%
X106000000Y-118490000D03*
X106000000Y-119510000D03*
%TD*%
%TO.C,R409*%
X101000000Y-81990000D03*
X101000000Y-83010000D03*
%TD*%
D21*
%TO.C,U601*%
X88050000Y-65862500D03*
X89000000Y-65862500D03*
X89950000Y-65862500D03*
X89950000Y-68137500D03*
X88050000Y-68137500D03*
%TD*%
D15*
%TO.C,R199*%
X110000000Y-135990000D03*
X110000000Y-137010000D03*
%TD*%
%TO.C,R602*%
X96000000Y-95990000D03*
X96000000Y-97010000D03*
%TD*%
D17*
%TO.C,R304*%
X97500000Y-113175000D03*
X97500000Y-114825000D03*
%TD*%
D36*
%TO.C,U605*%
X90112500Y-93025000D03*
X90112500Y-93675000D03*
X90112500Y-94325000D03*
X90112500Y-94975000D03*
X85887500Y-94975000D03*
X85887500Y-94325000D03*
X85887500Y-93675000D03*
X85887500Y-93025000D03*
%TD*%
D15*
%TO.C,R702*%
X103500000Y-99490000D03*
X103500000Y-100510000D03*
%TD*%
D37*
%TO.C,D703*%
X113425000Y-105150000D03*
X113425000Y-105850000D03*
X112575000Y-105500000D03*
%TD*%
D28*
%TO.C,R313*%
X97325000Y-107500000D03*
X95675000Y-107500000D03*
%TD*%
D24*
%TO.C,R627*%
X82510000Y-83000000D03*
X81490000Y-83000000D03*
%TD*%
D19*
%TO.C,C623*%
X81500000Y-94020000D03*
X81500000Y-94980000D03*
%TD*%
D15*
%TO.C,R706*%
X104500000Y-101990000D03*
X104500000Y-103010000D03*
%TD*%
D24*
%TO.C,R198*%
X86510000Y-83500000D03*
X85490000Y-83500000D03*
%TD*%
D33*
%TO.C,C610*%
X93500000Y-96225000D03*
X93500000Y-97775000D03*
%TD*%
D35*
%TO.C,C702*%
X111525000Y-93250000D03*
X109975000Y-93250000D03*
%TD*%
D15*
%TO.C,R705*%
X111500000Y-101990000D03*
X111500000Y-103010000D03*
%TD*%
D24*
%TO.C,R614*%
X85510000Y-88750000D03*
X84490000Y-88750000D03*
%TD*%
D33*
%TO.C,C601*%
X92000000Y-96225000D03*
X92000000Y-97775000D03*
%TD*%
D15*
%TO.C,R708*%
X103500000Y-105490000D03*
X103500000Y-106510000D03*
%TD*%
D44*
%TO.C,C602*%
X80750000Y-69230000D03*
X80750000Y-68270000D03*
%TD*%
D15*
%TO.C,R736*%
X102000000Y-124490000D03*
X102000000Y-125510000D03*
%TD*%
%TO.C,R601*%
X82500000Y-60990000D03*
X82500000Y-62010000D03*
%TD*%
D35*
%TO.C,C191*%
X82525000Y-137000000D03*
X80975000Y-137000000D03*
%TD*%
D19*
%TO.C,C404*%
X93250000Y-77020000D03*
X93250000Y-77980000D03*
%TD*%
D15*
%TO.C,R621*%
X97000000Y-91490000D03*
X97000000Y-92510000D03*
%TD*%
D37*
%TO.C,D702*%
X113425000Y-102650000D03*
X113425000Y-103350000D03*
X112575000Y-103000000D03*
%TD*%
D31*
%TO.C,U700*%
X110862500Y-95075000D03*
X110862500Y-95725000D03*
X110862500Y-96375000D03*
X110862500Y-97025000D03*
X110862500Y-97675000D03*
X110862500Y-98325000D03*
X110862500Y-98975000D03*
X110862500Y-99625000D03*
X110862500Y-100275000D03*
X110862500Y-100925000D03*
X105137500Y-100925000D03*
X105137500Y-100275000D03*
X105137500Y-99625000D03*
X105137500Y-98975000D03*
X105137500Y-98325000D03*
X105137500Y-97675000D03*
X105137500Y-97025000D03*
X105137500Y-96375000D03*
X105137500Y-95725000D03*
X105137500Y-95075000D03*
%TD*%
M02*
