%TF.GenerationSoftware,KiCad,Pcbnew,10.0.6*%
%TF.CreationDate,2026-09-10T10:46:44+08:00*%
%TF.ProjectId,FD-MAIN-01,46442d4d-4149-44e2-9d30-312e6b696361,K / eight-layer engineering review*%
%TF.SameCoordinates,Original*%
%TF.FileFunction,Drillmap*%
%TF.FilePolarity,Positive*%
%FSLAX45Y45*%
G04 Gerber Fmt 4.5, Leading zero omitted, Abs format (unit mm)*
G04 Created by KiCad (PCBNEW 10.0.6) date 2026-09-10 10:46:44*
%MOMM*%
%LPD*%
G01*
G04 APERTURE LIST*
%ADD10C,0.050000*%
%ADD11C,0.200000*%
%ADD12C,0.100000*%
%ADD13C,0.240000*%
G04 APERTURE END LIST*
D10*
X8000000Y-5500000D02*
G75*
G02*
X8200000Y-5300000I200000J0D01*
G01*
X8000000Y-14500000D02*
X8000000Y-5500000D01*
X8200000Y-5300000D02*
X11800000Y-5300000D01*
X8200000Y-14700000D02*
G75*
G02*
X8000000Y-14500000I0J200000D01*
G01*
X11800000Y-5300000D02*
G75*
G02*
X12000000Y-5500000I0J-200000D01*
G01*
X11800000Y-14700000D02*
X8200000Y-14700000D01*
X12000000Y-5500000D02*
X12000000Y-14500000D01*
X12000000Y-14500000D02*
G75*
G02*
X11800000Y-14700000I-200000J0D01*
G01*
D11*
D12*
X8428500Y-14157000D02*
X8493500Y-14222000D01*
X8493500Y-14157000D02*
X8428500Y-14222000D01*
X9006500Y-14157000D02*
X9071500Y-14222000D01*
X9071500Y-14157000D02*
X9006500Y-14222000D01*
X10928500Y-14157000D02*
X10993500Y-14222000D01*
X10993500Y-14157000D02*
X10928500Y-14222000D01*
X11506500Y-14157000D02*
X11571500Y-14222000D01*
X11571500Y-14157000D02*
X11506500Y-14222000D01*
X10325000Y-11610000D02*
G75*
G02*
X10235000Y-11610000I-45000J0D01*
G01*
X10235000Y-11610000D02*
G75*
G02*
X10325000Y-11610000I45000J0D01*
G01*
X10325000Y-12290000D02*
G75*
G02*
X10235000Y-12290000I-45000J0D01*
G01*
X10235000Y-12290000D02*
G75*
G02*
X10325000Y-12290000I45000J0D01*
G01*
D13*
X8300000Y-7180000D02*
X8300000Y-7420000D01*
X8180000Y-7300000D02*
X8420000Y-7300000D01*
X8300000Y-13080000D02*
X8300000Y-13320000D01*
X8180000Y-13200000D02*
X8420000Y-13200000D01*
X10000000Y-14280000D02*
X10000000Y-14520000D01*
X9880000Y-14400000D02*
X10120000Y-14400000D01*
X11700000Y-5580000D02*
X11700000Y-5820000D01*
X11580000Y-5700000D02*
X11820000Y-5700000D01*
D11*
X8258277Y-15013984D02*
X8258277Y-14813984D01*
X8258277Y-14813984D02*
X8305896Y-14813984D01*
X8305896Y-14813984D02*
X8334467Y-14823508D01*
X8334467Y-14823508D02*
X8353515Y-14842555D01*
X8353515Y-14842555D02*
X8363039Y-14861603D01*
X8363039Y-14861603D02*
X8372562Y-14899698D01*
X8372562Y-14899698D02*
X8372562Y-14928269D01*
X8372562Y-14928269D02*
X8363039Y-14966365D01*
X8363039Y-14966365D02*
X8353515Y-14985412D01*
X8353515Y-14985412D02*
X8334467Y-15004460D01*
X8334467Y-15004460D02*
X8305896Y-15013984D01*
X8305896Y-15013984D02*
X8258277Y-15013984D01*
X8458277Y-15013984D02*
X8458277Y-14880650D01*
X8458277Y-14918746D02*
X8467801Y-14899698D01*
X8467801Y-14899698D02*
X8477324Y-14890174D01*
X8477324Y-14890174D02*
X8496372Y-14880650D01*
X8496372Y-14880650D02*
X8515420Y-14880650D01*
X8582086Y-15013984D02*
X8582086Y-14880650D01*
X8582086Y-14813984D02*
X8572563Y-14823508D01*
X8572563Y-14823508D02*
X8582086Y-14833031D01*
X8582086Y-14833031D02*
X8591610Y-14823508D01*
X8591610Y-14823508D02*
X8582086Y-14813984D01*
X8582086Y-14813984D02*
X8582086Y-14833031D01*
X8705896Y-15013984D02*
X8686848Y-15004460D01*
X8686848Y-15004460D02*
X8677324Y-14985412D01*
X8677324Y-14985412D02*
X8677324Y-14813984D01*
X8810658Y-15013984D02*
X8791610Y-15004460D01*
X8791610Y-15004460D02*
X8782086Y-14985412D01*
X8782086Y-14985412D02*
X8782086Y-14813984D01*
X9039229Y-15013984D02*
X9039229Y-14813984D01*
X9039229Y-14813984D02*
X9105896Y-14956841D01*
X9105896Y-14956841D02*
X9172563Y-14813984D01*
X9172563Y-14813984D02*
X9172563Y-15013984D01*
X9353515Y-15013984D02*
X9353515Y-14909222D01*
X9353515Y-14909222D02*
X9343991Y-14890174D01*
X9343991Y-14890174D02*
X9324944Y-14880650D01*
X9324944Y-14880650D02*
X9286848Y-14880650D01*
X9286848Y-14880650D02*
X9267801Y-14890174D01*
X9353515Y-15004460D02*
X9334467Y-15013984D01*
X9334467Y-15013984D02*
X9286848Y-15013984D01*
X9286848Y-15013984D02*
X9267801Y-15004460D01*
X9267801Y-15004460D02*
X9258277Y-14985412D01*
X9258277Y-14985412D02*
X9258277Y-14966365D01*
X9258277Y-14966365D02*
X9267801Y-14947317D01*
X9267801Y-14947317D02*
X9286848Y-14937793D01*
X9286848Y-14937793D02*
X9334467Y-14937793D01*
X9334467Y-14937793D02*
X9353515Y-14928269D01*
X9448753Y-14880650D02*
X9448753Y-15080650D01*
X9448753Y-14890174D02*
X9467801Y-14880650D01*
X9467801Y-14880650D02*
X9505896Y-14880650D01*
X9505896Y-14880650D02*
X9524944Y-14890174D01*
X9524944Y-14890174D02*
X9534467Y-14899698D01*
X9534467Y-14899698D02*
X9543991Y-14918746D01*
X9543991Y-14918746D02*
X9543991Y-14975888D01*
X9543991Y-14975888D02*
X9534467Y-14994936D01*
X9534467Y-14994936D02*
X9524944Y-15004460D01*
X9524944Y-15004460D02*
X9505896Y-15013984D01*
X9505896Y-15013984D02*
X9467801Y-15013984D01*
X9467801Y-15013984D02*
X9448753Y-15004460D01*
X9629705Y-14994936D02*
X9639229Y-15004460D01*
X9639229Y-15004460D02*
X9629705Y-15013984D01*
X9629705Y-15013984D02*
X9620182Y-15004460D01*
X9620182Y-15004460D02*
X9629705Y-14994936D01*
X9629705Y-14994936D02*
X9629705Y-15013984D01*
X9629705Y-14890174D02*
X9639229Y-14899698D01*
X9639229Y-14899698D02*
X9629705Y-14909222D01*
X9629705Y-14909222D02*
X9620182Y-14899698D01*
X9620182Y-14899698D02*
X9629705Y-14890174D01*
X9629705Y-14890174D02*
X9629705Y-14909222D01*
D12*
X7932500Y-15310000D02*
X7997500Y-15375000D01*
X7997500Y-15310000D02*
X7932500Y-15375000D01*
D11*
X8296372Y-15233984D02*
X8315420Y-15233984D01*
X8315420Y-15233984D02*
X8334467Y-15243508D01*
X8334467Y-15243508D02*
X8343991Y-15253031D01*
X8343991Y-15253031D02*
X8353515Y-15272079D01*
X8353515Y-15272079D02*
X8363039Y-15310174D01*
X8363039Y-15310174D02*
X8363039Y-15357793D01*
X8363039Y-15357793D02*
X8353515Y-15395888D01*
X8353515Y-15395888D02*
X8343991Y-15414936D01*
X8343991Y-15414936D02*
X8334467Y-15424460D01*
X8334467Y-15424460D02*
X8315420Y-15433984D01*
X8315420Y-15433984D02*
X8296372Y-15433984D01*
X8296372Y-15433984D02*
X8277324Y-15424460D01*
X8277324Y-15424460D02*
X8267801Y-15414936D01*
X8267801Y-15414936D02*
X8258277Y-15395888D01*
X8258277Y-15395888D02*
X8248753Y-15357793D01*
X8248753Y-15357793D02*
X8248753Y-15310174D01*
X8248753Y-15310174D02*
X8258277Y-15272079D01*
X8258277Y-15272079D02*
X8267801Y-15253031D01*
X8267801Y-15253031D02*
X8277324Y-15243508D01*
X8277324Y-15243508D02*
X8296372Y-15233984D01*
X8448753Y-15414936D02*
X8458277Y-15424460D01*
X8458277Y-15424460D02*
X8448753Y-15433984D01*
X8448753Y-15433984D02*
X8439229Y-15424460D01*
X8439229Y-15424460D02*
X8448753Y-15414936D01*
X8448753Y-15414936D02*
X8448753Y-15433984D01*
X8629705Y-15233984D02*
X8591610Y-15233984D01*
X8591610Y-15233984D02*
X8572563Y-15243508D01*
X8572563Y-15243508D02*
X8563039Y-15253031D01*
X8563039Y-15253031D02*
X8543991Y-15281603D01*
X8543991Y-15281603D02*
X8534467Y-15319698D01*
X8534467Y-15319698D02*
X8534467Y-15395888D01*
X8534467Y-15395888D02*
X8543991Y-15414936D01*
X8543991Y-15414936D02*
X8553515Y-15424460D01*
X8553515Y-15424460D02*
X8572563Y-15433984D01*
X8572563Y-15433984D02*
X8610658Y-15433984D01*
X8610658Y-15433984D02*
X8629705Y-15424460D01*
X8629705Y-15424460D02*
X8639229Y-15414936D01*
X8639229Y-15414936D02*
X8648753Y-15395888D01*
X8648753Y-15395888D02*
X8648753Y-15348269D01*
X8648753Y-15348269D02*
X8639229Y-15329222D01*
X8639229Y-15329222D02*
X8629705Y-15319698D01*
X8629705Y-15319698D02*
X8610658Y-15310174D01*
X8610658Y-15310174D02*
X8572563Y-15310174D01*
X8572563Y-15310174D02*
X8553515Y-15319698D01*
X8553515Y-15319698D02*
X8543991Y-15329222D01*
X8543991Y-15329222D02*
X8534467Y-15348269D01*
X8829705Y-15233984D02*
X8734467Y-15233984D01*
X8734467Y-15233984D02*
X8724944Y-15329222D01*
X8724944Y-15329222D02*
X8734467Y-15319698D01*
X8734467Y-15319698D02*
X8753515Y-15310174D01*
X8753515Y-15310174D02*
X8801134Y-15310174D01*
X8801134Y-15310174D02*
X8820182Y-15319698D01*
X8820182Y-15319698D02*
X8829705Y-15329222D01*
X8829705Y-15329222D02*
X8839229Y-15348269D01*
X8839229Y-15348269D02*
X8839229Y-15395888D01*
X8839229Y-15395888D02*
X8829705Y-15414936D01*
X8829705Y-15414936D02*
X8820182Y-15424460D01*
X8820182Y-15424460D02*
X8801134Y-15433984D01*
X8801134Y-15433984D02*
X8753515Y-15433984D01*
X8753515Y-15433984D02*
X8734467Y-15424460D01*
X8734467Y-15424460D02*
X8724944Y-15414936D01*
X8963039Y-15233984D02*
X8982086Y-15233984D01*
X8982086Y-15233984D02*
X9001134Y-15243508D01*
X9001134Y-15243508D02*
X9010658Y-15253031D01*
X9010658Y-15253031D02*
X9020182Y-15272079D01*
X9020182Y-15272079D02*
X9029705Y-15310174D01*
X9029705Y-15310174D02*
X9029705Y-15357793D01*
X9029705Y-15357793D02*
X9020182Y-15395888D01*
X9020182Y-15395888D02*
X9010658Y-15414936D01*
X9010658Y-15414936D02*
X9001134Y-15424460D01*
X9001134Y-15424460D02*
X8982086Y-15433984D01*
X8982086Y-15433984D02*
X8963039Y-15433984D01*
X8963039Y-15433984D02*
X8943991Y-15424460D01*
X8943991Y-15424460D02*
X8934467Y-15414936D01*
X8934467Y-15414936D02*
X8924944Y-15395888D01*
X8924944Y-15395888D02*
X8915420Y-15357793D01*
X8915420Y-15357793D02*
X8915420Y-15310174D01*
X8915420Y-15310174D02*
X8924944Y-15272079D01*
X8924944Y-15272079D02*
X8934467Y-15253031D01*
X8934467Y-15253031D02*
X8943991Y-15243508D01*
X8943991Y-15243508D02*
X8963039Y-15233984D01*
X9115420Y-15433984D02*
X9115420Y-15300650D01*
X9115420Y-15319698D02*
X9124944Y-15310174D01*
X9124944Y-15310174D02*
X9143991Y-15300650D01*
X9143991Y-15300650D02*
X9172563Y-15300650D01*
X9172563Y-15300650D02*
X9191610Y-15310174D01*
X9191610Y-15310174D02*
X9201134Y-15329222D01*
X9201134Y-15329222D02*
X9201134Y-15433984D01*
X9201134Y-15329222D02*
X9210658Y-15310174D01*
X9210658Y-15310174D02*
X9229705Y-15300650D01*
X9229705Y-15300650D02*
X9258277Y-15300650D01*
X9258277Y-15300650D02*
X9277325Y-15310174D01*
X9277325Y-15310174D02*
X9286848Y-15329222D01*
X9286848Y-15329222D02*
X9286848Y-15433984D01*
X9382086Y-15433984D02*
X9382086Y-15300650D01*
X9382086Y-15319698D02*
X9391610Y-15310174D01*
X9391610Y-15310174D02*
X9410658Y-15300650D01*
X9410658Y-15300650D02*
X9439229Y-15300650D01*
X9439229Y-15300650D02*
X9458277Y-15310174D01*
X9458277Y-15310174D02*
X9467801Y-15329222D01*
X9467801Y-15329222D02*
X9467801Y-15433984D01*
X9467801Y-15329222D02*
X9477325Y-15310174D01*
X9477325Y-15310174D02*
X9496372Y-15300650D01*
X9496372Y-15300650D02*
X9524944Y-15300650D01*
X9524944Y-15300650D02*
X9543991Y-15310174D01*
X9543991Y-15310174D02*
X9553515Y-15329222D01*
X9553515Y-15329222D02*
X9553515Y-15433984D01*
X9943991Y-15224460D02*
X9772563Y-15481603D01*
X10201134Y-15233984D02*
X10220182Y-15233984D01*
X10220182Y-15233984D02*
X10239229Y-15243508D01*
X10239229Y-15243508D02*
X10248753Y-15253031D01*
X10248753Y-15253031D02*
X10258277Y-15272079D01*
X10258277Y-15272079D02*
X10267801Y-15310174D01*
X10267801Y-15310174D02*
X10267801Y-15357793D01*
X10267801Y-15357793D02*
X10258277Y-15395888D01*
X10258277Y-15395888D02*
X10248753Y-15414936D01*
X10248753Y-15414936D02*
X10239229Y-15424460D01*
X10239229Y-15424460D02*
X10220182Y-15433984D01*
X10220182Y-15433984D02*
X10201134Y-15433984D01*
X10201134Y-15433984D02*
X10182087Y-15424460D01*
X10182087Y-15424460D02*
X10172563Y-15414936D01*
X10172563Y-15414936D02*
X10163039Y-15395888D01*
X10163039Y-15395888D02*
X10153515Y-15357793D01*
X10153515Y-15357793D02*
X10153515Y-15310174D01*
X10153515Y-15310174D02*
X10163039Y-15272079D01*
X10163039Y-15272079D02*
X10172563Y-15253031D01*
X10172563Y-15253031D02*
X10182087Y-15243508D01*
X10182087Y-15243508D02*
X10201134Y-15233984D01*
X10353515Y-15414936D02*
X10363039Y-15424460D01*
X10363039Y-15424460D02*
X10353515Y-15433984D01*
X10353515Y-15433984D02*
X10343991Y-15424460D01*
X10343991Y-15424460D02*
X10353515Y-15414936D01*
X10353515Y-15414936D02*
X10353515Y-15433984D01*
X10486848Y-15233984D02*
X10505896Y-15233984D01*
X10505896Y-15233984D02*
X10524944Y-15243508D01*
X10524944Y-15243508D02*
X10534468Y-15253031D01*
X10534468Y-15253031D02*
X10543991Y-15272079D01*
X10543991Y-15272079D02*
X10553515Y-15310174D01*
X10553515Y-15310174D02*
X10553515Y-15357793D01*
X10553515Y-15357793D02*
X10543991Y-15395888D01*
X10543991Y-15395888D02*
X10534468Y-15414936D01*
X10534468Y-15414936D02*
X10524944Y-15424460D01*
X10524944Y-15424460D02*
X10505896Y-15433984D01*
X10505896Y-15433984D02*
X10486848Y-15433984D01*
X10486848Y-15433984D02*
X10467801Y-15424460D01*
X10467801Y-15424460D02*
X10458277Y-15414936D01*
X10458277Y-15414936D02*
X10448753Y-15395888D01*
X10448753Y-15395888D02*
X10439229Y-15357793D01*
X10439229Y-15357793D02*
X10439229Y-15310174D01*
X10439229Y-15310174D02*
X10448753Y-15272079D01*
X10448753Y-15272079D02*
X10458277Y-15253031D01*
X10458277Y-15253031D02*
X10467801Y-15243508D01*
X10467801Y-15243508D02*
X10486848Y-15233984D01*
X10629706Y-15253031D02*
X10639229Y-15243508D01*
X10639229Y-15243508D02*
X10658277Y-15233984D01*
X10658277Y-15233984D02*
X10705896Y-15233984D01*
X10705896Y-15233984D02*
X10724944Y-15243508D01*
X10724944Y-15243508D02*
X10734468Y-15253031D01*
X10734468Y-15253031D02*
X10743991Y-15272079D01*
X10743991Y-15272079D02*
X10743991Y-15291127D01*
X10743991Y-15291127D02*
X10734468Y-15319698D01*
X10734468Y-15319698D02*
X10620182Y-15433984D01*
X10620182Y-15433984D02*
X10743991Y-15433984D01*
X10924944Y-15233984D02*
X10829706Y-15233984D01*
X10829706Y-15233984D02*
X10820182Y-15329222D01*
X10820182Y-15329222D02*
X10829706Y-15319698D01*
X10829706Y-15319698D02*
X10848753Y-15310174D01*
X10848753Y-15310174D02*
X10896372Y-15310174D01*
X10896372Y-15310174D02*
X10915420Y-15319698D01*
X10915420Y-15319698D02*
X10924944Y-15329222D01*
X10924944Y-15329222D02*
X10934468Y-15348269D01*
X10934468Y-15348269D02*
X10934468Y-15395888D01*
X10934468Y-15395888D02*
X10924944Y-15414936D01*
X10924944Y-15414936D02*
X10915420Y-15424460D01*
X10915420Y-15424460D02*
X10896372Y-15433984D01*
X10896372Y-15433984D02*
X10848753Y-15433984D01*
X10848753Y-15433984D02*
X10829706Y-15424460D01*
X10829706Y-15424460D02*
X10820182Y-15414936D01*
X11105896Y-15233984D02*
X11067801Y-15233984D01*
X11067801Y-15233984D02*
X11048753Y-15243508D01*
X11048753Y-15243508D02*
X11039229Y-15253031D01*
X11039229Y-15253031D02*
X11020182Y-15281603D01*
X11020182Y-15281603D02*
X11010658Y-15319698D01*
X11010658Y-15319698D02*
X11010658Y-15395888D01*
X11010658Y-15395888D02*
X11020182Y-15414936D01*
X11020182Y-15414936D02*
X11029706Y-15424460D01*
X11029706Y-15424460D02*
X11048753Y-15433984D01*
X11048753Y-15433984D02*
X11086849Y-15433984D01*
X11086849Y-15433984D02*
X11105896Y-15424460D01*
X11105896Y-15424460D02*
X11115420Y-15414936D01*
X11115420Y-15414936D02*
X11124944Y-15395888D01*
X11124944Y-15395888D02*
X11124944Y-15348269D01*
X11124944Y-15348269D02*
X11115420Y-15329222D01*
X11115420Y-15329222D02*
X11105896Y-15319698D01*
X11105896Y-15319698D02*
X11086849Y-15310174D01*
X11086849Y-15310174D02*
X11048753Y-15310174D01*
X11048753Y-15310174D02*
X11029706Y-15319698D01*
X11029706Y-15319698D02*
X11020182Y-15329222D01*
X11020182Y-15329222D02*
X11010658Y-15348269D01*
X11201134Y-15233984D02*
X11201134Y-15272079D01*
X11277325Y-15233984D02*
X11277325Y-15272079D01*
X11572563Y-15510174D02*
X11563039Y-15500650D01*
X11563039Y-15500650D02*
X11543991Y-15472079D01*
X11543991Y-15472079D02*
X11534468Y-15453031D01*
X11534468Y-15453031D02*
X11524944Y-15424460D01*
X11524944Y-15424460D02*
X11515420Y-15376841D01*
X11515420Y-15376841D02*
X11515420Y-15338746D01*
X11515420Y-15338746D02*
X11524944Y-15291127D01*
X11524944Y-15291127D02*
X11534468Y-15262555D01*
X11534468Y-15262555D02*
X11543991Y-15243508D01*
X11543991Y-15243508D02*
X11563039Y-15214936D01*
X11563039Y-15214936D02*
X11572563Y-15205412D01*
X11734468Y-15300650D02*
X11734468Y-15433984D01*
X11686848Y-15224460D02*
X11639229Y-15367317D01*
X11639229Y-15367317D02*
X11763039Y-15367317D01*
X11991610Y-15433984D02*
X11991610Y-15233984D01*
X12077325Y-15433984D02*
X12077325Y-15329222D01*
X12077325Y-15329222D02*
X12067801Y-15310174D01*
X12067801Y-15310174D02*
X12048753Y-15300650D01*
X12048753Y-15300650D02*
X12020182Y-15300650D01*
X12020182Y-15300650D02*
X12001134Y-15310174D01*
X12001134Y-15310174D02*
X11991610Y-15319698D01*
X12201134Y-15433984D02*
X12182087Y-15424460D01*
X12182087Y-15424460D02*
X12172563Y-15414936D01*
X12172563Y-15414936D02*
X12163039Y-15395888D01*
X12163039Y-15395888D02*
X12163039Y-15338746D01*
X12163039Y-15338746D02*
X12172563Y-15319698D01*
X12172563Y-15319698D02*
X12182087Y-15310174D01*
X12182087Y-15310174D02*
X12201134Y-15300650D01*
X12201134Y-15300650D02*
X12229706Y-15300650D01*
X12229706Y-15300650D02*
X12248753Y-15310174D01*
X12248753Y-15310174D02*
X12258277Y-15319698D01*
X12258277Y-15319698D02*
X12267801Y-15338746D01*
X12267801Y-15338746D02*
X12267801Y-15395888D01*
X12267801Y-15395888D02*
X12258277Y-15414936D01*
X12258277Y-15414936D02*
X12248753Y-15424460D01*
X12248753Y-15424460D02*
X12229706Y-15433984D01*
X12229706Y-15433984D02*
X12201134Y-15433984D01*
X12382087Y-15433984D02*
X12363039Y-15424460D01*
X12363039Y-15424460D02*
X12353515Y-15405412D01*
X12353515Y-15405412D02*
X12353515Y-15233984D01*
X12534468Y-15424460D02*
X12515420Y-15433984D01*
X12515420Y-15433984D02*
X12477325Y-15433984D01*
X12477325Y-15433984D02*
X12458277Y-15424460D01*
X12458277Y-15424460D02*
X12448753Y-15405412D01*
X12448753Y-15405412D02*
X12448753Y-15329222D01*
X12448753Y-15329222D02*
X12458277Y-15310174D01*
X12458277Y-15310174D02*
X12477325Y-15300650D01*
X12477325Y-15300650D02*
X12515420Y-15300650D01*
X12515420Y-15300650D02*
X12534468Y-15310174D01*
X12534468Y-15310174D02*
X12543991Y-15329222D01*
X12543991Y-15329222D02*
X12543991Y-15348269D01*
X12543991Y-15348269D02*
X12448753Y-15367317D01*
X12620182Y-15424460D02*
X12639230Y-15433984D01*
X12639230Y-15433984D02*
X12677325Y-15433984D01*
X12677325Y-15433984D02*
X12696372Y-15424460D01*
X12696372Y-15424460D02*
X12705896Y-15405412D01*
X12705896Y-15405412D02*
X12705896Y-15395888D01*
X12705896Y-15395888D02*
X12696372Y-15376841D01*
X12696372Y-15376841D02*
X12677325Y-15367317D01*
X12677325Y-15367317D02*
X12648753Y-15367317D01*
X12648753Y-15367317D02*
X12629706Y-15357793D01*
X12629706Y-15357793D02*
X12620182Y-15338746D01*
X12620182Y-15338746D02*
X12620182Y-15329222D01*
X12620182Y-15329222D02*
X12629706Y-15310174D01*
X12629706Y-15310174D02*
X12648753Y-15300650D01*
X12648753Y-15300650D02*
X12677325Y-15300650D01*
X12677325Y-15300650D02*
X12696372Y-15310174D01*
X12772563Y-15510174D02*
X12782087Y-15500650D01*
X12782087Y-15500650D02*
X12801134Y-15472079D01*
X12801134Y-15472079D02*
X12810658Y-15453031D01*
X12810658Y-15453031D02*
X12820182Y-15424460D01*
X12820182Y-15424460D02*
X12829706Y-15376841D01*
X12829706Y-15376841D02*
X12829706Y-15338746D01*
X12829706Y-15338746D02*
X12820182Y-15291127D01*
X12820182Y-15291127D02*
X12810658Y-15262555D01*
X12810658Y-15262555D02*
X12801134Y-15243508D01*
X12801134Y-15243508D02*
X12782087Y-15214936D01*
X12782087Y-15214936D02*
X12772563Y-15205412D01*
X13134468Y-15510174D02*
X13124944Y-15500650D01*
X13124944Y-15500650D02*
X13105896Y-15472079D01*
X13105896Y-15472079D02*
X13096372Y-15453031D01*
X13096372Y-15453031D02*
X13086849Y-15424460D01*
X13086849Y-15424460D02*
X13077325Y-15376841D01*
X13077325Y-15376841D02*
X13077325Y-15338746D01*
X13077325Y-15338746D02*
X13086849Y-15291127D01*
X13086849Y-15291127D02*
X13096372Y-15262555D01*
X13096372Y-15262555D02*
X13105896Y-15243508D01*
X13105896Y-15243508D02*
X13124944Y-15214936D01*
X13124944Y-15214936D02*
X13134468Y-15205412D01*
X13210658Y-15300650D02*
X13210658Y-15433984D01*
X13210658Y-15319698D02*
X13220182Y-15310174D01*
X13220182Y-15310174D02*
X13239230Y-15300650D01*
X13239230Y-15300650D02*
X13267801Y-15300650D01*
X13267801Y-15300650D02*
X13286849Y-15310174D01*
X13286849Y-15310174D02*
X13296372Y-15329222D01*
X13296372Y-15329222D02*
X13296372Y-15433984D01*
X13420182Y-15433984D02*
X13401134Y-15424460D01*
X13401134Y-15424460D02*
X13391611Y-15414936D01*
X13391611Y-15414936D02*
X13382087Y-15395888D01*
X13382087Y-15395888D02*
X13382087Y-15338746D01*
X13382087Y-15338746D02*
X13391611Y-15319698D01*
X13391611Y-15319698D02*
X13401134Y-15310174D01*
X13401134Y-15310174D02*
X13420182Y-15300650D01*
X13420182Y-15300650D02*
X13448753Y-15300650D01*
X13448753Y-15300650D02*
X13467801Y-15310174D01*
X13467801Y-15310174D02*
X13477325Y-15319698D01*
X13477325Y-15319698D02*
X13486849Y-15338746D01*
X13486849Y-15338746D02*
X13486849Y-15395888D01*
X13486849Y-15395888D02*
X13477325Y-15414936D01*
X13477325Y-15414936D02*
X13467801Y-15424460D01*
X13467801Y-15424460D02*
X13448753Y-15433984D01*
X13448753Y-15433984D02*
X13420182Y-15433984D01*
X13543992Y-15300650D02*
X13620182Y-15300650D01*
X13572563Y-15233984D02*
X13572563Y-15405412D01*
X13572563Y-15405412D02*
X13582087Y-15424460D01*
X13582087Y-15424460D02*
X13601134Y-15433984D01*
X13601134Y-15433984D02*
X13620182Y-15433984D01*
X13839230Y-15300650D02*
X13839230Y-15500650D01*
X13839230Y-15310174D02*
X13858277Y-15300650D01*
X13858277Y-15300650D02*
X13896373Y-15300650D01*
X13896373Y-15300650D02*
X13915420Y-15310174D01*
X13915420Y-15310174D02*
X13924944Y-15319698D01*
X13924944Y-15319698D02*
X13934468Y-15338746D01*
X13934468Y-15338746D02*
X13934468Y-15395888D01*
X13934468Y-15395888D02*
X13924944Y-15414936D01*
X13924944Y-15414936D02*
X13915420Y-15424460D01*
X13915420Y-15424460D02*
X13896373Y-15433984D01*
X13896373Y-15433984D02*
X13858277Y-15433984D01*
X13858277Y-15433984D02*
X13839230Y-15424460D01*
X14048753Y-15433984D02*
X14029706Y-15424460D01*
X14029706Y-15424460D02*
X14020182Y-15405412D01*
X14020182Y-15405412D02*
X14020182Y-15233984D01*
X14210658Y-15433984D02*
X14210658Y-15329222D01*
X14210658Y-15329222D02*
X14201134Y-15310174D01*
X14201134Y-15310174D02*
X14182087Y-15300650D01*
X14182087Y-15300650D02*
X14143992Y-15300650D01*
X14143992Y-15300650D02*
X14124944Y-15310174D01*
X14210658Y-15424460D02*
X14191611Y-15433984D01*
X14191611Y-15433984D02*
X14143992Y-15433984D01*
X14143992Y-15433984D02*
X14124944Y-15424460D01*
X14124944Y-15424460D02*
X14115420Y-15405412D01*
X14115420Y-15405412D02*
X14115420Y-15386365D01*
X14115420Y-15386365D02*
X14124944Y-15367317D01*
X14124944Y-15367317D02*
X14143992Y-15357793D01*
X14143992Y-15357793D02*
X14191611Y-15357793D01*
X14191611Y-15357793D02*
X14210658Y-15348269D01*
X14277325Y-15300650D02*
X14353515Y-15300650D01*
X14305896Y-15233984D02*
X14305896Y-15405412D01*
X14305896Y-15405412D02*
X14315420Y-15424460D01*
X14315420Y-15424460D02*
X14334468Y-15433984D01*
X14334468Y-15433984D02*
X14353515Y-15433984D01*
X14496373Y-15424460D02*
X14477325Y-15433984D01*
X14477325Y-15433984D02*
X14439230Y-15433984D01*
X14439230Y-15433984D02*
X14420182Y-15424460D01*
X14420182Y-15424460D02*
X14410658Y-15405412D01*
X14410658Y-15405412D02*
X14410658Y-15329222D01*
X14410658Y-15329222D02*
X14420182Y-15310174D01*
X14420182Y-15310174D02*
X14439230Y-15300650D01*
X14439230Y-15300650D02*
X14477325Y-15300650D01*
X14477325Y-15300650D02*
X14496373Y-15310174D01*
X14496373Y-15310174D02*
X14505896Y-15329222D01*
X14505896Y-15329222D02*
X14505896Y-15348269D01*
X14505896Y-15348269D02*
X14410658Y-15367317D01*
X14677325Y-15433984D02*
X14677325Y-15233984D01*
X14677325Y-15424460D02*
X14658277Y-15433984D01*
X14658277Y-15433984D02*
X14620182Y-15433984D01*
X14620182Y-15433984D02*
X14601134Y-15424460D01*
X14601134Y-15424460D02*
X14591611Y-15414936D01*
X14591611Y-15414936D02*
X14582087Y-15395888D01*
X14582087Y-15395888D02*
X14582087Y-15338746D01*
X14582087Y-15338746D02*
X14591611Y-15319698D01*
X14591611Y-15319698D02*
X14601134Y-15310174D01*
X14601134Y-15310174D02*
X14620182Y-15300650D01*
X14620182Y-15300650D02*
X14658277Y-15300650D01*
X14658277Y-15300650D02*
X14677325Y-15310174D01*
X14753515Y-15510174D02*
X14763039Y-15500650D01*
X14763039Y-15500650D02*
X14782087Y-15472079D01*
X14782087Y-15472079D02*
X14791611Y-15453031D01*
X14791611Y-15453031D02*
X14801134Y-15424460D01*
X14801134Y-15424460D02*
X14810658Y-15376841D01*
X14810658Y-15376841D02*
X14810658Y-15338746D01*
X14810658Y-15338746D02*
X14801134Y-15291127D01*
X14801134Y-15291127D02*
X14791611Y-15262555D01*
X14791611Y-15262555D02*
X14782087Y-15243508D01*
X14782087Y-15243508D02*
X14763039Y-15214936D01*
X14763039Y-15214936D02*
X14753515Y-15205412D01*
D12*
X7997500Y-15606500D02*
G75*
G02*
X7907500Y-15606500I-45000J0D01*
G01*
X7907500Y-15606500D02*
G75*
G02*
X7997500Y-15606500I45000J0D01*
G01*
D11*
X8296372Y-15497984D02*
X8315420Y-15497984D01*
X8315420Y-15497984D02*
X8334467Y-15507508D01*
X8334467Y-15507508D02*
X8343991Y-15517031D01*
X8343991Y-15517031D02*
X8353515Y-15536079D01*
X8353515Y-15536079D02*
X8363039Y-15574174D01*
X8363039Y-15574174D02*
X8363039Y-15621793D01*
X8363039Y-15621793D02*
X8353515Y-15659888D01*
X8353515Y-15659888D02*
X8343991Y-15678936D01*
X8343991Y-15678936D02*
X8334467Y-15688460D01*
X8334467Y-15688460D02*
X8315420Y-15697984D01*
X8315420Y-15697984D02*
X8296372Y-15697984D01*
X8296372Y-15697984D02*
X8277324Y-15688460D01*
X8277324Y-15688460D02*
X8267801Y-15678936D01*
X8267801Y-15678936D02*
X8258277Y-15659888D01*
X8258277Y-15659888D02*
X8248753Y-15621793D01*
X8248753Y-15621793D02*
X8248753Y-15574174D01*
X8248753Y-15574174D02*
X8258277Y-15536079D01*
X8258277Y-15536079D02*
X8267801Y-15517031D01*
X8267801Y-15517031D02*
X8277324Y-15507508D01*
X8277324Y-15507508D02*
X8296372Y-15497984D01*
X8448753Y-15678936D02*
X8458277Y-15688460D01*
X8458277Y-15688460D02*
X8448753Y-15697984D01*
X8448753Y-15697984D02*
X8439229Y-15688460D01*
X8439229Y-15688460D02*
X8448753Y-15678936D01*
X8448753Y-15678936D02*
X8448753Y-15697984D01*
X8553515Y-15697984D02*
X8591610Y-15697984D01*
X8591610Y-15697984D02*
X8610658Y-15688460D01*
X8610658Y-15688460D02*
X8620182Y-15678936D01*
X8620182Y-15678936D02*
X8639229Y-15650365D01*
X8639229Y-15650365D02*
X8648753Y-15612269D01*
X8648753Y-15612269D02*
X8648753Y-15536079D01*
X8648753Y-15536079D02*
X8639229Y-15517031D01*
X8639229Y-15517031D02*
X8629705Y-15507508D01*
X8629705Y-15507508D02*
X8610658Y-15497984D01*
X8610658Y-15497984D02*
X8572563Y-15497984D01*
X8572563Y-15497984D02*
X8553515Y-15507508D01*
X8553515Y-15507508D02*
X8543991Y-15517031D01*
X8543991Y-15517031D02*
X8534467Y-15536079D01*
X8534467Y-15536079D02*
X8534467Y-15583698D01*
X8534467Y-15583698D02*
X8543991Y-15602746D01*
X8543991Y-15602746D02*
X8553515Y-15612269D01*
X8553515Y-15612269D02*
X8572563Y-15621793D01*
X8572563Y-15621793D02*
X8610658Y-15621793D01*
X8610658Y-15621793D02*
X8629705Y-15612269D01*
X8629705Y-15612269D02*
X8639229Y-15602746D01*
X8639229Y-15602746D02*
X8648753Y-15583698D01*
X8772563Y-15497984D02*
X8791610Y-15497984D01*
X8791610Y-15497984D02*
X8810658Y-15507508D01*
X8810658Y-15507508D02*
X8820182Y-15517031D01*
X8820182Y-15517031D02*
X8829705Y-15536079D01*
X8829705Y-15536079D02*
X8839229Y-15574174D01*
X8839229Y-15574174D02*
X8839229Y-15621793D01*
X8839229Y-15621793D02*
X8829705Y-15659888D01*
X8829705Y-15659888D02*
X8820182Y-15678936D01*
X8820182Y-15678936D02*
X8810658Y-15688460D01*
X8810658Y-15688460D02*
X8791610Y-15697984D01*
X8791610Y-15697984D02*
X8772563Y-15697984D01*
X8772563Y-15697984D02*
X8753515Y-15688460D01*
X8753515Y-15688460D02*
X8743991Y-15678936D01*
X8743991Y-15678936D02*
X8734467Y-15659888D01*
X8734467Y-15659888D02*
X8724944Y-15621793D01*
X8724944Y-15621793D02*
X8724944Y-15574174D01*
X8724944Y-15574174D02*
X8734467Y-15536079D01*
X8734467Y-15536079D02*
X8743991Y-15517031D01*
X8743991Y-15517031D02*
X8753515Y-15507508D01*
X8753515Y-15507508D02*
X8772563Y-15497984D01*
X8963039Y-15497984D02*
X8982086Y-15497984D01*
X8982086Y-15497984D02*
X9001134Y-15507508D01*
X9001134Y-15507508D02*
X9010658Y-15517031D01*
X9010658Y-15517031D02*
X9020182Y-15536079D01*
X9020182Y-15536079D02*
X9029705Y-15574174D01*
X9029705Y-15574174D02*
X9029705Y-15621793D01*
X9029705Y-15621793D02*
X9020182Y-15659888D01*
X9020182Y-15659888D02*
X9010658Y-15678936D01*
X9010658Y-15678936D02*
X9001134Y-15688460D01*
X9001134Y-15688460D02*
X8982086Y-15697984D01*
X8982086Y-15697984D02*
X8963039Y-15697984D01*
X8963039Y-15697984D02*
X8943991Y-15688460D01*
X8943991Y-15688460D02*
X8934467Y-15678936D01*
X8934467Y-15678936D02*
X8924944Y-15659888D01*
X8924944Y-15659888D02*
X8915420Y-15621793D01*
X8915420Y-15621793D02*
X8915420Y-15574174D01*
X8915420Y-15574174D02*
X8924944Y-15536079D01*
X8924944Y-15536079D02*
X8934467Y-15517031D01*
X8934467Y-15517031D02*
X8943991Y-15507508D01*
X8943991Y-15507508D02*
X8963039Y-15497984D01*
X9115420Y-15697984D02*
X9115420Y-15564650D01*
X9115420Y-15583698D02*
X9124944Y-15574174D01*
X9124944Y-15574174D02*
X9143991Y-15564650D01*
X9143991Y-15564650D02*
X9172563Y-15564650D01*
X9172563Y-15564650D02*
X9191610Y-15574174D01*
X9191610Y-15574174D02*
X9201134Y-15593222D01*
X9201134Y-15593222D02*
X9201134Y-15697984D01*
X9201134Y-15593222D02*
X9210658Y-15574174D01*
X9210658Y-15574174D02*
X9229705Y-15564650D01*
X9229705Y-15564650D02*
X9258277Y-15564650D01*
X9258277Y-15564650D02*
X9277325Y-15574174D01*
X9277325Y-15574174D02*
X9286848Y-15593222D01*
X9286848Y-15593222D02*
X9286848Y-15697984D01*
X9382086Y-15697984D02*
X9382086Y-15564650D01*
X9382086Y-15583698D02*
X9391610Y-15574174D01*
X9391610Y-15574174D02*
X9410658Y-15564650D01*
X9410658Y-15564650D02*
X9439229Y-15564650D01*
X9439229Y-15564650D02*
X9458277Y-15574174D01*
X9458277Y-15574174D02*
X9467801Y-15593222D01*
X9467801Y-15593222D02*
X9467801Y-15697984D01*
X9467801Y-15593222D02*
X9477325Y-15574174D01*
X9477325Y-15574174D02*
X9496372Y-15564650D01*
X9496372Y-15564650D02*
X9524944Y-15564650D01*
X9524944Y-15564650D02*
X9543991Y-15574174D01*
X9543991Y-15574174D02*
X9553515Y-15593222D01*
X9553515Y-15593222D02*
X9553515Y-15697984D01*
X9943991Y-15488460D02*
X9772563Y-15745603D01*
X10201134Y-15497984D02*
X10220182Y-15497984D01*
X10220182Y-15497984D02*
X10239229Y-15507508D01*
X10239229Y-15507508D02*
X10248753Y-15517031D01*
X10248753Y-15517031D02*
X10258277Y-15536079D01*
X10258277Y-15536079D02*
X10267801Y-15574174D01*
X10267801Y-15574174D02*
X10267801Y-15621793D01*
X10267801Y-15621793D02*
X10258277Y-15659888D01*
X10258277Y-15659888D02*
X10248753Y-15678936D01*
X10248753Y-15678936D02*
X10239229Y-15688460D01*
X10239229Y-15688460D02*
X10220182Y-15697984D01*
X10220182Y-15697984D02*
X10201134Y-15697984D01*
X10201134Y-15697984D02*
X10182087Y-15688460D01*
X10182087Y-15688460D02*
X10172563Y-15678936D01*
X10172563Y-15678936D02*
X10163039Y-15659888D01*
X10163039Y-15659888D02*
X10153515Y-15621793D01*
X10153515Y-15621793D02*
X10153515Y-15574174D01*
X10153515Y-15574174D02*
X10163039Y-15536079D01*
X10163039Y-15536079D02*
X10172563Y-15517031D01*
X10172563Y-15517031D02*
X10182087Y-15507508D01*
X10182087Y-15507508D02*
X10201134Y-15497984D01*
X10353515Y-15678936D02*
X10363039Y-15688460D01*
X10363039Y-15688460D02*
X10353515Y-15697984D01*
X10353515Y-15697984D02*
X10343991Y-15688460D01*
X10343991Y-15688460D02*
X10353515Y-15678936D01*
X10353515Y-15678936D02*
X10353515Y-15697984D01*
X10486848Y-15497984D02*
X10505896Y-15497984D01*
X10505896Y-15497984D02*
X10524944Y-15507508D01*
X10524944Y-15507508D02*
X10534468Y-15517031D01*
X10534468Y-15517031D02*
X10543991Y-15536079D01*
X10543991Y-15536079D02*
X10553515Y-15574174D01*
X10553515Y-15574174D02*
X10553515Y-15621793D01*
X10553515Y-15621793D02*
X10543991Y-15659888D01*
X10543991Y-15659888D02*
X10534468Y-15678936D01*
X10534468Y-15678936D02*
X10524944Y-15688460D01*
X10524944Y-15688460D02*
X10505896Y-15697984D01*
X10505896Y-15697984D02*
X10486848Y-15697984D01*
X10486848Y-15697984D02*
X10467801Y-15688460D01*
X10467801Y-15688460D02*
X10458277Y-15678936D01*
X10458277Y-15678936D02*
X10448753Y-15659888D01*
X10448753Y-15659888D02*
X10439229Y-15621793D01*
X10439229Y-15621793D02*
X10439229Y-15574174D01*
X10439229Y-15574174D02*
X10448753Y-15536079D01*
X10448753Y-15536079D02*
X10458277Y-15517031D01*
X10458277Y-15517031D02*
X10467801Y-15507508D01*
X10467801Y-15507508D02*
X10486848Y-15497984D01*
X10620182Y-15497984D02*
X10743991Y-15497984D01*
X10743991Y-15497984D02*
X10677325Y-15574174D01*
X10677325Y-15574174D02*
X10705896Y-15574174D01*
X10705896Y-15574174D02*
X10724944Y-15583698D01*
X10724944Y-15583698D02*
X10734468Y-15593222D01*
X10734468Y-15593222D02*
X10743991Y-15612269D01*
X10743991Y-15612269D02*
X10743991Y-15659888D01*
X10743991Y-15659888D02*
X10734468Y-15678936D01*
X10734468Y-15678936D02*
X10724944Y-15688460D01*
X10724944Y-15688460D02*
X10705896Y-15697984D01*
X10705896Y-15697984D02*
X10648753Y-15697984D01*
X10648753Y-15697984D02*
X10629706Y-15688460D01*
X10629706Y-15688460D02*
X10620182Y-15678936D01*
X10924944Y-15497984D02*
X10829706Y-15497984D01*
X10829706Y-15497984D02*
X10820182Y-15593222D01*
X10820182Y-15593222D02*
X10829706Y-15583698D01*
X10829706Y-15583698D02*
X10848753Y-15574174D01*
X10848753Y-15574174D02*
X10896372Y-15574174D01*
X10896372Y-15574174D02*
X10915420Y-15583698D01*
X10915420Y-15583698D02*
X10924944Y-15593222D01*
X10924944Y-15593222D02*
X10934468Y-15612269D01*
X10934468Y-15612269D02*
X10934468Y-15659888D01*
X10934468Y-15659888D02*
X10924944Y-15678936D01*
X10924944Y-15678936D02*
X10915420Y-15688460D01*
X10915420Y-15688460D02*
X10896372Y-15697984D01*
X10896372Y-15697984D02*
X10848753Y-15697984D01*
X10848753Y-15697984D02*
X10829706Y-15688460D01*
X10829706Y-15688460D02*
X10820182Y-15678936D01*
X11105896Y-15564650D02*
X11105896Y-15697984D01*
X11058277Y-15488460D02*
X11010658Y-15631317D01*
X11010658Y-15631317D02*
X11134468Y-15631317D01*
X11201134Y-15497984D02*
X11201134Y-15536079D01*
X11277325Y-15497984D02*
X11277325Y-15536079D01*
X11572563Y-15774174D02*
X11563039Y-15764650D01*
X11563039Y-15764650D02*
X11543991Y-15736079D01*
X11543991Y-15736079D02*
X11534468Y-15717031D01*
X11534468Y-15717031D02*
X11524944Y-15688460D01*
X11524944Y-15688460D02*
X11515420Y-15640841D01*
X11515420Y-15640841D02*
X11515420Y-15602746D01*
X11515420Y-15602746D02*
X11524944Y-15555127D01*
X11524944Y-15555127D02*
X11534468Y-15526555D01*
X11534468Y-15526555D02*
X11543991Y-15507508D01*
X11543991Y-15507508D02*
X11563039Y-15478936D01*
X11563039Y-15478936D02*
X11572563Y-15469412D01*
X11639229Y-15517031D02*
X11648753Y-15507508D01*
X11648753Y-15507508D02*
X11667801Y-15497984D01*
X11667801Y-15497984D02*
X11715420Y-15497984D01*
X11715420Y-15497984D02*
X11734468Y-15507508D01*
X11734468Y-15507508D02*
X11743991Y-15517031D01*
X11743991Y-15517031D02*
X11753515Y-15536079D01*
X11753515Y-15536079D02*
X11753515Y-15555127D01*
X11753515Y-15555127D02*
X11743991Y-15583698D01*
X11743991Y-15583698D02*
X11629706Y-15697984D01*
X11629706Y-15697984D02*
X11753515Y-15697984D01*
X11991610Y-15697984D02*
X11991610Y-15497984D01*
X12077325Y-15697984D02*
X12077325Y-15593222D01*
X12077325Y-15593222D02*
X12067801Y-15574174D01*
X12067801Y-15574174D02*
X12048753Y-15564650D01*
X12048753Y-15564650D02*
X12020182Y-15564650D01*
X12020182Y-15564650D02*
X12001134Y-15574174D01*
X12001134Y-15574174D02*
X11991610Y-15583698D01*
X12201134Y-15697984D02*
X12182087Y-15688460D01*
X12182087Y-15688460D02*
X12172563Y-15678936D01*
X12172563Y-15678936D02*
X12163039Y-15659888D01*
X12163039Y-15659888D02*
X12163039Y-15602746D01*
X12163039Y-15602746D02*
X12172563Y-15583698D01*
X12172563Y-15583698D02*
X12182087Y-15574174D01*
X12182087Y-15574174D02*
X12201134Y-15564650D01*
X12201134Y-15564650D02*
X12229706Y-15564650D01*
X12229706Y-15564650D02*
X12248753Y-15574174D01*
X12248753Y-15574174D02*
X12258277Y-15583698D01*
X12258277Y-15583698D02*
X12267801Y-15602746D01*
X12267801Y-15602746D02*
X12267801Y-15659888D01*
X12267801Y-15659888D02*
X12258277Y-15678936D01*
X12258277Y-15678936D02*
X12248753Y-15688460D01*
X12248753Y-15688460D02*
X12229706Y-15697984D01*
X12229706Y-15697984D02*
X12201134Y-15697984D01*
X12382087Y-15697984D02*
X12363039Y-15688460D01*
X12363039Y-15688460D02*
X12353515Y-15669412D01*
X12353515Y-15669412D02*
X12353515Y-15497984D01*
X12534468Y-15688460D02*
X12515420Y-15697984D01*
X12515420Y-15697984D02*
X12477325Y-15697984D01*
X12477325Y-15697984D02*
X12458277Y-15688460D01*
X12458277Y-15688460D02*
X12448753Y-15669412D01*
X12448753Y-15669412D02*
X12448753Y-15593222D01*
X12448753Y-15593222D02*
X12458277Y-15574174D01*
X12458277Y-15574174D02*
X12477325Y-15564650D01*
X12477325Y-15564650D02*
X12515420Y-15564650D01*
X12515420Y-15564650D02*
X12534468Y-15574174D01*
X12534468Y-15574174D02*
X12543991Y-15593222D01*
X12543991Y-15593222D02*
X12543991Y-15612269D01*
X12543991Y-15612269D02*
X12448753Y-15631317D01*
X12620182Y-15688460D02*
X12639230Y-15697984D01*
X12639230Y-15697984D02*
X12677325Y-15697984D01*
X12677325Y-15697984D02*
X12696372Y-15688460D01*
X12696372Y-15688460D02*
X12705896Y-15669412D01*
X12705896Y-15669412D02*
X12705896Y-15659888D01*
X12705896Y-15659888D02*
X12696372Y-15640841D01*
X12696372Y-15640841D02*
X12677325Y-15631317D01*
X12677325Y-15631317D02*
X12648753Y-15631317D01*
X12648753Y-15631317D02*
X12629706Y-15621793D01*
X12629706Y-15621793D02*
X12620182Y-15602746D01*
X12620182Y-15602746D02*
X12620182Y-15593222D01*
X12620182Y-15593222D02*
X12629706Y-15574174D01*
X12629706Y-15574174D02*
X12648753Y-15564650D01*
X12648753Y-15564650D02*
X12677325Y-15564650D01*
X12677325Y-15564650D02*
X12696372Y-15574174D01*
X12772563Y-15774174D02*
X12782087Y-15764650D01*
X12782087Y-15764650D02*
X12801134Y-15736079D01*
X12801134Y-15736079D02*
X12810658Y-15717031D01*
X12810658Y-15717031D02*
X12820182Y-15688460D01*
X12820182Y-15688460D02*
X12829706Y-15640841D01*
X12829706Y-15640841D02*
X12829706Y-15602746D01*
X12829706Y-15602746D02*
X12820182Y-15555127D01*
X12820182Y-15555127D02*
X12810658Y-15526555D01*
X12810658Y-15526555D02*
X12801134Y-15507508D01*
X12801134Y-15507508D02*
X12782087Y-15478936D01*
X12782087Y-15478936D02*
X12772563Y-15469412D01*
X13134468Y-15774174D02*
X13124944Y-15764650D01*
X13124944Y-15764650D02*
X13105896Y-15736079D01*
X13105896Y-15736079D02*
X13096372Y-15717031D01*
X13096372Y-15717031D02*
X13086849Y-15688460D01*
X13086849Y-15688460D02*
X13077325Y-15640841D01*
X13077325Y-15640841D02*
X13077325Y-15602746D01*
X13077325Y-15602746D02*
X13086849Y-15555127D01*
X13086849Y-15555127D02*
X13096372Y-15526555D01*
X13096372Y-15526555D02*
X13105896Y-15507508D01*
X13105896Y-15507508D02*
X13124944Y-15478936D01*
X13124944Y-15478936D02*
X13134468Y-15469412D01*
X13210658Y-15564650D02*
X13210658Y-15697984D01*
X13210658Y-15583698D02*
X13220182Y-15574174D01*
X13220182Y-15574174D02*
X13239230Y-15564650D01*
X13239230Y-15564650D02*
X13267801Y-15564650D01*
X13267801Y-15564650D02*
X13286849Y-15574174D01*
X13286849Y-15574174D02*
X13296372Y-15593222D01*
X13296372Y-15593222D02*
X13296372Y-15697984D01*
X13420182Y-15697984D02*
X13401134Y-15688460D01*
X13401134Y-15688460D02*
X13391611Y-15678936D01*
X13391611Y-15678936D02*
X13382087Y-15659888D01*
X13382087Y-15659888D02*
X13382087Y-15602746D01*
X13382087Y-15602746D02*
X13391611Y-15583698D01*
X13391611Y-15583698D02*
X13401134Y-15574174D01*
X13401134Y-15574174D02*
X13420182Y-15564650D01*
X13420182Y-15564650D02*
X13448753Y-15564650D01*
X13448753Y-15564650D02*
X13467801Y-15574174D01*
X13467801Y-15574174D02*
X13477325Y-15583698D01*
X13477325Y-15583698D02*
X13486849Y-15602746D01*
X13486849Y-15602746D02*
X13486849Y-15659888D01*
X13486849Y-15659888D02*
X13477325Y-15678936D01*
X13477325Y-15678936D02*
X13467801Y-15688460D01*
X13467801Y-15688460D02*
X13448753Y-15697984D01*
X13448753Y-15697984D02*
X13420182Y-15697984D01*
X13543992Y-15564650D02*
X13620182Y-15564650D01*
X13572563Y-15497984D02*
X13572563Y-15669412D01*
X13572563Y-15669412D02*
X13582087Y-15688460D01*
X13582087Y-15688460D02*
X13601134Y-15697984D01*
X13601134Y-15697984D02*
X13620182Y-15697984D01*
X13839230Y-15564650D02*
X13839230Y-15764650D01*
X13839230Y-15574174D02*
X13858277Y-15564650D01*
X13858277Y-15564650D02*
X13896373Y-15564650D01*
X13896373Y-15564650D02*
X13915420Y-15574174D01*
X13915420Y-15574174D02*
X13924944Y-15583698D01*
X13924944Y-15583698D02*
X13934468Y-15602746D01*
X13934468Y-15602746D02*
X13934468Y-15659888D01*
X13934468Y-15659888D02*
X13924944Y-15678936D01*
X13924944Y-15678936D02*
X13915420Y-15688460D01*
X13915420Y-15688460D02*
X13896373Y-15697984D01*
X13896373Y-15697984D02*
X13858277Y-15697984D01*
X13858277Y-15697984D02*
X13839230Y-15688460D01*
X14048753Y-15697984D02*
X14029706Y-15688460D01*
X14029706Y-15688460D02*
X14020182Y-15669412D01*
X14020182Y-15669412D02*
X14020182Y-15497984D01*
X14210658Y-15697984D02*
X14210658Y-15593222D01*
X14210658Y-15593222D02*
X14201134Y-15574174D01*
X14201134Y-15574174D02*
X14182087Y-15564650D01*
X14182087Y-15564650D02*
X14143992Y-15564650D01*
X14143992Y-15564650D02*
X14124944Y-15574174D01*
X14210658Y-15688460D02*
X14191611Y-15697984D01*
X14191611Y-15697984D02*
X14143992Y-15697984D01*
X14143992Y-15697984D02*
X14124944Y-15688460D01*
X14124944Y-15688460D02*
X14115420Y-15669412D01*
X14115420Y-15669412D02*
X14115420Y-15650365D01*
X14115420Y-15650365D02*
X14124944Y-15631317D01*
X14124944Y-15631317D02*
X14143992Y-15621793D01*
X14143992Y-15621793D02*
X14191611Y-15621793D01*
X14191611Y-15621793D02*
X14210658Y-15612269D01*
X14277325Y-15564650D02*
X14353515Y-15564650D01*
X14305896Y-15497984D02*
X14305896Y-15669412D01*
X14305896Y-15669412D02*
X14315420Y-15688460D01*
X14315420Y-15688460D02*
X14334468Y-15697984D01*
X14334468Y-15697984D02*
X14353515Y-15697984D01*
X14496373Y-15688460D02*
X14477325Y-15697984D01*
X14477325Y-15697984D02*
X14439230Y-15697984D01*
X14439230Y-15697984D02*
X14420182Y-15688460D01*
X14420182Y-15688460D02*
X14410658Y-15669412D01*
X14410658Y-15669412D02*
X14410658Y-15593222D01*
X14410658Y-15593222D02*
X14420182Y-15574174D01*
X14420182Y-15574174D02*
X14439230Y-15564650D01*
X14439230Y-15564650D02*
X14477325Y-15564650D01*
X14477325Y-15564650D02*
X14496373Y-15574174D01*
X14496373Y-15574174D02*
X14505896Y-15593222D01*
X14505896Y-15593222D02*
X14505896Y-15612269D01*
X14505896Y-15612269D02*
X14410658Y-15631317D01*
X14677325Y-15697984D02*
X14677325Y-15497984D01*
X14677325Y-15688460D02*
X14658277Y-15697984D01*
X14658277Y-15697984D02*
X14620182Y-15697984D01*
X14620182Y-15697984D02*
X14601134Y-15688460D01*
X14601134Y-15688460D02*
X14591611Y-15678936D01*
X14591611Y-15678936D02*
X14582087Y-15659888D01*
X14582087Y-15659888D02*
X14582087Y-15602746D01*
X14582087Y-15602746D02*
X14591611Y-15583698D01*
X14591611Y-15583698D02*
X14601134Y-15574174D01*
X14601134Y-15574174D02*
X14620182Y-15564650D01*
X14620182Y-15564650D02*
X14658277Y-15564650D01*
X14658277Y-15564650D02*
X14677325Y-15574174D01*
X14753515Y-15774174D02*
X14763039Y-15764650D01*
X14763039Y-15764650D02*
X14782087Y-15736079D01*
X14782087Y-15736079D02*
X14791611Y-15717031D01*
X14791611Y-15717031D02*
X14801134Y-15688460D01*
X14801134Y-15688460D02*
X14810658Y-15640841D01*
X14810658Y-15640841D02*
X14810658Y-15602746D01*
X14810658Y-15602746D02*
X14801134Y-15555127D01*
X14801134Y-15555127D02*
X14791611Y-15526555D01*
X14791611Y-15526555D02*
X14782087Y-15507508D01*
X14782087Y-15507508D02*
X14763039Y-15478936D01*
X14763039Y-15478936D02*
X14753515Y-15469412D01*
X7897500Y-15770500D02*
X7897500Y-15970500D01*
X7797500Y-15870500D02*
X7997500Y-15870500D01*
X8248753Y-15781031D02*
X8258277Y-15771508D01*
X8258277Y-15771508D02*
X8277324Y-15761984D01*
X8277324Y-15761984D02*
X8324943Y-15761984D01*
X8324943Y-15761984D02*
X8343991Y-15771508D01*
X8343991Y-15771508D02*
X8353515Y-15781031D01*
X8353515Y-15781031D02*
X8363039Y-15800079D01*
X8363039Y-15800079D02*
X8363039Y-15819127D01*
X8363039Y-15819127D02*
X8353515Y-15847698D01*
X8353515Y-15847698D02*
X8239229Y-15961984D01*
X8239229Y-15961984D02*
X8363039Y-15961984D01*
X8448753Y-15942936D02*
X8458277Y-15952460D01*
X8458277Y-15952460D02*
X8448753Y-15961984D01*
X8448753Y-15961984D02*
X8439229Y-15952460D01*
X8439229Y-15952460D02*
X8448753Y-15942936D01*
X8448753Y-15942936D02*
X8448753Y-15961984D01*
X8629705Y-15828650D02*
X8629705Y-15961984D01*
X8582086Y-15752460D02*
X8534467Y-15895317D01*
X8534467Y-15895317D02*
X8658277Y-15895317D01*
X8772563Y-15761984D02*
X8791610Y-15761984D01*
X8791610Y-15761984D02*
X8810658Y-15771508D01*
X8810658Y-15771508D02*
X8820182Y-15781031D01*
X8820182Y-15781031D02*
X8829705Y-15800079D01*
X8829705Y-15800079D02*
X8839229Y-15838174D01*
X8839229Y-15838174D02*
X8839229Y-15885793D01*
X8839229Y-15885793D02*
X8829705Y-15923888D01*
X8829705Y-15923888D02*
X8820182Y-15942936D01*
X8820182Y-15942936D02*
X8810658Y-15952460D01*
X8810658Y-15952460D02*
X8791610Y-15961984D01*
X8791610Y-15961984D02*
X8772563Y-15961984D01*
X8772563Y-15961984D02*
X8753515Y-15952460D01*
X8753515Y-15952460D02*
X8743991Y-15942936D01*
X8743991Y-15942936D02*
X8734467Y-15923888D01*
X8734467Y-15923888D02*
X8724944Y-15885793D01*
X8724944Y-15885793D02*
X8724944Y-15838174D01*
X8724944Y-15838174D02*
X8734467Y-15800079D01*
X8734467Y-15800079D02*
X8743991Y-15781031D01*
X8743991Y-15781031D02*
X8753515Y-15771508D01*
X8753515Y-15771508D02*
X8772563Y-15761984D01*
X8963039Y-15761984D02*
X8982086Y-15761984D01*
X8982086Y-15761984D02*
X9001134Y-15771508D01*
X9001134Y-15771508D02*
X9010658Y-15781031D01*
X9010658Y-15781031D02*
X9020182Y-15800079D01*
X9020182Y-15800079D02*
X9029705Y-15838174D01*
X9029705Y-15838174D02*
X9029705Y-15885793D01*
X9029705Y-15885793D02*
X9020182Y-15923888D01*
X9020182Y-15923888D02*
X9010658Y-15942936D01*
X9010658Y-15942936D02*
X9001134Y-15952460D01*
X9001134Y-15952460D02*
X8982086Y-15961984D01*
X8982086Y-15961984D02*
X8963039Y-15961984D01*
X8963039Y-15961984D02*
X8943991Y-15952460D01*
X8943991Y-15952460D02*
X8934467Y-15942936D01*
X8934467Y-15942936D02*
X8924944Y-15923888D01*
X8924944Y-15923888D02*
X8915420Y-15885793D01*
X8915420Y-15885793D02*
X8915420Y-15838174D01*
X8915420Y-15838174D02*
X8924944Y-15800079D01*
X8924944Y-15800079D02*
X8934467Y-15781031D01*
X8934467Y-15781031D02*
X8943991Y-15771508D01*
X8943991Y-15771508D02*
X8963039Y-15761984D01*
X9115420Y-15961984D02*
X9115420Y-15828650D01*
X9115420Y-15847698D02*
X9124944Y-15838174D01*
X9124944Y-15838174D02*
X9143991Y-15828650D01*
X9143991Y-15828650D02*
X9172563Y-15828650D01*
X9172563Y-15828650D02*
X9191610Y-15838174D01*
X9191610Y-15838174D02*
X9201134Y-15857222D01*
X9201134Y-15857222D02*
X9201134Y-15961984D01*
X9201134Y-15857222D02*
X9210658Y-15838174D01*
X9210658Y-15838174D02*
X9229705Y-15828650D01*
X9229705Y-15828650D02*
X9258277Y-15828650D01*
X9258277Y-15828650D02*
X9277325Y-15838174D01*
X9277325Y-15838174D02*
X9286848Y-15857222D01*
X9286848Y-15857222D02*
X9286848Y-15961984D01*
X9382086Y-15961984D02*
X9382086Y-15828650D01*
X9382086Y-15847698D02*
X9391610Y-15838174D01*
X9391610Y-15838174D02*
X9410658Y-15828650D01*
X9410658Y-15828650D02*
X9439229Y-15828650D01*
X9439229Y-15828650D02*
X9458277Y-15838174D01*
X9458277Y-15838174D02*
X9467801Y-15857222D01*
X9467801Y-15857222D02*
X9467801Y-15961984D01*
X9467801Y-15857222D02*
X9477325Y-15838174D01*
X9477325Y-15838174D02*
X9496372Y-15828650D01*
X9496372Y-15828650D02*
X9524944Y-15828650D01*
X9524944Y-15828650D02*
X9543991Y-15838174D01*
X9543991Y-15838174D02*
X9553515Y-15857222D01*
X9553515Y-15857222D02*
X9553515Y-15961984D01*
X9943991Y-15752460D02*
X9772563Y-16009603D01*
X10201134Y-15761984D02*
X10220182Y-15761984D01*
X10220182Y-15761984D02*
X10239229Y-15771508D01*
X10239229Y-15771508D02*
X10248753Y-15781031D01*
X10248753Y-15781031D02*
X10258277Y-15800079D01*
X10258277Y-15800079D02*
X10267801Y-15838174D01*
X10267801Y-15838174D02*
X10267801Y-15885793D01*
X10267801Y-15885793D02*
X10258277Y-15923888D01*
X10258277Y-15923888D02*
X10248753Y-15942936D01*
X10248753Y-15942936D02*
X10239229Y-15952460D01*
X10239229Y-15952460D02*
X10220182Y-15961984D01*
X10220182Y-15961984D02*
X10201134Y-15961984D01*
X10201134Y-15961984D02*
X10182087Y-15952460D01*
X10182087Y-15952460D02*
X10172563Y-15942936D01*
X10172563Y-15942936D02*
X10163039Y-15923888D01*
X10163039Y-15923888D02*
X10153515Y-15885793D01*
X10153515Y-15885793D02*
X10153515Y-15838174D01*
X10153515Y-15838174D02*
X10163039Y-15800079D01*
X10163039Y-15800079D02*
X10172563Y-15781031D01*
X10172563Y-15781031D02*
X10182087Y-15771508D01*
X10182087Y-15771508D02*
X10201134Y-15761984D01*
X10353515Y-15942936D02*
X10363039Y-15952460D01*
X10363039Y-15952460D02*
X10353515Y-15961984D01*
X10353515Y-15961984D02*
X10343991Y-15952460D01*
X10343991Y-15952460D02*
X10353515Y-15942936D01*
X10353515Y-15942936D02*
X10353515Y-15961984D01*
X10486848Y-15761984D02*
X10505896Y-15761984D01*
X10505896Y-15761984D02*
X10524944Y-15771508D01*
X10524944Y-15771508D02*
X10534468Y-15781031D01*
X10534468Y-15781031D02*
X10543991Y-15800079D01*
X10543991Y-15800079D02*
X10553515Y-15838174D01*
X10553515Y-15838174D02*
X10553515Y-15885793D01*
X10553515Y-15885793D02*
X10543991Y-15923888D01*
X10543991Y-15923888D02*
X10534468Y-15942936D01*
X10534468Y-15942936D02*
X10524944Y-15952460D01*
X10524944Y-15952460D02*
X10505896Y-15961984D01*
X10505896Y-15961984D02*
X10486848Y-15961984D01*
X10486848Y-15961984D02*
X10467801Y-15952460D01*
X10467801Y-15952460D02*
X10458277Y-15942936D01*
X10458277Y-15942936D02*
X10448753Y-15923888D01*
X10448753Y-15923888D02*
X10439229Y-15885793D01*
X10439229Y-15885793D02*
X10439229Y-15838174D01*
X10439229Y-15838174D02*
X10448753Y-15800079D01*
X10448753Y-15800079D02*
X10458277Y-15781031D01*
X10458277Y-15781031D02*
X10467801Y-15771508D01*
X10467801Y-15771508D02*
X10486848Y-15761984D01*
X10648753Y-15961984D02*
X10686848Y-15961984D01*
X10686848Y-15961984D02*
X10705896Y-15952460D01*
X10705896Y-15952460D02*
X10715420Y-15942936D01*
X10715420Y-15942936D02*
X10734468Y-15914365D01*
X10734468Y-15914365D02*
X10743991Y-15876269D01*
X10743991Y-15876269D02*
X10743991Y-15800079D01*
X10743991Y-15800079D02*
X10734468Y-15781031D01*
X10734468Y-15781031D02*
X10724944Y-15771508D01*
X10724944Y-15771508D02*
X10705896Y-15761984D01*
X10705896Y-15761984D02*
X10667801Y-15761984D01*
X10667801Y-15761984D02*
X10648753Y-15771508D01*
X10648753Y-15771508D02*
X10639229Y-15781031D01*
X10639229Y-15781031D02*
X10629706Y-15800079D01*
X10629706Y-15800079D02*
X10629706Y-15847698D01*
X10629706Y-15847698D02*
X10639229Y-15866746D01*
X10639229Y-15866746D02*
X10648753Y-15876269D01*
X10648753Y-15876269D02*
X10667801Y-15885793D01*
X10667801Y-15885793D02*
X10705896Y-15885793D01*
X10705896Y-15885793D02*
X10724944Y-15876269D01*
X10724944Y-15876269D02*
X10734468Y-15866746D01*
X10734468Y-15866746D02*
X10743991Y-15847698D01*
X10915420Y-15828650D02*
X10915420Y-15961984D01*
X10867801Y-15752460D02*
X10820182Y-15895317D01*
X10820182Y-15895317D02*
X10943991Y-15895317D01*
X11115420Y-15761984D02*
X11020182Y-15761984D01*
X11020182Y-15761984D02*
X11010658Y-15857222D01*
X11010658Y-15857222D02*
X11020182Y-15847698D01*
X11020182Y-15847698D02*
X11039229Y-15838174D01*
X11039229Y-15838174D02*
X11086849Y-15838174D01*
X11086849Y-15838174D02*
X11105896Y-15847698D01*
X11105896Y-15847698D02*
X11115420Y-15857222D01*
X11115420Y-15857222D02*
X11124944Y-15876269D01*
X11124944Y-15876269D02*
X11124944Y-15923888D01*
X11124944Y-15923888D02*
X11115420Y-15942936D01*
X11115420Y-15942936D02*
X11105896Y-15952460D01*
X11105896Y-15952460D02*
X11086849Y-15961984D01*
X11086849Y-15961984D02*
X11039229Y-15961984D01*
X11039229Y-15961984D02*
X11020182Y-15952460D01*
X11020182Y-15952460D02*
X11010658Y-15942936D01*
X11201134Y-15761984D02*
X11201134Y-15800079D01*
X11277325Y-15761984D02*
X11277325Y-15800079D01*
X11572563Y-16038174D02*
X11563039Y-16028650D01*
X11563039Y-16028650D02*
X11543991Y-16000079D01*
X11543991Y-16000079D02*
X11534468Y-15981031D01*
X11534468Y-15981031D02*
X11524944Y-15952460D01*
X11524944Y-15952460D02*
X11515420Y-15904841D01*
X11515420Y-15904841D02*
X11515420Y-15866746D01*
X11515420Y-15866746D02*
X11524944Y-15819127D01*
X11524944Y-15819127D02*
X11534468Y-15790555D01*
X11534468Y-15790555D02*
X11543991Y-15771508D01*
X11543991Y-15771508D02*
X11563039Y-15742936D01*
X11563039Y-15742936D02*
X11572563Y-15733412D01*
X11734468Y-15828650D02*
X11734468Y-15961984D01*
X11686848Y-15752460D02*
X11639229Y-15895317D01*
X11639229Y-15895317D02*
X11763039Y-15895317D01*
X11991610Y-15961984D02*
X11991610Y-15761984D01*
X12077325Y-15961984D02*
X12077325Y-15857222D01*
X12077325Y-15857222D02*
X12067801Y-15838174D01*
X12067801Y-15838174D02*
X12048753Y-15828650D01*
X12048753Y-15828650D02*
X12020182Y-15828650D01*
X12020182Y-15828650D02*
X12001134Y-15838174D01*
X12001134Y-15838174D02*
X11991610Y-15847698D01*
X12201134Y-15961984D02*
X12182087Y-15952460D01*
X12182087Y-15952460D02*
X12172563Y-15942936D01*
X12172563Y-15942936D02*
X12163039Y-15923888D01*
X12163039Y-15923888D02*
X12163039Y-15866746D01*
X12163039Y-15866746D02*
X12172563Y-15847698D01*
X12172563Y-15847698D02*
X12182087Y-15838174D01*
X12182087Y-15838174D02*
X12201134Y-15828650D01*
X12201134Y-15828650D02*
X12229706Y-15828650D01*
X12229706Y-15828650D02*
X12248753Y-15838174D01*
X12248753Y-15838174D02*
X12258277Y-15847698D01*
X12258277Y-15847698D02*
X12267801Y-15866746D01*
X12267801Y-15866746D02*
X12267801Y-15923888D01*
X12267801Y-15923888D02*
X12258277Y-15942936D01*
X12258277Y-15942936D02*
X12248753Y-15952460D01*
X12248753Y-15952460D02*
X12229706Y-15961984D01*
X12229706Y-15961984D02*
X12201134Y-15961984D01*
X12382087Y-15961984D02*
X12363039Y-15952460D01*
X12363039Y-15952460D02*
X12353515Y-15933412D01*
X12353515Y-15933412D02*
X12353515Y-15761984D01*
X12534468Y-15952460D02*
X12515420Y-15961984D01*
X12515420Y-15961984D02*
X12477325Y-15961984D01*
X12477325Y-15961984D02*
X12458277Y-15952460D01*
X12458277Y-15952460D02*
X12448753Y-15933412D01*
X12448753Y-15933412D02*
X12448753Y-15857222D01*
X12448753Y-15857222D02*
X12458277Y-15838174D01*
X12458277Y-15838174D02*
X12477325Y-15828650D01*
X12477325Y-15828650D02*
X12515420Y-15828650D01*
X12515420Y-15828650D02*
X12534468Y-15838174D01*
X12534468Y-15838174D02*
X12543991Y-15857222D01*
X12543991Y-15857222D02*
X12543991Y-15876269D01*
X12543991Y-15876269D02*
X12448753Y-15895317D01*
X12620182Y-15952460D02*
X12639230Y-15961984D01*
X12639230Y-15961984D02*
X12677325Y-15961984D01*
X12677325Y-15961984D02*
X12696372Y-15952460D01*
X12696372Y-15952460D02*
X12705896Y-15933412D01*
X12705896Y-15933412D02*
X12705896Y-15923888D01*
X12705896Y-15923888D02*
X12696372Y-15904841D01*
X12696372Y-15904841D02*
X12677325Y-15895317D01*
X12677325Y-15895317D02*
X12648753Y-15895317D01*
X12648753Y-15895317D02*
X12629706Y-15885793D01*
X12629706Y-15885793D02*
X12620182Y-15866746D01*
X12620182Y-15866746D02*
X12620182Y-15857222D01*
X12620182Y-15857222D02*
X12629706Y-15838174D01*
X12629706Y-15838174D02*
X12648753Y-15828650D01*
X12648753Y-15828650D02*
X12677325Y-15828650D01*
X12677325Y-15828650D02*
X12696372Y-15838174D01*
X12772563Y-16038174D02*
X12782087Y-16028650D01*
X12782087Y-16028650D02*
X12801134Y-16000079D01*
X12801134Y-16000079D02*
X12810658Y-15981031D01*
X12810658Y-15981031D02*
X12820182Y-15952460D01*
X12820182Y-15952460D02*
X12829706Y-15904841D01*
X12829706Y-15904841D02*
X12829706Y-15866746D01*
X12829706Y-15866746D02*
X12820182Y-15819127D01*
X12820182Y-15819127D02*
X12810658Y-15790555D01*
X12810658Y-15790555D02*
X12801134Y-15771508D01*
X12801134Y-15771508D02*
X12782087Y-15742936D01*
X12782087Y-15742936D02*
X12772563Y-15733412D01*
X13134468Y-16038174D02*
X13124944Y-16028650D01*
X13124944Y-16028650D02*
X13105896Y-16000079D01*
X13105896Y-16000079D02*
X13096372Y-15981031D01*
X13096372Y-15981031D02*
X13086849Y-15952460D01*
X13086849Y-15952460D02*
X13077325Y-15904841D01*
X13077325Y-15904841D02*
X13077325Y-15866746D01*
X13077325Y-15866746D02*
X13086849Y-15819127D01*
X13086849Y-15819127D02*
X13096372Y-15790555D01*
X13096372Y-15790555D02*
X13105896Y-15771508D01*
X13105896Y-15771508D02*
X13124944Y-15742936D01*
X13124944Y-15742936D02*
X13134468Y-15733412D01*
X13210658Y-15828650D02*
X13210658Y-15961984D01*
X13210658Y-15847698D02*
X13220182Y-15838174D01*
X13220182Y-15838174D02*
X13239230Y-15828650D01*
X13239230Y-15828650D02*
X13267801Y-15828650D01*
X13267801Y-15828650D02*
X13286849Y-15838174D01*
X13286849Y-15838174D02*
X13296372Y-15857222D01*
X13296372Y-15857222D02*
X13296372Y-15961984D01*
X13420182Y-15961984D02*
X13401134Y-15952460D01*
X13401134Y-15952460D02*
X13391611Y-15942936D01*
X13391611Y-15942936D02*
X13382087Y-15923888D01*
X13382087Y-15923888D02*
X13382087Y-15866746D01*
X13382087Y-15866746D02*
X13391611Y-15847698D01*
X13391611Y-15847698D02*
X13401134Y-15838174D01*
X13401134Y-15838174D02*
X13420182Y-15828650D01*
X13420182Y-15828650D02*
X13448753Y-15828650D01*
X13448753Y-15828650D02*
X13467801Y-15838174D01*
X13467801Y-15838174D02*
X13477325Y-15847698D01*
X13477325Y-15847698D02*
X13486849Y-15866746D01*
X13486849Y-15866746D02*
X13486849Y-15923888D01*
X13486849Y-15923888D02*
X13477325Y-15942936D01*
X13477325Y-15942936D02*
X13467801Y-15952460D01*
X13467801Y-15952460D02*
X13448753Y-15961984D01*
X13448753Y-15961984D02*
X13420182Y-15961984D01*
X13543992Y-15828650D02*
X13620182Y-15828650D01*
X13572563Y-15761984D02*
X13572563Y-15933412D01*
X13572563Y-15933412D02*
X13582087Y-15952460D01*
X13582087Y-15952460D02*
X13601134Y-15961984D01*
X13601134Y-15961984D02*
X13620182Y-15961984D01*
X13839230Y-15828650D02*
X13839230Y-16028650D01*
X13839230Y-15838174D02*
X13858277Y-15828650D01*
X13858277Y-15828650D02*
X13896373Y-15828650D01*
X13896373Y-15828650D02*
X13915420Y-15838174D01*
X13915420Y-15838174D02*
X13924944Y-15847698D01*
X13924944Y-15847698D02*
X13934468Y-15866746D01*
X13934468Y-15866746D02*
X13934468Y-15923888D01*
X13934468Y-15923888D02*
X13924944Y-15942936D01*
X13924944Y-15942936D02*
X13915420Y-15952460D01*
X13915420Y-15952460D02*
X13896373Y-15961984D01*
X13896373Y-15961984D02*
X13858277Y-15961984D01*
X13858277Y-15961984D02*
X13839230Y-15952460D01*
X14048753Y-15961984D02*
X14029706Y-15952460D01*
X14029706Y-15952460D02*
X14020182Y-15933412D01*
X14020182Y-15933412D02*
X14020182Y-15761984D01*
X14210658Y-15961984D02*
X14210658Y-15857222D01*
X14210658Y-15857222D02*
X14201134Y-15838174D01*
X14201134Y-15838174D02*
X14182087Y-15828650D01*
X14182087Y-15828650D02*
X14143992Y-15828650D01*
X14143992Y-15828650D02*
X14124944Y-15838174D01*
X14210658Y-15952460D02*
X14191611Y-15961984D01*
X14191611Y-15961984D02*
X14143992Y-15961984D01*
X14143992Y-15961984D02*
X14124944Y-15952460D01*
X14124944Y-15952460D02*
X14115420Y-15933412D01*
X14115420Y-15933412D02*
X14115420Y-15914365D01*
X14115420Y-15914365D02*
X14124944Y-15895317D01*
X14124944Y-15895317D02*
X14143992Y-15885793D01*
X14143992Y-15885793D02*
X14191611Y-15885793D01*
X14191611Y-15885793D02*
X14210658Y-15876269D01*
X14277325Y-15828650D02*
X14353515Y-15828650D01*
X14305896Y-15761984D02*
X14305896Y-15933412D01*
X14305896Y-15933412D02*
X14315420Y-15952460D01*
X14315420Y-15952460D02*
X14334468Y-15961984D01*
X14334468Y-15961984D02*
X14353515Y-15961984D01*
X14496373Y-15952460D02*
X14477325Y-15961984D01*
X14477325Y-15961984D02*
X14439230Y-15961984D01*
X14439230Y-15961984D02*
X14420182Y-15952460D01*
X14420182Y-15952460D02*
X14410658Y-15933412D01*
X14410658Y-15933412D02*
X14410658Y-15857222D01*
X14410658Y-15857222D02*
X14420182Y-15838174D01*
X14420182Y-15838174D02*
X14439230Y-15828650D01*
X14439230Y-15828650D02*
X14477325Y-15828650D01*
X14477325Y-15828650D02*
X14496373Y-15838174D01*
X14496373Y-15838174D02*
X14505896Y-15857222D01*
X14505896Y-15857222D02*
X14505896Y-15876269D01*
X14505896Y-15876269D02*
X14410658Y-15895317D01*
X14677325Y-15961984D02*
X14677325Y-15761984D01*
X14677325Y-15952460D02*
X14658277Y-15961984D01*
X14658277Y-15961984D02*
X14620182Y-15961984D01*
X14620182Y-15961984D02*
X14601134Y-15952460D01*
X14601134Y-15952460D02*
X14591611Y-15942936D01*
X14591611Y-15942936D02*
X14582087Y-15923888D01*
X14582087Y-15923888D02*
X14582087Y-15866746D01*
X14582087Y-15866746D02*
X14591611Y-15847698D01*
X14591611Y-15847698D02*
X14601134Y-15838174D01*
X14601134Y-15838174D02*
X14620182Y-15828650D01*
X14620182Y-15828650D02*
X14658277Y-15828650D01*
X14658277Y-15828650D02*
X14677325Y-15838174D01*
X14753515Y-16038174D02*
X14763039Y-16028650D01*
X14763039Y-16028650D02*
X14782087Y-16000079D01*
X14782087Y-16000079D02*
X14791611Y-15981031D01*
X14791611Y-15981031D02*
X14801134Y-15952460D01*
X14801134Y-15952460D02*
X14810658Y-15904841D01*
X14810658Y-15904841D02*
X14810658Y-15866746D01*
X14810658Y-15866746D02*
X14801134Y-15819127D01*
X14801134Y-15819127D02*
X14791611Y-15790555D01*
X14791611Y-15790555D02*
X14782087Y-15771508D01*
X14782087Y-15771508D02*
X14763039Y-15742936D01*
X14763039Y-15742936D02*
X14753515Y-15733412D01*
M02*
